<svg id="Capa_1" data-name="Capa 1" xmlns="http://www.w3.org/2000/svg" xmlns:xlink="http://www.w3.org/1999/xlink" viewBox="0 0 585.1 316"><defs><style>.cls-1,.cls-45{fill:none;}.cls-2{clip-path:url(#clip-path);}.cls-3{fill:url(#Degradado_sin_nombre);}.cls-4{fill:url(#Degradado_sin_nombre_2);}.cls-5{opacity:0.3;}.cls-6{isolation:isolate;}.cls-7{fill:#6c5d4d;}.cls-8{fill:#544841;}.cls-9{fill:#f7d0a4;}.cls-10,.cls-35{fill:#ab8a66;}.cls-11{fill:url(#Degradado_sin_nombre_3);}.cls-12{fill:url(#Degradado_sin_nombre_4);}.cls-13{fill:url(#Degradado_sin_nombre_5);}.cls-14{fill:url(#Degradado_sin_nombre_6);}.cls-15{fill:url(#Degradado_sin_nombre_7);}.cls-16{fill:#1d1d1b;}.cls-17,.cls-18{fill:#2dab66;}.cls-17,.cls-19,.cls-20,.cls-21,.cls-22,.cls-23,.cls-24,.cls-25,.cls-26,.cls-27,.cls-40{stroke-miterlimit:10;}.cls-17{stroke-width:0.35px;stroke:url(#Degradado_sin_nombre_8);}.cls-19,.cls-20,.cls-21,.cls-22,.cls-23,.cls-24,.cls-25,.cls-26,.cls-27{stroke-width:0.06px;}.cls-19{fill:url(#Degradado_sin_nombre_9);stroke:url(#Degradado_sin_nombre_10);}.cls-20{fill:url(#Degradado_sin_nombre_11);stroke:url(#Degradado_sin_nombre_12);}.cls-21{fill:url(#Degradado_sin_nombre_13);stroke:url(#Degradado_sin_nombre_14);}.cls-22{fill:url(#Degradado_sin_nombre_15);stroke:url(#Degradado_sin_nombre_16);}.cls-23{fill:url(#Degradado_sin_nombre_17);stroke:url(#Degradado_sin_nombre_18);}.cls-24{fill:url(#Degradado_sin_nombre_19);stroke:url(#Degradado_sin_nombre_20);}.cls-25{fill:url(#Degradado_sin_nombre_21);stroke:url(#Degradado_sin_nombre_22);}.cls-26{fill:url(#Degradado_sin_nombre_23);stroke:url(#Degradado_sin_nombre_24);}.cls-27{fill:url(#Degradado_sin_nombre_25);stroke:url(#Degradado_sin_nombre_26);}.cls-28{fill:url(#Degradado_sin_nombre_27);}.cls-29{fill:url(#Degradado_sin_nombre_28);}.cls-30{fill:url(#Degradado_sin_nombre_29);}.cls-31{fill:url(#Degradado_sin_nombre_30);}.cls-32{fill:url(#Degradado_sin_nombre_31);}.cls-33{fill:url(#Degradado_sin_nombre_32);}.cls-34{opacity:0.8;}.cls-35,.cls-45{stroke:#544841;stroke-linejoin:round;}.cls-35{stroke-width:1.91px;}.cls-36{fill:#d5b08d;}.cls-37{fill:url(#Degradado_sin_nombre_33);}.cls-38,.cls-40{stroke:#000;}.cls-38{stroke-linejoin:bevel;stroke-width:1.05px;fill:url(#Degradado_sin_nombre_34);}.cls-39{fill:#fff;}.cls-40{stroke-width:2.09px;}.cls-41{fill:url(#Degradado_sin_nombre_35);}.cls-42{fill:url(#Degradado_sin_nombre_36);}.cls-43{fill:#3c3c3b;}.cls-44{fill:#554841;}.cls-45{stroke-width:1.98px;}.cls-46{fill:#6c5c4c;}</style><clipPath id="clip-path"><rect class="cls-1" x="-2.3" y="10.7" width="589.7" height="305.3"/></clipPath><linearGradient id="Degradado_sin_nombre" x1="377.17" y1="-29.07" x2="377.17" y2="113.68" gradientTransform="matrix(1, 0, 0, -1, -76, 316)" gradientUnits="userSpaceOnUse"><stop offset="0" stop-color="#55761a"/><stop offset="1" stop-color="#263d2c"/></linearGradient><linearGradient id="Degradado_sin_nombre_2" x1="287.42" y1="-4.32" x2="287.42" y2="63.64" gradientTransform="matrix(1, 0, 0, -1, 0, 316)" gradientUnits="userSpaceOnUse"><stop offset="0" stop-color="#9db33e"/><stop offset="1" stop-color="#365224"/></linearGradient><linearGradient id="Degradado_sin_nombre_3" x1="231.54" y1="-68.11" x2="231.54" y2="1.92" gradientTransform="matrix(1, 0.02, 0.02, -1, 56.63, 202.07)" gradientUnits="userSpaceOnUse"><stop offset="0.48" stop-color="#ab8a66"/><stop offset="0.99" stop-color="#d5b08d"/></linearGradient><linearGradient id="Degradado_sin_nombre_4" x1="228.88" y1="-34.19" x2="262.2" y2="-34.19" gradientTransform="matrix(1, -0.08, -0.08, -1, 37.82, 233.4)" gradientUnits="userSpaceOnUse"><stop offset="0.21" stop-color="#ef7d2d"/><stop offset="0.99" stop-color="#f29757"/></linearGradient><linearGradient id="Degradado_sin_nombre_5" x1="227" y1="-34.81" x2="260.12" y2="-34.81" gradientTransform="matrix(1, -0.08, -0.08, -1, 37.82, 233.4)" gradientUnits="userSpaceOnUse"><stop offset="0" stop-color="#ca6c26"/><stop offset="0.99" stop-color="#ef7d2d"/></linearGradient><linearGradient id="Degradado_sin_nombre_6" x1="227" y1="-34.88" x2="231.72" y2="-34.88" gradientTransform="matrix(1, -0.08, -0.08, -1, 37.82, 233.4)" gradientUnits="userSpaceOnUse"><stop offset="0"/><stop offset="0.99" stop-color="#3c3c3b"/></linearGradient><linearGradient id="Degradado_sin_nombre_7" x1="254.14" y1="-34.17" x2="262.2" y2="-34.17" xlink:href="#Degradado_sin_nombre_6"/><linearGradient id="Degradado_sin_nombre_8" x1="234.38" y1="-24.78" x2="251.04" y2="-24.78" gradientTransform="matrix(1, -0.08, -0.08, -1, 37.82, 233.4)" gradientUnits="userSpaceOnUse"><stop offset="0" stop-color="#3c3c3b"/><stop offset="0.99" stop-color="#575756"/></linearGradient><linearGradient id="Degradado_sin_nombre_9" x1="241.22" y1="-39.17" x2="243.66" y2="-37.12" xlink:href="#Degradado_sin_nombre_6"/><linearGradient id="Degradado_sin_nombre_10" x1="281.31" y1="61.86" x2="283.61" y2="64.16" gradientTransform="matrix(1, 0, 0, -1, 0, 316)" gradientUnits="userSpaceOnUse"><stop offset="0"/><stop offset="0.99" stop-color="#b2b2b2"/></linearGradient><linearGradient id="Degradado_sin_nombre_11" x1="246.51" y1="-39.33" x2="249.04" y2="-37.21" xlink:href="#Degradado_sin_nombre_6"/><linearGradient id="Degradado_sin_nombre_12" x1="286.6" y1="62.1" x2="288.98" y2="64.48" xlink:href="#Degradado_sin_nombre_10"/><linearGradient id="Degradado_sin_nombre_13" x1="236.18" y1="-39.06" x2="238.54" y2="-37.07" xlink:href="#Degradado_sin_nombre_6"/><linearGradient id="Degradado_sin_nombre_14" x1="276.27" y1="61.59" x2="278.5" y2="63.82" xlink:href="#Degradado_sin_nombre_10"/><linearGradient id="Degradado_sin_nombre_15" x1="241.23" y1="-44.62" x2="243.65" y2="-42.59" xlink:href="#Degradado_sin_nombre_6"/><linearGradient id="Degradado_sin_nombre_16" x1="281.73" y1="56.43" x2="284.01" y2="58.71" xlink:href="#Degradado_sin_nombre_10"/><linearGradient id="Degradado_sin_nombre_17" x1="246.51" y1="-44.88" x2="249.01" y2="-42.79" xlink:href="#Degradado_sin_nombre_6"/><linearGradient id="Degradado_sin_nombre_18" x1="287.02" y1="56.57" x2="289.37" y2="58.92" xlink:href="#Degradado_sin_nombre_10"/><linearGradient id="Degradado_sin_nombre_19" x1="236.2" y1="-44.41" x2="238.55" y2="-42.44" xlink:href="#Degradado_sin_nombre_6"/><linearGradient id="Degradado_sin_nombre_20" x1="276.7" y1="56.25" x2="278.91" y2="58.46" xlink:href="#Degradado_sin_nombre_10"/><linearGradient id="Degradado_sin_nombre_21" x1="241.3" y1="-50.15" x2="243.7" y2="-48.14" xlink:href="#Degradado_sin_nombre_6"/><linearGradient id="Degradado_sin_nombre_22" x1="282.22" y1="50.92" x2="284.48" y2="53.18" xlink:href="#Degradado_sin_nombre_10"/><linearGradient id="Degradado_sin_nombre_23" x1="246.48" y1="-50.41" x2="248.96" y2="-48.33" xlink:href="#Degradado_sin_nombre_6"/><linearGradient id="Degradado_sin_nombre_24" x1="287.41" y1="51.06" x2="289.74" y2="53.39" xlink:href="#Degradado_sin_nombre_10"/><linearGradient id="Degradado_sin_nombre_25" x1="236.23" y1="-49.77" x2="238.55" y2="-47.83" xlink:href="#Degradado_sin_nombre_6"/><linearGradient id="Degradado_sin_nombre_26" x1="277.14" y1="50.91" x2="279.32" y2="53.1" xlink:href="#Degradado_sin_nombre_10"/><linearGradient id="Degradado_sin_nombre_27" x1="264.37" y1="75.93" x2="268.1" y2="75.93" gradientTransform="matrix(0.98, -0.18, -0.18, -0.98, 32.93, 343.46)" gradientUnits="userSpaceOnUse"><stop offset="0.01" stop-color="#868686"/><stop offset="0.18" stop-color="#898989"/><stop offset="0.32" stop-color="#939393"/><stop offset="0.44" stop-color="#a3a3a3"/><stop offset="0.55" stop-color="#bababa"/><stop offset="0.66" stop-color="#d8d8d8"/><stop offset="0.72" stop-color="#ececec"/><stop offset="0.8" stop-color="#d0d0d0"/><stop offset="0.9" stop-color="#b9b9b9"/><stop offset="0.96" stop-color="#b1b1b1"/></linearGradient><linearGradient id="Degradado_sin_nombre_28" x1="264.41" y1="81.56" x2="268.02" y2="81.56" gradientTransform="matrix(0.98, -0.18, -0.18, -0.98, 32.93, 343.46)" gradientUnits="userSpaceOnUse"><stop offset="0" stop-color="#1d1d1b"/><stop offset="0.19" stop-color="#20201e"/><stop offset="0.34" stop-color="#2a2a28"/><stop offset="0.47" stop-color="#3a3a38"/><stop offset="0.59" stop-color="#50504f"/><stop offset="0.71" stop-color="#6d6d6c"/><stop offset="0.72" stop-color="#6f6f6e"/><stop offset="0.72" stop-color="#6e6e6d"/><stop offset="0.83" stop-color="#424241"/><stop offset="0.91" stop-color="#272725"/><stop offset="0.96" stop-color="#1d1d1b"/></linearGradient><linearGradient id="Degradado_sin_nombre_29" x1="264.42" y1="85.03" x2="267.98" y2="85.03" xlink:href="#Degradado_sin_nombre_28"/><linearGradient id="Degradado_sin_nombre_30" x1="259.87" y1="75.93" x2="263.66" y2="75.93" xlink:href="#Degradado_sin_nombre_27"/><linearGradient id="Degradado_sin_nombre_31" x1="260.05" y1="81.58" x2="263.69" y2="81.58" xlink:href="#Degradado_sin_nombre_28"/><linearGradient id="Degradado_sin_nombre_32" x1="260.13" y1="85.07" x2="263.69" y2="85.07" xlink:href="#Degradado_sin_nombre_28"/><radialGradient id="Degradado_sin_nombre_33" cx="274.7" cy="202.15" r="21.86" gradientTransform="matrix(1, 0, 0, -0.54, 0, 251.48)" gradientUnits="userSpaceOnUse"><stop offset="0.7" stop-color="#f7d0a4"/><stop offset="0.91" stop-color="#e0ba94"/><stop offset="1" stop-color="#d5b08d"/></radialGradient><linearGradient id="Degradado_sin_nombre_34" x1="274.87" y1="169.89" x2="275.76" y2="179.17" gradientTransform="matrix(1, 0, 0, -1, 0, 316)" gradientUnits="userSpaceOnUse"><stop offset="0" stop-color="#bf282e"/><stop offset="0.18" stop-color="#84282e"/><stop offset="0.39" stop-color="#48272d"/><stop offset="0.48" stop-color="#30272d"/></linearGradient><linearGradient id="Degradado_sin_nombre_35" x1="203.07" y1="199.79" x2="203.07" y2="207.86" gradientTransform="matrix(1.26, 0.03, -0.03, -1, 26.22, 318.9)" gradientUnits="userSpaceOnUse"><stop offset="0" stop-color="#6c5d4d" stop-opacity="0.8"/><stop offset="1"/></linearGradient><linearGradient id="Degradado_sin_nombre_36" x1="274.37" y1="178.73" x2="274.37" y2="191.4" gradientTransform="matrix(1, 0, 0, -1, 0, 316)" gradientUnits="userSpaceOnUse"><stop offset="0.06"/><stop offset="1" stop-color="#6c5d4d" stop-opacity="0.8"/></linearGradient></defs><g class="cls-2"><path class="cls-3" d="M522.2,321.1l14.5,1.8c-1-2.1,5.5-3.5,3.2-3.2.3-.4.5-1.3.9-1.1,2.8,1.8,5.8-1.2,2.4-4.6h-.1a4.27,4.27,0,1,0-4.9-7c1.1-1.4,1.7-3.6-.5-5.1-1.3-.9-3.4-1.2-4.4.3-.2-1.2-.4-2.8-3.6-3.1a4.24,4.24,0,0,0-4.9,3.3,4,4,0,0,0-3-3.4,4.05,4.05,0,0,0-4.3,1.7c-.2-1.6-1.7,9-3.3,9a3,3,0,0,0,1.6-2.5,3,3,0,0,0-3-2.9,3.79,3.79,0,0,0-2.9-6.9c2.3-.8,3.5-5.3,2.2-7.3a5.88,5.88,0,0,0-7.7-1.6c1.3-5.2-5.4-8.5-9.7-3.4a3.78,3.78,0,0,0-.4-4.8,3.91,3.91,0,0,0-4.9-.3c1.3-1.3,2-5.3-.3-7-3-2.2-5.3-.4-7.1.3,1.3-1.7,2.2-6-.5-8.4s-4.9-1.4-7.5.1c1.4-2.1,1.2-4.2-.6-5.1a4.79,4.79,0,0,0-4.8.7c.9-2.8.9-6.3-3.3-8.2-3.5-1.5-7.7,1.9-8.8,4.8a4.23,4.23,0,0,0-2.4-4.6c-.2-.1-.4-.1-.6-.2a.9.9,0,0,1-.5-.1h-1a4.09,4.09,0,0,0-2.8,1.8.37.37,0,0,0,.1-.3c-.1.1-.2.2-.2.3l-.2-1.2a2.3,2.3,0,0,0-4.5-.3,3.4,3.4,0,1,0-6.7-1.1,2.33,2.33,0,0,0-3.4-1.5,2.29,2.29,0,0,0-.4,3.3,2.25,2.25,0,0,0-2.7.2,2.31,2.31,0,0,0-.2,3.1,2.64,2.64,0,0,0-2.6-1.3,2.58,2.58,0,0,0-2.4,1.5h0c.9-2.4,1.4-6.1-2.2-5.5,3-1.5.8-4.1-1.1-2.8a2.44,2.44,0,0,0-.6-2.3,2.27,2.27,0,0,0-3.3.2,3,3,0,0,0-1.9-3.4,2.94,2.94,0,0,0-3.6,1.4,3.75,3.75,0,0,0-1.7-4.8,3.94,3.94,0,0,0-4.9,1.5c-1.8-1.7-5.3-.4-5.6,2.1a3.1,3.1,0,0,0-3-2.4,3,3,0,0,0-2.8,2.6,3.29,3.29,0,0,0-2.7-3.1,3.35,3.35,0,0,0-3.5,2,4.29,4.29,0,0,0-3.3-3.3,4.13,4.13,0,0,0-4.2,1.8,5.64,5.64,0,0,0-1.2-.4,4.33,4.33,0,0,0-1.6-.1,4.28,4.28,0,0,0-1.6.5,6.73,6.73,0,0,0-1.1.7,4.12,4.12,0,0,0-6.8,3.5,3.32,3.32,0,0,0-3.9-1.1,3.42,3.42,0,0,0-1.8,3.7,3,3,0,0,0-5.7,1.3c-.9-2.3-4.6-2.7-5.9-.6a3.72,3.72,0,0,0-5.1-.2v.1a3.7,3.7,0,0,0-.3,5,3.17,3.17,0,0,0-3.9-.4,3,3,0,0,0-.9,3.8,2.29,2.29,0,0,0-3.2.7,2.55,2.55,0,0,0,0,2.4,2.59,2.59,0,0,0-3.3.5,3.13,3.13,0,0,0-2.1-2.9,3.31,3.31,0,0,0-3.5,1,2.33,2.33,0,0,0-1-3,2.27,2.27,0,0,0-2.6.5,2.27,2.27,0,0,0-1.2-3.1A2.34,2.34,0,0,0,322,255a3.38,3.38,0,1,0-6.2,2.7h0c-1.3-2-4.5-.7-4.3,1.7l.1,1.1a4.5,4.5,0,0,0-5.4,0c.9-1.7-1.5-3.9-3.1-3a3,3,0,0,0-1-4.3,3,3,0,0,0-4,1.9,3.25,3.25,0,0,0-3.4-3.1,3.19,3.19,0,0,0-2.7,3.7,3.48,3.48,0,0,0-4.5,0,3.37,3.37,0,0,0-.1,4.5,3.1,3.1,0,0,0-3.5-.9,3.28,3.28,0,0,0-2,3,4.27,4.27,0,0,0-2.5-3.8,4.71,4.71,0,0,0-3.1,0,5,5,0,0,0-1.3.5,3.54,3.54,0,0,0-1.2,3.5,2.57,2.57,0,0,0-2.2-1.9A2.81,2.81,0,0,0,269,262a2.82,2.82,0,0,0-1-3.5,2.68,2.68,0,0,0-3.5.9,2.68,2.68,0,0,0-2.9-2.4,2.55,2.55,0,0,0-2,3.1,2.39,2.39,0,0,0-3.5-.7,2.45,2.45,0,0,0,.1,3.6,1.91,1.91,0,0,0-1.8,3,3.58,3.58,0,0,0-3.7.6c-.3-.1-.4-.2-.7-.3-.3-1.9-3.1-2.3-3.7-.4h0a2.73,2.73,0,1,0-5.4-.8,1.8,1.8,0,0,0-2.7-1.2,1.91,1.91,0,0,0-.3,2.7,2,2,0,0,0-2.2.1,1.75,1.75,0,0,0-.1,2.5,2.56,2.56,0,0,0-2.9-.1,2.64,2.64,0,0,0-1.1,2.7,2.13,2.13,0,0,0-2.7.3,1.73,1.73,0,0,0-.5-1.8,1.91,1.91,0,0,0-2.7.2,2.55,2.55,0,0,0-1.5-2.8,2.39,2.39,0,0,0-2.9,1.1,3.1,3.1,0,0,0-1.4-3.9,3.18,3.18,0,0,0-4,1.2,2.8,2.8,0,0,0-4.5,1.7,2.36,2.36,0,0,0-2.4-1.9,2.45,2.45,0,0,0-2.3,2.1,2.63,2.63,0,0,0-5.1-.8,3.29,3.29,0,0,0-2.7-2.7,3.42,3.42,0,0,0-3.4,1.4c-.3-.1-.6-.2-1-.3a5.7,5.7,0,0,0-1.3-.1,6.47,6.47,0,0,0-1.3.4,4.05,4.05,0,0,0-.9.5,3.35,3.35,0,0,0-3.7-.5,3.55,3.55,0,0,0-1.9,3.3,2.66,2.66,0,0,0-3.2-.9,2.82,2.82,0,0,0-1.5,3,2.43,2.43,0,0,0-2.7-1.5,2.58,2.58,0,0,0-1.9,2.5c-.7-1.9-3.8-2.2-4.8-.5a2.94,2.94,0,0,0-4.4,3.9,2.43,2.43,0,0,0-3.1-.3,2.62,2.62,0,0,0-.8,3.1,1.9,1.9,0,0,0-2.6.5,1.85,1.85,0,0,0,0,1.9,2.12,2.12,0,0,0-2.7.4,2.7,2.7,0,0,0-1.7-2.4,2.52,2.52,0,0,0-2.8.9,1.92,1.92,0,0,0-.8-2.4,1.83,1.83,0,0,0-2.1.4,1.87,1.87,0,0,0-1-2.5,1.83,1.83,0,0,0-2.3,1.9,2.76,2.76,0,0,0-3.6-1.5,3,3,0,0,0-1.4,3.7h0a1.9,1.9,0,0,0-3.5,1.2l.1,1a3.6,3.6,0,0,0-4.4,0c.7-1.4-1.2-3.2-2.5-2.4a2.47,2.47,0,0,0-.8-3.5,2.36,2.36,0,0,0-3.2,1.6,2.61,2.61,0,0,0-2.8-2.5,2.56,2.56,0,0,0-2.2,3,2.74,2.74,0,0,0-3.6,0,2.63,2.63,0,0,0-.1,3.6,2.52,2.52,0,0,0-2.8-.7,2.45,2.45,0,0,0-1.6,2.4,3.31,3.31,0,0,0-1.6-2.8h0a2.82,2.82,0,0,0-1.5-.4h-1a3.92,3.92,0,0,0-1.4.8h0a3.27,3.27,0,0,0-.8,3.1,2.57,2.57,0,0,0-2.2-1.9,2.81,2.81,0,0,0-2.6,1.4,2.82,2.82,0,0,0-1-3.5,2.68,2.68,0,0,0-3.5.9,2.68,2.68,0,0,0-2.9-2.4,2.55,2.55,0,0,0-2,3.1,2.39,2.39,0,0,0-3.5-.7,2.45,2.45,0,0,0,.1,3.6,1.91,1.91,0,0,0-1.8,3,3.71,3.71,0,0,0-4.2,1.1l-.1-1a1.91,1.91,0,0,0-3.7-.3,2.73,2.73,0,1,0-5.4-.8,1.8,1.8,0,0,0-2.7-1.2,1.91,1.91,0,0,0-.3,2.7,2,2,0,0,0-2.2.1,1.75,1.75,0,0,0-.1,2.5,2.56,2.56,0,0,0-2.9-.1,2.64,2.64,0,0,0-1.1,2.7,2.13,2.13,0,0,0-2.7.3c.1-1.5-4.7-1.5-5.7,1.4a13.4,13.4,0,0,0,0,6.7l3.5,7.8Z"/></g><g class="cls-2"><path class="cls-4" d="M538.7,317.7a14.45,14.45,0,0,0-20.2-17.6,23.45,23.45,0,0,0-3.1-3.2,14.38,14.38,0,0,0-4.9-3,15.63,15.63,0,0,0-5.6-1.2,21.63,21.63,0,0,0-4.4.2,14.2,14.2,0,0,0-22.2-6.6,18.18,18.18,0,0,0-4.5,5.5,11.18,11.18,0,0,0-21.9-1.7,10.65,10.65,0,0,0-7.3-11.3,10.53,10.53,0,0,0-12.2,5.5c-.9-15.8-17.7-11-17.6-10a17.53,17.53,0,0,0-1.7-6.1,13.33,13.33,0,0,0-13.1-5c-.1,0-.3.1-.4.1-4.4,1.9-7.5,6.9-8.9,11.9a13.56,13.56,0,0,0,.5-4.8c-.7-13.1-20.9-13.9-21.6.9.2-5.1-5.4-9.4-10.5-9.5a11.14,11.14,0,0,0-10.9,9,11.82,11.82,0,0,0-22.6-5.3,15.29,15.29,0,0,0-27.3-7.5,23.17,23.17,0,0,0-4.4-1.6,15,15,0,0,0-6-.6,16.45,16.45,0,0,0-5.8,1.4,23.21,23.21,0,0,0-4.1,2.2,15.88,15.88,0,0,0-16.5-3.3,15.64,15.64,0,0,0-9.5,14.5,12.34,12.34,0,0,0-14.3-4.8,12.18,12.18,0,0,0-7.4,13.1,11.28,11.28,0,0,0-12.1-7.4c-5.1.8-10.5,5.9-9.1,10.8-3.6-13-27.9-10.1-21.7,6.8-2.4-6.5-13.3-6.2-18.7-1.9s-5.7,10.7-5.7,16.5c0-5.2-3.1-9.3-9.5-8.7-5.2.5-8,5.2-5.9,9.9-3.6-2.9-6.9-2.3-10.6.1-2.5,1.7-2.7,5.3-2,8.2-2.2-8.9-11.1-5.9-12.6-1.5,2.1-6-6.5-8.4-7.2-1,.8-9.1-8.9-9.3-12.1-3.9a6.11,6.11,0,0,1-.7,1.4,6.11,6.11,0,0,1,.7-1.4c.7-2.2-.2-4.7-3.6-5.6-5.4-1.3-6.1,1.4-8.7,5.4.3-4.2-.5-5.8-4.9-7.6-5-2-11.3,2.5-11,7.9-2.1-6.3-9.9-10.1-16.1-7.8s-9.7,10.2-7.2,16.4c-4.4-8.1-16.6-4.7-16.2,4.5m308.3-40.2Z"/></g><g class="cls-5"><image class="cls-6" width="241" height="135" transform="translate(236.06 198.02)" xlink:href="3B629874.png"/></g><path class="cls-7" d="M303,285.8c-7.1,5.3-11.5,14.5-9.9,16.5s15.7-14.5,18.5-14.9S310.2,280.5,303,285.8Z"/><path class="cls-8" d="M303.3,286.2a28.29,28.29,0,0,0-8.6,10.8,9.18,9.18,0,0,0-1,3.2,3.27,3.27,0,0,0,0,1.4.35.35,0,0,0,.1.2h0l-.1-.1-.1-.1a1.58,1.58,0,0,0,.4-.1,15.63,15.63,0,0,0,2.7-2c.9-.8,1.7-1.6,2.6-2.4,3.5-3.2,6.7-6.6,10.6-9.6a3.51,3.51,0,0,1,.8-.5c.2-.1.3-.2.5-.2s.2-.1.3-.1h.2a.77.77,0,0,0,.3-.2V286a3.08,3.08,0,0,0-2.3-1.8,5.83,5.83,0,0,0-3.2.2A12.17,12.17,0,0,0,303.3,286.2Zm-.5-.7a12.57,12.57,0,0,1,3.2-1.8,7,7,0,0,1,3.8-.3,4.5,4.5,0,0,1,3.1,2.3,2.36,2.36,0,0,1,.1,1.2,1.44,1.44,0,0,1-1,1l-.3.1h-.1c-.1,0-.2.1-.3.2s-.4.3-.7.5a46.05,46.05,0,0,0-5.1,4.8c-1.7,1.7-3.4,3.3-5.1,5l-2.7,2.4a15.4,15.4,0,0,1-3.1,2.2,2.36,2.36,0,0,1-1.3.2.76.76,0,0,1-.5-.2c-.1-.1-.2-.1-.2-.2l-.1-.2-.3-.6a4.93,4.93,0,0,1,0-2.1,18.11,18.11,0,0,1,1.3-3.5,31.35,31.35,0,0,1,4-6A27.85,27.85,0,0,1,302.8,285.5Z"/><path class="cls-7" d="M320.3,284.6c-10.6,7.8-17.5,21.7-15.3,24.8s23.5-21.3,27.5-21.8S330.9,276.8,320.3,284.6Z"/><path class="cls-8" d="M320.6,285a45.4,45.4,0,0,0-13.2,16,31.23,31.23,0,0,0-1.8,4.8,6.52,6.52,0,0,0-.2,2.4,1.49,1.49,0,0,0,.3.8h0a.76.76,0,0,0,.4-.1,7.52,7.52,0,0,0,2.1-1.2,15.58,15.58,0,0,0,2-1.6c1.3-1.1,2.6-2.3,3.9-3.5,5.2-4.7,10.1-9.8,15.8-14.2a12.49,12.49,0,0,1,1.2-.8,4.54,4.54,0,0,1,1.4-.6.84.84,0,0,0,.7-.4,1.25,1.25,0,0,0,.1-.9,3.86,3.86,0,0,0-1.2-2,5.71,5.71,0,0,0-2.1-1.3,8.19,8.19,0,0,0-4.9,0A25.09,25.09,0,0,0,320.6,285Zm-.5-.7a13.75,13.75,0,0,1,4.8-2.5,9.36,9.36,0,0,1,5.5-.1,7.22,7.22,0,0,1,2.4,1.4,5.41,5.41,0,0,1,1.6,2.5,2.6,2.6,0,0,1-.2,1.7,2.15,2.15,0,0,1-1.5,1,2.6,2.6,0,0,0-1,.4l-1,.7a102.17,102.17,0,0,0-7.8,7.1c-2.5,2.4-5.1,4.9-7.7,7.3-1.3,1.2-2.6,2.4-4,3.5-.7.6-1.4,1.1-2.1,1.6a14.81,14.81,0,0,1-2.5,1.4,2,2,0,0,1-.9.2,1.58,1.58,0,0,1-1.2-.5,4,4,0,0,1-.6-1.6,9.23,9.23,0,0,1,.3-2.9,27.46,27.46,0,0,1,2-5,48.78,48.78,0,0,1,6-8.8A46,46,0,0,1,320.1,284.3Z"/><path class="cls-7" d="M306.2,290.1c-8.4,6.3-13.6,17.1-11.6,19.4s18.4-17,21.7-17.5S314.6,283.8,306.2,290.1Z"/><path class="cls-8" d="M306.5,290.5a34,34,0,0,0-10.2,12.7A17.06,17.06,0,0,0,295,307a4.82,4.82,0,0,0,0,1.7c0,.1.1.2.1.3v.1H295a.78.78,0,0,0,.5-.2,17.19,17.19,0,0,0,3.2-2.3l3.1-2.8c4.1-3.8,7.9-7.8,12.5-11.3l.9-.6.6-.3c.1,0,.2-.1.3-.1h.2c.2-.1.3-.1.4-.3s0-.4-.1-.6a4.24,4.24,0,0,0-2.8-2.2,7.45,7.45,0,0,0-3.9.2A14.53,14.53,0,0,0,306.5,290.5Zm-.5-.7a12.78,12.78,0,0,1,3.8-2.1,7.34,7.34,0,0,1,4.4-.3,5.43,5.43,0,0,1,3.6,2.7,1.69,1.69,0,0,1,.1,1.4c-.1.5-.7.9-1.1,1.1l-.3.1a.31.31,0,0,0-.2.1.76.76,0,0,0-.4.2c-.3.2-.5.3-.8.5-2.1,1.7-4.1,3.7-6.1,5.6s-4,3.9-6,5.8c-1,1-2.1,1.9-3.1,2.8a19.15,19.15,0,0,1-3.6,2.5,3.06,3.06,0,0,1-1.5.3,1.42,1.42,0,0,1-.6-.2l-.2-.2-.1-.2c-.2-.2-.2-.5-.3-.7a6.43,6.43,0,0,1,0-2.4,18.19,18.19,0,0,1,1.5-4.1,34.28,34.28,0,0,1,4.7-7A31.33,31.33,0,0,1,306,289.8Z"/><path class="cls-7" d="M262.5,271.5c-6.8,3.8-11.6,11.2-10.4,13.1s15.2-10.7,17.6-10.7S269.3,267.7,262.5,271.5Z"/><path class="cls-8" d="M262.8,271.9a24.42,24.42,0,0,0-8.6,8.3,12.64,12.64,0,0,0-1.3,2.6,2.55,2.55,0,0,0-.1,1.2c0,.1,0,.1.1.1h0V284l-.1-.1c-.1,0,.1,0,.3-.1a10.49,10.49,0,0,0,2.5-1.4c.8-.5,1.7-1.2,2.5-1.7,3.4-2.3,6.5-4.9,10.3-7a6.89,6.89,0,0,1,.8-.3c.2,0,.3-.1.5-.1h.4c.1,0,.2,0,.2-.1s.1-.2,0-.4a2.91,2.91,0,0,0-1.8-1.8A7.55,7.55,0,0,0,262.8,271.9Zm-.5-.8a13.43,13.43,0,0,1,3-1.2,6.2,6.2,0,0,1,3.3.2,4,4,0,0,1,2.5,2.4,1.45,1.45,0,0,1-.1,1.1,1.89,1.89,0,0,1-1,.8h-.4c-.1,0-.2.1-.3.1l-.6.3c-1.7,1-3.3,2.3-5,3.5s-3.3,2.5-5,3.7c-.8.6-1.7,1.2-2.6,1.8a13.23,13.23,0,0,1-2.9,1.5,1.6,1.6,0,0,1-1.2,0c-.3,0-.7-.5-.7-.6s-.1-.4-.2-.6a4,4,0,0,1,.3-1.9,13.23,13.23,0,0,1,1.5-2.9,23.55,23.55,0,0,1,4.2-4.7C258.8,273.4,260.5,272.2,262.3,271.1Z"/><path class="cls-7" d="M277.6,272.5c-10,5.5-17.6,16.6-16,19.6s22.7-15.7,26.2-15.6S287.6,267,277.6,272.5Z"/><path class="cls-8" d="M277.8,272.8a38.6,38.6,0,0,0-13.1,12.3,24.79,24.79,0,0,0-2.1,3.9,7.87,7.87,0,0,0-.4,2,5.64,5.64,0,0,0,.1.7.1.1,0,0,0-.1-.1h.3a7.71,7.71,0,0,0,1.9-.8c.6-.4,1.3-.7,1.9-1.1,1.3-.8,2.5-1.7,3.8-2.5,5-3.5,9.8-7.3,15.2-10.4a5.36,5.36,0,0,1,1.1-.5,5,5,0,0,1,1.3-.3.85.85,0,0,0,.6-.2,1.17,1.17,0,0,0,.2-.7,4.13,4.13,0,0,0-2.4-3.1,6.76,6.76,0,0,0-4.2-.5A10.35,10.35,0,0,0,277.8,272.8Zm-.5-.7a13.87,13.87,0,0,1,4.4-1.7,7.27,7.27,0,0,1,4.8.6,4.91,4.91,0,0,1,3,3.9,2.15,2.15,0,0,1-.4,1.5,1.8,1.8,0,0,1-1.5.7,4,4,0,0,0-1.8.8c-2.6,1.5-5,3.4-7.5,5.2s-4.9,3.6-7.4,5.4c-1.3.9-2.5,1.7-3.9,2.6-.7.4-1.3.8-2,1.2a7.89,7.89,0,0,1-2.3.9,2.13,2.13,0,0,1-.8,0,1.22,1.22,0,0,1-1-.6,3.06,3.06,0,0,1-.3-1.5,10.15,10.15,0,0,1,.6-2.5,20.56,20.56,0,0,1,2.3-4.1,40.75,40.75,0,0,1,6.2-6.9A39.62,39.62,0,0,1,277.3,272.1Z"/><path class="cls-7" d="M264.8,275.6c-7.9,4.4-13.6,13.1-12.2,15.4s17.8-12.5,20.7-12.6S272.7,271.1,264.8,275.6Z"/><path class="cls-8" d="M265,276a29.9,29.9,0,0,0-10.2,9.8,12.66,12.66,0,0,0-1.5,3.1,3.9,3.9,0,0,0-.2,1.4c0,.1,0,.2.1.2h0v-.1l-.1-.1a1.58,1.58,0,0,0,.4-.1,14.59,14.59,0,0,0,3-1.6c1-.6,2-1.4,3-2,4-2.8,7.7-5.8,12-8.3.3-.1.6-.3.9-.4s.3-.1.5-.2h.5c.2,0,.2-.1.3-.2a.45.45,0,0,0,0-.5,3.15,3.15,0,0,0-2.1-2.1,6.13,6.13,0,0,0-3.3-.2A12,12,0,0,0,265,276Zm-.4-.8a15.06,15.06,0,0,1,3.5-1.4,7,7,0,0,1,3.8.2,4.34,4.34,0,0,1,2.8,2.8,2,2,0,0,1-.1,1.3,1.27,1.27,0,0,1-1.1.8h-.4c-.1,0-.2.1-.3.1a2.51,2.51,0,0,0-.7.4c-2,1.2-3.9,2.7-5.8,4.1l-5.8,4.3-3,2.1a27.13,27.13,0,0,1-3.4,1.8,3,3,0,0,1-1.4.1c-.2,0-.3-.2-.5-.3s-.1-.2-.2-.2l-.1-.2a1.45,1.45,0,0,1-.2-.7,4.66,4.66,0,0,1,.3-2.1,15.87,15.87,0,0,1,1.8-3.4,28.77,28.77,0,0,1,4.9-5.5A32.8,32.8,0,0,1,264.6,275.2Z"/><path class="cls-9" d="M442.7,218.4c-47.5,5-71.1,19.7-83.4,15.4.7-19.6-12.2-29.8-14.5-41.6-2.2-11-12.8-21.2-18.4-24.7a13,13,0,0,1,.4-3.2c8.8-5.3,10.1-14.3,9.4-21.2-.4-8.2-6-21.2-7.2-26.2-.3-1.5,2-3,3.4-3.2,1.9-.3-1.7-4-6.1-5.7-.6-.2,3.7-1.4,3.6-2.1-.2-2.1-2.1-3.5-4.9-3.6,9.1-5.9,15.4-25.7,9.1-32.6-5.3-5.7-22.9-2.1-31.3,5.8,0,0-15.8-12.8-21.3-12.8-1.1,0,.4,5.9-.7,6-1.5-.1-7.9-5-9-3.8-.8,1,2.6,5.7,1.5,6.1a3.14,3.14,0,0,1-1.3-.1c-4-4.6-15.9-10.2-22.1-7.3-7,3.3-2.4,23.1,1.2,26.9-9.3,12.4-18.5,29.7-19.3,45.4-.7,13,4.4,24.8,19.9,31.8v0h0c0,.1.2-.2.2-.2-2.7,4-19.8,30.7-4,40.6-1.1,10.2-11.8,58,27.2,77,15.8,6,23.3,7.2,33.3,7.2,8.2,0,36.3,0,47.2-30.1,34.3-14.4,41.2-27.6,88.9-34.1C455.3,226,451.3,217.5,442.7,218.4Z"/><path class="cls-10" d="M264.8,257.5l1.2-1.4,1.4.4,1.4-3,9.5,8.2A29.41,29.41,0,0,1,282,257c.6-.6,4.1,5.1,4.7,4.5,2.3-2.4,5.1-6.9,7.5-4.8,1,.8,4.5,3.6,5.4,2.9,1.5-1.1,2.1-7.4,2.6-8.4s3.6,6.7,4.7,6.6c2.1-.2,5-3.9,5-3.9l2.8,9.5A18.3,18.3,0,0,1,296.4,281H283.2A18.28,18.28,0,0,1,265,263.4Z"/><path class="cls-11" d="M269.3,241.1c0-1.1,0-2.1.1-3.2a1.85,1.85,0,0,0,.2-.7c.1-2.1.2-4.2.4-6.2a2.67,2.67,0,0,1,1.3-2.1,5.94,5.94,0,0,0,.8-.4,4,4,0,0,1,2.1-.9c.5-.1.9-.1,1.4-.2l3-.6c-.4-2.8-.8-5.5-1.3-8.2a22,22,0,0,1-.4-5.1,1.7,1.7,0,0,1,.1-.7,2,2,0,0,0,.2-1.1v-1.9a5.93,5.93,0,0,1,1-2.8,3.82,3.82,0,0,1,3.6-1.9,2.39,2.39,0,0,0,.9-.2,2.27,2.27,0,0,1,2.7.5,9.06,9.06,0,0,1,1.1,1.6,12.94,12.94,0,0,1,1.2,3.8l2.7,13.2c0,.2.2.4.2.6,2.5-.5,5-.8,7.5-1.3a2.12,2.12,0,0,1,2.7,1.6c.6,2.3,1.2,4.7,1.7,7s.9,4.6,1.2,6.9c.2,1.6.4,3.1.6,4.7.1.6.1,1.2.2,1.9.1,1,.2,2,.3,2.9.1,1.1.1,2.2.2,3.4a35.4,35.4,0,0,1,.2,4.6,95.15,95.15,0,0,1-.7,14.1,4.56,4.56,0,0,1-1.1,2.9,10.1,10.1,0,0,1-1.6,1.3,2.55,2.55,0,0,1-2.1.4,37.25,37.25,0,0,0-4.7-.4c-6.4-.2-12.8-.3-19.2-.4H275a1.71,1.71,0,0,1-1.7-1.3,14.16,14.16,0,0,1-.7-2.2c-.7-2.8-1.2-5.7-1.7-8.6-.2-1.3-.4-2.7-.5-4s-.2-2.6-.4-3.9a42.1,42.1,0,0,1-.4-5c-.1-1.8-.1-3.6-.1-5.4v-2A1.85,1.85,0,0,1,269.3,241.1Zm11.7-34a2.73,2.73,0,0,0-1.8,1.5,6.25,6.25,0,0,0-.4,3c0,.2.2.4.3.6a1.38,1.38,0,0,1,.3.4c.4,1.1.8,2.2,1.1,3.3.5,2.5.9,5,1.3,7.5a17,17,0,0,0,.4,2.2c.1.3.2.5.6.3,0-.1.1-.2,0-.2-.4-2.5-.9-4.9-1.3-7.4a27.6,27.6,0,0,1-.6-5.7,1.7,1.7,0,0,1,.1-.7,2.08,2.08,0,0,0,.1-1.1c0-.6-.1-1.1-.1-1.7Zm6.2,18.1c-.8-3.9-1.5-7.8-2.3-11.6-.3-1.3-.6-2.5-.9-3.7a4.25,4.25,0,0,0-1-1.7,11.33,11.33,0,0,0,.1,3.2,1.79,1.79,0,0,1,.5.7,28.27,28.27,0,0,1,1.1,3.1c.6,2.5,1,5,1.5,7.6a23.81,23.81,0,0,1,.5,2.6c0,.1.1.1.2.2C287,225.3,287.1,225.2,287.2,225.2Z"/><image class="cls-6" width="13" height="22" transform="translate(274.1 203.98) scale(0.93)" xlink:href="FB1C384E.png"/><image class="cls-6" width="10" height="22" transform="translate(278.14 203.53) scale(0.94)" xlink:href="FB1C3852.png"/><path class="cls-12" d="M301.4,270.3v.4c-.1,1-2.6,3.3-3.7,3.2L274,271.8a2,2,0,0,1-1.8-1.6c0-.1-.1-.2-.1-.3a113.28,113.28,0,0,1-3.3-20.5,123,123,0,0,1,.1-20.8c0-.1-1.9.9-1.9.8.1-.9,2.6-2.8,3.5-3l25-4.4a2,2,0,0,1,2.3,1.4c0,.1.1.3.1.4a120.45,120.45,0,0,1,4,23.1A130.43,130.43,0,0,1,301.4,270.3Z"/><path class="cls-13" d="M299.4,271.8v.4a2,2,0,0,1-2,1.7l-25.3-.6a2,2,0,0,1-1.8-1.6c0-.1-.1-.2-.1-.3a113.28,113.28,0,0,1-3.3-20.5,123,123,0,0,1,.1-20.8v-.4a2.27,2.27,0,0,1,1.6-1.9l25-4.4a2,2,0,0,1,2.3,1.4c0,.1.1.3.1.4a120.45,120.45,0,0,1,4,23.1A128.17,128.17,0,0,1,299.4,271.8Z"/><path class="cls-14" d="M269.9,270.5h3.2a109.3,109.3,0,0,1-3.3-19.8,112.53,112.53,0,0,1,.2-20.1l-3.1.5a114.05,114.05,0,0,0,0,19.8A102.6,102.6,0,0,0,269.9,270.5Z"/><path class="cls-15" d="M298.1,224.8a5.37,5.37,0,0,1-2,1.5h0l-3.9.6a113.76,113.76,0,0,1,3.8,21.7,110.87,110.87,0,0,1-.4,22.1h4c1.1-.1,2-1.5,2-1.5a115.5,115.5,0,0,0,.3-22.4A120.15,120.15,0,0,0,298.1,224.8Z"/><path class="cls-16" d="M271.6,230.3a140.54,140.54,0,0,0,3.1,40.2l19.1.2a138.22,138.22,0,0,0,.1-21.9,128.63,128.63,0,0,0-3.4-21.6Z"/><path class="cls-17" d="M290.2,243.2a2.05,2.05,0,0,1-1.8,2.3l-12.5,1.1a1.81,1.81,0,0,1-1.9-1.8l-.6-8.1a1.94,1.94,0,0,1,1.6-2.2l12.4-1.8a2,2,0,0,1,2.2,1.8Z"/><path class="cls-18" d="M290.3,243.2a2.06,2.06,0,0,1-1.9,2.3l-12.6,1.1a1.76,1.76,0,0,1-1.9-1.8l-.6-8.2a2.11,2.11,0,0,1,1.6-2.3l12.5-1.8a2,2,0,0,1,2.2,1.9Z"/><path class="cls-19" d="M284,252.9a1.67,1.67,0,0,1-1.4,1.8,1.73,1.73,0,0,1-1.7-1.6,1.56,1.56,0,1,1,3.1-.2Z"/><path class="cls-20" d="M289.4,252.6a1.61,1.61,0,1,1-1.7-1.6A1.65,1.65,0,0,1,289.4,252.6Z"/><path class="cls-21" d="M278.9,253.2a1.51,1.51,0,0,1-1.4,1.7,1.62,1.62,0,0,1-1.6-1.5,1.45,1.45,0,0,1,1.4-1.7A1.55,1.55,0,0,1,278.9,253.2Z"/><path class="cls-22" d="M284.4,258.4a1.51,1.51,0,0,1-1.4,1.7,1.73,1.73,0,0,1-1.7-1.6,1.51,1.51,0,0,1,1.4-1.7A1.6,1.6,0,0,1,284.4,258.4Z"/><path class="cls-23" d="M289.8,258.2a1.67,1.67,0,0,1-1.5,1.8,1.83,1.83,0,0,1-1.8-1.6,1.65,1.65,0,1,1,3.3-.2Z"/><path class="cls-24" d="M279.3,258.6a1.51,1.51,0,0,1-1.4,1.7,1.72,1.72,0,0,1-1.6-1.6,1.5,1.5,0,0,1,1.4-1.7A1.72,1.72,0,0,1,279.3,258.6Z"/><path class="cls-25" d="M284.9,263.9a1.51,1.51,0,0,1-1.4,1.7,1.73,1.73,0,0,1-1.7-1.6,1.51,1.51,0,0,1,1.4-1.7A1.65,1.65,0,0,1,284.9,263.9Z"/><path class="cls-26" d="M290.2,263.8a1.53,1.53,0,0,1-1.5,1.7,1.84,1.84,0,0,1-1.8-1.7,1.53,1.53,0,0,1,1.5-1.7A1.71,1.71,0,0,1,290.2,263.8Z"/><path class="cls-27" d="M279.7,264a1.57,1.57,0,0,1-1.4,1.7,1.72,1.72,0,0,1-1.6-1.6,1.5,1.5,0,0,1,1.4-1.7A1.58,1.58,0,0,1,279.7,264Z"/><path class="cls-16" d="M276.2,242.1l1.9-.2-.6-4.4.7-.1.6,4.5-.7.1.1.7-2.1.2.1-.8-.7.2-.3-2.2.6-.1-.1-.7,1.4-.2.1.8-1.2.1Z"/><path class="cls-16" d="M282.3,239l-2.1.3.4,3.1-.8.1-.4-3.1.7-.1-.1-.8,2.3-.4v.9l.8-.2.4,3.3-.8.1Zm-1.4.9.8-.1.3,2.4-.8.1Z"/><polygon class="cls-16" points="285.3 241 284.4 241.2 284 238.7 284.9 238.5 285.3 241"/><polygon class="cls-16" points="284.9 238.6 284.7 237.7 286.8 237.4 286.9 238.3 284.9 238.6"/><polygon class="cls-16" points="285.3 241.9 285.2 241 286 240.9 286.1 241.8 285.3 241.9"/><polygon class="cls-16" points="286.6 241.7 286.5 240.8 288.2 240.6 288.3 241.5 286.6 241.7"/><polygon class="cls-16" points="288 239.9 287.1 240 286.8 238.3 287.7 238.1 288 239.9"/><polygon class="cls-28" points="283.8 224.6 280.1 225.3 278.8 217.7 282.3 217 283.8 224.6"/><polygon class="cls-29" points="281.7 213.5 278.2 214.2 278.8 217.7 282.3 217 281.7 213.5"/><polygon class="cls-30" points="280.5 210.3 278.1 210.7 278.2 214.2 281.7 213.5 280.5 210.3"/><polygon class="cls-31" points="279.4 225.4 275.7 226.1 274.5 218.4 278.1 217.8 279.4 225.4"/><polygon class="cls-32" points="277.4 214.3 273.9 214.9 274.5 218.4 278.1 217.8 277.4 214.3"/><polygon class="cls-33" points="276.3 211 273.9 211.5 273.9 214.9 277.4 214.3 276.3 211"/><g class="cls-34"><image class="cls-6" width="108" height="91" transform="translate(231.06 219.02)" xlink:href="3B62987A.png"/></g><path class="cls-9" d="M263.5,259.6l2.2-2,2.8,4.1c1.4,3.2,2.2,1.1,3,.1l.8-1c2.3-3.4,2.1-1,2.9-.1l3.6,4.1a1.9,1.9,0,0,0,2.9-.1,19.91,19.91,0,0,1,2.4-2.8c.6-.6,4.1,5.1,4.7,4.5,2.3-2.4,2.4-9.6,7.5-4.8.9.9,2.5,2.9,3.4,2.2,1.5-1.1.7-4.7,1.2-5.7s4.6,4.3,5.6,4.3c2.1-.2,5.3-8.4,5.3-8.4l3.7,8.8a23.31,23.31,0,0,1-22.7,23.8H291a27,27,0,0,1-27.6-26.3Z"/><path class="cls-35" d="M273.3,73.8c.5-4.4-15.8-13.9-23.5-10.3s-1.2,27.6,2.4,27.6S272.7,78.2,273.3,73.8Z"/><path class="cls-10" d="M351.3,226.1c9.3,20.7,31.8-1.8,91.1-7.4,8.7-.8,12.6,7.6,1.7,9.6-52.6,7.2-55.5,22.4-100.3,38.5Z"/><path class="cls-7" d="M449.2,220.2c2.4,2.4-2.9,4.7-9.7,5.7-38.1,4-46.1,7.6-65.7,21.5-17.6,12.5-12.9-4.7-13.7-10.8.3-6.9-3.5-5.6-3.5-5.6l-12.7,35.8c44.8-16.1,47.7-31.3,100.3-38.5C450.2,227.5,452.9,223.2,449.2,220.2Z"/><path class="cls-36" d="M358.1,233.6c0-26.6-5.5-11.3-17.8-53-.5-1.7-6.7.5-14.1-13.2,0,0-16.7-7.9-13.3,4.6,5.6,20.8-21.4,3.9-19.9,32,0,4.4,0,12.1,6.4,14.2,14.8-18.2,18.8-8.4,25.7-11.5.7-.3,9,12.6,7.8,27.9-.1.7-2.1,3.3-2.1,3.9s2-.7,1.9-.1-4.3,4.6-4.3,5.3c-.1,1,4-1.3,3.8-.3-5.5,42.9-35.3,48.7-47.2,44.3-9.1-3.3-17.9-10-20.5-18.5-.1-.4,3.3.1,3.2-.3s-4.2-1.9-4.3-2.3,2.7-.6,2.6-1-3.3-2.5-3.3-2.8,2.7.3,2.6-.1-3.2-3.2-3.3-3.6c-5.6-15.4-6.3-43.6-4.8-46.5,2.4-4.8,8.9,17.2,12.3-1.6,1.5-8.3-5.4-20.3-10.7-23.5-10.2-6.3,3.5-7.8,2.3-10.4-1.6-3.7.1-8.5,13.3-9.9-19.8-3.9-22.8.3-22.8.3-5.5,9.6-17.5,30.2-3.8,40.8l-.3,5.6c0,17.1-11.1,48,26.8,71,15.8,6,23.3,7.2,33.3,7.2,8.2,0,36.4,0,47.2-30.1C358.4,260.3,358.1,232.5,358.1,233.6Z"/><path class="cls-10" d="M255.6,178.3l3-8-2.7,5.2-5.7-5-7,12.2c-2.2,9.8-4.5,10.3,4.6,25.4l-.3,5.6c0,14.9-11,42,22,68.1-11.1-6.9-15.3-18.5-17.3-41.5,0-.3,1,.1,1.1-.1s-1.2-1.4-1.2-1.7c0-.5,1.5-.1,1.5-.6s-1.7-1.7-1.8-2.1c-.6-10.3-1.3-21.1.2-22.3,3.3-2.8,8.7,1.9,8.7,1.9,2.5.3-6.2-4.7-4.8-4.2C241.2,209.4,246.4,172,255.6,178.3Z"/><path class="cls-10" d="M317.2,165c0,.8-2.5,9.4-2.5,9.4s2.2-4.9,2.9-4.4c1.3.8,2.5,5.7,3.3,4.2.6-1.1.5-2.7,1.6-2.1,14.7,8.1,10.3,24.3,16.4,33.1,11.8,17.1,7.4,39.2,4.1,48.8-2.2,1.4-2.7,1.4-3.9,2.9,2.1-.1,1.8,1.3,1.8,1.3-.2.9-3.5,1.4-3.8,3.3a2,2,0,0,1,2.3,1.9c-.9.9-4.4,3.5-4.5,4.7,1.9-.6,3,.9,2.8,1.6-3.5,14.6-28.9,22.6-28.9,22.6s30.6,4.1,45.2-27.1c2.7-5.7,1.7-13.8,2.9-21.9,4.2-27.9-8.6-36.3-11.4-47.2-3.8-14.9-6.9-18.9-18.7-28.9-8.9-7.6-6.9-4.5-6.9-4.5Z"/><path class="cls-7" d="M358.2,234c2-15.8-11.4-34-11.8-36.4C343.8,179.4,327,167,327,167s-.7,6.8-.3,5.7c1.4-3.9,5,1,9.9,9.8.5.9-1.5,4.3-1.2,5.3.2.7,2.5-1,2.8-.2s-1.3,2-1.1,2.8,2.3-1.1,2.5-.4-.9,2.2-.8,3,2.1-1.4,2.5-.7c1.3,1.9-.3,5.1,1.7,8.3,9.3,14.4,12.5,29.1,11.6,38.7-2.8,30-12.8,41.1-17.7,44.9a44.89,44.89,0,0,0,18.4-22.1,4,4,0,0,0,3.8-3.1C360.3,253.7,358.2,243,358.2,234Z"/><path class="cls-7" d="M255,211.9c1,.2-3-1.9-3-1.9s-17.3-15.5,0-36.1l3.7,4.4,2.9-3,2.6,1.6-2.8-6.6-1.9,3.7-3.8-7c-4.8,6.7-19.3,29.9-4.8,41.1l-1,6.4c0,14-6.4,35.1,11.6,59.3h0c-10.1-18.3-10-49.4-9.5-59.7,0-1.1,0-1.8.6-2.4C250.6,210.7,253.9,211.7,255,211.9Z"/><path class="cls-36" d="M328.9,116.8c-.3-1.5,1.4-2.4,2.8-2.6,1.9-.3-1.1-4.6-5.5-6.3-.6-.2,3.7-1.5,4.2-1.5,2.1,0-2.8-4-5.5-4.1,9.1-5.9,15.4-25.7,9.1-32.6-5.3-5.7-22.9-2.1-31.3,5.8,0,0-15.8-12.8-21.3-12.8-1.1,0,.4,5.9-.7,6-1.5-.1-7.9-5-9-3.8-.8,1,2.6,5.7,1.5,6.1s-5.2-1.8-6.2-1.4c-1.2.5.9,4.3-.2,4.9-9.6,5.1-33.8,35.5-35.1,61.4-.7,13,4.4,24.8,19.9,31.8v0h0c0,.1.2-.4.2-.2,10.7,2.7,11.1-.8,21.6-.6a57.52,57.52,0,0,1,10.8,1.8c10.9,2.7,24.5,5.9,29.2,2.9l1.2,2.8,2.9-4.4,2.6,4.3,1.9-6.7,4,4.6s0-7.2.5-8c8.8-5.3,10.1-14.3,9.4-21.2C335.7,134.8,330.1,121.8,328.9,116.8Z"/><path class="cls-7" d="M273.7,182.1a16.91,16.91,0,0,1,1.2,3.6,15.83,15.83,0,0,1,.3,3.8l-1,.2a16.91,16.91,0,0,1-1.2-3.6,15.83,15.83,0,0,1-.3-3.8Z"/><path class="cls-7" d="M278.3,180.8a8.4,8.4,0,0,1,.5,3.1,11.7,11.7,0,0,1-.4,3.2h-1a8.4,8.4,0,0,1-.5-3.1,11.7,11.7,0,0,1,.4-3.2Z"/><path class="cls-7" d="M282.2,181.4a9.16,9.16,0,0,1,.1,3.3,8.87,8.87,0,0,1-.8,3.2l-1-.1a12.17,12.17,0,0,1-.1-3.3,8.87,8.87,0,0,1,.8-3.2Z"/><path class="cls-9" d="M273.2,129.2c27.2,0,15.5,4.2,24.2,10.7,4.4,3.3,7,6.5,14.7,7.3.4,0,2.1,2.3,2,4.5.3.1,1.9-1.8,2-4.1.2,0,.6,1.6.7,3,.2,0,2.6-1.2,2.5-2.5,3.1-.1,10.3,1.9,11.5-7.2,0,0,7.7,16.1-4.6,24.4-.5.9.1,7,.1,7l-4.2-4.5-1.7,6.5-2.9-4.1-2.9,4.7-1.7-2c-6.5,4.1-28.7-5.6-39.5-5.8a42.23,42.23,0,0,0-9.2,1.3,6.2,6.2,0,0,1-2.9.1c-.3,0-.6,2-.9,2s-1.9-2.6-2.3-2.6c0,0-1.2,2.3-1.7,2.3s-2.1-3.2-2.6-3.4c-11.4-3.2-27.2-16.8-17.5-30.8-.1,3.5,3.2,4.6,5.2,4.7,0,.8,1.3,3,2.1,3.1.3-2.7.9-3.8,2.3-3.9C266.4,137.8,250.7,121.3,273.2,129.2Z"/><path class="cls-10" d="M310,73.9c1.1.1-2.8,3.1-2,3.4s3.5-.5,6.2.7c.6.2-6.4,1.6-5.2,2,2,.6,6.3,4.1,9.1,9.5,0,0,5.3-1.2,5.3-5.2.5-1.1-4.4-1.9-4.4-1.9l3.6-2.5-2.7-2s-.6-5.9,5.6-6.2,8,7.7,8,7.7,3.5,6.7-5.1,19c0,.1-.4,2.2-.4,2.2,2.3-1.9,14.8-19.7,5.9-31.4-6.7-5.9-26.7,1.7-30.8,7.7C304.4,77.2,306.2,73.6,310,73.9Z"/><path class="cls-9" d="M327.4,91.4a5.63,5.63,0,0,0,2.3-3,30.5,30.5,0,0,1-4.7-.3s1.8-.7,2-2.2c-3.4.4-3.9,1.1-3.8,1.1l-.3-3.5-3.3-1.6s3.3-3.3,3.4-3a34.33,34.33,0,0,1-2.6-2.7s1.2-6.1,4.6-5.3,5.8.3,6.9,6.4C336.5,90.1,327.4,91.4,327.4,91.4Z"/><path class="cls-9" d="M297,106.6c2.3-2.2-1.3-3.5-1.7-6.6,3.1-4.8-2.3-4.4-3.8-7.7.9-5.9-2.4-6.9-6.2-4.9-3-2.7-6.3-.5-8,4.7-3.4,2.4-7.3,2-6.7,6.2-2.3,2.1-5.5,2.8-4.2,4.9-2.7,1.4-7,4.7-2.8,5.2-.4,1.1-3.3,5.4,3,4.2-.5.7-2.9,7.2,1.2,7.4.1,3.5,3.8,5.4,7.3,4.1,1.7,3.3,5.6,2.8,8.8-.4,3.8,1.4,3.5-4.5,4.5-5.9,1.7,1.5,4.8-3.4,5.7-2.4,3.9,3.4,6.9,2,6.2.6C305.8,117,298.5,108.9,297,106.6Z"/><path class="cls-10" d="M315.7,109.9c-17.1,5.6-17.3-8.4-18.4,1.4-.9,8.4,7.3,8.8,15.9,11,5.1,1,16.5,7,17.7,19.2.5,4.8-.7,12.4-8,19.3-.3.3,1,3.4.7,3.7s-3.3-1.3-3.6-1.1-.4,3.7-.7,3.9-2.2-1.9-2.4-1.6c-3,5.9-15.4,6.7-22.3,3.6,6.9,5.9,18.5,2.6,18.5,2.6l1.4,2.9,3.2-4.7,2.6,4,1.6-6.5,4,4.6.5-8s6.6-2.4,9.6-13.9c1.4-13.3-8-32.3-7.2-34.5s.5-1.2,3.3-2.4c.5-2.1-6.1-5.7-6.1-5.7s3.4-1.4,3.6-2.1c.4-1.3-2.7-3.3-4.9-3.5-.1,0,.9,4.8-4.9,6.2a10.58,10.58,0,0,1-.2,6.4A7.44,7.44,0,0,0,315.7,109.9Z"/><path class="cls-8" d="M322.3,84.9h.1c.1-.1-.1-.1-.1,0s0-.3,0-.6v-.1h0v.1c0,.2.1.3.1.4s.1.1.1.2-.2-.1-.4-.1-.7-.1-1.1-.2-.8-.1-1.2-.2a4.29,4.29,0,0,1-1.5-.5,1.13,1.13,0,0,1-.6-.6,1.45,1.45,0,0,1-.2-.7v-.4a.37.37,0,0,1,.1-.3,2.27,2.27,0,0,1,.7-1,3.83,3.83,0,0,1,1.1-.8c.6-.5,1.3-.9,1.7-1.3l.1-.1h0a.35.35,0,0,1-.1.2c0,.1-.1.3,0,.4a.76.76,0,0,0,.1.4c.1.1.1.1.1.2l.1.1h0a2.49,2.49,0,0,0-.7-.3c-.2-.1-.4-.1-.6-.2a4.38,4.38,0,0,1-.9-.5,1.38,1.38,0,0,1-.3-.4,2.39,2.39,0,0,1-.3-.7c-.1-.2,0-.5,0-.8v-.3l.2-.6a16,16,0,0,1,1-2.3,10.71,10.71,0,0,1,1.5-2.2,5.39,5.39,0,0,1,2.6-1.7,8.75,8.75,0,0,1,1.6-.2,4.88,4.88,0,0,1,1.4.3,6.47,6.47,0,0,1,1.3.4,6.72,6.72,0,0,1,1.2.6A9,9,0,0,1,333,75a11.91,11.91,0,0,1,1.3,4.9l-1.6.2c-.7-2.8-2.3-5.5-4.6-6.6-.3-.1-.6-.3-.9-.4l-.9-.3a2.19,2.19,0,0,0-1.6,0,5.16,5.16,0,0,0-2.3,2.5,11.92,11.92,0,0,0-.8,2l-.2.5v.1h0v-.5a.76.76,0,0,0-.2-.4c0-.1-.1-.1-.1-.2l.1.1c.1.1.3.1.5.2a9,9,0,0,1,1.4.7l.1.1.2.2a1.38,1.38,0,0,1,.3.4,1.42,1.42,0,0,1,.2.6,1.7,1.7,0,0,1-.1.7c-.1.2-.1.4-.2.5l-.2.3c-.1.2-.2.2-.4.4a15.19,15.19,0,0,1-2.1,1.4,9.22,9.22,0,0,1-.8.5l-.1.1.1-.2c.1-.1,0-.6-.1-.8s-.2-.2-.2-.2a6.66,6.66,0,0,0,.7.3c.3.1.7.2,1.1.3a5.64,5.64,0,0,1,1.2.4,4.88,4.88,0,0,0,.7.3,2.2,2.2,0,0,1,.6.5,1.45,1.45,0,0,1,.2.7v.2h0v.1a3.14,3.14,0,0,1-.7,1.6,1.37,1.37,0,0,1-1.2.4,2.47,2.47,0,0,1-.9-.4Z"/><path class="cls-10" d="M267.3,74.4l.2-4.8s4.7,2.2,5.4,1.6-1.8-5.5-1-6.1c.6-.5,8,3.1,8.6,2.7,1.8-1.4.3-4.6,1.1-4.7.6-.1,20,8.9,19.3,11.9,0,0-10-5.4-14.2-6,.4,2.4,1.8,8.2.8,7.5-.1-.1-8-5.3-9.5-4.7,1.2,2,2,6.7,1.4,7.2-.4.3-5.7-6.3-14.5,1.1-5.8,4.9-22,31.9-4.3,24.9,0,0,4.9-.5,5.2.7,2.6,10.9-15.1,6.9-21,10.2-.8.5-2.7,3.1-4.5,6.9-.1.3-3.1.4-3.4,1.7-.1.3,2.2.8,2.1,1.2s-2.6.4-2.2,1.6c.1.4,1.4,1.1,1.3,1.6s-.6,2.3-.8,2.8c-2.7,9.2-2.5,24.3,14.7,35.3,0,0-23.2-7.9-20-33.4C239.5,91.2,267.3,74.4,267.3,74.4Z"/><path class="cls-37" d="M294.2,136s-1.5-.2-1.9-4.3-7.1-4.3-7.1-4.3l-19.8-1.1s-6.1-.7-7.4,5.2-.4,4.2-.4,4.2-.9,4.6,6.2,5.5,4.7-4.3,9.7-4,2.3,5.1,8.5,4.9S294.2,136,294.2,136Z"/><path class="cls-10" d="M294,136.7l3.9,4.2c-5.4-3.3-7.6,2.7-15.2,2.3Z"/><path class="cls-10" d="M257.2,135.2l-2.4,2.4c2.4-.4,3.6,3.9,8.2,4.7Z"/><path class="cls-8" d="M282.2,112.8c1.7.1,1.8,3.4,2,3.2,2-.5,2.1,4.3,1.4,4.9,2,2.8-1.6,2.7-2.4,2,.8.7-16.1-2.9-15-3.2-1.1.3-2-2.2.2-2.8a2,2,0,0,1,2.4-2.1c.7-.4,1.5-3.1,3-2.2.1-.4,3.9-2.2,3.8-.8C277.6,111.9,281.6,110.9,282.2,112.8Z"/><path class="cls-38" d="M273.5,137.2c-3.2,1.2-4,3.8-6,4.1,0,0,2.1,4.2,6.1,4.7s8.7-2.4,9.5-4.1C276.3,143.8,277.8,137.5,273.5,137.2Z"/><polygon class="cls-39" points="277 140.4 269.5 139.9 271.3 137.7 275.8 137.7 277 140.4"/><path class="cls-8" d="M273.7,137.8c-1.4.3-2.4,1.8-3.8,3.1a7.4,7.4,0,0,1-2.6,1.5,6.13,6.13,0,0,1-3,.2,8.79,8.79,0,0,1-5.2-2.5,8.66,8.66,0,0,1-2.4-5.2l1-.1a12,12,0,0,0,2.6,4,9.12,9.12,0,0,0,4.2,2,5.17,5.17,0,0,0,4.3-1.1c.7-.5,1.3-1.1,2-1.7a4.22,4.22,0,0,1,2.7-1.2Z"/><path class="cls-8" d="M273.6,136.7a3.37,3.37,0,0,1,1.7.5,4.56,4.56,0,0,1,1.2,1.2,12.27,12.27,0,0,0,1.9,2,6.77,6.77,0,0,0,5.1.8,7.13,7.13,0,0,0,2.6-.7c.8-.4,1.7-.8,2.5-1.3,1.6-1,3.3-2.1,4.9-3.2l.8.8a20.16,20.16,0,0,1-4.6,4.1,15.09,15.09,0,0,1-2.8,1.5,7.49,7.49,0,0,1-1.6.5,8.75,8.75,0,0,1-1.6.2,11.56,11.56,0,0,1-3.2-.1,6.25,6.25,0,0,1-3.1-1.4c-1.8-1.5-2.2-3.8-3.9-3.9Z"/><path class="cls-8" d="M292.6,131.2a7,7,0,0,0,1.1,2.7,15.67,15.67,0,0,0,2,2.5c.3.4.8.8,1.1,1.2l1.2,1.1,1.3,1.1c.4.4.9.7,1.3,1.1L300,142a18.69,18.69,0,0,1-3.1-1.7,7.55,7.55,0,0,1-1.4-1.1,15.93,15.93,0,0,1-1.3-1.3,12.47,12.47,0,0,1-2.1-3,5.5,5.5,0,0,1-.5-3.8Z"/><path class="cls-8" d="M259.2,131.2a6,6,0,0,1-.2,2.3,10,10,0,0,1-1,2.1,6.9,6.9,0,0,1-1.8,1.6,4.56,4.56,0,0,1-2.3.5l-.2-1.1a9.74,9.74,0,0,0,1.5-1,15.38,15.38,0,0,0,1.2-1.3c.3-.5.7-1,1-1.5l.9-1.7Z"/><path class="cls-40" d="M276.9,116.1c9.3,1.1,8,9.3,7.7,12.2s-5.5,7-10.7,8.3c-9.3-5-7-11.7-6.7-14.2C267.4,120.6,269.5,115.2,276.9,116.1Z"/><path class="cls-41" d="M277.4,116.5c5.3.8,6.7,2.9,7,5.4.2,1-1.5,3.5-8.5,2.3-8.6-1.5-7-4.7-6.9-5.5S271,115.5,277.4,116.5Z"/><path class="cls-7" d="M270.1,131.8a2.39,2.39,0,0,1-1.4-.5,4.81,4.81,0,0,1-1.1-.9,3.15,3.15,0,0,1-.8-2.6l1.1-.3c.3.3.5.6.7.8l.6.8.6.8a4.7,4.7,0,0,1,.6.9Z"/><path class="cls-7" d="M278.6,131.4a7,7,0,0,1,1-.8c.3-.2.7-.5,1-.7l1-.7a10.47,10.47,0,0,1,1.1-.8l1,.6a4.51,4.51,0,0,1-1.8,2.7,6.38,6.38,0,0,1-1.4.8,2.85,2.85,0,0,1-1.6.2Z"/><path class="cls-42" d="M275.2,124.9a25.39,25.39,0,0,0-.7,6.1,30.78,30.78,0,0,0,.6,6.1l-1.5.2a32.94,32.94,0,0,1,.2-6.3A20.86,20.86,0,0,1,275.2,124.9Z"/><path class="cls-7" d="M304.5,102.9c-4.8-1.4-8.6,2.7-9.2,6.4s4.6,9,7.9,9,6.3-1.3,7.5-4.5S309.4,104.3,304.5,102.9Z"/><path class="cls-16" d="M303.6,103.3c-4.1-1.2-7.4,2.3-7.9,5.5s3.9,7.7,6.8,7.7,5.4-1.1,6.4-3.9S307.8,104.5,303.6,103.3Z"/><circle class="cls-43" cx="303" cy="109.6" r="2.5"/><circle class="cls-39" cx="303.9" cy="108.7" r="1.5"/><path class="cls-7" d="M261.8,98.3c4-1.3,7.1,2.6,7.6,6s-3.8,8.5-6.5,8.5-5.2-1.2-6.1-4.2C255.7,105.6,257.8,99.6,261.8,98.3Z"/><path class="cls-16" d="M262.2,98.8c3.5-1.1,6.3,2.3,6.7,5.3s-3.4,7.5-5.8,7.5a5.25,5.25,0,0,1-5.4-3.7C256.8,105.2,258.7,99.9,262.2,98.8Z"/><circle class="cls-43" cx="263.9" cy="104.7" r="2.5"/><circle class="cls-39" cx="264.8" cy="103.9" r="1.6"/><path class="cls-10" d="M265.7,144.2h-.8c.1,4.7,4.5,7.8,6.6,8.1.2.9,2.1,3.8,2.2,3.2s1-3.2,1.4-2.6a4.89,4.89,0,0,0,1.6,1.6,5.13,5.13,0,0,1,1-2.4,10,10,0,0,1,2.2-1.9h0c-.7.3-1.5.5-2.4.8C267.6,153.5,265.9,146.1,265.7,144.2Z"/><path class="cls-8" d="M360,240.3c-.3,3.7-.7,7.4-1.3,11.1-.3,1.9-.6,3.7-.9,5.6a38.21,38.21,0,0,1-1.4,5.6l-1.8-.8c.7-1.6,1.2-3.4,1.8-5.2s1-3.6,1.4-5.4C358.6,247.6,359.3,244,360,240.3Z"/><path class="cls-7" d="M301.4,206.7a22.23,22.23,0,0,0,.6,3.6s3.3-3,3.8-2.6a8.72,8.72,0,0,0-.2,2.6l2.1-2-2.9,4.8-4.1,5.2-5.2-.4-2.4-5.6s.6-7.5,1-7.5.9,3.3.9,3.3a8.44,8.44,0,0,0,1.2-2.8c.7.5,1.8,4.5,1.8,4.5S300.9,206.5,301.4,206.7Z"/><path class="cls-7" d="M262.6,206.5a23.94,23.94,0,0,1-.5,3.6s-2.8-3-3.2-2.6a8.72,8.72,0,0,1,.2,2.6l-1.9-.7s2.6,2.6,2.6,3.5,5.4,6.5,5.4,6.5l2.9-.7,1.9-5.8s-1-7.4-1.7-7.6c.4,2.2.1,2.7.1,2.7s-1.8-2.1-2.9-2.2c.4.8.2,3.8.2,3.8S263.1,206.3,262.6,206.5Z"/><path class="cls-44" d="M296.5,190.9a17.19,17.19,0,0,0-3.2,9.9,35.28,35.28,0,0,0,1.5,10.6c.5,1.7,1.1,3.4,1.7,5.1a.35.35,0,0,0,.1.2.1.1,0,0,0,.1.1.77.77,0,0,0,.3.2,2.39,2.39,0,0,0,.9.2,5.58,5.58,0,0,0,2.2-.3,6,6,0,0,0,1.8-1.5c.6-.6,1.1-1.3,1.7-2a44.9,44.9,0,0,1,3.5-4.4,2.65,2.65,0,0,1,.6-.5c.2-.2.5-.3.7-.5a5.39,5.39,0,0,1,1.3-.7,23.29,23.29,0,0,1,2.8-1.1,16.26,16.26,0,0,1,5.8-.4c1.9.2,3.7.6,5.4.7a7.5,7.5,0,0,0,4.7-.8,5.81,5.81,0,0,0,1.8-1.7l.1-.1c.1-.1.1-.2.3-.2a1,1,0,0,1,.7-.2,1.54,1.54,0,0,1,.7.3,1.7,1.7,0,0,1,.6.6,5.74,5.74,0,0,0,.9.8h-.1a.44.44,0,0,0-.3.1c-.1.1,0,0,0-.1V204c-.1-.9-.3-1.7-.4-2.8a1.49,1.49,0,0,1,.1-.6,1,1,0,0,1,.4-.5.78.78,0,0,1,.8-.1,1,1,0,0,1,.6.3l.3.3a10.63,10.63,0,0,0,.9,1.1c.1.2.3.3.4.4h0c-.2,0-.2,0-.3.1s0,0,0-.1v-.6a12.22,12.22,0,0,0-.3-2.6l-.2-1.4c0-.2-.1-.5-.1-.7a1.48,1.48,0,0,1,.1-.9l1.1.4v.4l.1.6.3,1.3a12.61,12.61,0,0,1,.4,2.8v.8a1.74,1.74,0,0,1-.6,1.1,1,1,0,0,1-.9.2,3.33,3.33,0,0,1-.6-.3l-.6-.6a9,9,0,0,0-.9-1l-.2-.2h0a1.09,1.09,0,0,0,.5-.1c.1-.1.2-.2.2-.3v.1c.1.7.3,1.7.4,2.6a8.08,8.08,0,0,1,.1,1.6,1.53,1.53,0,0,1-.5,1.1,1.1,1.1,0,0,1-.9.4,1,1,0,0,1-.7-.2,6.94,6.94,0,0,1-1.2-1c-.2-.1-.3-.3-.4-.3h.1a.6.6,0,0,0,.4-.1.1.1,0,0,0,.1-.1h0a8.83,8.83,0,0,1-2.2,2.1,8.13,8.13,0,0,1-2.9,1.2,10.07,10.07,0,0,1-3,.1c-1.9-.2-3.7-.6-5.4-.7a12.49,12.49,0,0,0-5.1.4,9.17,9.17,0,0,0-2.3.9,10.91,10.91,0,0,0-1.1.6c-.2.1-.3.2-.5.3s-.3.2-.4.4a36.05,36.05,0,0,0-3.3,4.2c-.6.7-1.2,1.5-1.8,2.2a5.24,5.24,0,0,1-1.1,1,6.71,6.71,0,0,1-1.4.9,7,7,0,0,1-3.2.5,6.4,6.4,0,0,1-1.7-.5,5.55,5.55,0,0,1-.8-.6,2.19,2.19,0,0,1-.3-.5l-.2-.4c-.6-1.7-1.2-3.5-1.7-5.3a35.05,35.05,0,0,1-1.2-11.2,18.16,18.16,0,0,1,4-10.5Z"/><path class="cls-8" d="M267,196.3a44.41,44.41,0,0,1,2.9,11.4,29.13,29.13,0,0,1,.2,5.9c-.1,1-.2,2-.4,3a5.91,5.91,0,0,1-1.6,3,3.16,3.16,0,0,1-1.9.7,2.9,2.9,0,0,1-1.8-.5,7.45,7.45,0,0,1-2.3-2.4,14.54,14.54,0,0,0-3.4-4.2,7,7,0,0,0-2.3-1.1,1.27,1.27,0,0,0-.6-.1l-.7-.1-1.5-.3a19.48,19.48,0,0,1-5.6-2.3,15.05,15.05,0,0,1-4.5-4.2,15.35,15.35,0,0,1-2.4-5.6,26.51,26.51,0,0,1,.4-11.9,56.71,56.71,0,0,1,4-11.1,53.59,53.59,0,0,1,6.3-9.9l.8.6a54.11,54.11,0,0,0-5.7,9.9,53,53,0,0,0-3.7,10.8,26,26,0,0,0-.3,11.1,13.33,13.33,0,0,0,6.1,8.5,21,21,0,0,0,5.1,2.1l1.4.3.7.1c.3.1.5.1.8.2a8.64,8.64,0,0,1,2.9,1.4c1.8,1.3,2.8,3.2,3.8,4.7a4.79,4.79,0,0,0,1.6,1.8,1.69,1.69,0,0,0,1,.3,1.33,1.33,0,0,0,.8-.3,3.82,3.82,0,0,0,1.1-2.1,12.59,12.59,0,0,0,.4-2.7,36.17,36.17,0,0,0-.1-5.7,51,51,0,0,0-2.4-11.1Z"/><path class="cls-8" d="M324.7,101.8a24.86,24.86,0,0,0,6.1-6,26.12,26.12,0,0,0,3.7-7.7,30.1,30.1,0,0,0,1.2-8.5,17.51,17.51,0,0,0-1.7-8.2c-1-2.4-4-2.9-6.8-3.3a30.41,30.41,0,0,0-8.5.5,34,34,0,0,0-8.2,2.6,22.71,22.71,0,0,0-7,4.9l-.8-.7a21.52,21.52,0,0,1,7.1-5.6,33.14,33.14,0,0,1,8.5-3,30.82,30.82,0,0,1,9.1-.6,15.21,15.21,0,0,1,4.6,1,7.1,7.1,0,0,1,2.2,1.3,5.54,5.54,0,0,1,1.5,2,20.42,20.42,0,0,1,1.8,9,30.74,30.74,0,0,1-1.4,9,24.55,24.55,0,0,1-4.2,8,23.92,23.92,0,0,1-6.7,6Z"/><path class="cls-45" d="M326.5,164.9a21.7,21.7,0,0,0,8.5-11.2c4.6-13.3-4.8-28.1-6-37.2-.2-1.5,1.4-2,2.8-2.2,1.9-.3-1.1-4.6-5.5-6.3-.6-.2,2.1-1.5,3.7-1.5-.4-2.1-3.1-4-5-4,14.3-9.3,12.2-29.4,8.9-32.8s-22.7-3-30.7,6.4c0,0-16.2-12.6-21.6-12.6-1.1,0,.9,5.5-.2,5.5-1.5.3-7.8-3.8-9.1-3.5s2.5,5.2,1.4,5.6-5.5-1.4-6.5-1c-1.2.5,1.1,3.2,0,3.8-14.4,7.6-61.8,72.3-15.2,93.2v.3c-2.7,4-19.2,29.4-4,40.6-1.1,10.2-11.8,58,27.2,77,15.8,6,23.3,7.2,33.3,7.2,8.2,0,36.3,0,47.2-30.1,34.3-14.4,41.2-27.6,88.9-34.1,10.9-2,6.9-10.5-1.7-9.6-47.5,5-71.1,19.7-83.4,15.4.7-19.6-12.2-29.8-14.5-41.6-2.2-11-12.6-20.9-18.1-24.4C326.6,166.2,326.5,164.9,326.5,164.9Z"/><path class="cls-46" d="M312.3,254.2a42.2,42.2,0,0,1-1.8,4.5,22.56,22.56,0,0,1-1.1,2.2,10.45,10.45,0,0,1-1.7,2.1,1.22,1.22,0,0,1-.9.3c-.3,0-.5-.1-.7-.1l-.4-.2a8.74,8.74,0,0,1-1-.8c-.6-.6-1.2-1.1-1.7-1.7s-1.1-1.1-1.7-1.5c-.1-.1-.3-.1-.2-.1a.78.78,0,0,0,.5-.2c.2-.2.1-.2.1-.1a2.79,2.79,0,0,0-.1,1,21.75,21.75,0,0,1-.1,2.5,8.87,8.87,0,0,1-.3,1.4,2.51,2.51,0,0,1-.4.7l-.3.3-.2.2a.76.76,0,0,1-.4.2,1.78,1.78,0,0,1-1.1-.1,4.88,4.88,0,0,1-.7-.3,10.54,10.54,0,0,1-1.1-.7c-.7-.5-1.3-1-1.9-1.5l-.9-.8-.4-.4c-.1-.1-.2-.2-.3-.2s-.1-.1-.2,0a3.81,3.81,0,0,0-.5.6c-.8,1.2-1.3,2.7-2.3,4.2a2.18,2.18,0,0,1-.4.5l-.1.1-.1.1c-.1.1-.3.2-.4.3a.9.9,0,0,1-.5.1.37.37,0,0,1-.3-.1l-.4-.2a5.67,5.67,0,0,1-1.1-1c-.6-.6-1.1-1.2-1.6-1.8-.3-.3-.5-.6-.8-.9a2.31,2.31,0,0,0-.7-.7h.5c.1,0,.2-.1.3-.2l-.1.1-.4.4c-.2.3-.5.6-.7.9a21.41,21.41,0,0,1-1.3,1.9c-.2.3-.4.7-.7,1.1l-.4.4a.52.52,0,0,1-.4.2c-.1,0-.2.1-.4.1a.6.6,0,0,1-.4-.1c-.1,0-.1-.1-.2-.1a1.4,1.4,0,0,1-.4-.4l-.2-.3c-1.1-1.3-1.9-2.6-2.9-3.9-.5-.6-.9-1.3-1.4-1.8a5.72,5.72,0,0,0-.7-.8c-.1-.1-.3-.2-.4-.3s-.3-.1.1-.1c.1,0,.2-.1.3-.1h0l-.2.2-.3.4-.7,1c-.4.6-.9,1.3-1.3,2l-.7,1.1a1.4,1.4,0,0,1-2.3-.1l-1.2-2.1-2.4-4.1.9.1-2.2,2-.7-.7,2.1-2.1a.61.61,0,0,1,.8,0l.1.1h0l2.6,4,1.3,2c0-.1-.2-.1-.2,0l.6-1a13.73,13.73,0,0,1,1.3-2l.7-1,.4-.5.2-.3.1-.1h0l.1-.1a2.19,2.19,0,0,1,.5-.3,1,1,0,0,1,.8.1c.2.1.3.1.4.2s.4.3.6.5l.9.9a14.62,14.62,0,0,1,1.6,1.9c1,1.2,1.9,2.6,2.9,3.7l.2.2h-.1c-.1,0-.2-.1-.3,0h-.2a.1.1,0,0,0-.1.1l.1-.1a7,7,0,0,0,.6-.9,23.92,23.92,0,0,1,1.3-2.1,7,7,0,0,1,.8-1l.4-.5.1-.1c.1-.1.3-.2.4-.3a.6.6,0,0,1,.4-.1,1.21,1.21,0,0,1,.8.3,12,12,0,0,1,1.1,1,6.47,6.47,0,0,1,.8.9l1.5,1.8a3.08,3.08,0,0,0,.6.6h-.3a.37.37,0,0,0-.3.1c-.1,0-.3.1-.3.2h0l.1-.1c.1-.1.2-.3.3-.4.8-1.2,1.4-2.6,2.3-4.1a3.84,3.84,0,0,1,1.1-1.1,2,2,0,0,1,1.1-.3,3,3,0,0,1,1,.2,1.79,1.79,0,0,1,.7.5l.5.4.9.8a22,22,0,0,0,1.8,1.4l.9.6c.1.1.3.1.4.2h0c-.3.1-.1,0,0,0s.1-.2.2-.3a2.39,2.39,0,0,0,.2-.9,17,17,0,0,0,.1-2.3,3.9,3.9,0,0,1,.2-1.4c.1-.1.1-.3.4-.6a1.43,1.43,0,0,1,1-.3,1.91,1.91,0,0,1,.8.4,16.24,16.24,0,0,1,1.9,1.7l1.7,1.7c.3.3.6.5.8.7s.3.1.1.1a.31.31,0,0,0,.2-.1,6.85,6.85,0,0,0,1.4-1.5c.4-.6.8-1.3,1.2-2,.7-1.4,1.4-2.8,2-4.3Z"/><path class="cls-8" d="M290.7,168.6a23.32,23.32,0,0,1,5.7,1.7,18.48,18.48,0,0,0,5.3,1.8,21.76,21.76,0,0,0,5.7.1,28.5,28.5,0,0,0,2.9-.3l2.9-.4h-.1a.85.85,0,0,1,.7,0c.2.1.3.3.4.3a1.69,1.69,0,0,1,.2.5c.1.3.1.6.2.8a6.37,6.37,0,0,0,.2.7.35.35,0,0,0,.1.2h0c-.1-.1-.3,0-.3,0s0,0,.1-.1.1-.2.2-.3a4.35,4.35,0,0,0,.4-.7l.7-1.5a11.91,11.91,0,0,1,.9-1.5c.1-.1.1-.2.2-.2a.85.85,0,0,1,.6-.2c.5,0,.6.3.8.4a4.17,4.17,0,0,1,.6.8c.6,1,1,2.1,1.5,3,.1.1.1.2.2.3h0a.44.44,0,0,0-.5-.1l-.2.1c0,.1,0-.1.1-.2s.1-.2.1-.4c.1-.5.2-1,.3-1.6.2-1.1.3-2.2.6-3.3a3.18,3.18,0,0,1,.3-.9c0-.1.1-.2.2-.3a1.54,1.54,0,0,1,.6-.4,1.3,1.3,0,0,1,.9.3,14.93,14.93,0,0,1,1.2,1.4,26.1,26.1,0,0,0,1.9,2.7l.2.2c0,.1.2.1-.1,0a.7.7,0,0,0-.4.2h0v-1.8l-.2-3.3v-1.8a.9.9,0,0,1,.1-.5c0-.1.1-.2.1-.3s.1-.1.2-.2l.1-.1h.1l.6-.5c.9-.7,1.7-1.4,2.5-2.1a16.59,16.59,0,0,0,3.8-5,18.47,18.47,0,0,0,2-6,30.81,30.81,0,0,0-.7-12.8,120.65,120.65,0,0,0-4-12.5c-.7-2.1-1.4-4.2-1.9-6.4-.1-.6-.2-1.1-.3-1.7a3.88,3.88,0,0,1,0-1.1,3.7,3.7,0,0,1,.5-1.1,3.29,3.29,0,0,1,1.8-1,2.92,2.92,0,0,1,.9-.2h.2l-.1.1c0,.1,0,0-.1-.2l-.3-.6-.9-1.2a11.17,11.17,0,0,0-2.4-1.9,6.11,6.11,0,0,0-1.4-.7c-.1-.1-.2-.1-.4-.2l-.2-.1-.2-.1-.3-.3a1.09,1.09,0,0,1-.1-.5v-.2a.1.1,0,0,1,.1-.1c.2-.3.3-.3.3-.4s.2-.1.2-.2a1.38,1.38,0,0,0,.4-.3,10.13,10.13,0,0,1,3.5-1l-.8,1a4.19,4.19,0,0,0-1.6-2.2,5.84,5.84,0,0,0-2.6-1.1h0a.9.9,0,0,1-.9-.9.84.84,0,0,1,.4-.7A23.78,23.78,0,0,0,334.1,88a29.85,29.85,0,0,0,.9-12.6,13.16,13.16,0,0,0-1.1-4,3.88,3.88,0,0,0-1-1.4,5.39,5.39,0,0,0-1.7-.8,18.51,18.51,0,0,0-4.1-.7,34.79,34.79,0,0,0-8.5.6,31.77,31.77,0,0,0-8.1,2.5,19.38,19.38,0,0,0-6.7,4.9.93.93,0,0,1-1.3.1,136.88,136.88,0,0,0-12.7-8.8,32.74,32.74,0,0,0-6.8-3.3,3.09,3.09,0,0,0-.8-.2c-.1,0-.3-.1-.4-.1h-.2c.1,0,.2-.1.3-.1l.2-.2v.2a2.77,2.77,0,0,0,.1.9l.3,1.9c0,.3.1.7.1,1.1a2,2,0,0,1-.1.7c0,.1,0,.1-.1.3s-.1.2-.2.3a1.38,1.38,0,0,1-.4.3.9.9,0,0,1-.5.1h.1a3.28,3.28,0,0,1-1,0,6.37,6.37,0,0,1-.7-.2c-.4-.2-.8-.3-1.2-.5-.8-.4-1.5-.7-2.3-1.1s-1.5-.7-2.2-1.1a4.87,4.87,0,0,0-1.1-.4.9.9,0,0,0-.5-.1h-.1c.1,0,.1-.1.2-.1l.2-.2v0c0,.1.1.3.1.4a9.74,9.74,0,0,0,.5,1.1,13.35,13.35,0,0,1,1.1,2.4,1.55,1.55,0,0,1,.1,1,1.06,1.06,0,0,1-.5.9.37.37,0,0,1-.3.1c-.1,0-.1,0-.2.1h-.3c-.6,0-1-.1-1.5-.1-.9-.2-1.7-.4-2.5-.6L268,71a3.44,3.44,0,0,0-.9-.1c.1,0,.1,0,.1-.1a.35.35,0,0,0,.1-.2v.2a7.6,7.6,0,0,0,.4,1.1,3.42,3.42,0,0,1,.3,1.7,1.08,1.08,0,0,1-.3.7c-.2.2-.5.3-.5.4l-.5.3a24.26,24.26,0,0,0-2,1.4,50.63,50.63,0,0,0-7.1,6.8,115.54,115.54,0,0,0-11.9,15.9,97.77,97.77,0,0,0-8.9,17.7,60.8,60.8,0,0,0-4.3,19.2,34.78,34.78,0,0,0,1,9.7,28.4,28.4,0,0,0,3.9,8.9,27.88,27.88,0,0,0,6.7,7c.6.5,1.3.9,2,1.4s1.4.9,2.1,1.3,1.4.8,2.2,1.2l1.1.5.6.3a1.79,1.79,0,0,1,.7.5,6.21,6.21,0,0,1,1.4,2.3,22.88,22.88,0,0,1,1,2.3,13.9,13.9,0,0,0,1.1,2.1c0,.1.1.1.1.2h-.2c-.2.1-.1,0,0-.1a4.18,4.18,0,0,0,.4-1l.4-1.2c.1-.2.1-.4.2-.6s.1-.2.2-.3.1-.3.5-.5c.2-.1.6-.1.7.1l.3.3a.77.77,0,0,0,.2.3l.3.6.5,1.2a27.4,27.4,0,0,1,1.7,4.8l-1,.2a41.89,41.89,0,0,0-1.6-4.6l-.5-1.1-.3-.5a.35.35,0,0,0-.1-.2h.1c0,.1.3.1.4,0s.1-.1.1,0-.1.1-.1.2-.1.4-.2.6l-.4,1.2a11.22,11.22,0,0,1-.5,1.3c-.1.1-.1.2-.3.4a.85.85,0,0,1-.6.3.78.78,0,0,1-.7-.3l-.3-.3a13.39,13.39,0,0,1-1.3-2.3,22.88,22.88,0,0,1-1-2.3,6.89,6.89,0,0,0-1.2-1.9c-.1-.1-.2-.2-.3-.2l-.6-.3-1.1-.5c-.8-.4-1.5-.8-2.2-1.2s-1.5-.9-2.2-1.3-1.4-.9-2.1-1.5a30.77,30.77,0,0,1-7.1-7.3,29,29,0,0,1-4.2-9.3,38.09,38.09,0,0,1-1-10.1,60.5,60.5,0,0,1,4.3-19.7,108,108,0,0,1,9-18,116.94,116.94,0,0,1,12-16.2,60.39,60.39,0,0,1,7.3-7l2.1-1.5.6-.3c.2-.1.1-.1,0,0s-.1.1-.1.2l-.2-.8c-.1-.4-.3-.8-.4-1.3a4,4,0,0,1,0-1.1,1.53,1.53,0,0,1,.5-.7.91.91,0,0,1,.7-.3,2.7,2.7,0,0,1,.9,0c.2,0,.5.1.7.1l1.3.3,2.4.6a4.14,4.14,0,0,0,1,.1h0a.1.1,0,0,0-.1.1c-.2.1-.2.4-.2.4s0-.1-.1-.3a19.49,19.49,0,0,0-1-2.2,6.12,6.12,0,0,1-.5-1.2,1.88,1.88,0,0,1-.2-.8c0-.2-.1-.3,0-.6a.6.6,0,0,1,.1-.4c.1-.2.2-.3.3-.5a1.33,1.33,0,0,1,.5-.3c.1,0,.3-.1.4-.1h.5a6.37,6.37,0,0,1,.7.2,6.12,6.12,0,0,1,1.2.5,24,24,0,0,1,2.3,1.1c.7.4,1.5.7,2.2,1.1a4.87,4.87,0,0,0,1.1.4.9.9,0,0,0,.5.1h.3a.76.76,0,0,0-.5.2.1.1,0,0,1-.1.1h0v-.2a2.49,2.49,0,0,0-.1-.8l-.3-1.9c0-.3-.1-.7-.1-1.1v-.7a1.69,1.69,0,0,1,.2-.5c.1-.1.2-.3.3-.4a1.69,1.69,0,0,1,.5-.2h.7c.2,0,.4.1.6.1.4.1.7.2,1,.3a43.61,43.61,0,0,1,7.2,3.5,140.8,140.8,0,0,1,12.9,8.9l-1.3.1a20.82,20.82,0,0,1,7.4-5.4,34,34,0,0,1,8.6-2.6,38.88,38.88,0,0,1,9-.5,17.75,17.75,0,0,1,4.5.8,6.06,6.06,0,0,1,2.3,1.1,4.84,4.84,0,0,1,1.5,2.1,18.77,18.77,0,0,1,1.2,4.5,34,34,0,0,1,.3,4.5,30,30,0,0,1-1.3,8.9,24.31,24.31,0,0,1-3.9,8.1,25.93,25.93,0,0,1-6.5,6.3l-.5-1.6a4.55,4.55,0,0,1,2,.5,8.64,8.64,0,0,1,1.6,1,6.2,6.2,0,0,1,1.4,1.4,4.8,4.8,0,0,1,.9,1.9.82.82,0,0,1-.7,1H330a8,8,0,0,0-2.8.8c-.1.1-.2.1-.3.2l-.1.1.1-.1a.78.78,0,0,0,0-.7c0-.1-.2-.2-.2-.3l-.1-.1.2.1c.1.1.3.1.4.2a11.94,11.94,0,0,1,1.6.8,14.42,14.42,0,0,1,2.7,2.2,7.55,7.55,0,0,1,1.1,1.4,3.55,3.55,0,0,1,.4.9,1.67,1.67,0,0,1,0,1.4,1.78,1.78,0,0,1-1.3.9,1.85,1.85,0,0,0-.7.2,1.54,1.54,0,0,0-1,.5c-.2.2-.2.3-.1.9s.2,1,.3,1.6a63.6,63.6,0,0,0,1.9,6.2,125.38,125.38,0,0,1,4,12.7,33.53,33.53,0,0,1,.7,13.4,24.26,24.26,0,0,1-2.2,6.4,18.31,18.31,0,0,1-4.2,5.4,27.46,27.46,0,0,1-2.6,2.2l-.7.5h0l.1-.1v1.9l.1,3.3v1.8a.9.9,0,0,1-.1.5c0,.1-.1.2-.2.4a1.2,1.2,0,0,1-.8.4c-.2,0-.3,0-.4-.1s-.1-.1-.2-.1-.2-.1-.3-.2a1.38,1.38,0,0,1-.3-.4c-.7-.9-1.3-1.9-1.9-2.8a5.31,5.31,0,0,0-.9-1.1c0-.1-.1,0,.1,0a.37.37,0,0,0,.3-.2v.1a1.45,1.45,0,0,0-.2.7,30.28,30.28,0,0,0-.6,3.2c-.1.5-.2,1.1-.3,1.7,0,.1-.1.3-.1.4a3.29,3.29,0,0,1-.3.6.68.68,0,0,1-.4.3.76.76,0,0,1-.7-.1c-.2-.2-.2-.3-.3-.3a.76.76,0,0,1-.2-.4c-.5-1-.9-2.1-1.4-2.9a2.18,2.18,0,0,0-.4-.5c0-.1-.1,0,.1,0a.35.35,0,0,0,.2-.1l-.1.1a7.38,7.38,0,0,0-.8,1.3l-.8,1.5a5.94,5.94,0,0,0-.4.8c-.1.1-.2.3-.3.4a1.08,1.08,0,0,1-.5.4.85.85,0,0,1-.7,0q-.3-.15-.3-.3c-.2-.2-.2-.4-.3-.5a2.92,2.92,0,0,1-.2-.9c-.1-.3-.1-.5-.2-.8a.35.35,0,0,0-.1-.2l.1.1c.1.1.2,0,.3,0h-.1l-2.9.4-2.9.3a29.13,29.13,0,0,1-5.9-.2,24.61,24.61,0,0,1-5.6-1.9,19.82,19.82,0,0,0-5.4-1.6Z"/></svg>