<svg xmlns="http://www.w3.org/2000/svg" viewBox="0 0 64.55 51.14"><defs><style>.cls-1{fill:#fff;}</style></defs><g id="Capa_2" data-name="Capa 2"><g id="Capa_1-2" data-name="Capa 1"><path class="cls-1" d="M58.07,26.89a25.17,25.17,0,0,1-5.76,15,.59.59,0,0,1-.54.29,1,1,0,0,1-.58-.22c-.36-.27-1.19-1-1.46-1.18a.85.85,0,0,1-.38-.64,1.25,1.25,0,0,1,.27-.68A24.22,24.22,0,0,0,54,29.22,35.88,35.88,0,0,0,58.07,26.89ZM47,32.35c-1.23.48-2.53,1-3.88,1.43v14c0,.5.22.75.65.75a1.36,1.36,0,0,0,.54-.11,19.61,19.61,0,0,0,2.15-1.21c.47-.34.54-.61.54-1.29ZM34.94,36.28V50.19a.65.65,0,0,0,.74.74A9.77,9.77,0,0,0,38,50.46a.9.9,0,0,0,.74-1V35.17C37.5,35.55,36.24,35.91,34.94,36.28ZM13.69,39.89v2.56a1.78,1.78,0,0,0,.72,1.7c.54.45,1.19,1,1.86,1.57a1.1,1.1,0,0,0,.67.29c.32,0,.52-.2.52-.66V39.61C16.2,39.73,14.93,39.82,13.69,39.89Zm13.52-1.75V46c0,.57-.23.77-.67.77a4.29,4.29,0,0,1-1.77-.45,1.31,1.31,0,0,1-.7-1.39V38.71c-1.28.22-2.55.4-3.81.59v6.92a3,3,0,0,0,1.79,3,19.25,19.25,0,0,0,7.33,1.93,1.5,1.5,0,0,0,1.68-1.61V37.23C29.76,37.57,28.49,37.87,27.21,38.14ZM64.55,16.9c0,6.22-14.82,14.3-34.47,19a87.38,87.38,0,0,1-18.67,2.61C3.32,38.48,0,35.57,0,32.28c0-2,1.19-3.87,3.7-5.58a.76.76,0,0,1,.38-.16.22.22,0,0,1,.22.23.4.4,0,0,1-.2.32c-2,1.56-3,3.2-3,4.9,0,2.31,2.51,4.83,10.11,4.83.74,0,1.55,0,2.44-.07V27.23H10.24a24.31,24.31,0,0,0,1,5.24,2.12,2.12,0,0,1,.11.54c0,.32-.16.5-.63.68l-1.57.57a1.67,1.67,0,0,1-.53.11c-.36,0-.56-.2-.72-.61a23.56,23.56,0,0,1-1.48-8.55A25.39,25.39,0,0,1,16.16,5.69a1.19,1.19,0,0,1,.74-.29.59.59,0,0,1,.6.61V36.46c.9-.09,1.84-.23,2.81-.36V30.56c0-.7.26-.95,1-.95h1.8c.74,0,1,.25,1,.95v4.92c1-.18,2.06-.38,3.12-.61V29.65a1.7,1.7,0,0,0-1-1.79L23,25.91c-1.84-1.11-2.69-2.13-2.69-4.49V5.29a2.71,2.71,0,0,1,1.3-2.64A18.2,18.2,0,0,1,29.09.07c1.1,0,1.57.52,1.57,1.4v18.2c0,.7-.22.95-1,.95H27.84c-.74,0-1-.25-1-.95V5.31c0-.57-.13-.77-.56-.77a3.47,3.47,0,0,0-1.5.54,1.37,1.37,0,0,0-.67,1.39v14a1.63,1.63,0,0,0,1,1.79c1,.61,2.37,1.45,3.25,1.95C30.26,25.37,31,26.5,31,28.72v5.22c1.3-.32,2.6-.66,3.88-1V4c-.45-.07-1.33-.16-2.22-.25-.72-.07-.83-.36-.83-.89V.88A.8.8,0,0,1,32.77,0,29.51,29.51,0,0,1,41,1.54c.7.28.83.55.83,1.07v2.2c0,.48-.24.68-.58.68a2.13,2.13,0,0,1-.67-.16c-.79-.25-1.46-.47-1.91-.59V31.83c1.5-.48,3-1,4.4-1.47V3.13c0-.41.22-.68.58-.68s.6.32.9,1C45.65,6,48.3,12.18,50.4,17.11c.77-2.14,1.69-4.75,1.89-5.31s.33-.61.65-.61.42.11.71.47a22.89,22.89,0,0,1,4.29,11.62c3.36-2.25,5.4-4.49,5.4-6.45s-1.82-3.56-6.19-3.78a.28.28,0,0,1-.31-.28c0-.13.11-.25.33-.25C62.17,12.52,64.55,14.7,64.55,16.9ZM13.69,23.39v-9.8a19.94,19.94,0,0,0-3.47,9.8ZM47,28.84a73.76,73.76,0,0,0,7.3-3.41,14.24,14.24,0,0,0-1.16-6.24c-.79,1.91-1.91,4.65-2.24,5.45-.11.29-.29.48-.52.48s-.36-.14-.51-.46S48.12,21,47,18.65Z"/></g></g></svg>