<svg xmlns="http://www.w3.org/2000/svg" viewBox="0 0 64.99 46.12"><defs><style>.cls-1{fill:#fff;fill-rule:evenodd;}</style></defs><g id="Capa_2" data-name="Capa 2"><g id="Capa_1-2" data-name="Capa 1"><path class="cls-1" d="M25.35,39.18V46h0c-.75.07-1.51.11-2.28.11A23.06,23.06,0,1,1,23.07,0c.77,0,1.53,0,2.28.11h0V7h0a15.69,15.69,0,0,0-2.28-.17,16.28,16.28,0,1,0,0,32.56,17.23,17.23,0,0,0,2.28-.16Z"/><path class="cls-1" d="M46.81,19.54H60.14v7.05H46.81A16.32,16.32,0,0,0,62.7,39.34,17.15,17.15,0,0,0,65,39.18h0V46h0c-.75.07-1.51.11-2.29.11A23.06,23.06,0,0,1,62.7,0c.78,0,1.54,0,2.29.11h0V7h0a15.72,15.72,0,0,0-2.29-.17A16.32,16.32,0,0,0,46.81,19.54Z"/></g></g></svg>