<svg xmlns="http://www.w3.org/2000/svg" viewBox="0 0 64.98 55.02"><defs><style>.cls-1{fill:#fff;}</style></defs><g id="Capa_2" data-name="Capa 2"><g id="Capa_1-2" data-name="Capa 1"><path class="cls-1" d="M35.58,37.18a13.64,13.64,0,0,1-3.95-9.7,13.51,13.51,0,0,1,3.75-9.56,13.75,13.75,0,0,1,10.48-4.48,14,14,0,0,1,14.23,14,13.34,13.34,0,0,1-.85,4.62l-.78,2-4.74-4.6.18-.75a7.73,7.73,0,0,0,.15-1.26,8,8,0,0,0-2.45-5.89,8,8,0,0,0-11.49,0,7.93,7.93,0,0,0-2.43,5.91,8.13,8.13,0,0,0,1.1,4.15,7.6,7.6,0,0,0,2.95,3,8.25,8.25,0,0,0,4.13,1,8,8,0,0,0,1.8-.23l.75-.19L53,39.72l-2,.75a14.63,14.63,0,0,1-5.11.89h-.07A13.63,13.63,0,0,1,35.58,37.18Z"/><path class="cls-1" d="M9.24,6.71A2.61,2.61,0,0,0,8.53,6h0a1.78,1.78,0,0,0-.83-.2,1.6,1.6,0,0,0-1.21.52A1.58,1.58,0,0,0,6,7.53,1.64,1.64,0,0,0,6.5,8.74a1.58,1.58,0,0,0,1.21.49A1.7,1.7,0,0,0,8.53,9h0a2.39,2.39,0,0,0,.69-.72l.84.55A3.22,3.22,0,0,1,9,9.89a2.73,2.73,0,0,1-1.28.32A2.7,2.7,0,0,1,5,7.53a2.7,2.7,0,0,1,2.69-2.7,2.89,2.89,0,0,1,2.36,1.36Z"/><path class="cls-1" d="M10.79,10.16V4.89H14.2v.92H11.71V7h1.86v.91H11.71V9.24H14.2v.92Z"/><path class="cls-1" d="M17.81,10.16,16.56,8h-.73v2.17h-.91V4.89h2.23a1.5,1.5,0,0,1,1.08.46,1.52,1.52,0,0,1,.06,2.12,2.23,2.23,0,0,1-.69.47l1.28,2.22ZM17.54,6a.59.59,0,0,0-.43-.19H15.83V7.06h1.28a.55.55,0,0,0,.43-.18.58.58,0,0,0,0-.88Z"/><path class="cls-1" d="M21.22,5.81v4.35h-.91V5.81H18.76V4.89h4v.92Z"/><path class="cls-1" d="M23.25,10.16V4.89h.92v5.27Z"/><path class="cls-1" d="M25.8,5.81V7h1.87v.91H25.8v2.24h-.91V4.89h3.4v.92Z"/><path class="cls-1" d="M28.86,10.16V4.89h.91v5.27Z"/><path class="cls-1" d="M34.62,6.71a2.58,2.58,0,0,0-.7-.7h0a1.78,1.78,0,0,0-.83-.2,1.59,1.59,0,0,0-1.21.52,1.58,1.58,0,0,0-.52,1.2,1.64,1.64,0,0,0,.52,1.21,1.57,1.57,0,0,0,1.21.49A1.73,1.73,0,0,0,33.92,9h0a2.41,2.41,0,0,0,.7-.72l.84.55a3.32,3.32,0,0,1-1.07,1,2.73,2.73,0,0,1-1.28.32,2.7,2.7,0,0,1-2.69-2.68,2.7,2.7,0,0,1,2.69-2.7,2.86,2.86,0,0,1,2.35,1.36Z"/><path class="cls-1" d="M39.2,10.16l-.35-.93H36.61c-.1.29-.25.66-.35.93h-.94l1.92-5.27h1l1.93,5.27Zm-1.47-4c-.28.75-.5,1.38-.79,2.18h1.58Z"/><path class="cls-1" d="M41.7,5.81v4.35h-.91V5.81H39.24V4.89h4v.92Z"/><path class="cls-1" d="M43.76,10.16V4.89h3.4v.92H44.68V7h1.86v.91H44.68V9.24h2.48v.92Z"/><path class="cls-1" d="M54.85,9.42a2.7,2.7,0,0,1-4.6-1.89,2.7,2.7,0,1,1,4.6,1.89Zm-.7-3.09A1.61,1.61,0,0,0,53,5.81a1.66,1.66,0,0,0-1.22.52,1.57,1.57,0,0,0-.5,1.2,1.62,1.62,0,0,0,.5,1.21A1.65,1.65,0,0,0,53,9.23a1.61,1.61,0,0,0,1.2-.49,1.63,1.63,0,0,0,.51-1.21A1.59,1.59,0,0,0,54.15,6.33Z"/><path class="cls-1" d="M57.37,5.81V7h1.86v.91H57.37v2.24h-.92V4.89h3.4v.92Z"/><path class="cls-1" d="M9.08,46.69a2.58,2.58,0,0,0-.7-.7h0a1.81,1.81,0,0,0-.83-.2,1.59,1.59,0,0,0-1.21.52,1.55,1.55,0,0,0-.52,1.2,1.58,1.58,0,0,0,.52,1.21,1.54,1.54,0,0,0,1.21.5,1.77,1.77,0,0,0,.82-.2h0a2.41,2.41,0,0,0,.7-.72l.84.55a3.32,3.32,0,0,1-1.07,1,2.74,2.74,0,0,1-1.28.33,2.64,2.64,0,0,1-1.91-.79,2.69,2.69,0,0,1,0-3.81,2.64,2.64,0,0,1,1.91-.79,2.89,2.89,0,0,1,2.35,1.36Z"/><path class="cls-1" d="M16.06,49.41a2.67,2.67,0,1,1,.8-1.9A2.62,2.62,0,0,1,16.06,49.41Zm-.69-3.1a1.61,1.61,0,0,0-1.2-.52,1.68,1.68,0,0,0-1.23.52,1.59,1.59,0,0,0-.49,1.2,1.69,1.69,0,0,0,1.72,1.71,1.58,1.58,0,0,0,1.2-.5,1.63,1.63,0,0,0,.51-1.21A1.59,1.59,0,0,0,15.37,46.31Z"/><path class="cls-1" d="M21.75,50.14l-2.24-3.71v3.71h-.93V44.87h.85l2.26,3.74V44.87h.91v5.27Z"/><path class="cls-1" d="M25.29,45.79V47h1.87v.91H25.29v2.24h-.91V44.87h3.4v.92Z"/><path class="cls-1" d="M33.81,49.41a2.69,2.69,0,0,1-3.81,0,2.69,2.69,0,0,1,0-3.81,2.7,2.7,0,0,1,4.6,1.91A2.6,2.6,0,0,1,33.81,49.41Zm-.7-3.1a1.61,1.61,0,0,0-1.2-.52,1.64,1.64,0,0,0-1.22.52,1.57,1.57,0,0,0-.5,1.2,1.71,1.71,0,0,0,1.72,1.71,1.58,1.58,0,0,0,1.2-.5,1.63,1.63,0,0,0,.51-1.21A1.59,1.59,0,0,0,33.11,46.31Z"/><path class="cls-1" d="M39.22,50.14,38,48h-.73v2.17h-.92V44.87h2.23a1.59,1.59,0,0,1,1.55,1.55,1.48,1.48,0,0,1-.4,1,2.16,2.16,0,0,1-.7.47c.4.7.9,1.56,1.29,2.22ZM39,46a.6.6,0,0,0-.44-.19H37.24V47h1.27a.55.55,0,0,0,.44-.18A.6.6,0,0,0,39,46Z"/><path class="cls-1" d="M46,50.14l-.3-3.24c-.34,1.07-.69,2.19-1,3.24h-.8l-1-3.25c-.1,1.08-.21,2.21-.3,3.25h-1l.58-5.27h.91l1.17,3.75c.38-1.23.8-2.53,1.17-3.75h.9L47,50.14Z"/><path class="cls-1" d="M48.52,50.14V44.87h.91v5.27Z"/><path class="cls-1" d="M53.19,45.79v4.35h-.91V45.79H50.73v-.92h4v.92Z"/><path class="cls-1" d="M58.43,47.56v2.58H57.5V47.56c-.54-.83-1.26-1.88-1.81-2.69h1.1L58,46.77l1.17-1.9h1.1Z"/><path class="cls-1" d="M32.24,35.69a7.73,7.73,0,0,1-1.81-.25,8.15,8.15,0,0,1-3.72-2.16,8,8,0,0,1-2.46-5.9,8,8,0,0,1,7.93-8.11,15.27,15.27,0,0,1,2-2.56,15.73,15.73,0,0,1,3.15-2.63,14,14,0,0,0-4.21-.8,13.7,13.7,0,0,0-10.55,4.25,13.76,13.76,0,0,0-4.24,10.58A14,14,0,0,0,32.05,41.58a13,13,0,0,0,5.08-.89,15.58,15.58,0,0,1-2.79-2.3A16.76,16.76,0,0,1,32.24,35.69Z"/><path class="cls-1" d="M18.7,35.69a7.57,7.57,0,0,1-1.8-.25,8.12,8.12,0,0,1-3.71-2.16,8,8,0,0,1-2.47-5.9,8.06,8.06,0,0,1,8.14-8.12h0a17.89,17.89,0,0,1,5-5.14,13.92,13.92,0,0,0-4.3-.84A13.7,13.7,0,0,0,9,17.53,13.76,13.76,0,0,0,4.76,28.11a13.52,13.52,0,0,0,4.11,9.41,13.64,13.64,0,0,0,9.65,4.06,13,13,0,0,0,5-.85,16.38,16.38,0,0,1-2.38-2A16,16,0,0,1,18.7,35.69Z"/><polygon class="cls-1" points="56.88 40.76 59.86 37.87 49.76 28.02 46.79 30.93 56.88 40.76"/><path class="cls-1" d="M57.43,55H7.55A7.56,7.56,0,0,1,0,47.47V7.55A7.56,7.56,0,0,1,7.55,0H57.43A7.56,7.56,0,0,1,65,7.55V47.47A7.56,7.56,0,0,1,57.43,55ZM7.55,1.1A6.45,6.45,0,0,0,1.1,7.55V47.47a6.45,6.45,0,0,0,6.45,6.45H57.43a6.45,6.45,0,0,0,6.45-6.45V7.55A6.45,6.45,0,0,0,57.43,1.1Z"/></g></g></svg>