<svg xmlns="http://www.w3.org/2000/svg" viewBox="0 0 54.74 78.4"><defs><style>.cls-1{fill:#fff;}</style></defs><g id="Capa_2" data-name="Capa 2"><g id="Capa_1-2" data-name="Capa 1"><rect class="cls-1" x="4.52" y="61.58" width="4.76" height="16.82"/><polygon class="cls-1" points="23.41 70.55 15.98 61.59 12.06 61.59 12.06 78.4 16.73 78.4 16.73 69.44 24.15 78.4 28.07 78.4 28.07 61.59 23.41 61.59 23.41 70.55"/><polygon class="cls-1" points="29.24 65.36 34.41 65.36 34.41 78.4 39.17 78.4 39.17 65.36 44.31 65.36 44.31 61.59 29.24 61.59 29.24 65.36"/><rect class="cls-1" x="45.49" y="61.58" width="4.76" height="16.82"/><path class="cls-1" d="M54.74,27.37a27.15,27.15,0,0,0-4.45-14.92v-8h-8a27.29,27.29,0,0,0-29.84,0h-8v8a27.29,27.29,0,0,0,0,29.84v8h8a27.24,27.24,0,0,0,29.84,0h8v-8A27.15,27.15,0,0,0,54.74,27.37Zm-2,0A25.18,25.18,0,0,1,50.29,38.3V16.43A25.26,25.26,0,0,1,52.77,27.37ZM48.33,41.7a25.49,25.49,0,0,1-6.63,6.63H13A25.49,25.49,0,0,1,6.41,41.7V13A25.49,25.49,0,0,1,13,6.41H41.7A25.49,25.49,0,0,1,48.33,13Zm0-35.29V9.79a27.75,27.75,0,0,0-3.39-3.38ZM27.37,2A25.32,25.32,0,0,1,38.3,4.44H16.43A25.4,25.4,0,0,1,27.37,2Zm-21,4.44H9.79A28.4,28.4,0,0,0,6.41,9.79ZM2,27.37A25.4,25.4,0,0,1,4.44,16.43V38.3A25.32,25.32,0,0,1,2,27.37Zm4.44,21V44.94a27.75,27.75,0,0,0,3.38,3.39Zm21,4.44a25.26,25.26,0,0,1-10.94-2.48H38.3A25.18,25.18,0,0,1,27.37,52.77Zm21-4.44H44.94a27.14,27.14,0,0,0,3.39-3.39Z"/><path class="cls-1" d="M15.38,39.36h24v-24h-24Zm2-22h20v20h-20Z"/></g></g></svg>