<?xml version="1.0" encoding="utf-8"?>
<!-- Generator: Adobe Illustrator 24.2.3, SVG Export Plug-In . SVG Version: 6.00 Build 0)  -->
<svg version="1.1" id="Capa_1" xmlns="http://www.w3.org/2000/svg" xmlns:xlink="http://www.w3.org/1999/xlink" x="0px" y="0px"
	 viewBox="0 0 250 250" style="enable-background:new 0 0 250 250;" xml:space="preserve">
<style type="text/css">
	.st0{fill:#FFFFFF;}
</style>
<g>
	<g>
		<path class="st0" d="M52.8,78.8v12.5h-4.2c-3.1,0-5,0.4-5.9,1.2c-0.8,0.8-1.3,2.9-1.3,6.2v47.8c0,3.4,0.4,5.5,1.3,6.3
			c0.9,0.8,2.8,1.2,5.8,1.2h4.2v12.5H2V154h4.2c3,0,4.9-0.4,5.8-1.2c0.9-0.8,1.3-2.9,1.3-6.3V98.7c0-3.3-0.4-5.4-1.3-6.2
			c-0.9-0.8-2.8-1.2-5.8-1.2H2V78.8H52.8z"/>
		<path class="st0" d="M62.1,134.1h12.3c2,6.8,5.4,12.1,10.1,15.9c4.7,3.8,10.2,5.7,16.6,5.7c3.9,0,6.9-0.9,9.3-2.5
			c2.3-1.7,3.5-3.9,3.5-6.6c0-4.2-5-7.7-15.1-10.6c-3.3-0.9-5.8-1.6-7.7-2.2c-6.1-1.9-10.7-3.5-14-4.8c-3.3-1.3-5.6-2.6-7.1-3.7
			c-3.4-2.6-6-5.6-7.6-8.8c-1.6-3.2-2.4-6.9-2.4-11c0-8.8,3.2-15.9,9.5-21.3c6.4-5.4,14.8-8.1,25.2-8.1c5.3,0,10.3,0.5,14.9,1.6
			c4.6,1.1,9.1,2.7,13.4,4.9l2.3-4.4h12.2v30.5h-14.3c-1.4-6.2-4.1-10.8-8-13.9c-3.9-3-9.1-4.6-15.6-4.6c-3.8,0-7,0.9-9.4,2.7
			c-2.5,1.8-3.7,4-3.7,6.6c0,3.9,4.7,6.9,14.2,8.9c2.3,0.5,4.1,0.9,5.4,1.2c13.2,3.1,22.4,7,27.7,11.6c5.3,4.6,8,10.9,8,18.9
			c0,8.9-3.3,15.9-9.8,21.2c-6.5,5.2-15.3,7.9-26.4,7.9c-5.1,0-9.9-0.6-14.6-1.8c-4.7-1.2-9.3-3-13.9-5.3l-3.2,4.8H62.1V134.1z"/>
		<path class="st0" d="M149,122.7c0-14.5,4.4-25.9,13.2-34.2c8.8-8.3,20.9-12.4,36.4-12.4c15.4,0,27.5,4.1,36.2,12.4
			c8.8,8.3,13.1,19.7,13.1,34.2c0,14.5-4.4,25.9-13.2,34.1c-8.8,8.2-20.9,12.3-36.5,12.3c-15.4,0-27.4-4.1-36.2-12.4
			C153.4,148.5,149,137.1,149,122.7z M198.6,89.5c-5.8,0-9.9,2.6-12.6,7.8c-2.6,5.2-4,13.6-4,25.1c0,11.7,1.3,20.2,3.9,25.5
			c2.6,5.2,6.8,7.9,12.5,7.9c5.8,0,10-2.6,12.6-7.8c2.6-5.2,3.9-13.6,3.9-25.2c0-11.7-1.3-20.1-3.9-25.4
			C208.4,92.1,204.3,89.5,198.6,89.5z"/>
	</g>
	<path class="st0" d="M156.2,29.2C109,6.6,55.3,31.7,28,67.2H33c6.5-8,14.4-15.4,23.3-21.7c3,2.7,6.4,4.8,9.9,6.4
		c-5,5.4-9.6,10.6-13.5,15.3h5.1c3.7-4.3,7.8-9,12.3-13.7c5,1.8,10.2,3,15.2,4.1l-5.7,9.6l0,0H84l5.2-8.8l0.2,0
		c7.2,1.5,15.2,2.7,23.6,3.1l-0.1,5.6h3.9l0.1-5.5c7.5,0.1,15.2-0.4,22.8-2c1.4,2.6,2.8,5.1,4.1,7.5h4.4c-1.2-2.3-2.8-5.2-4.5-8.3
		c5.6-1.4,11.1-3.4,16.4-6.1c4.2,4.7,8.1,9.6,11.5,14.4h4.7c-3.6-5.4-8-11-12.8-16.4c3.3-1.9,6.6-4.2,9.7-6.8
		c9.2,6.8,17,14.7,22.7,23.2h4.6C191.1,52,175,38.3,156.2,29.2z M69.1,48.8c-3.4-1.4-6.6-3.3-9.5-5.7C69,37,79.3,32,90.2,28.7
		c0.1,0,0.1,0.1,0.2,0.2C83.1,34.7,75.8,41.7,69.1,48.8z M87.4,54c-4.8-1-9.7-2.1-14.4-3.7c6.5-6.8,13.5-13.5,20.4-19
		c1.5,1.1,3.5,2.1,5.7,3l-2.4,3.9L87.4,54z M113.1,57.6c-7.7-0.4-15.1-1.4-21.7-2.8l8.6-14.5l3-4.9c0.8,0.2,1.6,0.4,2.5,0.4
		c2.6,0.3,5.3,0.4,7.9,0.5L113.1,57.6z M105.8,32c-4.9-0.5-8.7-2.7-11.1-4.6c13-3.3,26.6-4,40.1-1.3c-1.2,0.7-2.7,1.6-4.4,2.8
		C123.8,33.2,114.3,32.9,105.8,32z M117,57.8l0.3-21.4c2.8-0.1,5.6-0.5,8.2-1.2l0.7,0.7c1,1.1,6.2,10.4,11.6,20.3
		C130.8,57.4,123.8,57.9,117,57.8z M141.7,55.3c-4.9-8.9-10.3-18.6-12.3-21.5c1-0.5,2-1,3-1.6c1.2-0.8,2.2-1.4,3.1-1.9
		c7.3,5.3,14.8,12.1,21.8,19.5C152.3,52.2,147.1,54,141.7,55.3z M160.9,47.8c-6.9-7.4-14.4-14.2-21.7-19.7c0.5-0.3,0.9-0.5,1.2-0.6
		c4.8,1.3,9.5,3,14.1,5.3c5.4,2.6,10.6,5.6,15.4,9C167,44,164,46.1,160.9,47.8z"/>
	<path class="st0" d="M69.2,220.1c50.7,24.3,108.4-2.7,137.9-40.8h-5.4c-7,8.6-15.5,16.6-25,23.3c-3.2-2.9-6.8-5.1-10.7-6.9
		c5.4-5.8,10.3-11.4,14.5-16.4h-5.5c-3.9,4.6-8.4,9.7-13.2,14.8c-5.4-2-10.9-3.2-16.3-4.4l6.2-10.4l0,0h-4.8l-5.6,9.5l-0.2,0
		c-7.7-1.6-16.3-2.9-25.3-3.4l0.1-6.1h-4.2l-0.1,5.9c-8-0.1-16.3,0.4-24.5,2.1c-1.5-2.8-3-5.4-4.4-8h-4.8c1.3,2.5,3,5.6,4.9,9
		c-6,1.5-11.9,3.7-17.6,6.6c-4.6-5.1-8.8-10.3-12.4-15.5h-5.1c3.9,5.8,8.6,11.8,13.8,17.6c-3.6,2.1-7.1,4.5-10.4,7.3
		c-9.9-7.3-18.3-15.8-24.4-24.9h-4.9C31.7,195.6,48.9,210.4,69.2,220.1z M162.9,199c3.7,1.5,7.1,3.5,10.2,6.1
		c-10.1,6.7-21.2,12.1-32.9,15.6c-0.1-0.1-0.1-0.1-0.2-0.2C147.7,214.2,155.6,206.7,162.9,199z M143.2,193.5
		c5.2,1.1,10.5,2.3,15.4,3.9c-7,7.3-14.6,14.5-22,20.4c-1.7-1.1-3.7-2.3-6.1-3.2l2.6-4.2L143.2,193.5z M115.5,189.6
		c8.3,0.4,16.2,1.6,23.4,3l-9.3,15.6l-3.2,5.2c-0.9-0.2-1.7-0.4-2.6-0.5c-2.8-0.3-5.6-0.5-8.5-0.5L115.5,189.6z M123.3,217.1
		c5.3,0.5,9.4,2.9,12,4.9c-14,3.5-28.6,4.3-43.1,1.4c1.3-0.8,2.9-1.8,4.8-3C104,215.9,114.3,216.2,123.3,217.1z M111.3,189.4
		l-0.3,23c-3,0.1-6,0.5-8.8,1.3l-0.7-0.7c-1-1.2-6.7-11.2-12.5-21.8C96.5,189.8,104,189.3,111.3,189.4z M84.7,192.1
		c5.3,9.6,11.1,20,13.2,23.1c-1.1,0.5-2.2,1.1-3.2,1.7c-1.3,0.8-2.3,1.5-3.3,2.1c-7.8-5.7-16-13-23.4-20.9
		C73.4,195.4,79,193.5,84.7,192.1z M64.2,200.1c7.4,8,15.4,15.3,23.3,21.2c-0.5,0.3-1,0.5-1.3,0.7c-5.1-1.4-10.2-3.2-15.2-5.6
		c-5.8-2.8-11.4-6.1-16.6-9.6C57.5,204.2,60.8,202,64.2,200.1z"/>
</g>
</svg>
