<svg xmlns="http://www.w3.org/2000/svg" viewBox="0 0 65.35 25.21"><defs><style>.cls-1{fill:#fff;}</style></defs><g id="Capa_2" data-name="Capa 2"><g id="Capa_1-2" data-name="Capa 1"><path class="cls-1" d="M8.82,0a.52.52,0,0,0,.23.1,6.82,6.82,0,0,1,4,1.52,7,7,0,0,1,2.24,3A11.36,11.36,0,0,1,16,7.53a11.13,11.13,0,0,1,.07,1.91,10.3,10.3,0,0,1-.94,4.13,7.28,7.28,0,0,1-2.41,2.79,7.78,7.78,0,0,1-2.66,1.12,7.65,7.65,0,0,1-1.36.15c-.42,0-.84,0-1.26,0A7.17,7.17,0,0,1,1.91,15,7.07,7.07,0,0,1,.35,11.88,7.93,7.93,0,0,1,.1,10.2.79.79,0,0,0,0,9.92v-2c.18-.11.09-.29.11-.45.06-.43.08-.87.17-1.29a8,8,0,0,1,1.1-2.78A7.44,7.44,0,0,1,3.3,1.34,7,7,0,0,1,6.88.1.79.79,0,0,0,7.16,0ZM3.38,8.84c0,.4.11.79.13,1.19A6.25,6.25,0,0,0,4,12a3.81,3.81,0,0,0,1.14,1.65,4.31,4.31,0,0,0,3.76,1,4.22,4.22,0,0,0,3-2.23,7.39,7.39,0,0,0,.76-3.16,8.69,8.69,0,0,0-.32-3,4.35,4.35,0,0,0-1.66-2.51A4.53,4.53,0,0,0,6.6,3.16,4.2,4.2,0,0,0,3.75,6.24,9.84,9.84,0,0,0,3.38,8.84Z"/><path class="cls-1" d="M65.35,10.14a7.08,7.08,0,0,0-.32.68c-.63,1.75-1.25,3.51-1.87,5.26l-2.79,7.85c-.16.43-.33.85-.49,1.28H56.06l-2.72-7.7a14.74,14.74,0,0,1,3.5-.09c.49.92.82,1.95,1.32,3L61.74,9.81h3.61Z"/><path class="cls-1" d="M34,17.38h-3.6c-.53-1.3-1-2.62-1.49-3.86-.47-.09-6-.1-6.59,0-.53,1.25-.89,2.59-1.42,3.87h-3.5l6.43-17H27.4Q30.7,8.84,34,17.38ZM23.36,10.59a1.91,1.91,0,0,0,.39.09h3.8a1.22,1.22,0,0,0,.31-.1c-.71-2-1.4-3.94-2.1-5.89a1.24,1.24,0,0,0-.1-.2s0,0,0,0l-.09,0c-.05.12-.13.26-.18.41C24.69,6.77,24,8.64,23.36,10.59Z"/><path class="cls-1" d="M38.05,17.38H34.53c1.08-2.85,2.14-5.7,3.21-8.54S39.89,3.18,41,.35h3.55q3.3,8.49,6.6,17a.5.5,0,0,1-.17.06h-3.4c-.55-1.28-1-2.62-1.5-3.93H39.44ZM45,10.61,42.72,4.3c-.08.15-.12.19-.14.24l-2.11,6.05a1.74,1.74,0,0,0,.28.09C41.4,10.73,44.58,10.69,45,10.61Z"/></g></g></svg>