<svg xmlns="http://www.w3.org/2000/svg" viewBox="0 0 149.2 56.73"><defs><style>.cls-1{fill:#ef7d2d;}</style></defs><g id="Capa_2" data-name="Capa 2"><g id="Capa_1-2" data-name="Capa 1"><path d="M35.09,0V18a20.26,20.26,0,0,0-13.76-5.15A20.28,20.28,0,0,0,6.21,19.35,21.94,21.94,0,0,0,0,34.84a21,21,0,0,0,6.47,15.5A21.21,21.21,0,0,0,22,56.73a21.31,21.31,0,0,0,15.59-6.39A21,21,0,0,0,44,34.84V0ZM22,47.86A13,13,0,0,1,9,34.84a12.37,12.37,0,0,1,3.8-9.16A12.43,12.43,0,0,1,22,21.81a12.53,12.53,0,0,1,9.23,3.87v0a12.15,12.15,0,0,1,3.87,9.14,12.45,12.45,0,0,1-3.87,9.21A12.7,12.7,0,0,1,22,47.86Z"/><path d="M86.8,12.56a15.61,15.61,0,0,0-12,5.14,15.91,15.91,0,0,0-12.12-5.14c-10.52,0-16.81,8.36-16.81,22.38V55.19h9.12V34.94c0-11.83,3.89-13.43,7.69-13.43,4,0,7.61,1,7.61,13.43V55.19h9V34.94c0-12.42,3.45-13.43,7.61-13.43,4,0,7.69,1.63,7.69,13.43V55.19h9.12V34.94C103.61,14.74,91.85,12.56,86.8,12.56Z"/><rect class="cls-1" x="134.22" y="33.92" width="7.74" height="22.9" transform="translate(8.27 110.75) rotate(-44.92)"/><path d="M131.36,46.8a12.66,12.66,0,1,1,8.64-12,12.14,12.14,0,0,1-.61,3.66l7,7,.14-.27a21.46,21.46,0,0,0,2.72-10.35,21.91,21.91,0,1,0-21.9,21.9,21.48,21.48,0,0,0,10.53-2.81l.4-.23Z"/></g></g></svg>