<?xml version="1.0" encoding="utf-8"?>
<!-- Generator: Adobe Illustrator 24.2.3, SVG Export Plug-In . SVG Version: 6.00 Build 0)  -->
<svg version="1.1" id="Capa_1" xmlns="http://www.w3.org/2000/svg" xmlns:xlink="http://www.w3.org/1999/xlink" x="0px" y="0px"
	 viewBox="0 0 595.3 587.7" style="enable-background:new 0 0 595.3 587.7;" xml:space="preserve">
<style type="text/css">
	.st0{fill:#253C6B;}
</style>
<g>
	<path class="st0" d="M479.7,91.5c0.6,0.6,1.3,1.5,2.2,2.4c5.5,5.5,11.1,10.8,16.4,16.5c4,4.3,7.5,9.2,11.5,13.5
		c3.8,3.9,6.4,8.7,9.9,12.8c2.8,3.4,5,7.4,7.4,11.2c5.6,8.9,10.9,18,15.5,27.5c5.1,10.8,9.6,21.8,13.4,33.2c3,8.9,5.2,18,7.5,27.2
		c1.2,5.1,1.7,10.3,2.6,15.5c1.2,6.6,1.6,13.3,2.5,19.9c0.6,4.5,0.5,8.9,0.6,13.4c0.1,7.2,0,14.3,0,21.5c0,6.2-0.6,12.3-1.5,18.4
		c-0.7,4.5-1,9.1-1.7,13.6c-0.8,4.9-1.8,9.7-2.7,14.6c-1.8,9.6-5.1,18.9-7.8,28.3c-1.2,4.3-3,8.4-4.6,12.5c-0.7,1.7-1.5,3.4-1,5.5
		c-0.5-0.3-0.7-0.4-1.1-0.6c-0.1,0.5-0.1,1-0.3,1.4c-1.6,3.5-3.1,7-4.7,10.4c-5.1,10.5-10.7,20.7-17.1,30.6
		c-4.4,6.7-8.9,13.4-13.8,19.7c-3.3,4.2-6.5,8.6-10.4,12.4c-5.1,5-9.4,10.7-14.6,15.6c-5.2,4.9-10.4,9.7-15.9,14.3
		c-8.2,6.7-16.6,12.9-25.4,18.7c-6.8,4.5-13.8,8.7-21,12.4c-4.8,2.4-9.3,5.5-14.3,7.4c-6.7,2.6-13.3,5.6-20.1,8
		c-7.5,2.6-15.1,5.2-22.8,7.1c-6.7,1.7-13.3,3.6-20.2,4.5c-6.1,0.8-12.1,2.1-18.1,3c-3.9,0.5-7.9,0.5-11.8,0.9
		c-9.9,1-19.8,1-29.7,0.7c-5.8-0.2-11.5-0.4-17.3-1.4c-2.7-0.5-5.5-0.5-8.2-0.9c-6.4-0.8-12.7-1.8-18.9-3.1
		c-6.9-1.4-13.8-3-20.5-4.9c-9.7-2.7-19.1-6.3-28.6-9.7c-2.7-1-5.3-2.3-7.9-3.5c-6-3-12.1-5.9-18-9c-11.4-6.1-22.4-12.9-32.6-20.8
		c-6.5-5-12.9-10-19.2-15.2c-2.3-1.9-4.2-4.2-6.3-6.3c-0.7-0.7-1.3-1.4-2-2c-3-2.4-5.4-5.4-8-8.1c-6.7-6.8-12.8-14-18.6-21.6
		c-5-6.6-10-13.2-14.3-20.3c-5.4-9-10.7-18.1-15.1-27.7c-3.3-7-6.4-14.1-9.1-21.3c-2.8-7.3-5.1-14.8-7.3-22.4
		c-1.7-5.9-3.1-11.9-4.4-17.8c-0.9-3.8-1.4-7.7-2.1-11.6c-0.8-4.5-1.5-9-2.2-13.5c0-0.3-0.1-0.5-0.1-0.8c-0.3-4.2-0.7-8.4-0.8-12.6
		c-0.3-7.3-0.7-14.5-0.7-21.8c0-5.4,0.4-10.8,0.8-16.2c0.4-5,0.8-9.9,1.6-14.8c1.3-7.8,2.6-15.7,4.3-23.5c2.5-11.7,6-23,10-34.2
		c2.5-6.9,5.1-13.7,8.5-20.2c2.4-4.5,4.3-9.3,6.6-13.9c5-9.6,10.7-18.7,16.8-27.6c4-5.9,8.2-11.5,12.9-16.9c0.7-0.9,1.2-2,1.6-2.6
		c1.6-1.8,2.9-3.4,4.3-4.9c1.3-1.4,2.7-2.7,4-4.1c1.5-1.5,3-2.9,4.4-4.4c1.4-1.5,2.7-3.2,4.3-5.1c-0.1,0,0.2,0,0.7,0.1
		c1.9-1.9,4-3.8,6-5.9c7.1-7.5,15.4-13.5,23.5-19.7c6.8-5.3,14.4-9.7,21.7-14.3c5.1-3.2,10.4-6.2,15.7-9c4.7-2.5,9.6-4.8,14.6-6.8
		c8.9-3.5,17.8-7,26.8-10.1c9.7-3.4,19.8-5.7,29.9-7.9c5.7-1.3,11.7-1.7,17.5-2.6c5.9-0.9,11.8-1.1,17.6-1.7
		c10.5-1.1,20.9-0.6,31.3-0.5c6.3,0.1,12.6,0.8,18.8,1.6c5.8,0.7,11.6,2.1,17.4,2.9c12.8,2,25.3,5.5,37.5,9.7
		c7.7,2.6,15.3,5.4,22.7,8.8c6.3,2.9,12.6,5.9,18.7,9.2c10.4,5.5,20.3,11.6,29.8,18.6c7,5.2,14,10.3,20.4,16.3
		C477.4,90,478.3,90.5,479.7,91.5z M127.6,127c-0.8,0.5-1.3,0.7-1.6,1.1c-4.4,4.9-9,9.6-13.2,14.6c-2.8,3.3-5.2,6.9-7.8,10.4
		c-3.8,5-7.5,10.1-10.5,15.7c-1.1,2-2.4,3.8-3.5,5.7c-4.6,7.7-8.7,15.7-12.2,23.9c-3,7.1-5.7,14.4-8.2,21.8
		c-3.3,10-5.8,20.1-7.8,30.3c-1.5,7.4-2.4,15-3.2,22.5c-0.6,5.4-0.8,10.8-0.8,16.2c0,5.4,0,10.8,0.5,16.2c0.6,6.5,0.8,13.1,1.7,19.6
		c0.7,4.8,1.5,9.5,2.3,14.3c1.7,10.2,4.7,20.1,7.7,30c2.1,6.9,5,13.5,7.9,20.2c5.3,12.2,11.6,23.9,18.9,35c3.7,5.7,7.6,11.3,12,16.7
		c3.8,4.7,7.6,9.4,11.7,13.9c4.6,5.1,9.6,9.7,14.5,14.5c2.8,2.7,5.7,5.4,8.8,7.9c4.5,3.6,9,7.3,13.8,10.6
		c6.7,4.6,13.5,9.2,20.5,13.3c6.5,3.7,13.4,6.7,20,10.1c7.6,3.9,15.7,6.6,23.7,9.4c7.5,2.7,15.2,4.6,23,6.3
		c6.1,1.4,12.3,2.7,18.5,3.2c2.2,0.2,4.5,0.2,6.6,0.9c4.4,1.3,9,0.1,13.3,1.4c13.6,0,27.2,0.4,40.8-1.4c5.6-0.7,11.1-1.5,16.7-2.5
		c10.7-1.9,21.1-4.6,31.4-8c6.7-2.2,13.3-4.9,19.8-7.7c6.4-2.8,12.7-5.6,18.8-8.9c9.2-5.1,18.1-10.7,26.6-17
		c3.8-2.8,7.5-5.8,11.2-8.8c3-2.4,5.9-4.8,8.8-7.4c3-2.6,6.2-5,8.7-8.1c3.6-4.5,8.3-7.9,11.4-12.9c1.7-2.8,4.8-4.8,6.8-7.6
		c6.3-8.6,12.7-17,18-26.3c4.1-7.3,8.3-14.6,11.8-22.2c1.5-3.2,3.6-6.2,3.5-9.8c1.4-0.5,1.7-1.7,2.1-2.8c2.3-6.5,4.5-13.1,6.7-19.7
		c0.3-1,0.2-2.2,0.3-3.2c0.3-0.7,0.7-1.4,1-2.1c1.5-4.5,2.2-9.1,3.3-13.7c2.5-9.8,3.4-19.8,4.5-29.8c0.6-5.4,0.3-10.9,0.8-16.4
		c0.3-3.1-0.2-6.3-0.5-9.4c-0.5-5.5,0-11.1-0.9-16.6c-0.8-5.2-0.8-10.5-1.9-15.6c-1.9-8.8-3.4-17.6-6-26.3
		c-3.8-12.9-8.4-25.4-14.2-37.5c-2.4-5.1-5.2-10.1-7.9-15.1c-5.3-9.9-11.9-18.9-18.5-28c-2.1-2.9-4.6-5.4-6.8-8.3
		c-4.9-6.6-11.2-11.9-16.6-18c-1.9-2.2-4.3-3.9-6.4-6c-2-2-5.2-2.6-6.4-5.5c-5-3.9-9.8-8-15.1-11.5c-14-9.6-28.6-18.1-44.3-24.8
		c-9.1-3.8-18.4-6.9-27.7-10c-0.8-0.3-1.7,0-2.8,0c-0.1-0.2-0.4-0.8-0.8-0.9c-2-0.6-4-1.3-6-1.7c-8-1.4-15.9-3.2-23.9-4.3
		c-6.1-0.8-12.3-1.7-18.3-1.9c-10.8-0.4-21.7-0.8-32.5,0.4c-5.3,0.6-10.7,0.9-16,1.7c-4,0.6-8.1,0.9-12,1.8
		c-6,1.4-11.9,2.7-17.8,4.4c-11.1,3.1-21.9,7-32.4,11.7c-6.7,3-13.3,6.2-19.8,9.7c-3.9,2.1-7.7,4.5-11.5,6.8
		c-1.9,1.2-3.7,2.5-5.6,3.7c-1.8,1.2-4.2,1.9-5.1,3.6c-1.2,2.2-4.3,1.6-4.9,4.1c-2.3-0.3-3,2.1-4.7,2.9c-1.7,0.9-3.2,2.3-4.7,3.6
		c-6,5.5-12,11-17.9,16.5C127.4,126.5,127.5,126.8,127.6,127z"/>
	<path class="st0" d="M107.4,359.2c3.8-4.9,7-9.1,10.3-13.4c3.3-4.3,6.6-8.5,10.2-13c57.8,0,115.9,0,174,0c0.6-3.2,0.7-27,0.1-31.7
		c-49.7,0-99.4,0-149.6,0c6.6-8.5,12.9-16.5,19.3-24.7c8.7,0,17.4,0,26.1-0.1c8.6,0,17.3,0,25.9,0c8.8,0,17.5,0,26.3,0
		c8.6,0,17.3,0,25.9,0c8.7,0,17.5,0,26.4,0c0-10.9,0-21.6,0-32.6c-8.8,0-17.5,0-26.3,0c-8.6,0-17.3,0-25.9,0c-8.8,0-17.5,0-26.3,0
		c-8.6,0-17.1,0-26.4,0c1.5-2.1,2.4-3.4,3.4-4.8c1.1-1.5,2.3-2.9,3.4-4.3c1-1.4,1.9-2.8,2.9-4.2c1-1.4,2.2-2.5,3-4.1
		c0.6-1.4,2.2-2.5,3.8-4.1c29.1,0,58.6,0,88.4,0c0-11.9,0-23.6,0-35.5c-3.1-0.6-6.4-0.2-9.6-0.3c-3.4-0.1-6.9,0-10.4,0
		c-3.3,0-6.6,0-10,0c-3.3,0-6.6,0-10,0c-3.5,0-6.9,0-10.4,0c-3.3,0-6.6,0-10.4,0c6.5-8.5,12.7-16.5,19-24.8c13.7,0,27.6,0,41.6,0
		c0-10.7,0-21.1,0-31.8c-5.3-0.2-10.5,0.1-16.1-0.2c1.3-2.1,2.1-3.9,3.3-5.4c3-3.8,6.2-7.5,9.4-11.3c2.3,0.7,2.9,3,4.2,4.6
		c3.7,4.4,7.2,9.1,10.8,13.6c2.8,3.6,5.6,7.3,8.4,11c1.9,2.5,4,4.9,5.9,7.4c3.6,4.7,7.2,9.4,10.8,14.1c2.8,3.6,5.7,7.2,8.5,10.9
		c3,3.9,5.9,8,8.9,11.9c2.8,3.7,5.7,7.3,8.5,10.9c3.4,4.4,6.6,8.9,10.2,13.1c2.8,3.2,4.4,7.3,8.1,9.6c-0.1,1.8,1.5,2.5,2.4,3.7
		c5.9,7.7,11.8,15.5,17.7,23.2c6.1,7.9,12.1,15.9,18.3,23.8c5.4,6.9,11,13.7,16.2,20.9c4.6,6.4,9.7,12.5,14.6,18.7
		c6.3,8.1,12.5,16.3,18.8,24.4c3.1,3.9,5.9,8.1,9.4,11.7c1.7,1.7,2.4,3.9,3.9,5.6c1.5,1.8,3.1,3.6,4.5,5.5c0.4,0.6,0.5,1.4,0.8,2.1
		c-14.2-0.6-28.1-0.2-42-0.3c-14.2-0.1-28.4,0-42.6,0c-14.1,0-28.1,0-42.2,0c-14.2,0-28.4,0-42.6,0c-14.1,0-28.1,0-42.2,0
		c-14.2,0-28.4,0-42.6,0c-14.1,0-28.1,0-42.2,0c-14.2,0-28.4,0-42.6,0C136.5,359.2,122.5,359.2,107.4,359.2z"/>
	<path class="st0" d="M224.1,408.7c0,1.7,0.4,36,0.1,38.1c-0.1,0.5-0.5,0.9-0.8,1.5c-4.1,0-8.2,0-12.3,0c-0.1-0.1-0.2-0.2-0.2-0.3
		c-0.1-0.1-0.2-0.2-0.2-0.3c0-19-0.1-37.9-0.1-56.9c0-0.4,0.2-0.7,0.3-1.2c5.8,0,11.7,0,17.6,0c7.9,12.9,15.8,25.8,24.2,39.5
		c0-13.5,0-26.3,0-39.2c2.4-0.7,4.7-0.3,6.9-0.4c2.1,0,4.2,0,6.6,0c0.6,3.3,0.2,6.6,0.3,9.9c0.1,3.3,0,6.6,0,10c0,3.3,0,6.6,0,10
		c0,3.2,0,6.4,0,9.6c0,3.3,0.1,6.6,0,9.9c-0.2,3.2,0.8,6.5-0.7,9.7c-5.6,0-10.9,0-16.7,0C240.6,435.5,232.7,421.9,224.1,408.7z"/>
	<path class="st0" d="M279.1,448.4c0-10,0-19.6,0-29.3c0-9.5,0-19,0-29.1c0.2-0.1,1-0.6,1.8-0.6c7.2-0.1,14.3-0.4,21.5,0.1
		c6,0.4,11.9,1.6,17.3,4.6c7.5,4.1,12,10.4,13,19c0.2,1.3,0.6,2.6,0.7,3.8c0.3,8.7-2,16.3-8.5,22.4c-3.4,3.2-7.3,5.4-11.7,6.8
		c-5.8,1.8-11.8,2.4-17.9,2.3C290.1,448.4,284.9,448.4,279.1,448.4z M293,402.3c-0.5,7.8-0.3,30.3,0.3,33.3c5,0,9.9,0.4,14.9-1.2
		c7.3-2.3,11-8.1,10.8-14.7c-0.1-2,0-4,0-5.5c-0.5-1-0.8-1.6-1-2.2c-2.3-4.9-6.2-7.6-11.3-8.9C302.2,401.9,297.7,402.4,293,402.3z"
		/>
	<path class="st0" d="M157.3,448.2c0-6.6,0-13,0-19.3c0-6.5,0-13,0-19.5c0-6.3,0.1-12.6-0.1-19.6c0.4-0.7,1.7-0.4,2.8-0.4
		c12.2,0,24.4,0,37,0c0.3,0.7,0.9,1.5,0.9,2.3c0.1,3.3,0,6.6,0,10.1c-2.9,0.9-5.8,0.3-8.6,0.4c-3,0.1-6.1,0-9.2,0c-2.9,0-5.8,0-9,0
		c-0.4,3.1-0.1,6.1-0.1,9.3c0.9,0.1,1.8,0.2,2.7,0.2c6.4,0,12.7,0,19.1,0c1.1,0,2.4-0.4,3.4,1.1c0,3.6,0,7.4,0,11.4
		c-4.2,0.6-8.4,0.2-12.6,0.2c-4.1,0.1-8.2,0-12.5,0c0,3.7,0,7.2,0,11c9.2,0,18.3,0,27.6,0c0,4.3,0,8.4,0,12.7
		C185,448.2,171.4,448.2,157.3,448.2z"/>
	<path class="st0" d="M447.7,448.2c-5.3,0-10.2,0-15.1,0c-1.7-4-3.4-8.1-5.2-12.4c-6.6,0-13.2,0-19.8,0c-0.7,0-1.4,0.5-2,0.8
		c-1.6,4.1-3.2,7.9-4.7,11.7c-5,0-9.8,0-14.9,0c2.3-6.9,6.2-12.9,7.9-19.8c3.7-6.1,5.9-12.8,8.8-19.2c2.9-6.6,5.8-13.2,8.7-19.8
		c3.8,0,7.4,0,10.9,0c3,6.5,6.3,12.8,8.8,19.4c2.5,6.6,5.7,12.9,8.3,19.5C441.9,435,445.4,441.1,447.7,448.2z M416.5,408.4
		c-1.2,2.9-2.3,5.3-3.2,7.7c-1,2.5-2,5-3,7.6c0.2,0.1,0.5,0.6,0.8,0.6c3.8,0,7.6,0,11.8,0C420.7,418.9,418.7,413.9,416.5,408.4z"/>
	<path class="st0" d="M355,404.4c0,1.1,0,2.3,0,3.6c1.7,2.3,4.2,3.5,7,4.4c3.8,1.3,7.8,2.4,11.4,4.1c5.3,2.4,7.8,6.9,7.8,12.6
		c0,2.9-0.3,5.6-1.3,8.5c-1.8,5-5.4,7.7-9.7,9.8c-3.3,1.6-7.1,2.4-10.6,2.4c-7,0-13.8-1.7-19.5-6.3c-0.6-0.5-1-1.4-1.3-1.9
		c3.3-3.5,6.3-6.8,9.4-10.2c1.2,1,2.2,2,3.3,2.8c3.6,2.7,7.5,3.6,11.9,2.1c1.9-0.6,3-2,4.1-3.7c0-0.9,0-1.9,0-3
		c-1.5-1.9-3.2-3.6-5.5-4.3c-3.2-1.1-6.4-2.3-9.7-3.2c-3.8-1-6.5-3.6-9-6.1c-2-2.1-2.7-5.2-2.7-8.1c0-6.3,2-11.8,7.6-15.5
		c5.6-3.7,11.9-4.9,18.6-4.1c3.6,0.4,7,1.2,10.1,2.9c1.5,0.8,2.8,1.9,4.3,3c-2.4,4.2-5.9,6.9-9.1,10.4c-3.2-2.9-6.9-4.5-11.1-3.8
		C358.7,401.2,356.5,402.1,355,404.4z"/>
</g>
<rect x="-261.9" y="58.2" class="st0" width="38" height="34.7"/>
</svg>
