<svg id="Layer_1" data-name="Layer 1" xmlns="http://www.w3.org/2000/svg" viewBox="0 0 634 186"><defs><style>.cls-1{fill:none;}.cls-2{fill:#231f20;}.cls-3{fill:#ed1c24;}.cls-4{fill:#77787b;}</style></defs><title>General Tech</title><rect class="cls-1" width="634" height="186"/><path class="cls-2" d="M92.85,107.86a6.67,6.67,0,0,1,0,9.41,6.59,6.59,0,0,1-9.36,0,6.64,6.64,0,1,1,9.36-9.41" transform="translate(-12 -22)"/><polygon class="cls-2" points="75.42 96.05 81.68 89.76 47.96 62.46 75.42 96.05"/><path class="cls-3" d="M88.05,63a47.55,47.55,0,0,0-19.21,91l-1-4.36c-12.91-7.25-24.37-26.5-20.11-46.87,4-19.34,22.36-31.82,40.94-27.93s30.34,22.75,26.3,42.08a36.33,36.33,0,0,1-14.5,22.29l5.22,15.48A47.54,47.54,0,0,0,88.05,63" transform="translate(-12 -22)"/><path class="cls-2" d="M518.07,77.28c2.33,0,4.64.06,6.75.16,1.55.07,3.29.55,3.29,3.26,0,3-2.36,3.32-3.64,3.41-4.8.39-10.54.19-15.83.18,1.09-4.34,4.1-6.55,9.43-7m1.37,23.25h-.16c-5.89-.27-9.38-2.81-10.63-7.52,2.23,0,4.2,0,6.11,0,5.11-.12,10.28.14,15.33-.5,5.62-.7,9-5.68,9-12,0-4.83-1.93-8.91-5.38-10.63a8.3,8.3,0,0,0-3.37-.91c-4.7-.21-9.43-.26-14.16-.26-1.27,0-2.53,0-3.8.06-9.73.57-15.29,7.11-16.13,18.24a23.27,23.27,0,0,0,0,3.34l0,.71c.68,8.82,5.8,16.35,13.42,17.42,1.56.22,3.13.31,4.69.4,4.82.25,9.68.06,14.62-.08,2.24,0,4.46-.06,6.7-.06v-8.17c-5.57,0-11,0-16.28,0" transform="translate(-12 -22)"/><path class="cls-2" d="M597.31,108.25H586.13V52.93h11v14.9c5.26,0,10-.07,14.69,0,9.63.19,13.89,3.85,14.5,13.66.52,8.68.13,17.43.13,26.64H614.7c0-7.77,0-15.37,0-23,0-7.12-1.43-8.62-8.11-8.69-2.9,0-5.78,0-9.27,0Z" transform="translate(-12 -22)"/><path class="cls-2" d="M580.94,99.86V108c-8.23,0-16.27.88-24.08-.22-8.78-1.25-14.24-11-13.47-21.47.84-11.14,6.39-17.68,16.15-18.24,6.93-.39,13.91-.07,21.31-.07v8.49c-4.56,0-9.26,0-13.93,0-8,.1-11.53,3.48-11.67,11-.13,7.87,3.48,12,11.17,12.36,4.73.22,9.45,0,14.52,0" transform="translate(-12 -22)"/><polyline points="153.36 100.02 615.83 100.02 615.83 102.14 153.36 102.14"/><path class="cls-3" d="M243.53,78c2.35,0,4.66,0,6.76.13,1.57.08,3.31.56,3.31,3.28,0,3-2.36,3.32-3.64,3.42-4.8.39-10.58.19-15.87.17,1.1-4.34,4.11-6.56,9.44-7m1.36,23.28h-.14c-5.9-.28-9.4-2.81-10.64-7.53,2.22,0,4.2,0,6.09,0,5.14-.1,10.31.14,15.37-.5,5.64-.7,9-5.69,9-12.06,0-4.85-1.93-8.94-5.4-10.67a8.57,8.57,0,0,0-3.37-.89c-4.72-.2-9.45-.27-14.2-.27-1.25,0-2.54,0-3.8.07-9.74.56-15.32,7.11-16.16,18.28a25,25,0,0,0,0,3.35l0,.7c.69,8.84,5.82,16.39,13.47,17.46,1.56.22,3.13.32,4.69.4,4.82.27,9.71.06,14.66-.08,2.22,0,4.46-.06,6.69-.06v-8.18H244.89" transform="translate(-12 -22)"/><path class="cls-3" d="M336.05,78c2.33,0,4.66,0,6.77.13,1.56.08,3.29.56,3.29,3.28,0,3-2.35,3.32-3.64,3.42-4.81.39-10.58.19-15.85.17,1.08-4.34,4.1-6.56,9.43-7m1.37,23.28h-.15c-5.92-.28-9.4-2.81-10.64-7.53,2.23,0,4.19,0,6.1,0,5.13-.1,10.29.14,15.36-.5,5.65-.7,9-5.69,9-12.06,0-4.85-1.95-8.94-5.4-10.67a8.48,8.48,0,0,0-3.36-.89c-4.72-.2-9.46-.27-14.21-.27-1.26,0-2.53,0-3.79.07-9.76.56-15.33,7.11-16.16,18.28a26.77,26.77,0,0,0,0,3.35l0,.7c.69,8.84,5.79,16.39,13.46,17.46,1.57.22,3.12.32,4.69.4,4.8.27,9.7.06,14.66-.08,2.24,0,4.48-.06,6.7-.06v-8.18H337.42" transform="translate(-12 -22)"/><path class="cls-3" d="M205.22,99.25V86h-15.6V76.55h27.32v32.62s-21.91.32-32-.22c-10.39-.55-17.27-7.59-19.17-18.57a52.6,52.6,0,0,1-.92-7.59c-.53-19.88,8.13-29.46,26.75-29.61,8.33,0,16.65,0,25.32,0v9.87h-21.4c-6.13,0-12.58.05-15.31,7.18-3.19,8.29-3,18.47,1.78,24.58,2,2.64,6,3.91,8.39,4.26,4.69.66,9.52.18,14.82.18" transform="translate(-12 -22)"/><path class="cls-3" d="M309.45,83c-.59-9.81-4.87-13.47-14.49-13.64-1.8,0-3.61,0-5.45,0s-3.65,0-5.43,0c-9.63.17-13.89,3.83-14.5,13.64-.54,8.68-.12,17.43-.12,26.63h11.69c0-7.75,0-15.37,0-23,0-7.14,1.44-8.63,8.12-8.7h.49c6.67.07,8.09,1.56,8.11,8.7,0,7.6,0,15.22,0,23h11.68c0-9.2.43-18-.11-26.63" transform="translate(-12 -22)"/><path class="cls-3" d="M387.94,69.47c-.43,0-.84-.08-1.33-.08-1.79,0-3.6,0-5.42,0s-3.65,0-5.45,0c-9.62.17-13.9,3.83-14.5,13.64-.53,8.68-.11,17.43-.11,26.63h11.7c0-7.74,0-15.37,0-23,0-7.13,1.43-8.63,8.11-8.7h.49c3.34,0,5.37.43,6.55,1.72-.05-3.44-.09-6.85,0-10.24" transform="translate(-12 -22)"/><path class="cls-2" d="M477.42,62.32H459.24V52.65c.91-.1,33.27,0,49,0v9.67H489.7v45.9H477.42Z" transform="translate(-12 -22)"/><rect class="cls-3" x="429.28" y="31.06" width="10.95" height="55.45"/><path class="cls-3" d="M423.5,101c-3.51,0-6.88,0-9-.1-7.7-.35-11.32-4.5-11.19-12.36.17-7.52,3.69-10.9,11.67-11,2.06,0,5.25,0,8.55,0Zm0-32c-5.82,0-11.87,0-15.93.17-9.75.56-15.3,7.1-16.15,18.24-.77,10.46,4.7,20.22,13.47,21.46,4.82.67,11.93.6,18.61.46,4-.11,7.84-.22,10.95-.23V69c-3,0-6.93-.06-10.95-.09" transform="translate(-12 -22)"/><path class="cls-2" d="M88.41,179.74a66.41,66.41,0,1,1,66.41-66.41A66.49,66.49,0,0,1,88.41,179.74Zm0-127.27a60.87,60.87,0,1,0,60.86,60.86A60.93,60.93,0,0,0,88.41,52.47Z" transform="translate(-12 -22)"/><path class="cls-4" d="M205.34,137.49l-.55,4.78a20.09,20.09,0,0,0-3.61-1.15,16.55,16.55,0,0,0-3.54-.39,7.64,7.64,0,0,0-4,.89,2.8,2.8,0,0,0-1.43,2.5q0,2,5.19,4.47l.77.36c3.24,1.55,5.44,3,6.62,4.39a7.44,7.44,0,0,1,1.76,5,8.43,8.43,0,0,1-3.41,6.92,14.17,14.17,0,0,1-9,2.68,32.75,32.75,0,0,1-7.68-1.55,8.78,8.78,0,0,1-.86-.28l.59-5.21a34.57,34.57,0,0,0,4.58,1.8,12.07,12.07,0,0,0,3.37.54,7.11,7.11,0,0,0,4.17-1.13,3.37,3.37,0,0,0,1.61-2.84q0-2.24-5.19-4.9l-.55-.28-.66-.32a21.66,21.66,0,0,1-5.42-3.52,7.88,7.88,0,0,1-1.7-2.53,8,8,0,0,1-.58-3,7.44,7.44,0,0,1,3.23-6.27c2.14-1.59,5-2.38,8.62-2.38a26.35,26.35,0,0,1,6.1,1.05Z" transform="translate(-12 -22)"/><path class="cls-4" d="M243.77,136.69h19.77v4.38H250.15v8.1h12.68v4.48H250.15v8.93H264v4.62H243.77Z" transform="translate(-12 -22)"/><path class="cls-4" d="M301.54,136.69h10.59q5.91,0,8.88,2a6.6,6.6,0,0,1,3,5.89,6.93,6.93,0,0,1-1.76,4.86,8.87,8.87,0,0,1-5,2.57,5.28,5.28,0,0,1,2.25,1.29,11.29,11.29,0,0,1,1.9,3.32l4.48,10.61h-6.71L315.47,158a5.47,5.47,0,0,0-2-2.78,6.86,6.86,0,0,0-3.64-.78h-2V167.2h-6.28Zm6.28,4.25v9.19h3.28a8.13,8.13,0,0,0,4.78-1.2,3.93,3.93,0,0,0,1.69-3.41,3.85,3.85,0,0,0-1.68-3.47,9.73,9.73,0,0,0-5.27-1.11Z" transform="translate(-12 -22)"/><path class="cls-4" d="M358.08,136.69h6.76l8.49,25.19,8.59-25.19h6.49L376.88,167.2h-7.74Z" transform="translate(-12 -22)"/><path class="cls-4" d="M423.38,136.69h6.38V167.2h-6.38Z" transform="translate(-12 -22)"/><path class="cls-4" d="M493,137.66l-.41,4.83-.48-.17a22.88,22.88,0,0,0-7-1.59,11.71,11.71,0,0,0-8.52,3.11,11.09,11.09,0,0,0-3.19,8.29,10.31,10.31,0,0,0,3.3,7.94,12.21,12.21,0,0,0,8.68,3.05,19.37,19.37,0,0,0,5.42-1.18c.85-.27,1.49-.47,1.91-.58l.55,4.83-1.75.45a28.1,28.1,0,0,1-6.67,1.18q-8.35,0-13.19-4.23t-4.82-11.46a15.1,15.1,0,0,1,4.83-11.67q4.84-4.43,12.83-4.43a26.71,26.71,0,0,1,6.72,1.16Z" transform="translate(-12 -22)"/><path class="cls-4" d="M529.46,136.69h19.77v4.38H535.84v8.1h12.68v4.48H535.84v8.93h13.87v4.62H529.46Z" transform="translate(-12 -22)"/><path class="cls-4" d="M606.11,137.49l-.55,4.78a19.84,19.84,0,0,0-3.61-1.15,16.55,16.55,0,0,0-3.54-.39,7.6,7.6,0,0,0-4,.89,2.79,2.79,0,0,0-1.44,2.5q0,2,5.19,4.47l.78.36q4.84,2.33,6.61,4.39a7.4,7.4,0,0,1,1.77,5,8.41,8.41,0,0,1-3.42,6.92,14.17,14.17,0,0,1-9,2.68,32.75,32.75,0,0,1-7.68-1.55c-.37-.11-.66-.2-.86-.28l.59-5.21a34.57,34.57,0,0,0,4.58,1.8,12.07,12.07,0,0,0,3.37.54,7.15,7.15,0,0,0,4.18-1.13,3.36,3.36,0,0,0,1.6-2.84q0-2.24-5.19-4.9l-.55-.28c-.13-.07-.35-.18-.66-.32a21.66,21.66,0,0,1-5.42-3.52,7.7,7.7,0,0,1-1.69-2.53,7.83,7.83,0,0,1-.58-3,7.43,7.43,0,0,1,3.22-6.27q3.23-2.39,8.62-2.38a26.35,26.35,0,0,1,6.1,1.05Z" transform="translate(-12 -22)"/></svg>