<?xml version="1.0" encoding="utf-8"?>
<!-- Generator: Adobe Illustrator 24.2.3, SVG Export Plug-In . SVG Version: 6.00 Build 0)  -->
<svg version="1.1" id="Capa_1" xmlns="http://www.w3.org/2000/svg" xmlns:xlink="http://www.w3.org/1999/xlink" x="0px" y="0px"
	 viewBox="0 0 45.9 60.5" style="enable-background:new 0 0 45.9 60.5;" xml:space="preserve">
<style type="text/css">
	.st0{fill:none;stroke:#FFFFFF;stroke-width:3;stroke-miterlimit:10;}
	.st1{fill:#070000;}
	.st2{fill:#EF7D2D;}
	.st3{fill:#FFFFFF;}
</style>
<g id="Capa_2_1_">
	<g id="svg2985">
		<g id="Capa_2-2">
			<g id="Capa_1-2">
				<path class="st0" d="M22.9,6.1c-9.7,0-17.5,7.8-17.5,17.5c0,12.1,15.7,29.7,16.4,30.3c0.6,0.6,1.6,0.7,2.2,0.1l0.1-0.1
					c0.7-0.8,16.4-18.4,16.4-30.3C40.5,13.9,32.6,6.1,22.9,6.1C22.9,6.1,22.9,6.1,22.9,6.1z"/>
				<path class="st1" d="M22.9,6.1c-9.7,0-17.5,7.8-17.5,17.5c0,12.1,15.7,29.7,16.4,30.3c0.6,0.6,1.6,0.7,2.2,0.1l0.1-0.1
					c0.7-0.8,16.4-18.4,16.4-30.3C40.5,13.9,32.6,6.1,22.9,6.1C22.9,6.1,22.9,6.1,22.9,6.1z"/>
				<polygon class="st2" points="26.3,23.2 26.1,23 22.5,26.6 32.5,36.6 32.5,36.7 36.1,33.1 				"/>
				<path class="st3" d="M24.8,30.6c-2.1,0.7-4.5,0.3-6.3-1c-1.9-1.4-3-3.7-3-6.1c0-4.1,3.3-7.4,7.4-7.4c4.1,0,7.4,3.3,7.4,7.4
					c0,0.6-0.1,1.2-0.3,1.8l4.5,4.6l0,0c1.1-1.9,1.6-4.1,1.7-6.3c0-7.4-6-13.4-13.4-13.4s-13.4,6-13.4,13.4S15.4,37,22.8,37l0,0
					c2.2,0,4.5-0.6,6.4-1.7l0,0L24.8,30.6z"/>
			</g>
		</g>
	</g>
</g>
</svg>
