<?xml version="1.0" encoding="utf-8"?>
<!-- Generator: Adobe Illustrator 24.2.3, SVG Export Plug-In . SVG Version: 6.00 Build 0)  -->
<svg version="1.1" id="svg2985" xmlns="http://www.w3.org/2000/svg" xmlns:xlink="http://www.w3.org/1999/xlink" x="0px" y="0px"
	 viewBox="0 0 2260.3 1134" style="enable-background:new 0 0 2260.3 1134;" xml:space="preserve">
<style type="text/css">
	.st0{fill:none;stroke:#FFFFFF;stroke-width:3;stroke-miterlimit:10;}
	.st1{fill:#070000;}
	.st2{fill:#EF7D2D;}
	.st3{fill:#FFFFFF;}
</style>
<g>
	<g id="Capa_2_1_">
		<g id="Capa_1-2">
			<g>
				<path class="st0" d="M664.1,724.4c-9.7,0-17.5,7.9-17.5,17.5c0,12.1,15.7,29.7,16.4,30.3c0.6,0.6,1.6,0.7,2.2,0.1l0.1-0.1
					c0.7-0.8,16.4-18.4,16.4-30.3C681.6,732.2,673.8,724.4,664.1,724.4z"/>
				<path class="st1" d="M664.1,724.4c-9.7,0-17.5,7.9-17.5,17.5c0,12.1,15.7,29.7,16.4,30.3c0.6,0.6,1.6,0.7,2.2,0.1l0.1-0.1
					c0.7-0.8,16.4-18.4,16.4-30.3C681.6,732.2,673.8,724.4,664.1,724.4z"/>
			</g>
			<polygon class="st2" points="667.4,741.5 667.3,741.3 663.6,744.9 673.6,754.9 673.7,755 677.3,751.4 			"/>
			<path class="st3" d="M666,748.9c-2.1,0.7-4.5,0.3-6.3-1c-1.9-1.4-3-3.7-3-6.1c0-4.1,3.3-7.4,7.4-7.4c4.1,0,7.4,3.3,7.4,7.4
				c0,0.6-0.1,1.2-0.3,1.8l4.5,4.6l0,0c1.1-1.9,1.6-4.1,1.7-6.3c0-7.4-6-13.4-13.4-13.4s-13.4,6-13.4,13.4s6,13.4,13.4,13.4l0,0
				c2.3,0,4.5-0.6,6.4-1.7l0,0L666,748.9z"/>
		</g>
	</g>
	<g id="Capa_2_2_">
		<g id="Capa_1-2_1_">
			<g>
				<path class="st0" d="M615.5,893.7c-9.7,0-17.5,7.9-17.5,17.5c0,12.1,15.7,29.7,16.4,30.3c0.6,0.6,1.6,0.7,2.2,0.1l0.1-0.1
					c0.7-0.8,16.4-18.4,16.4-30.3C633,901.6,625.2,893.7,615.5,893.7z"/>
				<path class="st1" d="M615.5,893.7c-9.7,0-17.5,7.9-17.5,17.5c0,12.1,15.7,29.7,16.4,30.3c0.6,0.6,1.6,0.7,2.2,0.1l0.1-0.1
					c0.7-0.8,16.4-18.4,16.4-30.3C633,901.6,625.2,893.7,615.5,893.7z"/>
			</g>
			<polygon class="st2" points="618.8,910.8 618.7,910.7 615,914.3 625,924.3 625.1,924.3 628.7,920.7 			"/>
			<path class="st3" d="M617.4,918.2c-2.1,0.7-4.5,0.3-6.3-1c-1.9-1.4-3-3.7-3-6.1c0-4.1,3.3-7.4,7.4-7.4c4.1,0,7.4,3.3,7.4,7.4
				c0,0.6-0.1,1.2-0.3,1.8l4.5,4.6l0,0c1.1-1.9,1.6-4.1,1.7-6.3c0-7.4-6-13.4-13.4-13.4s-13.4,6-13.4,13.4s6,13.4,13.4,13.4l0,0
				c2.3,0,4.5-0.6,6.4-1.7l0,0L617.4,918.2z"/>
		</g>
	</g>
	<g id="Capa_2_3_">
		<g id="Capa_1-2_2_">
			<g>
				<path class="st0" d="M537.2,879.8c-9.7,0-17.5,7.9-17.5,17.5c0,12.1,15.7,29.7,16.4,30.3c0.6,0.6,1.6,0.7,2.2,0.1l0.1-0.1
					c0.7-0.8,16.4-18.4,16.4-30.3C554.8,887.7,546.9,879.8,537.2,879.8z"/>
				<path class="st1" d="M537.2,879.8c-9.7,0-17.5,7.9-17.5,17.5c0,12.1,15.7,29.7,16.4,30.3c0.6,0.6,1.6,0.7,2.2,0.1l0.1-0.1
					c0.7-0.8,16.4-18.4,16.4-30.3C554.8,887.7,546.9,879.8,537.2,879.8z"/>
			</g>
			<polygon class="st2" points="540.6,897 540.4,896.8 536.8,900.4 546.7,910.4 546.8,910.5 550.4,906.9 			"/>
			<path class="st3" d="M539.1,904.4c-2.1,0.7-4.5,0.3-6.3-1c-1.9-1.4-3-3.7-3-6.1c0-4.1,3.3-7.4,7.4-7.4c4.1,0,7.4,3.3,7.4,7.4
				c0,0.6-0.1,1.2-0.3,1.8l4.5,4.6l0,0c1.1-1.9,1.6-4.1,1.7-6.3c0-7.4-6-13.4-13.4-13.4s-13.4,6-13.4,13.4s6,13.4,13.4,13.4l0,0
				c2.3,0,4.5-0.6,6.4-1.7l0,0L539.1,904.4z"/>
		</g>
	</g>
	<g id="Capa_2_4_">
		<g id="Capa_1-2_3_">
			<g>
				<path class="st0" d="M483.8,711.4c-9.7,0-17.5,7.9-17.5,17.5c0,12.1,15.7,29.7,16.4,30.3c0.6,0.6,1.6,0.7,2.2,0.1l0.1-0.1
					c0.7-0.8,16.4-18.4,16.4-30.3C501.3,719.2,493.5,711.4,483.8,711.4z"/>
				<path class="st1" d="M483.8,711.4c-9.7,0-17.5,7.9-17.5,17.5c0,12.1,15.7,29.7,16.4,30.3c0.6,0.6,1.6,0.7,2.2,0.1l0.1-0.1
					c0.7-0.8,16.4-18.4,16.4-30.3C501.3,719.2,493.5,711.4,483.8,711.4z"/>
			</g>
			<polygon class="st2" points="487.1,728.5 487,728.3 483.3,731.9 493.3,741.9 493.4,742 497,738.4 			"/>
			<path class="st3" d="M485.7,735.9c-2.1,0.7-4.5,0.3-6.3-1c-1.9-1.4-3-3.7-3-6.1c0-4.1,3.3-7.4,7.4-7.4s7.4,3.3,7.4,7.4
				c0,0.6-0.1,1.2-0.3,1.8l4.5,4.6l0,0c1.1-1.9,1.6-4.1,1.7-6.3c0-7.4-6-13.4-13.4-13.4s-13.4,6-13.4,13.4s6,13.4,13.4,13.4l0,0
				c2.3,0,4.5-0.6,6.4-1.7l0,0L485.7,735.9z"/>
		</g>
	</g>
	<g id="Capa_2_5_">
		<g id="Capa_1-2_4_">
			<g>
				<path class="st0" d="M448.7,618c-9.7,0-17.5,7.9-17.5,17.5c0,12.1,15.7,29.7,16.4,30.3c0.6,0.6,1.6,0.7,2.2,0.1l0.1-0.1
					c0.7-0.8,16.4-18.4,16.4-30.3C466.2,625.9,458.4,618,448.7,618z"/>
				<path class="st1" d="M448.7,618c-9.7,0-17.5,7.9-17.5,17.5c0,12.1,15.7,29.7,16.4,30.3c0.6,0.6,1.6,0.7,2.2,0.1l0.1-0.1
					c0.7-0.8,16.4-18.4,16.4-30.3C466.2,625.9,458.4,618,448.7,618z"/>
			</g>
			<polygon class="st2" points="452,635.1 451.9,635 448.2,638.6 458.2,648.6 458.3,648.7 461.9,645 			"/>
			<path class="st3" d="M450.6,642.5c-2.1,0.7-4.5,0.3-6.3-1c-1.9-1.4-3-3.7-3-6.1c0-4.1,3.3-7.4,7.4-7.4s7.4,3.3,7.4,7.4
				c0,0.6-0.1,1.2-0.3,1.8l4.5,4.6l0,0c1.1-1.9,1.6-4.1,1.7-6.3c0-7.4-6-13.4-13.4-13.4s-13.4,6-13.4,13.4s6,13.4,13.4,13.4l0,0
				c2.3,0,4.5-0.6,6.4-1.7l0,0L450.6,642.5z"/>
		</g>
	</g>
	<g id="Capa_2_6_">
		<g id="Capa_1-2_5_">
			<g>
				<path class="st0" d="M490.1,584.6c-9.7,0-17.5,7.9-17.5,17.5c0,12.1,15.7,29.7,16.4,30.3c0.6,0.6,1.6,0.7,2.2,0.1l0.1-0.1
					c0.7-0.8,16.4-18.4,16.4-30.3C507.7,592.4,499.8,584.6,490.1,584.6z"/>
				<path class="st1" d="M490.1,584.6c-9.7,0-17.5,7.9-17.5,17.5c0,12.1,15.7,29.7,16.4,30.3c0.6,0.6,1.6,0.7,2.2,0.1l0.1-0.1
					c0.7-0.8,16.4-18.4,16.4-30.3C507.7,592.4,499.8,584.6,490.1,584.6z"/>
			</g>
			<polygon class="st2" points="493.5,601.7 493.3,601.5 489.7,605.1 499.7,615.1 499.8,615.2 503.4,611.6 			"/>
			<path class="st3" d="M492.1,609.1c-2.1,0.7-4.5,0.3-6.3-1c-1.9-1.4-3-3.7-3-6.1c0-4.1,3.3-7.4,7.4-7.4s7.4,3.3,7.4,7.4
				c0,0.6-0.1,1.2-0.3,1.8l4.5,4.6l0,0c1.1-1.9,1.6-4.1,1.7-6.3c0-7.4-6-13.4-13.4-13.4s-13.4,6-13.4,13.4s6,13.4,13.4,13.4l0,0
				c2.3,0,4.5-0.6,6.4-1.7l0,0L492.1,609.1z"/>
		</g>
	</g>
	<g id="Capa_2_7_">
		<g id="Capa_1-2_6_">
			<g>
				<path class="st0" d="M309,444.8c-9.7,0-17.5,7.9-17.5,17.5c0,12.1,15.7,29.7,16.4,30.3c0.6,0.6,1.6,0.7,2.2,0.1l0.1-0.1
					c0.7-0.8,16.4-18.4,16.4-30.3C326.6,452.7,318.7,444.8,309,444.8z"/>
				<path class="st1" d="M309,444.8c-9.7,0-17.5,7.9-17.5,17.5c0,12.1,15.7,29.7,16.4,30.3c0.6,0.6,1.6,0.7,2.2,0.1l0.1-0.1
					c0.7-0.8,16.4-18.4,16.4-30.3C326.6,452.7,318.7,444.8,309,444.8z"/>
			</g>
			<polygon class="st2" points="312.4,461.9 312.2,461.8 308.6,465.4 318.5,475.4 318.6,475.5 322.2,471.8 			"/>
			<path class="st3" d="M310.9,469.3c-2.1,0.7-4.5,0.3-6.3-1c-1.9-1.4-3-3.7-3-6.1c0-4.1,3.3-7.4,7.4-7.4s7.4,3.3,7.4,7.4
				c0,0.6-0.1,1.2-0.3,1.8l4.5,4.6l0,0c1.1-1.9,1.6-4.1,1.7-6.3c0-7.4-6-13.4-13.4-13.4s-13.4,6-13.4,13.4s6,13.4,13.4,13.4l0,0
				c2.3,0,4.5-0.6,6.4-1.7l0,0L310.9,469.3z"/>
		</g>
	</g>
	<g id="Capa_2_8_">
		<g id="Capa_1-2_7_">
			<g>
				<path class="st0" d="M402.7,316.4c-9.7,0-17.5,7.9-17.5,17.5c0,12.1,15.7,29.7,16.4,30.3c0.6,0.6,1.6,0.7,2.2,0.1l0.1-0.1
					c0.7-0.8,16.4-18.4,16.4-30.3C420.3,324.2,412.4,316.4,402.7,316.4z"/>
				<path class="st1" d="M402.7,316.4c-9.7,0-17.5,7.9-17.5,17.5c0,12.1,15.7,29.7,16.4,30.3c0.6,0.6,1.6,0.7,2.2,0.1l0.1-0.1
					c0.7-0.8,16.4-18.4,16.4-30.3C420.3,324.2,412.4,316.4,402.7,316.4z"/>
			</g>
			<polygon class="st2" points="406.1,333.5 405.9,333.3 402.3,336.9 412.3,346.9 412.4,347 416,343.4 			"/>
			<path class="st3" d="M404.7,340.9c-2.1,0.7-4.5,0.3-6.3-1c-1.9-1.4-3-3.7-3-6.1c0-4.1,3.3-7.4,7.4-7.4s7.4,3.3,7.4,7.4
				c0,0.6-0.1,1.2-0.3,1.8l4.5,4.6l0,0c1.1-1.9,1.6-4.1,1.7-6.3c0-7.4-6-13.4-13.4-13.4s-13.4,6-13.4,13.4s6,13.4,13.4,13.4l0,0
				c2.3,0,4.5-0.6,6.4-1.7l0,0L404.7,340.9z"/>
		</g>
	</g>
	<g id="Capa_2_9_">
		<g id="Capa_1-2_8_">
			<g>
				<path class="st0" d="M347.7,182.6c-9.7,0-17.5,7.9-17.5,17.5c0,12.1,15.7,29.7,16.4,30.3c0.6,0.6,1.6,0.7,2.2,0.1l0.1-0.1
					c0.7-0.8,16.4-18.4,16.4-30.3C365.2,190.4,357.4,182.6,347.7,182.6z"/>
				<path class="st1" d="M347.7,182.6c-9.7,0-17.5,7.9-17.5,17.5c0,12.1,15.7,29.7,16.4,30.3c0.6,0.6,1.6,0.7,2.2,0.1l0.1-0.1
					c0.7-0.8,16.4-18.4,16.4-30.3C365.2,190.4,357.4,182.6,347.7,182.6z"/>
			</g>
			<polygon class="st2" points="351,199.7 350.9,199.6 347.2,203.2 357.2,213.2 357.3,213.2 360.9,209.6 			"/>
			<path class="st3" d="M349.6,207.1c-2.1,0.7-4.5,0.3-6.3-1c-1.9-1.4-3-3.7-3-6.1c0-4.1,3.3-7.4,7.4-7.4s7.4,3.3,7.4,7.4
				c0,0.6-0.1,1.2-0.3,1.8l4.5,4.6l0,0c1.1-1.9,1.6-4.1,1.7-6.3c0-7.4-6-13.4-13.4-13.4s-13.4,6-13.4,13.4s6,13.4,13.4,13.4l0,0
				c2.3,0,4.5-0.6,6.4-1.7l0,0L349.6,207.1z"/>
		</g>
	</g>
	<g id="Capa_2_10_">
		<g id="Capa_1-2_9_">
			<g>
				<path class="st0" d="M1075.8,254.1c-9.7,0-17.5,7.9-17.5,17.5c0,12.1,15.7,29.7,16.4,30.3c0.6,0.6,1.6,0.7,2.2,0.1l0.1-0.1
					c0.7-0.8,16.4-18.4,16.4-30.3C1093.3,262,1085.5,254.1,1075.8,254.1z"/>
				<path class="st1" d="M1075.8,254.1c-9.7,0-17.5,7.9-17.5,17.5c0,12.1,15.7,29.7,16.4,30.3c0.6,0.6,1.6,0.7,2.2,0.1l0.1-0.1
					c0.7-0.8,16.4-18.4,16.4-30.3C1093.3,262,1085.5,254.1,1075.8,254.1z"/>
			</g>
			<polygon class="st2" points="1079.1,271.2 1079,271.1 1075.3,274.7 1085.3,284.7 1085.4,284.8 1089,281.2 			"/>
			<path class="st3" d="M1077.7,278.6c-2.1,0.7-4.5,0.3-6.3-1c-1.9-1.4-3-3.7-3-6.1c0-4.1,3.3-7.4,7.4-7.4s7.4,3.3,7.4,7.4
				c0,0.6-0.1,1.2-0.3,1.8l4.5,4.6l0,0c1.1-1.9,1.6-4.1,1.7-6.3c0-7.4-6-13.4-13.4-13.4s-13.4,6-13.4,13.4s6,13.4,13.4,13.4l0,0
				c2.3,0,4.5-0.6,6.4-1.7l0,0L1077.7,278.6z"/>
		</g>
	</g>
	<g id="Capa_2_11_">
		<g id="Capa_1-2_10_">
			<g>
				<path class="st0" d="M1506.4,133.8c-9.7,0-17.5,7.9-17.5,17.5c0,12.1,15.7,29.7,16.4,30.3c0.6,0.6,1.6,0.7,2.2,0.1l0.1-0.1
					c0.7-0.8,16.4-18.4,16.4-30.3C1523.9,141.7,1516.1,133.8,1506.4,133.8z"/>
				<path class="st1" d="M1506.4,133.8c-9.7,0-17.5,7.9-17.5,17.5c0,12.1,15.7,29.7,16.4,30.3c0.6,0.6,1.6,0.7,2.2,0.1l0.1-0.1
					c0.7-0.8,16.4-18.4,16.4-30.3C1523.9,141.7,1516.1,133.8,1506.4,133.8z"/>
			</g>
			<polygon class="st2" points="1509.7,150.9 1509.6,150.8 1505.9,154.4 1515.9,164.4 1516,164.5 1519.6,160.8 			"/>
			<path class="st3" d="M1508.3,158.3c-2.1,0.7-4.5,0.3-6.3-1c-1.9-1.4-3-3.7-3-6.1c0-4.1,3.3-7.4,7.4-7.4s7.4,3.3,7.4,7.4
				c0,0.6-0.1,1.2-0.3,1.8l4.5,4.6l0,0c1.1-1.9,1.6-4.1,1.7-6.3c0-7.4-6-13.4-13.4-13.4s-13.4,6-13.4,13.4s6,13.4,13.4,13.4l0,0
				c2.3,0,4.5-0.6,6.4-1.7l0,0L1508.3,158.3z"/>
		</g>
	</g>
	<g id="Capa_2_12_">
		<g id="Capa_1-2_11_">
			<g>
				<path class="st0" d="M1202.8,419.6c-9.7,0-17.5,7.9-17.5,17.5c0,12.1,15.7,29.7,16.4,30.3c0.6,0.6,1.6,0.7,2.2,0.1l0.1-0.1
					c0.7-0.8,16.4-18.4,16.4-30.3C1220.3,427.5,1212.5,419.6,1202.8,419.6z"/>
				<path class="st1" d="M1202.8,419.6c-9.7,0-17.5,7.9-17.5,17.5c0,12.1,15.7,29.7,16.4,30.3c0.6,0.6,1.6,0.7,2.2,0.1l0.1-0.1
					c0.7-0.8,16.4-18.4,16.4-30.3C1220.3,427.5,1212.5,419.6,1202.8,419.6z"/>
			</g>
			<polygon class="st2" points="1206.1,436.7 1206,436.6 1202.3,440.2 1212.3,450.2 1212.4,450.3 1216,446.6 			"/>
			<path class="st3" d="M1204.7,444.1c-2.1,0.7-4.5,0.3-6.3-1c-1.9-1.4-3-3.7-3-6.1c0-4.1,3.3-7.4,7.4-7.4s7.4,3.3,7.4,7.4
				c0,0.6-0.1,1.2-0.3,1.8l4.5,4.6l0,0c1.1-1.9,1.6-4.1,1.7-6.3c0-7.4-6-13.4-13.4-13.4s-13.4,6-13.4,13.4s6,13.4,13.4,13.4l0,0
				c2.3,0,4.5-0.6,6.4-1.7l0,0L1204.7,444.1z"/>
		</g>
	</g>
	<g id="Capa_2_13_">
		<g id="Capa_1-2_12_">
			<g>
				<path class="st0" d="M1307.4,444.2c-9.7,0-17.5,7.9-17.5,17.5c0,12.1,15.7,29.7,16.4,30.3c0.6,0.6,1.6,0.7,2.2,0.1l0.1-0.1
					c0.7-0.8,16.4-18.4,16.4-30.3C1324.9,452.1,1317.1,444.2,1307.4,444.2z"/>
				<path class="st1" d="M1307.4,444.2c-9.7,0-17.5,7.9-17.5,17.5c0,12.1,15.7,29.7,16.4,30.3c0.6,0.6,1.6,0.7,2.2,0.1l0.1-0.1
					c0.7-0.8,16.4-18.4,16.4-30.3C1324.9,452.1,1317.1,444.2,1307.4,444.2z"/>
			</g>
			<polygon class="st2" points="1310.7,461.3 1310.6,461.2 1306.9,464.8 1316.9,474.8 1317,474.9 1320.6,471.2 			"/>
			<path class="st3" d="M1309.3,468.7c-2.1,0.7-4.5,0.3-6.3-1c-1.9-1.4-3-3.7-3-6.1c0-4.1,3.3-7.4,7.4-7.4s7.4,3.3,7.4,7.4
				c0,0.6-0.1,1.2-0.3,1.8l4.5,4.6l0,0c1.1-1.9,1.6-4.1,1.7-6.3c0-7.4-6-13.4-13.4-13.4s-13.4,6-13.4,13.4s6,13.4,13.4,13.4l0,0
				c2.3,0,4.5-0.6,6.4-1.7l0,0L1309.3,468.7z"/>
		</g>
	</g>
	<g id="Capa_2_14_">
		<g id="Capa_1-2_13_">
			<g>
				<path class="st0" d="M1302.8,354.3c-9.7,0-17.5,7.9-17.5,17.5c0,12.1,15.7,29.7,16.4,30.3c0.6,0.6,1.6,0.7,2.2,0.1l0.1-0.1
					c0.7-0.8,16.4-18.4,16.4-30.3C1320.3,362.2,1312.5,354.3,1302.8,354.3z"/>
				<path class="st1" d="M1302.8,354.3c-9.7,0-17.5,7.9-17.5,17.5c0,12.1,15.7,29.7,16.4,30.3c0.6,0.6,1.6,0.7,2.2,0.1l0.1-0.1
					c0.7-0.8,16.4-18.4,16.4-30.3C1320.3,362.2,1312.5,354.3,1302.8,354.3z"/>
			</g>
			<polygon class="st2" points="1306.1,371.4 1306,371.3 1302.3,374.9 1312.3,384.9 1312.4,385 1316,381.3 			"/>
			<path class="st3" d="M1304.7,378.8c-2.1,0.7-4.5,0.3-6.3-1c-1.9-1.4-3-3.7-3-6.1c0-4.1,3.3-7.4,7.4-7.4s7.4,3.3,7.4,7.4
				c0,0.6-0.1,1.2-0.3,1.8l4.5,4.6l0,0c1.1-1.9,1.6-4.1,1.7-6.3c0-7.4-6-13.4-13.4-13.4s-13.4,6-13.4,13.4s6,13.4,13.4,13.4l0,0
				c2.3,0,4.5-0.6,6.4-1.7l0,0L1304.7,378.8z"/>
		</g>
	</g>
	<g id="Capa_2_15_">
		<g id="Capa_1-2_14_">
			<g>
				<path class="st0" d="M1374.7,417.3c-9.7,0-17.5,7.9-17.5,17.5c0,12.1,15.7,29.7,16.4,30.3c0.6,0.6,1.6,0.7,2.2,0.1l0.1-0.1
					c0.7-0.8,16.4-18.4,16.4-30.3C1392.2,425.1,1384.4,417.3,1374.7,417.3z"/>
				<path class="st1" d="M1374.7,417.3c-9.7,0-17.5,7.9-17.5,17.5c0,12.1,15.7,29.7,16.4,30.3c0.6,0.6,1.6,0.7,2.2,0.1l0.1-0.1
					c0.7-0.8,16.4-18.4,16.4-30.3C1392.2,425.1,1384.4,417.3,1374.7,417.3z"/>
			</g>
			<polygon class="st2" points="1378,434.4 1377.9,434.3 1374.2,437.9 1384.2,447.9 1384.3,447.9 1387.9,444.3 			"/>
			<path class="st3" d="M1376.6,441.8c-2.1,0.7-4.5,0.3-6.3-1c-1.9-1.4-3-3.7-3-6.1c0-4.1,3.3-7.4,7.4-7.4s7.4,3.3,7.4,7.4
				c0,0.6-0.1,1.2-0.3,1.8l4.5,4.6l0,0c1.1-1.9,1.6-4.1,1.7-6.3c0-7.4-6-13.4-13.4-13.4s-13.4,6-13.4,13.4s6,13.4,13.4,13.4l0,0
				c2.3,0,4.5-0.6,6.4-1.7l0,0L1376.6,441.8z"/>
		</g>
	</g>
	<g id="Capa_2_16_">
		<g id="Capa_1-2_15_">
			<g>
				<path class="st0" d="M1545.2,457.8c-9.7,0-17.5,7.9-17.5,17.5c0,12.1,15.7,29.7,16.4,30.3c0.6,0.6,1.6,0.7,2.2,0.1l0.1-0.1
					c0.7-0.8,16.4-18.4,16.4-30.3C1562.8,465.7,1554.9,457.8,1545.2,457.8z"/>
				<path class="st1" d="M1545.2,457.8c-9.7,0-17.5,7.9-17.5,17.5c0,12.1,15.7,29.7,16.4,30.3c0.6,0.6,1.6,0.7,2.2,0.1l0.1-0.1
					c0.7-0.8,16.4-18.4,16.4-30.3C1562.8,465.7,1554.9,457.8,1545.2,457.8z"/>
			</g>
			<polygon class="st2" points="1548.6,474.9 1548.4,474.8 1544.8,478.4 1554.7,488.4 1554.8,488.5 1558.4,484.8 			"/>
			<path class="st3" d="M1547.1,482.3c-2.1,0.7-4.5,0.3-6.3-1c-1.9-1.4-3-3.7-3-6.1c0-4.1,3.3-7.4,7.4-7.4s7.4,3.3,7.4,7.4
				c0,0.6-0.1,1.2-0.3,1.8l4.5,4.6l0,0c1.1-1.9,1.6-4.1,1.7-6.3c0-7.4-6-13.4-13.4-13.4s-13.4,6-13.4,13.4s6,13.4,13.4,13.4l0,0
				c2.3,0,4.5-0.6,6.4-1.7l0,0L1547.1,482.3z"/>
		</g>
	</g>
	<g id="Capa_2_20_">
		<g id="Capa_1-2_19_">
			<g>
				<path class="st0" d="M1698.5,482c-9.7,0-17.5,7.9-17.5,17.5c0,12.1,15.7,29.7,16.4,30.3c0.6,0.6,1.6,0.7,2.2,0.1l0.1-0.1
					c0.7-0.8,16.4-18.4,16.4-30.3C1716.1,489.8,1708.2,482,1698.5,482z"/>
				<path class="st1" d="M1698.5,482c-9.7,0-17.5,7.9-17.5,17.5c0,12.1,15.7,29.7,16.4,30.3c0.6,0.6,1.6,0.7,2.2,0.1l0.1-0.1
					c0.7-0.8,16.4-18.4,16.4-30.3C1716.1,489.8,1708.2,482,1698.5,482z"/>
			</g>
			<polygon class="st2" points="1701.9,499.1 1701.7,499 1698.1,502.6 1708,512.6 1708.1,512.6 1711.7,509 			"/>
			<path class="st3" d="M1700.4,506.5c-2.1,0.7-4.5,0.3-6.3-1c-1.9-1.4-3-3.7-3-6.1c0-4.1,3.3-7.4,7.4-7.4s7.4,3.3,7.4,7.4
				c0,0.6-0.1,1.2-0.3,1.8l4.5,4.6l0,0c1.1-1.9,1.6-4.1,1.7-6.3c0-7.4-6-13.4-13.4-13.4s-13.4,6-13.4,13.4s6,13.4,13.4,13.4l0,0
				c2.3,0,4.5-0.6,6.4-1.7l0,0L1700.4,506.5z"/>
		</g>
	</g>
	<g id="Capa_2_19_">
		<g id="Capa_1-2_18_">
			<g>
				<path class="st0" d="M1757.8,511.7c-9.7,0-17.5,7.9-17.5,17.5c0,12.1,15.7,29.7,16.4,30.3c0.6,0.6,1.6,0.7,2.2,0.1l0.1-0.1
					c0.7-0.8,16.4-18.4,16.4-30.3C1775.4,519.5,1767.5,511.7,1757.8,511.7z"/>
				<path class="st1" d="M1757.8,511.7c-9.7,0-17.5,7.9-17.5,17.5c0,12.1,15.7,29.7,16.4,30.3c0.6,0.6,1.6,0.7,2.2,0.1l0.1-0.1
					c0.7-0.8,16.4-18.4,16.4-30.3C1775.4,519.5,1767.5,511.7,1757.8,511.7z"/>
			</g>
			<polygon class="st2" points="1761.2,528.8 1761,528.7 1757.4,532.3 1767.3,542.3 1767.4,542.3 1771,538.7 			"/>
			<path class="st3" d="M1759.7,536.2c-2.1,0.7-4.5,0.3-6.3-1c-1.9-1.4-3-3.7-3-6.1c0-4.1,3.3-7.4,7.4-7.4s7.4,3.3,7.4,7.4
				c0,0.6-0.1,1.2-0.3,1.8l4.5,4.6l0,0c1.1-1.9,1.6-4.1,1.7-6.3c0-7.4-6-13.4-13.4-13.4s-13.4,6-13.4,13.4s6,13.4,13.4,13.4l0,0
				c2.3,0,4.5-0.6,6.4-1.7l0,0L1759.7,536.2z"/>
		</g>
	</g>
	<g id="Capa_2_23_">
		<g id="Capa_1-2_22_">
			<g>
				<path class="st0" d="M1849.2,313.2c-9.7,0-17.5,7.9-17.5,17.5c0,12.1,15.7,29.7,16.4,30.3c0.6,0.6,1.6,0.7,2.2,0.1l0.1-0.1
					c0.7-0.8,16.4-18.4,16.4-30.3C1866.7,321,1858.8,313.2,1849.2,313.2z"/>
				<path class="st1" d="M1849.2,313.2c-9.7,0-17.5,7.9-17.5,17.5c0,12.1,15.7,29.7,16.4,30.3c0.6,0.6,1.6,0.7,2.2,0.1l0.1-0.1
					c0.7-0.8,16.4-18.4,16.4-30.3C1866.7,321,1858.8,313.2,1849.2,313.2z"/>
			</g>
			<polygon class="st2" points="1852.5,330.3 1852.3,330.2 1848.7,333.8 1858.7,343.8 1858.8,343.8 1862.4,340.2 			"/>
			<path class="st3" d="M1851.1,337.7c-2.1,0.7-4.5,0.3-6.3-1c-1.9-1.4-3-3.7-3-6.1c0-4.1,3.3-7.4,7.4-7.4s7.4,3.3,7.4,7.4
				c0,0.6-0.1,1.2-0.3,1.8l4.5,4.6l0,0c1.1-1.9,1.6-4.1,1.7-6.3c0-7.4-6-13.4-13.4-13.4s-13.4,6-13.4,13.4s6,13.4,13.4,13.4l0,0
				c2.3,0,4.5-0.6,6.4-1.7l0,0L1851.1,337.7z"/>
		</g>
	</g>
	<g id="Capa_2_24_">
		<g id="Capa_1-2_23_">
			<g>
				<path class="st0" d="M1831.1,410.1c-9.7,0-17.5,7.9-17.5,17.5c0,12.1,15.7,29.7,16.4,30.3c0.6,0.6,1.6,0.7,2.2,0.1l0.1-0.1
					c0.7-0.8,16.4-18.4,16.4-30.3C1848.7,418,1840.8,410.1,1831.1,410.1z"/>
				<path class="st1" d="M1831.1,410.1c-9.7,0-17.5,7.9-17.5,17.5c0,12.1,15.7,29.7,16.4,30.3c0.6,0.6,1.6,0.7,2.2,0.1l0.1-0.1
					c0.7-0.8,16.4-18.4,16.4-30.3C1848.7,418,1840.8,410.1,1831.1,410.1z"/>
			</g>
			<polygon class="st2" points="1834.5,427.2 1834.3,427.1 1830.7,430.7 1840.6,440.7 1840.7,440.8 1844.3,437.2 			"/>
			<path class="st3" d="M1833,434.6c-2.1,0.7-4.5,0.3-6.3-1c-1.9-1.4-3-3.7-3-6.1c0-4.1,3.3-7.4,7.4-7.4s7.4,3.3,7.4,7.4
				c0,0.6-0.1,1.2-0.3,1.8l4.5,4.6l0,0c1.1-1.9,1.6-4.1,1.7-6.3c0-7.4-6-13.4-13.4-13.4s-13.4,6-13.4,13.4s6,13.4,13.4,13.4l0,0
				c2.3,0,4.5-0.6,6.4-1.7l0,0L1833,434.6z"/>
		</g>
	</g>
	<g id="Capa_2_25_">
		<g id="Capa_1-2_24_">
			<g>
				<path class="st0" d="M1919,317.4c-9.7,0-17.5,7.9-17.5,17.5c0,12.1,15.7,29.7,16.4,30.3c0.6,0.6,1.6,0.7,2.2,0.1l0.1-0.1
					c0.7-0.8,16.4-18.4,16.4-30.3C1936.5,325.3,1928.7,317.4,1919,317.4z"/>
				<path class="st1" d="M1919,317.4c-9.7,0-17.5,7.9-17.5,17.5c0,12.1,15.7,29.7,16.4,30.3c0.6,0.6,1.6,0.7,2.2,0.1l0.1-0.1
					c0.7-0.8,16.4-18.4,16.4-30.3C1936.5,325.3,1928.7,317.4,1919,317.4z"/>
			</g>
			<polygon class="st2" points="1922.3,334.5 1922.2,334.4 1918.5,338 1928.5,348 1928.6,348 1932.2,344.4 			"/>
			<path class="st3" d="M1920.9,341.9c-2.1,0.7-4.5,0.3-6.3-1c-1.9-1.4-3-3.7-3-6.1c0-4.1,3.3-7.4,7.4-7.4s7.4,3.3,7.4,7.4
				c0,0.6-0.1,1.2-0.3,1.8l4.5,4.6l0,0c1.1-1.9,1.6-4.1,1.7-6.3c0-7.4-6-13.4-13.4-13.4s-13.4,6-13.4,13.4s6,13.4,13.4,13.4l0,0
				c2.3,0,4.5-0.6,6.4-1.7l0,0L1920.9,341.9z"/>
		</g>
	</g>
	<g id="Capa_2_21_">
		<g id="Capa_1-2_20_">
			<g>
				<path class="st0" d="M1790.4,588.2c-9.7,0-17.5,7.9-17.5,17.5c0,12.1,15.7,29.7,16.4,30.3c0.6,0.6,1.6,0.7,2.2,0.1l0.1-0.1
					c0.7-0.8,16.4-18.4,16.4-30.3C1808,596,1800.1,588.2,1790.4,588.2z"/>
				<path class="st1" d="M1790.4,588.2c-9.7,0-17.5,7.9-17.5,17.5c0,12.1,15.7,29.7,16.4,30.3c0.6,0.6,1.6,0.7,2.2,0.1l0.1-0.1
					c0.7-0.8,16.4-18.4,16.4-30.3C1808,596,1800.1,588.2,1790.4,588.2z"/>
			</g>
			<polygon class="st2" points="1793.7,605.3 1793.6,605.1 1790,608.7 1799.9,618.7 1800,618.8 1803.6,615.2 			"/>
			<path class="st3" d="M1792.3,612.7c-2.1,0.7-4.5,0.3-6.3-1c-1.9-1.4-3-3.7-3-6.1c0-4.1,3.3-7.4,7.4-7.4s7.4,3.3,7.4,7.4
				c0,0.6-0.1,1.2-0.3,1.8l4.5,4.6l0,0c1.1-1.9,1.6-4.1,1.7-6.3c0-7.4-6-13.4-13.4-13.4s-13.4,6-13.4,13.4s6,13.4,13.4,13.4l0,0
				c2.3,0,4.5-0.6,6.4-1.7l0,0L1792.3,612.7z"/>
		</g>
	</g>
	<g id="Capa_2_17_">
		<g id="Capa_1-2_16_">
			<g>
				<path class="st0" d="M1568.2,543.5c-9.7,0-17.5,7.9-17.5,17.5c0,12.1,15.7,29.7,16.4,30.3c0.6,0.6,1.6,0.7,2.2,0.1l0.1-0.1
					c0.7-0.8,16.4-18.4,16.4-30.3C1585.8,551.3,1577.9,543.5,1568.2,543.5z"/>
				<path class="st1" d="M1568.2,543.5c-9.7,0-17.5,7.9-17.5,17.5c0,12.1,15.7,29.7,16.4,30.3c0.6,0.6,1.6,0.7,2.2,0.1l0.1-0.1
					c0.7-0.8,16.4-18.4,16.4-30.3C1585.8,551.3,1577.9,543.5,1568.2,543.5z"/>
			</g>
			<polygon class="st2" points="1571.6,560.6 1571.4,560.4 1567.8,564 1577.7,574 1577.8,574.1 1581.4,570.5 			"/>
			<path class="st3" d="M1570.1,568c-2.1,0.7-4.5,0.3-6.3-1c-1.9-1.4-3-3.7-3-6.1c0-4.1,3.3-7.4,7.4-7.4s7.4,3.3,7.4,7.4
				c0,0.6-0.1,1.2-0.3,1.8l4.5,4.6l0,0c1.1-1.9,1.6-4.1,1.7-6.3c0-7.4-6-13.4-13.4-13.4s-13.4,6-13.4,13.4s6,13.4,13.4,13.4l0,0
				c2.3,0,4.5-0.6,6.4-1.7l0,0L1570.1,568z"/>
		</g>
	</g>
	<g id="Capa_2_18_">
		<g id="Capa_1-2_17_">
			<g>
				<path class="st0" d="M1732.6,594.4c-9.7,0-17.5,7.9-17.5,17.5c0,12.1,15.7,29.7,16.4,30.3c0.6,0.6,1.6,0.7,2.2,0.1l0.1-0.1
					c0.7-0.8,16.4-18.4,16.4-30.3C1750.1,602.3,1742.3,594.4,1732.6,594.4z"/>
				<path class="st1" d="M1732.6,594.4c-9.7,0-17.5,7.9-17.5,17.5c0,12.1,15.7,29.7,16.4,30.3c0.6,0.6,1.6,0.7,2.2,0.1l0.1-0.1
					c0.7-0.8,16.4-18.4,16.4-30.3C1750.1,602.3,1742.3,594.4,1732.6,594.4z"/>
			</g>
			<polygon class="st2" points="1735.9,611.5 1735.8,611.4 1732.1,615 1742.1,625 1742.2,625.1 1745.8,621.4 			"/>
			<path class="st3" d="M1734.5,618.9c-2.1,0.7-4.5,0.3-6.3-1c-1.9-1.4-3-3.7-3-6.1c0-4.1,3.3-7.4,7.4-7.4s7.4,3.3,7.4,7.4
				c0,0.6-0.1,1.2-0.3,1.8l4.5,4.6l0,0c1.1-1.9,1.6-4.1,1.7-6.3c0-7.4-6-13.4-13.4-13.4s-13.4,6-13.4,13.4s6,13.4,13.4,13.4l0,0
				c2.3,0,4.5-0.6,6.4-1.7l0,0L1734.5,618.9z"/>
		</g>
	</g>
	<g id="Capa_2_22_">
		<g id="Capa_1-2_21_">
			<g>
				<path class="st0" d="M1942.7,847.1c-9.7,0-17.5,7.9-17.5,17.5c0,12.1,15.7,29.7,16.4,30.3c0.6,0.6,1.6,0.7,2.2,0.1l0.1-0.1
					c0.7-0.8,16.4-18.4,16.4-30.3C1960.3,854.9,1952.4,847.1,1942.7,847.1z"/>
				<path class="st1" d="M1942.7,847.1c-9.7,0-17.5,7.9-17.5,17.5c0,12.1,15.7,29.7,16.4,30.3c0.6,0.6,1.6,0.7,2.2,0.1l0.1-0.1
					c0.7-0.8,16.4-18.4,16.4-30.3C1960.3,854.9,1952.4,847.1,1942.7,847.1z"/>
			</g>
			<polygon class="st2" points="1946.1,864.2 1945.9,864 1942.3,867.6 1952.3,877.6 1952.3,877.7 1955.9,874.1 			"/>
			<path class="st3" d="M1944.6,871.6c-2.1,0.7-4.5,0.3-6.3-1c-1.9-1.4-3-3.7-3-6.1c0-4.1,3.3-7.4,7.4-7.4s7.4,3.3,7.4,7.4
				c0,0.6-0.1,1.2-0.3,1.8l4.5,4.6l0,0c1.1-1.9,1.6-4.1,1.7-6.3c0-7.4-6-13.4-13.4-13.4s-13.4,6-13.4,13.4s6,13.4,13.4,13.4l0,0
				c2.3,0,4.5-0.6,6.4-1.7l0,0L1944.6,871.6z"/>
		</g>
	</g>
</g>
</svg>
