<?xml version="1.0" encoding="utf-8"?>
<!-- Generator: Adobe Illustrator 24.2.3, SVG Export Plug-In . SVG Version: 6.00 Build 0)  -->
<svg version="1.1" id="Layer_1" xmlns="http://www.w3.org/2000/svg" xmlns:xlink="http://www.w3.org/1999/xlink" x="0px" y="0px"
	 viewBox="0 0 417.9 100" style="enable-background:new 0 0 417.9 100;" xml:space="preserve">
<style type="text/css">
	.st0{fill:#092040;}
</style>
<g>
	<g>
		<path class="st0" d="M0,0h23.7l44.6,43.6V0h23.6v100H68.2L23.6,56.4V100H0V0z"/>
		<path class="st0" d="M208.5,0h22.6l30.3,43.6L291.2,0h22.6v100h-23.6V56.4l-19.7,25h-18.8l-19.6-24.9V100h-23.6L208.5,0L208.5,0z"
			/>
		<path class="st0" d="M104.4,22.6c0-3.1,0.6-6.1,1.8-8.8c1.2-2.7,2.8-5.1,4.9-7.1c2-2,4.4-3.7,7.2-4.9C121,0.6,123.9,0,127,0h46.4
			c3.1,0,6.1,0.6,8.9,1.8c2.8,1.2,5.2,2.8,7.2,4.9c2,2,3.6,4.4,4.8,7.1s1.7,5.7,1.7,8.8v54.7c0,3.2-0.6,6.1-1.7,8.8
			c-1.2,2.7-2.8,5.1-4.8,7.2c-2,2-4.4,3.7-7.2,4.9c-2.8,1.2-5.7,1.8-8.9,1.8H127c-3.2,0-6.1-0.6-8.8-1.8c-2.7-1.2-5.1-2.8-7.2-4.9
			c-2-2-3.7-4.4-4.9-7.2c-1.2-2.7-1.8-5.7-1.8-8.8V22.6H104.4z M128,74.6c0,1.2,0.4,2.2,1.2,3.1s1.9,1.3,3.2,1.3H168
			c1.3,0,2.4-0.4,3.2-1.3s1.2-1.9,1.2-3.1V25.4c0-1.2-0.4-2.2-1.2-3.1S169.3,21,168,21h-35.6c-1.3,0-2.4,0.4-3.2,1.3
			s-1.2,1.9-1.2,3.1V74.6z"/>
		<path class="st0" d="M326.3,22.6c0-3.1,0.6-6.1,1.8-8.8c1.2-2.7,2.8-5.1,4.9-7.1c2-2,4.4-3.7,7.2-4.9c2.7-1.2,5.7-1.8,8.8-1.8
			h46.4c3.1,0,6.1,0.6,8.9,1.8s5.2,2.8,7.2,4.9c2,2,3.6,4.4,4.8,7.1c1.2,2.7,1.7,5.7,1.7,8.8v54.7c0,3.2-0.6,6.1-1.7,8.8
			s-2.8,5.1-4.8,7.2c-2,2-4.4,3.7-7.2,4.9c-2.8,1.2-5.7,1.8-8.9,1.8H349c-3.2,0-6.1-0.6-8.8-1.8c-2.7-1.2-5.1-2.8-7.2-4.9
			c-2-2-3.7-4.4-4.9-7.2c-1.2-2.7-1.8-5.7-1.8-8.8V22.6z M349.9,74.6c0,1.2,0.4,2.2,1.2,3.1c0.8,0.9,1.9,1.3,3.2,1.3h35.6
			c1.3,0,2.4-0.4,3.2-1.3c0.8-0.9,1.2-1.9,1.2-3.1V25.4c0-1.2-0.4-2.2-1.2-3.1c-0.8-0.9-1.9-1.3-3.2-1.3h-35.6
			c-1.3,0-2.4,0.4-3.2,1.3s-1.2,1.9-1.2,3.1V74.6z"/>
	</g>
</g>
</svg>
