<?xml version="1.0" encoding="utf-8"?>
<!-- Generator: Adobe Illustrator 24.2.3, SVG Export Plug-In . SVG Version: 6.00 Build 0)  -->
<svg version="1.1" id="Capa_1" xmlns="http://www.w3.org/2000/svg" xmlns:xlink="http://www.w3.org/1999/xlink" x="0px" y="0px"
	 viewBox="0 0 257.9 120" style="enable-background:new 0 0 257.9 120;" xml:space="preserve">
<style type="text/css">
	.st0{fill:#00629B;stroke:#00639C;stroke-miterlimit:10;}
</style>
<g id="Background_xA0_Image_1_">
</g>
<g>
	<g id="TQC">
		<g>
			<path class="st0" d="M41.4,23H10.9v-6H79v6H48.6v54h-7.2V23z"/>
			<path class="st0" d="M164,75.3l-5.5-3.5c-4.8,5.1-9.1,5.8-34.2,5.8c-24.7,0-29.2-0.7-33.8-5.5c-3.9-4-4.8-8.7-4.8-25.2
				c0-16.4,0.9-21.1,4.8-25.1c4.6-4.8,9.2-5.5,33.8-5.5c24.7,0,29.2,0.7,33.8,5.5c3.9,4,4.8,8.7,4.8,25.1c0,10.9-0.3,15-1.4,18.9
				l5.5,3.6L164,75.3z M131.2,46.3l23.6,15.2c0.4-3.3,0.6-8.1,0.6-14.7c0-13.5-0.6-17.9-3.1-20.5c-2.8-3.1-7.7-3.7-28-3.7
				s-25.2,0.6-28,3.7c-2.5,2.6-3.1,6.9-3.1,20.7c0,13.7,0.6,18,3.1,20.6c3,3.1,6.9,3.7,27.4,3.7c22,0,25-0.4,28.5-3.6l-24.6-15.8
				L131.2,46.3z"/>
			<path class="st0" d="M246.9,56.8v2.5c0,7.2-0.7,10.3-3.1,13c-2.2,2.7-5.2,4-10.7,4.6c-3.4,0.3-13.7,0.6-21.8,0.6
				c-21.7,0-27-0.9-31.4-5.5c-3.9-4-4.8-8.7-4.8-25.1c0-18.7,1.3-23.5,7.4-27.4c4.6-2.9,9.5-3.3,34.3-3.3c15,0,20.2,0.7,23.9,3.4
				c4,2.8,5.3,6.6,5.6,16.1h-7v-1.5c0-10.6-2.5-11.7-27.7-11.7c-28.8,0-29,0.1-29,24.4c0,13.7,0.6,18,3.1,20.6
				c2.9,3,7.5,3.7,24.3,3.7c27,0,29.8-1,29.8-11.1v-3.4h7.1V56.8z"/>
		</g>
	</g>
	<g id="Automation__x26__Test_Solutions">
		<g>
			<path d="M13.7,100.7l-1,2.9H11L16,90.1h2.1l5,13.4h-1.6l-1.1-2.9H13.7z M17,91.3l-3,8.2h6L17,91.3z"/>
			<path d="M32,103.5h-1.3l0.1-1.2l-0.1-0.1c-0.5,1-1.5,1.4-3.1,1.4c-2.3,0-3.2-1-3.2-3.3v-6.2h1.3v6.3c0,1.7,0.4,2.1,2.1,2.1
				c2.2,0,2.9-0.7,2.9-3v-5.4H32L32,103.5L32,103.5z"/>
			<path d="M39.5,95.3h-3.6v5.8c0,1.2,0.3,1.5,1.3,1.5c1.2,0,1.4-0.3,1.4-1.8c0-0.2,0-0.3,0-0.5h1.3c0,0.3,0,0.6,0,0.7
				c0,2-0.8,2.7-2.7,2.7c-1.5,0-2.2-0.4-2.5-1.2c-0.1-0.3-0.2-0.6-0.2-1.5v-5.7h-1.3v-1.2h1.3v-2.2h1.3v2.2h3.6L39.5,95.3L39.5,95.3
				z"/>
			<path d="M49.5,98.9c0,4-0.7,4.8-4.2,4.8c-3.5,0-4.1-0.8-4.1-4.9c0-4,0.7-4.8,4.2-4.8C48.8,94,49.5,94.8,49.5,98.9z M43,95.8
				c-0.3,0.4-0.4,1.3-0.4,3c0,3.4,0.2,3.7,2.7,3.7c2.5,0,2.7-0.3,2.7-3.7c0-3.4-0.3-3.7-2.7-3.7C43.9,95.2,43.3,95.3,43,95.8z"/>
			<path d="M53,94.1L53,95.6H53c0.6-1.1,1.5-1.6,3.1-1.6c1.6,0,2.6,0.5,2.9,1.6l0,0c0.6-1.1,1.6-1.6,3.2-1.6c2.5,0,3.3,0.9,3.3,3.4
				v6.2h-1.3v-6.3c0-1.6-0.5-2.1-2.1-2.1c-1.4,0-2.3,0.4-2.6,1.1c-0.2,0.4-0.2,0.9-0.2,1.8v5.4h-1.3v-6.1c-0.1-1.3-0.1-1.3-0.2-1.5
				c-0.2-0.4-0.9-0.7-1.9-0.7c-2.1,0-2.8,0.8-2.8,3v5.3h-1.3v-9.4H53z"/>
			<path d="M68,96.7c0.1-2.2,0.7-2.8,3.7-2.8c3,0,3.9,0.7,3.9,3.4v6.2h-1.3l0.1-1l0,0c-0.6,0.9-1.3,1.2-3.2,1.2
				c-2.6,0-3.5-0.7-3.5-2.9c0-1.1,0.3-2.1,0.8-2.5c0.5-0.4,1.5-0.6,2.7-0.6c1,0,1.8,0.1,2.4,0.3c0.3,0.1,0.4,0.3,0.7,0.6h0.1v-1.1
				c0-2.2-0.4-2.6-2.5-2.6c-1.9,0-2.5,0.3-2.5,1.4v0.3C69.5,96.7,68,96.7,68,96.7z M69.1,100.6c0,1.6,0.4,1.9,2.4,1.9
				c1.2,0,2.1-0.2,2.5-0.6c0.3-0.2,0.4-0.6,0.4-1.2c0-1.5-0.6-1.8-2.7-1.8C69.5,98.9,69.1,99.2,69.1,100.6z"/>
			<path d="M83.3,95.3h-3.6v5.8c0,1.2,0.3,1.5,1.3,1.5c1.2,0,1.4-0.3,1.4-1.8c0-0.2,0-0.3,0-0.5h1.3c0,0.3,0,0.6,0,0.7
				c0,2-0.8,2.7-2.7,2.7c-1.5,0-2.2-0.4-2.5-1.2c-0.1-0.3-0.2-0.6-0.2-1.5v-5.7H77v-1.2h1.3v-2.2h1.3v2.2h3.6L83.3,95.3L83.3,95.3z"
				/>
			<path d="M86.5,91.6h-1.3v-1.6h1.3V91.6z M86.5,103.5h-1.3v-9.4h1.3V103.5z"/>
			<path d="M97,98.9c0,4-0.7,4.8-4.2,4.8s-4.1-0.8-4.1-4.9c0-4,0.7-4.8,4.2-4.8C96.3,94,97,94.8,97,98.9z M90.5,95.8
				c-0.3,0.4-0.4,1.3-0.4,3c0,3.4,0.2,3.7,2.7,3.7c2.5,0,2.7-0.3,2.7-3.7c0-3.4-0.3-3.7-2.7-3.7C91.5,95.2,90.8,95.3,90.5,95.8z"/>
			<path d="M100.5,94.1v1.3l0,0c0.4-1,1.3-1.5,3.1-1.5c1.6,0,2.6,0.4,3.1,1.2c0.2,0.4,0.3,1,0.3,2.2v6.1h-1.3v-6
				c0-1-0.1-1.3-0.2-1.7c-0.2-0.5-0.8-0.7-2-0.7c-2.1,0-2.9,0.8-2.9,2.7v5.7h-1.5v-9.4H100.5z"/>
			<path d="M125.1,97.6c0,0.7,0,0.8,0,1c0,0.7-0.1,1.3-0.2,1.9l2.4,2l-0.8,1.1l-2-1.6c-0.3,0.6-0.6,1-1.1,1.2
				c-0.8,0.4-1.5,0.6-3.6,0.6c-3,0-4-0.3-4.7-1.1c-0.5-0.7-0.7-1.6-0.7-3.2c0-1.7,0.3-2.6,1.2-3.1c0.2-0.2,0.4-0.2,1-0.3l0.3-0.1
				l0.2-0.1c-1-0.8-1.2-1.2-1.2-2.4c0-2.5,0.9-3.2,4.1-3.2c2.9,0,3.8,0.8,3.8,3.2c0,0.2,0,0.5,0,0.8h-1.5c0-0.2,0-0.4,0-0.5
				c0-2-0.2-2.2-2.4-2.2c-2,0-2.5,0.3-2.5,1.6c0,1,0.2,1.2,1.1,2.1l5,4.2c0.1-0.3,0.1-0.6,0.1-0.8c0-0.3,0-0.5-0.1-1L125.1,97.6
				L125.1,97.6z M118.1,96.6c-0.8,0.2-1.1,0.3-1.5,0.4c-0.5,0.3-0.7,1-0.7,2.2c0,1.2,0.2,2.1,0.6,2.5c0.2,0.2,0.7,0.4,1.3,0.4
				c0.2,0,1.1,0.1,2,0.1c2.5,0,3.2-0.3,3.5-1.4L118.1,96.6z"/>
			<path d="M136.7,103.5h-1.5v-12h-4.4v-1.4H141v1.5h-4.4V103.5z"/>
			<path d="M148.6,100.7c0,0.2,0,0.3,0,0.4c0,2-1.1,2.6-4,2.6c-3.4,0-4.2-0.9-4.2-4.9c0-3.9,0.8-4.8,4.3-4.8c2.3,0,3.2,0.4,3.7,1.8
				c0.2,0.7,0.3,1.2,0.3,3.3h-6.8c0,3,0.3,3.4,2.7,3.4c2.4,0,2.7-0.2,2.6-1.8H148.6z M147.2,98c0-1.3-0.1-1.5-0.2-2
				c-0.2-0.7-0.8-1-2.4-1c-2.4,0-2.8,0.4-2.8,2.9L147.2,98L147.2,98z"/>
			<path d="M156.7,96.6c0-1.3-0.2-1.5-2.4-1.5c-2.1,0-2.5,0.2-2.5,1.5c0,0.8,0.2,1.2,0.6,1.3c0.2,0.1,0.2,0.1,2,0.2
				c1.8,0.1,1.8,0.1,2.2,0.2c1.2,0.2,1.8,1,1.8,2.6c0,1-0.3,1.7-0.7,2.1c-0.6,0.5-1.5,0.7-3.3,0.7c-1.7,0-2.5-0.2-3.1-0.7
				c-0.5-0.4-0.8-1.1-0.8-2c0-0.1,0-0.3,0-0.6h1.4c0,0.2,0,0.3,0,0.4c0,0.6,0.2,1,0.4,1.2c0.2,0.2,1,0.3,2.1,0.3
				c2.2,0,2.7-0.3,2.7-1.7c0-1.2-0.3-1.5-1.3-1.5c-1.4,0-3.1-0.2-3.6-0.3c-1.1-0.3-1.5-1-1.5-2.5c0-2.1,0.8-2.6,3.9-2.6
				c2.1,0,3,0.3,3.5,1.1c0.2,0.3,0.3,0.7,0.3,1.6C158.2,96.6,156.7,96.6,156.7,96.6z"/>
			<path d="M165.7,95.3h-3.6v5.8c0,1.2,0.3,1.5,1.3,1.5c1.2,0,1.4-0.3,1.4-1.8c0-0.2,0-0.3,0-0.5h1.3c0,0.3,0,0.6,0,0.7
				c0,2-0.8,2.7-2.7,2.7c-1.5,0-2.2-0.4-2.5-1.2c-0.1-0.3-0.2-0.6-0.2-1.5v-5.7h-1.3v-1.2h1.3v-2.2h1.3v2.2h3.6L165.7,95.3
				L165.7,95.3z"/>
			<path d="M180.3,93.7c0-1-0.1-1.3-0.3-1.7c-0.3-0.6-1-0.7-2.8-0.7c-2.1,0-2.8,0.1-3.2,0.6c-0.3,0.3-0.5,1-0.5,1.8
				c0,1.2,0.3,1.8,1,2.1c0.4,0.2,0.6,0.2,2.8,0.3c2.5,0.1,3.2,0.3,3.8,0.7c0.7,0.6,1,1.3,1,3c0,1.8-0.3,2.8-1.1,3.3
				c-0.8,0.5-1.7,0.6-4.5,0.6c-1.8,0-2.5-0.1-3.3-0.6c-0.5-0.3-1-1-1.1-1.6c-0.1-0.6-0.2-1-0.2-2.1h1.5c0,1.5,0.1,1.7,0.3,2.2
				c0.3,0.7,0.8,0.8,3.2,0.8c3.2,0,3.6-0.3,3.6-2.8c0-1.1-0.2-1.7-0.8-1.9c-0.4-0.2-0.4-0.2-2.9-0.3c-2.5-0.1-2.7-0.2-3.4-0.4
				c-1.1-0.6-1.5-1.5-1.5-3.1c0-1.6,0.3-2.5,1-3c0.8-0.6,1.7-0.8,4-0.8c2.5,0,3.6,0.3,4.2,1.1c0.4,0.6,0.6,1.2,0.6,2.5v0.2
				C181.7,93.7,180.3,93.7,180.3,93.7z"/>
			<path d="M192.1,98.9c0,4-0.7,4.8-4.2,4.8s-4.1-0.8-4.1-4.9c0-4,0.7-4.8,4.2-4.8C191.4,94,192.1,94.8,192.1,98.9z M185.6,95.8
				c-0.3,0.4-0.4,1.3-0.4,3c0,3.4,0.2,3.7,2.7,3.7c2.5,0,2.7-0.3,2.7-3.7c0-3.4-0.3-3.7-2.7-3.7C186.5,95.2,185.8,95.3,185.6,95.8z"
				/>
			<path d="M195.6,103.5h-1.3V90.1h1.3V103.5z"/>
			<path d="M205.7,103.5h-1.3l0.1-1.2l-0.1-0.1c-0.5,1-1.5,1.4-3.1,1.4c-2.3,0-3.2-1-3.2-3.3v-6.2h1.3v6.3c0,1.7,0.4,2.1,2.1,2.1
				c2.2,0,2.9-0.7,2.9-3v-5.4h1.3L205.7,103.5L205.7,103.5z"/>
			<path d="M213.1,95.3h-3.6v5.8c0,1.2,0.3,1.5,1.3,1.5c1.2,0,1.4-0.3,1.4-1.8c0-0.2,0-0.3,0-0.5h1.3c0,0.3,0,0.6,0,0.7
				c0,2-0.8,2.7-2.7,2.7c-1.5,0-2.2-0.4-2.5-1.2c-0.1-0.3-0.2-0.6-0.2-1.5v-5.7h-1.3v-1.2h1.3v-2.2h1.3v2.2h3.6L213.1,95.3
				L213.1,95.3z"/>
			<path d="M216.3,91.6H215v-1.6h1.3V91.6z M216.3,103.5H215v-9.4h1.3V103.5z"/>
			<path d="M226.8,98.9c0,4-0.7,4.8-4.2,4.8c-3.5,0-4.1-0.8-4.1-4.9c0-4,0.7-4.8,4.2-4.8C226.1,94,226.8,94.8,226.8,98.9z
				 M220.3,95.8c-0.3,0.4-0.4,1.3-0.4,3c0,3.4,0.2,3.7,2.7,3.7c2.5,0,2.7-0.3,2.7-3.7c0-3.4-0.3-3.7-2.7-3.7
				C221.3,95.2,220.6,95.3,220.3,95.8z"/>
			<path d="M230.3,94.1v1.3l0,0c0.4-1,1.3-1.5,3.1-1.5c1.6,0,2.6,0.4,3.1,1.2c0.2,0.4,0.3,1,0.3,2.2v6.1h-1.3v-6
				c0-1-0.1-1.3-0.2-1.7c-0.2-0.5-0.8-0.7-2-0.7c-2.1,0-2.9,0.8-2.9,2.7v5.7h-1.5v-9.4H230.3z"/>
			<path d="M245.2,96.6c0-1.3-0.2-1.5-2.4-1.5c-2.1,0-2.5,0.2-2.5,1.5c0,0.8,0.2,1.2,0.6,1.3c0.2,0.1,0.2,0.1,2,0.2
				c1.8,0.1,1.8,0.1,2.2,0.2c1.2,0.2,1.8,1,1.8,2.6c0,1-0.3,1.7-0.7,2.1c-0.6,0.5-1.5,0.7-3.3,0.7c-1.7,0-2.5-0.2-3.1-0.7
				c-0.5-0.4-0.8-1.1-0.8-2c0-0.1,0-0.3,0-0.6h1.4c0,0.2,0,0.3,0,0.4c0,0.6,0.2,1,0.4,1.2c0.2,0.2,1,0.3,2.1,0.3
				c2.2,0,2.7-0.3,2.7-1.7c0-1.2-0.3-1.5-1.3-1.5c-1.4,0-3.1-0.2-3.6-0.3c-1.1-0.3-1.5-1-1.5-2.5c0-2.1,0.8-2.6,3.9-2.6
				c2.1,0,3,0.3,3.5,1.1c0.2,0.3,0.3,0.7,0.3,1.6C246.6,96.6,245.2,96.6,245.2,96.6z"/>
		</g>
	</g>
</g>
</svg>
