<?xml version="1.0" standalone="no"?>
<!DOCTYPE svg PUBLIC "-//W3C//DTD SVG 20010904//EN"
 "http://www.w3.org/TR/2001/REC-SVG-20010904/DTD/svg10.dtd">
<svg version="1.0" xmlns="http://www.w3.org/2000/svg"
 width="347.000000pt" height="347.000000pt" viewBox="0 0 347.000000 347.000000"
 preserveAspectRatio="xMidYMid meet">
<metadata>
Created by potrace 1.11, written by Peter Selinger 2001-2013
</metadata>
<g transform="translate(0.000000,347.000000) scale(0.100000,-0.100000)"
fill="#000000" stroke="none">
<path d="M1525 3453 c-127 -16 -223 -37 -338 -75 -91 -30 -269 -107 -317 -138
-244 -157 -373 -270 -507 -444 -163 -210 -271 -448 -329 -723 -38 -182 -40
-477 -4 -661 23 -118 68 -262 112 -362 29 -67 33 -75 88 -175 30 -54 115 -183
129 -195 4 -3 18 -21 33 -40 110 -145 327 -324 520 -429 143 -77 382 -160 508
-176 23 -3 45 -7 49 -9 10 -6 171 -19 246 -19 75 0 266 12 275 18 3 2 23 6 45
9 407 65 830 326 1080 666 47 64 115 166 115 173 0 3 16 33 35 67 19 34 35 68
35 76 0 8 5 14 10 14 6 0 10 7 10 15 0 9 7 29 15 44 21 42 83 251 95 323 33
197 35 467 5 623 -15 75 -45 194 -60 235 -9 25 -18 52 -20 60 -7 34 -88 206
-131 280 -30 52 -126 190 -157 227 -50 59 -176 184 -240 237 -350 292 -847
437 -1302 379z"/>
</g>
</svg>
