<?xml version="1.0" standalone="no"?>
<!DOCTYPE svg PUBLIC "-//W3C//DTD SVG 20010904//EN"
 "http://www.w3.org/TR/2001/REC-SVG-20010904/DTD/svg10.dtd">
<svg version="1.0" xmlns="http://www.w3.org/2000/svg"
 width="1668.000000pt" height="1668.000000pt" viewBox="0 0 1668.000000 1668.000000"
 preserveAspectRatio="xMidYMid meet">
<metadata>
Created by potrace 1.14, written by Peter Selinger 2001-2017
</metadata>
<g transform="translate(0.000000,1668.000000) scale(0.100000,-0.100000)"
fill="#000000" stroke="none">
<path d="M7720 16664 c-833 -56 -1476 -181 -2205 -428 -2814 -952 -4895 -3395
-5389 -6326 -81 -479 -106 -761 -113 -1277 -6 -417 2 -635 33 -948 163 -1644
803 -3206 1839 -4491 354 -438 871 -955 1309 -1309 1227 -989 2719 -1622 4277
-1815 336 -41 494 -51 901 -57 429 -6 637 2 987 38 2571 261 4848 1713 6173
3935 564 946 938 2038 1077 3149 49 388 55 507 56 1035 0 516 -4 605 -46 970
-182 1589 -812 3092 -1826 4353 -363 450 -850 937 -1300 1300 -392 315 -822
602 -1258 842 -932 511 -1952 841 -3010 974 -361 46 -496 53 -980 56 -258 1
-495 1 -525 -1z m833 -2484 c1118 -48 2129 -377 3040 -987 1156 -775 2001
-1933 2383 -3267 211 -735 276 -1551 183 -2291 -69 -544 -215 -1076 -439
-1590 -63 -145 -279 -575 -290 -575 -3 0 -424 419 -934 930 -801 803 -927 934
-922 953 155 529 191 960 120 1447 -205 1409 -1273 2548 -2662 2840 -266 55
-369 65 -702 65 -327 0 -434 -10 -685 -62 -1024 -212 -1895 -883 -2361 -1822
-180 -362 -283 -717 -336 -1151 -17 -137 -16 -573 0 -715 93 -784 417 -1470
956 -2023 525 -538 1167 -869 1911 -984 168 -26 587 -36 772 -19 244 23 565
89 763 156 l67 23 924 -924 c508 -508 921 -925 919 -927 -12 -10 -256 -140
-358 -191 -1204 -602 -2507 -770 -3807 -491 -2025 436 -3681 1922 -4339 3898
-281 844 -365 1806 -235 2692 124 847 438 1667 914 2385 848 1281 2162 2180
3660 2504 372 81 664 113 1195 134 19 1 137 -3 263 -8z m3342 -7898 c1369
-1373 2094 -2106 2089 -2115 -15 -25 -171 -226 -243 -312 -204 -245 -520 -571
-750 -774 -99 -88 -362 -303 -427 -348 l-30 -22 -1255 1257 c-690 691 -1636
1641 -2104 2109 l-850 853 730 730 c401 402 733 729 737 728 3 -2 950 -949
2103 -2106z"/>
</g>
</svg>
