<?xml version="1.0" standalone="no"?>
<!DOCTYPE svg PUBLIC "-//W3C//DTD SVG 1.1//EN" "http://www.w3.org/Graphics/SVG/1.1/DTD/svg11.dtd" >
<svg xmlns="http://www.w3.org/2000/svg" xmlns:xlink="http://www.w3.org/1999/xlink" version="1.1">
<metadata>
Created by FontForge 20170731 at Tue Jan 18 21:34:51 2011
 By Aleksey,,,
(c) 2008 Adobe Systems Incorporated. All Rights Reserved.
</metadata>
<defs>
<font id="AdobeClean-SemiCnIt" horiz-adv-x="386" >
  <font-face 
    font-family="Adobe Clean SemiCondensed"
    font-weight="400"
    font-style="italic"
    font-stretch="semi-condensed"
    units-per-em="1000"
    panose-1="2 11 5 3 2 4 4 2 2 4"
    ascent="729"
    descent="-271"
    x-height="482"
    cap-height="666"
    bbox="-212 -243 1133 973"
    underline-thickness="50"
    underline-position="-300"
    slope="-12"
    unicode-range="U+0020-FB05"
  />
<missing-glyph horiz-adv-x="500" 
d="M0 0l-24 700h499l25 -700h-500zM78 50h340l-179 255zM266 350l180 -255l-18 510zM28 605l18 -510l161 255zM57 650l179 -255l161 255h-340z" />
    <glyph glyph-name="f_f" unicode="ff" horiz-adv-x="504" 
d="M359 419h-178l-101 -578q-2 -5 -9 -7l-72 -4q-6 0 -3 6l102 583h-60q-6 0 -5 6l10 53q1 4 5 4h61l9 51q20 107 65.5 152t112.5 45q33 0 51 -9q6 -2 4 -7l-11 -54q-2 -6 -6 -5q-18 6 -35 6q-35 0 -59.5 -26t-38.5 -101l-9 -52h178l9 51q20 106 65.5 151.5t112.5 45.5
q33 0 51 -9q4 -1 4 -7l-11 -54q-2 -6 -6 -5q-18 6 -36 6q-34 0 -58.5 -25.5t-38.5 -101.5l-9 -52h84q4 0 4 -5l-10 -53q-1 -5 -5 -5h-85l-101 -578q-1 -5 -9 -7l-72 -4q-7 0 -3 7z" />
    <glyph glyph-name="f_f_i" unicode="ffi" horiz-adv-x="742" 
d="M358 419h-177l-102 -578q-1 -5 -8 -7l-72 -4q-5 0 -4 6l103 583h-60q-6 0 -5 6l10 53q0 4 5 4h61l9 51q20 107 65.5 152t112.5 45q33 0 51 -9q4 -1 4 -7l-11 -54q-2 -6 -6 -5q-18 6 -36 6q-34 0 -58.5 -25.5t-38.5 -101.5l-9 -52h178l9 51q35 197 178 197q33 0 51 -9
q5 -2 3 -7l-11 -54q0 -3 -1.5 -4.5t-3.5 -0.5q-18 6 -36 6q-34 0 -58.5 -25.5t-38.5 -101.5l-9 -52h84q4 0 4 -5l-10 -53q-1 -5 -5 -5h-85l-101 -578q-1 -5 -9 -7l-72 -4q-6 0 -4 7zM687 589q-20 0 -32 13.5t-10 33.5q2 22 16.5 35t35.5 13t32.5 -13.5t8.5 -34.5
q-1 -21 -15.5 -34t-35.5 -13zM539 6l83 471q1 5 7 5h73q6 0 5 -6l-84 -471q-1 -5 -6 -5h-73q-5 0 -5 6z" />
    <glyph glyph-name="f_f_l" unicode="ffl" horiz-adv-x="757" 
d="M359 419h-178l-101 -578q-2 -5 -9 -7l-72 -4q-6 0 -3 6l102 583h-60q-6 0 -5 6l10 53q1 4 5 4h61l9 51q20 107 65.5 152t112.5 45q33 0 51 -9q6 -2 4 -7l-11 -54q-2 -6 -6 -5q-18 6 -35 6q-35 0 -59.5 -26t-38.5 -101l-9 -52h178l9 51q20 106 65.5 151.5t112.5 45.5
q33 0 51 -9q4 -1 4 -7l-11 -54q-2 -6 -6 -5q-18 6 -36 6q-34 0 -58.5 -25.5t-38.5 -101.5l-9 -52h84q4 0 4 -5l-10 -53q-1 -5 -5 -5h-85l-101 -578q-1 -5 -9 -7l-72 -4q-7 0 -3 7zM699 52l-9 -44q-1 -7 -6 -9q-18 -8 -53 -8q-93 0 -74 111l107 611q2 5 7 6q10 1 40.5 3.5
t33.5 2.5q4 0 4 -6l-108 -625q-5 -25 2 -33t23 -8q17 0 29 4q3 1 4 -0.5t0 -4.5z" />
    <glyph glyph-name="longs_t" unicode="&#x17f;t" horiz-adv-x="537" 
d="M481 62l-8 -46q-1 -6 -7 -10q-26 -15 -75 -15q-50 0 -75.5 32.5t-12.5 101.5l51 293h-62q-5 1 -4 7l10 52q1 5 6 5h62q18 105 21 119q1 3 6 5q39 1 77 15q5 1 5 -4q-2 -8 -26 -135h87q7 0 6 -6l-9 -52q0 -4 -6 -6h-89l-52 -296q-11 -68 40 -68q27 0 50 13q2 1 3.5 -0.5
t1.5 -4.5zM48 482h60l11 56q21 105 65 148.5t112 43.5q34 0 52 -9q6 -1 4 -7l-11 -55q-2 -6 -6 -5q-18 6 -36 6q-35 0 -59.5 -25.5t-38.5 -100.5l-20 -116l-101 -577q-2 -5 -9 -7l-72 -4q-6 0 -3 6l102 582h-60q-6 2 -5 7l10 53q1 4 5 4z" />
    <glyph glyph-name="T_h" unicode="Th" horiz-adv-x="952" 
d="M225 0h-71q-8 0 -6 6l104 593h-185q-7 0 -4 6l19 57q1 4 6 4h443q5 0 5 -5l-10 -57q0 -5 -5 -5h-185l-105 -594q-1 -5 -6 -5zM471 6l124 706q1 6 6 6q48 6 75 6q6 0 5 -5l-54 -301q70 74 153 74q58 0 92 -42t17 -140l-54 -304q-3 -6 -6 -6h-73q-8 0 -6 7l56 306
q18 111 -56 111q-70 0 -127 -78q-10 -12 -13 -33l-55 -308q0 -5 -6 -5h-72q-7 0 -6 6z" />
    <glyph glyph-name="Tcaron_h" unicode="&#x164;h" horiz-adv-x="952" 
d="M148 6l104 593h-185q-7 0 -4 6l19 57q1 4 6 4h443q5 0 5 -5l-10 -57q0 -5 -5 -5h-185l-105 -594q-1 -5 -6 -5h-71q-8 0 -6 6zM471 6l124 706q1 6 6 6q48 6 75 6q6 0 5 -5l-54 -301q70 74 153 74q58 0 92 -42t17 -140l-54 -304q-3 -6 -6 -6h-73q-8 0 -6 7l56 306
q18 111 -56 111q-70 0 -127 -78q-10 -12 -13 -33l-55 -308q0 -5 -6 -5h-72q-7 0 -6 6zM266 828l55 -71l82 71q5 4 10 4h71q3 0 3.5 -2.5t-1.5 -4.5l-129 -109q-3 -3 -7 -3h-69q-8 0 -9 4l-83 110q-3 5 4 5h64q6 0 9 -4z" />
    <glyph glyph-name="uni021A_h" unicode="&#x21a;h" horiz-adv-x="952" 
d="M148 6l104 593h-185q-7 0 -4 6l19 57q1 4 6 4h443q5 0 5 -5l-10 -57q0 -5 -5 -5h-185l-105 -594q-1 -5 -6 -5h-71q-8 0 -6 6zM471 6l124 706q1 6 6 6q48 6 75 6q6 0 5 -5l-54 -301q70 74 153 74q58 0 92 -42t17 -140l-54 -304q-3 -6 -6 -6h-73q-8 0 -6 7l56 306
q18 111 -56 111q-70 0 -127 -78q-10 -12 -13 -33l-55 -308q0 -5 -6 -5h-72q-7 0 -6 6zM164 -220h-70q-7 0 -3 6q50 54 60 110q4 35 -3 62q0 5 4 5h73q6 0 7 -4q7 -26 1 -60q-10 -68 -59 -116q-3 -3 -10 -3z" />
    <glyph glyph-name="f_b" unicode="fb" horiz-adv-x="763" 
d="M285 37l119 677q0 6 6 6q63 6 74 6q6 0 4 -6l-46 -265q58 37 119 37q69 0 109 -52.5t40 -138.5q0 -129 -79 -219.5t-199 -90.5q-90 0 -144 37q-4 4 -3 9zM432 391l-58 -323q26 -16 68 -16q75 0 128.5 72.5t53.5 174.5q0 53 -20.5 91t-69.5 38q-55 0 -102 -37zM98 418h-60
q-6 2 -5 7l10 53q1 4 5 4h60l11 54q20 105 65.5 149.5t113.5 44.5q32 0 50 -9q6 -1 4 -7l-11 -55q-2 -6 -6 -5q-18 6 -36 6q-34 0 -58.5 -25.5t-38.5 -101.5l-10 -51h83q6 0 5 -5l-10 -53q-1 -5 -5 -6h-84l-101 -577q-2 -5 -9 -7l-72 -4q-6 0 -3 6z" />
    <glyph glyph-name="f_h" unicode="fh" horiz-adv-x="762" 
d="M279 6l125 706q0 6 6 6q45 6 74 6q6 0 5 -5l-54 -301q70 74 153 74q58 0 92 -42t17 -140l-54 -304q-1 -6 -6 -6h-73q-8 0 -6 7l56 306q20 111 -56 111q-70 0 -127 -78q-10 -12 -13 -33l-55 -308q0 -5 -6 -5h-72q-7 0 -6 6zM98 418h-60q-6 2 -5 7l10 53q1 4 5 4h60l11 54
q20 105 65.5 149.5t113.5 44.5q32 0 50 -9q6 -1 4 -7l-11 -55q-2 -6 -6 -5q-18 6 -36 6q-34 0 -58.5 -25.5t-38.5 -101.5l-10 -51h83q6 0 5 -5l-10 -53q-1 -5 -5 -6h-84l-101 -577q-2 -5 -9 -7l-72 -4q-6 0 -3 6z" />
    <glyph glyph-name="f_i" unicode="fi" horiz-adv-x="479" 
d="M350 418h-169l-101 -577q-2 -5 -9 -7l-72 -4q-5 0 -3 6l102 582h-61q-5 1 -4 7l10 52q0 5 6 5h60l10 44q26 115 81.5 159.5t135.5 44.5q66 0 102 -25q3 -2 3 -9l-13 -56q-2 -8 -7 -5q-43 26 -90 26q-46 0 -78.5 -28t-51.5 -114l-8 -37h245q6 0 6 -6l-84 -469q-1 -7 -6 -7
h-70q-8 0 -7 8z" />
    <glyph glyph-name="f_j" unicode="fj" horiz-adv-x="479" 
d="M350 418h-169l-101 -577q-2 -6 -9 -7l-72 -4q-6 0 -3 6l102 582h-61q-5 1 -4 7l10 52q0 5 6 5h60q28 142 84.5 194t142.5 52q66 0 102 -25q5 -2 3 -9l-13 -56q0 -8 -7 -5q-44 27 -90 27q-50 0 -83.5 -34.5t-54.5 -143.5h245q6 0 6 -6l-85 -479q-15 -85 -31.5 -123.5
t-41.5 -61.5q-37 -34 -96 -34q-17 0 -25 2q-5 2 -4 7l10 51q1 5 6 5q41 1 60 24t33 99z" />
    <glyph glyph-name="f_k" unicode="fk" horiz-adv-x="723" 
d="M400 213l-36 -207q-2 -6 -7 -6h-72q-6 0 -6 6l125 708q2 5 6 6q7 0 38 2.5t36 2.5t5 -5l-77 -443h31q11 0 17 8q86 94 174 193q3 4 10 4h77q8 0 3 -7q-25 -33 -216 -229q25 -38 86 -133t68 -106q4 -7 -3 -7h-82q-6 0 -10 5q-19 30 -61 101t-58 97q-4 10 -16 10h-32z
M98 418h-60q-6 2 -5 7l10 53q1 4 5 4h60l11 54q20 105 65.5 149.5t113.5 44.5q32 0 50 -9q6 -1 4 -7l-11 -55q-2 -6 -6 -5q-18 6 -36 6q-34 0 -58.5 -25.5t-38.5 -101.5l-10 -51h83q6 0 5 -5l-10 -53q-1 -5 -5 -6h-84l-101 -577q-2 -5 -9 -7l-72 -4q-6 0 -3 6z" />
    <glyph glyph-name="f_l" unicode="fl" horiz-adv-x="495" 
d="M437 52l-8 -44q-1 -7 -6 -9q-19 -8 -54 -8q-93 0 -73 111l107 611q1 5 6 6q8 1 25.5 2t31.5 2.5t17 1.5q5 0 4 -6l-108 -625q-4 -25 3 -33t22 -8q17 0 30 4q2 1 3 -0.5t0 -4.5zM98 418h-60q-6 2 -5 7l10 53q1 4 5 4h60l11 54q20 105 65.5 149.5t113.5 44.5q32 0 50 -9
q6 -1 4 -7l-11 -55q-2 -6 -6 -5q-18 6 -36 6q-34 0 -58.5 -25.5t-38.5 -101.5l-10 -51h83q6 0 5 -5l-10 -53q-1 -5 -5 -6h-84l-101 -577q-2 -5 -9 -7l-72 -4q-6 0 -3 6z" />
    <glyph glyph-name="f_t" unicode="ft" horiz-adv-x="538" 
d="M357 419h-176l-101 -578q-1 -7 -9 -7l-72 -4q-6 0 -3 6l102 583h-60q-6 0 -5 6l10 53q0 4 5 4h60l11 55q21 106 65.5 149.5t113.5 43.5q32 0 50 -9q6 -1 4 -7l-11 -55q-2 -6 -6 -5q-18 6 -36 6q-35 0 -59 -25.5t-38 -100.5l-10 -52h176q7 39 22 119q1 4 6 5q38 1 76 15
q5 1 5 -4q-2 -8 -26 -135h88q6 0 5 -6l-8 -51q-1 -6 -7 -6h-89l-52 -297q-11 -68 41 -68q25 0 50 12q2 2 3.5 0.5t1.5 -5.5l-9 -45q-1 -6 -7 -10q-26 -15 -75 -15t-75 32.5t-13 101.5z" />
    <glyph glyph-name="f_f_b" unicode="ffb" horiz-adv-x="1023" 
d="M546 37l118 677q2 6 7 6q63 6 74 6q4 0 4 -6l-46 -265q56 37 119 37q69 0 108.5 -52.5t39.5 -138.5q0 -129 -78.5 -219.5t-198.5 -90.5q-92 0 -144 37q-5 4 -3 9zM692 391l-57 -323q26 -16 68 -16q75 0 128.5 73t53.5 174q0 52 -20.5 90.5t-69.5 38.5q-55 0 -103 -37z
M359 419h-178l-101 -578q-2 -5 -9 -7l-72 -4q-6 0 -3 6l102 583h-60q-6 0 -5 6l10 53q1 4 5 4h61l9 51q20 107 65.5 152t112.5 45q33 0 51 -9q6 -2 4 -7l-11 -54q-2 -6 -6 -5q-18 6 -35 6q-35 0 -59.5 -26t-38.5 -101l-9 -52h178l9 51q20 106 65.5 151.5t112.5 45.5
q33 0 51 -9q4 -1 4 -7l-11 -54q-2 -6 -6 -5q-18 6 -36 6q-34 0 -58.5 -25.5t-38.5 -101.5l-9 -52h84q4 0 4 -5l-10 -53q-1 -5 -5 -5h-85l-101 -578q-1 -5 -9 -7l-72 -4q-7 0 -3 7z" />
    <glyph glyph-name="f_f_h" unicode="ffh" horiz-adv-x="1024" 
d="M541 6l124 706q1 6 6 6q48 6 75 6q5 0 4 -5l-53 -301q70 74 153 74q58 0 92 -42t17 -140l-55 -304q-2 -6 -6 -6h-73q-7 0 -5 7l56 306q18 111 -56 111q-71 0 -128 -78q-8 -10 -13 -33l-54 -308q-1 -5 -6 -5h-72q-7 0 -6 6zM359 419h-178l-101 -578q-2 -5 -9 -7l-72 -4
q-6 0 -3 6l102 583h-60q-6 0 -5 6l10 53q1 4 5 4h61l9 51q20 107 65.5 152t112.5 45q33 0 51 -9q6 -2 4 -7l-11 -54q-2 -6 -6 -5q-18 6 -35 6q-35 0 -59.5 -26t-38.5 -101l-9 -52h178l9 51q20 106 65.5 151.5t112.5 45.5q33 0 51 -9q4 -1 4 -7l-11 -54q-2 -6 -6 -5
q-18 6 -36 6q-34 0 -58.5 -25.5t-38.5 -101.5l-9 -52h84q4 0 4 -5l-10 -53q-1 -5 -5 -5h-85l-101 -578q-1 -5 -9 -7l-72 -4q-7 0 -3 7z" />
    <glyph glyph-name="f_f_j" unicode="ffj" horiz-adv-x="752" 
d="M633 476q1 6 7 6h71q6 0 6 -6l-87 -491q-15 -86 -31.5 -125t-40.5 -62q-36 -32 -99 -32q-17 0 -26 2q-4 1 -3 7l10 54q0 5 6 5q42 1 61.5 23.5t32.5 96.5zM695 589q-20 0 -32 13.5t-10 33.5q3 22 17 35t36 13q21 0 32 -13.5t9 -34.5t-16 -34t-36 -13zM359 419h-178
l-101 -578q-2 -5 -9 -7l-72 -4q-6 0 -3 6l102 583h-60q-6 0 -5 6l10 53q1 4 5 4h61l9 51q20 107 65.5 152t112.5 45q33 0 51 -9q6 -2 4 -7l-11 -54q-2 -6 -6 -5q-18 6 -35 6q-35 0 -59.5 -26t-38.5 -101l-9 -52h178l9 51q20 106 65.5 151.5t112.5 45.5q33 0 51 -9q4 -1 4 -7
l-11 -54q-2 -6 -6 -5q-18 6 -36 6q-34 0 -58.5 -25.5t-38.5 -101.5l-9 -52h84q4 0 4 -5l-10 -53q-1 -5 -5 -5h-85l-101 -578q-1 -5 -9 -7l-72 -4q-7 0 -3 7z" />
    <glyph glyph-name="f_f_k" unicode="ffk" horiz-adv-x="984" 
d="M661 213l-36 -207q-1 -6 -7 -6h-72q-8 0 -6 6l125 708q0 4 6 6q7 0 38 2.5t36 2.5t4 -5l-76 -443h30q12 0 18 8q86 94 174 193q3 4 10 4h77q8 0 3 -7q-30 -38 -216 -229q23 -34 78 -121t76 -118q3 -7 -4 -7h-82q-7 0 -9 5q-19 30 -61 101t-58 97q-4 10 -16 10h-32z
M359 419h-178l-101 -578q-2 -5 -9 -7l-72 -4q-6 0 -3 6l102 583h-60q-6 0 -5 6l10 53q1 4 5 4h61l9 51q20 107 65.5 152t112.5 45q33 0 51 -9q6 -2 4 -7l-11 -54q-2 -6 -6 -5q-18 6 -35 6q-35 0 -59.5 -26t-38.5 -101l-9 -52h178l9 51q20 106 65.5 151.5t112.5 45.5
q33 0 51 -9q4 -1 4 -7l-11 -54q-2 -6 -6 -5q-18 6 -36 6q-34 0 -58.5 -25.5t-38.5 -101.5l-9 -52h84q4 0 4 -5l-10 -53q-1 -5 -5 -5h-85l-101 -578q-1 -5 -9 -7l-72 -4q-7 0 -3 7z" />
    <glyph glyph-name="f_f_t" unicode="fft" horiz-adv-x="797" 
d="M359 419h-178l-101 -578q-2 -5 -9 -7l-72 -4q-6 0 -3 6l102 583h-60q-6 0 -5 6l10 53q1 4 5 4h61l9 51q20 107 65.5 152t112.5 45q33 0 51 -9q6 -2 4 -7l-11 -54q-2 -6 -6 -5q-18 6 -35 6q-35 0 -59.5 -26t-38.5 -101l-9 -52h178l9 51q20 107 65.5 152t112.5 45
q33 0 51 -9q4 -1 4 -7l-11 -54q-2 -6 -6 -5q-18 6 -36 6q-34 0 -58.5 -25.5t-38.5 -101.5l-9 -52h174q7 39 22 119q1 4 6 5q38 1 76 15q5 1 5 -4q-2 -8 -26 -135h87q7 0 6 -6l-8 -51q-1 -6 -7 -6h-89l-52 -297q-11 -68 40 -68q26 0 51 12q2 2 3.5 0.5t0.5 -5.5l-8 -45
q-1 -6 -7 -10q-26 -15 -75 -15q-50 0 -75.5 32.5t-12.5 101.5l51 294h-174l-101 -578q-1 -5 -9 -7l-72 -4q-7 0 -3 7z" />
    <glyph glyph-name="longs_b" unicode="&#x17f;b" horiz-adv-x="755" 
d="M48 482h60l11 56q21 105 65 148.5t112 43.5q34 0 52 -9q6 -1 4 -7l-11 -55q-2 -6 -6 -5q-18 6 -36 6q-35 0 -59.5 -25.5t-38.5 -100.5l-20 -116l-101 -577q-2 -5 -9 -7l-72 -4q-6 0 -3 6l102 582h-60q-6 2 -5 7l10 53q1 4 5 4zM277 37l119 677q2 6 6 6q63 6 74 6
q6 0 4 -6l-46 -265q58 37 120 37q69 0 108.5 -52.5t39.5 -138.5q0 -129 -78.5 -219.5t-198.5 -90.5q-92 0 -144 37q-4 4 -4 9zM424 391l-57 -323q25 -16 68 -16q75 0 128 72.5t54 174.5q0 52 -21 90.5t-70 38.5q-54 0 -102 -37z" />
    <glyph glyph-name="longs_h" unicode="&#x17f;h" horiz-adv-x="755" 
d="M48 482h60l11 56q21 105 65 148.5t112 43.5q34 0 52 -9q6 -1 4 -7l-11 -55q-2 -6 -6 -5q-18 6 -36 6q-35 0 -59.5 -25.5t-38.5 -100.5l-20 -116l-101 -577q-2 -5 -9 -7l-72 -4q-6 0 -3 6l102 582h-60q-6 2 -5 7l10 53q1 4 5 4zM272 6l124 706q2 6 6 6q48 6 75 6q5 0 4 -5
l-53 -301q70 74 152 74q58 0 92.5 -42t17.5 -140l-55 -304q-1 -6 -6 -6h-73q-6 0 -6 7l57 306q18 111 -56 111q-71 0 -128 -78q-10 -12 -13 -33l-54 -308q-1 -5 -6 -5h-72q-8 0 -6 6z" />
    <glyph glyph-name="longs_i" unicode="&#x17f;i" horiz-adv-x="475" 
d="M49 482h60l11 56q21 105 64.5 148.5t112.5 43.5q34 0 52 -9q5 -2 3 -7l-11 -55q-2 -6 -6 -5q-18 6 -35 6q-35 0 -59.5 -25t-38.5 -101l-21 -116l-101 -577q-2 -6 -9 -7l-72 -4q-5 0 -3 6l102 582h-60q-5 2 -5 7l10 53q1 4 6 4zM420 589q-20 0 -32 13.5t-10 33.5
q2 22 16.5 35t35.5 13t32 -13.5t9 -34.5q-1 -21 -15.5 -34t-35.5 -13zM272 6l83 471q1 5 7 5h73q7 0 5 -6l-84 -471q-1 -5 -6 -5h-73q-5 0 -5 6z" />
    <glyph glyph-name="longs_k" unicode="&#x17f;k" horiz-adv-x="716" 
d="M49 482h60l11 56q21 105 64.5 148.5t112.5 43.5q34 0 52 -9q5 -2 3 -7l-11 -55q-2 -6 -6 -5q-18 6 -35 6q-35 0 -59.5 -25t-38.5 -101l-21 -116l-101 -577q-2 -6 -9 -7l-72 -4q-5 0 -3 6l102 582h-60q-5 2 -5 7l10 53q1 4 6 4zM392 213l-36 -207q0 -6 -6 -6h-72
q-8 0 -6 6l124 708q2 5 6 6q8 0 39 2.5t36 2.5t4 -5l-77 -443h31q11 0 18 8q20 23 89 99t85 94q3 4 9 4h78q8 0 3 -7q-30 -38 -216 -229q23 -35 79 -123t74 -116q4 -7 -3 -7h-82q-7 0 -9 5q-21 33 -68 112.5t-51 85.5q-6 10 -16 10h-33z" />
    <glyph glyph-name="longs_l" unicode="&#x17f;l" horiz-adv-x="491" 
d="M48 482h60l11 56q21 105 65 148.5t112 43.5q34 0 52 -9q6 -1 4 -7l-11 -55q-2 -6 -6 -5q-18 6 -36 6q-35 0 -59.5 -25.5t-38.5 -100.5l-20 -116l-101 -577q-2 -5 -9 -7l-72 -4q-6 0 -3 6l102 582h-60q-6 2 -5 7l10 53q1 4 5 4zM433 52l-9 -44q-1 -7 -6 -9q-19 -8 -53 -8
q-93 0 -74 111l107 611q2 5 7 6q10 1 40.5 3.5t33.5 2.5q4 0 4 -6l-108 -625q-5 -25 2 -33t23 -8q17 0 29 4q3 1 4 -0.5t0 -4.5z" />
    <glyph glyph-name="longs_longs" unicode="&#x17f;&#x17f;" horiz-adv-x="490" 
d="M359 419h-60q-5 0 -4 6l9 53q1 4 6 4h60l10 52q21 106 66 151t112 45q33 0 51 -9q6 -2 4 -8l-11 -53q-2 -6 -6 -5q-18 6 -35 6q-35 0 -59.5 -26.5t-38.5 -101.5l-122 -692q-2 -6 -9 -7l-72 -4q-6 0 -4 6zM98 419h-60q-6 0 -5 6l10 53q1 4 5 4h61l9 48q21 107 66 153.5
t112 46.5q34 0 52 -9q5 -2 3 -8l-11 -53q0 -3 -1.5 -4.5t-3.5 -0.5q-18 6 -36 6q-34 0 -59 -26t-39 -102l-121 -692q-2 -5 -9 -7l-72 -4q-6 0 -3 6z" />
    <glyph glyph-name="longs_longs_i" unicode="&#x17f;&#x17f;i" horiz-adv-x="735" 
d="M359 419h-60q-5 0 -4 6l9 53q1 4 6 4h60l10 52q21 106 66 151t112 45q33 0 51 -9q6 -2 4 -8l-11 -53q-2 -6 -6 -5q-18 6 -35 6q-35 0 -59.5 -26.5t-38.5 -101.5l-122 -692q-2 -6 -9 -7l-72 -4q-6 0 -4 6zM98 419h-60q-6 0 -5 6l10 53q1 4 5 4h61l9 48q21 107 66 153.5
t112 46.5q34 0 52 -9q5 -2 3 -8l-11 -53q0 -3 -1.5 -4.5t-3.5 -0.5q-18 6 -36 6q-34 0 -59 -26t-39 -102l-121 -692q-2 -5 -9 -7l-72 -4q-6 0 -3 6zM680 589q-20 0 -32 13.5t-10 33.5q3 22 17.5 35t35.5 13t32 -13.5t9 -34.5t-16 -34t-36 -13zM532 6l84 471q1 5 6 5h73
q7 0 5 -6l-83 -471q-1 -5 -7 -5h-72q-6 0 -6 6z" />
    <glyph glyph-name="longs_longs_l" unicode="&#x17f;&#x17f;l" horiz-adv-x="752" 
d="M360 419h-61q-5 0 -4 6l10 53q0 4 5 4h61l10 52q20 106 65 151t112 45q34 0 52 -9q5 -2 3 -8l-11 -53q-2 -6 -6 -5q-16 6 -35 6q-35 0 -59.5 -26.5t-38.5 -101.5l-122 -692q-1 -5 -9 -7l-72 -4q-6 0 -3 6zM98 419h-60q-5 0 -5 6l10 53q1 4 6 4h60l9 48q21 107 66 153.5
t113 46.5q33 0 51 -9q4 -1 4 -8l-11 -53q-2 -6 -6 -5q-18 6 -36 6q-34 0 -59 -26t-39 -102l-121 -692q-2 -6 -9 -7l-72 -4q-5 0 -3 6zM694 52l-9 -44q-1 -7 -6 -9q-18 -8 -53 -8q-93 0 -74 111l107 611q2 5 7 6q10 1 40.5 3.5t33.5 2.5q4 0 4 -6l-108 -625q-5 -25 2 -33
t23 -8q17 0 30 4q2 1 3 -0.5t0 -4.5z" />
    <glyph glyph-name="t_t" unicode="tt" horiz-adv-x="542" 
d="M361 418h-181l-52 -296q-11 -69 41 -69q23 0 50 13q2 1 3.5 -0.5t1.5 -4.5l-9 -45q-1 -6 -7 -10q-26 -15 -75 -15t-75 32.5t-13 101.5l51 293h-61q-5 1 -5 7l10 52q1 5 6 5h62q7 39 22 119q1 4 6 5q38 1 76 15q5 1 5 -4q-2 -8 -26 -135h181q7 39 22 119q1 4 6 5
q39 1 77 15q5 3 5 -4q-16 -75 -26 -135h87q6 0 5 -6l-8 -52q0 -4 -6 -6h-89l-52 -296q-11 -69 40 -69q24 0 50 13q2 1 4 -0.5t1 -4.5l-8 -45q-3 -7 -7 -10q-26 -15 -75 -15q-50 0 -76 32.5t-13 101.5z" />
    <glyph glyph-name=".notdef" horiz-adv-x="500" 
d="M0 0l-24 700h499l25 -700h-500zM78 50h340l-179 255zM266 350l180 -255l-18 510zM28 605l18 -510l161 255zM57 650l179 -255l161 255h-340z" />
    <glyph glyph-name=".null" horiz-adv-x="0" 
 />
    <glyph glyph-name="nonmarkingreturn" horiz-adv-x="333" 
 />
    <glyph glyph-name="space" unicode=" " horiz-adv-x="217" 
 />
    <glyph glyph-name="exclam" unicode="!" horiz-adv-x="277" 
d="M229 676q27 0 41 -7q3 -2 3 -8l-14 -76q-10 -56 -42 -203t-39 -173q0 -5 -7 -5h-52q-6 0 -5 5q3 35 23 175.5t30 196.5l13 79q2 6 6 8q14 8 43 8zM116 -9q-23 0 -36 14.5t-11 36.5t17 36t38 14t36.5 -15t11.5 -36q-2 -23 -17 -36.5t-39 -13.5z" />
    <glyph glyph-name="quotedbl" unicode="&#x22;" horiz-adv-x="360" 
d="M97 472l44 241q1 5 6 5h69q6 0 4 -6l-52 -241q-3 -5 -6 -5h-61q-4 0 -4 6zM252 472l44 241q1 5 5 5h69q6 0 5 -6l-52 -241q-3 -5 -7 -5h-60q-4 0 -4 6z" />
    <glyph glyph-name="numbersign" unicode="#" horiz-adv-x="496" 
d="M96 51h-47q-7 0 -4 6l60 164h-73q-5 0 -5 5l5 53q0 5 5 5h91l42 118h-75q-5 0 -4 5l5 54q0 4 5 4h93l53 147q3 5 7 5h47q5 0 3 -6l-53 -146h101l52 147q2 5 6 5h47q6 0 3 -6l-53 -146h71q5 0 5 -5l-5 -53q0 -5 -6 -5h-88l-42 -118h70q6 0 5 -5l-5 -54q0 -4 -5 -4h-87
l-58 -164q-3 -6 -7 -6h-47q-7 0 -3 7l58 163h-100l-61 -165q-3 -5 -6 -5zM227 402l-43 -118h102l43 118h-102z" />
    <glyph glyph-name="dollar" unicode="$" horiz-adv-x="496" 
d="M206 -86h-59q-7 0 -5 6l15 87q-87 8 -143 56q-5 4 -4 11l13 61q2 9 7 4q76 -68 171 -68q62 0 96.5 28.5t35.5 76.5q0 41 -27 70t-79 60q-70 39 -106 78t-36 101q0 73 49 123t136 55l14 81q1 5 7 5h58q6 0 5 -6l-14 -81q68 -8 107 -43q3 -5 2 -9l-12 -61q-2 -8 -7 -3
q-66 54 -145 54q-59 0 -89 -30t-30 -72q0 -38 25.5 -64t77.5 -56q73 -41 110.5 -83.5t37.5 -110.5q-1 -79 -55 -125t-134 -52l-16 -87q0 -6 -6 -6z" />
    <glyph glyph-name="percent" unicode="%" horiz-adv-x="763" 
d="M679 660l-515 -656q-3 -4 -8 -4h-57q-3 0 -3.5 2.5t1.5 4.5l516 654q4 5 9 5h56q7 0 1 -6zM250 676q57 0 87 -39t30 -99q1 -51 -17.5 -99.5t-60 -84t-97.5 -35.5t-86.5 37t-30.5 99q0 89 49.5 155t125.5 66zM244 623q-41 0 -72.5 -52t-31.5 -117q0 -33 14.5 -56.5
t47.5 -23.5q43 0 72.5 51.5t28.5 116.5q0 32 -14 56t-45 25zM584 347q57 0 87.5 -38.5t30.5 -99.5q0 -51 -18 -99t-59.5 -83.5t-97.5 -35.5q-57 0 -87.5 37t-30.5 98q1 89 50.5 155t124.5 66zM579 294q-41 0 -72.5 -51.5t-31.5 -116.5q0 -33 14.5 -57t47.5 -24q43 0 72 52
t28 116q0 32 -13.5 56t-44.5 25z" />
    <glyph glyph-name="ampersand" unicode="&#x26;" horiz-adv-x="653" 
d="M336 676q74 0 113 -28q4 -3 3 -9l-11 -54q-2 -8 -7 -4q-40 28 -93 28q-47 0 -73.5 -25.5t-26.5 -69.5q0 -53 54 -114h299q5 0 4 -7l-20 -53q-4 -5 -9 -5h-229q42 -49 114 -181q31 -56 51 -76.5t47 -20.5q16 0 27 4q5 0 4 -6l-10 -48q-1 -8 -7 -10q-15 -6 -41 -6
q-48 0 -77.5 26t-72.5 110q-29 56 -58.5 104.5t-49 74t-25.5 25.5q-42 0 -82.5 -35.5t-40.5 -102.5q0 -58 35 -96.5t93 -38.5q46 0 84 18q2 1 3 -0.5t0 -3.5l-9 -55q-1 -6 -6 -9q-34 -17 -98 -17q-80 0 -134 53t-54 141q0 74 46.5 129t123.5 75q-46 61 -46 125q1 74 50 118
t129 44z" />
    <glyph glyph-name="quotesingle" unicode="'" horiz-adv-x="208" 
d="M97 472l44 241q1 5 6 5h72q5 0 4 -6l-52 -241q-3 -5 -7 -5h-63q-4 0 -4 6z" />
    <glyph glyph-name="parenleft" unicode="(" horiz-adv-x="349" 
d="M313 762h73q8 0 2 -8q-133 -135 -196.5 -280t-57.5 -315q3 -89 26.5 -174t62.5 -146q2 -6 -4 -6h-67q-8 0 -11 5q-34 53 -59 138.5t-29 181.5q-6 183 64.5 337.5t186.5 262.5q8 4 9 4z" />
    <glyph glyph-name="parenright" unicode=")" horiz-adv-x="352" 
d="M137 762h66q5 0 10 -6q34 -48 59 -133.5t29 -178.5q8 -186 -60.5 -339.5t-185.5 -266.5q-5 -5 -11 -5h-74q-4 0 -4.5 2.5t2.5 4.5q131 135 195 281t58 320q-8 191 -89 314q-2 7 5 7z" />
    <glyph glyph-name="asterisk" unicode="*" horiz-adv-x="356" 
d="M247 470l90 -129q3 -5 -1 -9l-47 -28q-6 -3 -8 4l-77 140l-105 -107q-3 -3 -7 1l-35 40q-4 3 -1 8l115 93l-126 59q-5 2 -3 8l27 51q3 5 8 2l115 -78l12 146q0 7 6 5l62 -10q5 -1 4 -7l-36 -143l134 29q6 0 7 -4l9 -58q0 -5 -5 -5z" />
    <glyph glyph-name="plus" unicode="+" horiz-adv-x="545" 
d="M235 508h56q6 0 6 -6v-211h203q6 0 6 -6v-52q0 -6 -6 -6h-203v-214q0 -5 -6 -5h-56q-6 0 -6 6v213h-203q-6 0 -6 6v53q0 5 6 5h203v212q1 5 6 5z" />
    <glyph glyph-name="comma" unicode="," horiz-adv-x="207" 
d="M17 -143h-65q-7 0 -4 6q84 121 92 253q2 6 6 6h69q6 0 6 -5q-7 -149 -96 -256q-3 -4 -8 -4z" />
    <glyph glyph-name="hyphen" unicode="-" horiz-adv-x="324" 
d="M255 215h-214q-5 0 -4 6l10 58q1 4 6 4h213q6 0 5 -5l-11 -58q0 -5 -5 -5z" />
    <glyph glyph-name="period" unicode="." horiz-adv-x="207" 
d="M56 -9q-23 0 -36 14.5t-11 37.5t17.5 37.5t37.5 14.5q23 0 36.5 -15t11.5 -37q-2 -24 -17 -38t-39 -14z" />
    <glyph glyph-name="slash" unicode="/" horiz-adv-x="399" 
d="M425 704l-351 -742q-3 -4 -6 -4h-67q-4 0 -2 6l350 741q2 4 7 4h66q6 0 3 -5z" />
    <glyph glyph-name="zero" unicode="0" horiz-adv-x="496" 
d="M301 613q-51 0 -93 -66.5t-63.5 -162t-21.5 -192.5q0 -67 23 -102.5t64 -35.5q42 0 77 43t56 107.5t32 135t10 131.5q0 23 -3 44.5t-11 45.5t-26 38t-44 14zM204 -9q-80 0 -122 57.5t-43 157.5q0 76 16 155t47 151t85 118t121 46q79 0 118.5 -62.5t39.5 -160.5
q0 -74 -14.5 -151t-44 -148.5t-82.5 -117t-121 -45.5z" />
    <glyph glyph-name="one" unicode="1" horiz-adv-x="496" 
d="M358 0h-302q-8 0 -5 7l10 54q3 6 8 6h110l91 516q-48 -24 -112 -35q-6 -1 -6 5l11 53q0 5 4 6q79 16 137 51q3 3 9 3h50q3 -1 3 -5l-104 -594h106q6 0 6 -6l-10 -54q-1 -7 -6 -7z" />
    <glyph glyph-name="two" unicode="2" horiz-adv-x="496" 
d="M387 0h-382q-6 0 -4 6l7 37q1 6 6 9q76 61 205 188q74 72 104.5 131t30.5 118q0 55 -29.5 86.5t-84.5 31.5q-74 0 -141 -49q-6 -3 -5 4l13 64q2 6 6 8q69 42 151 42q75 0 124.5 -47t49.5 -134q0 -129 -129 -261q-76 -80 -175 -170q45 3 133 3h144q5 0 4 -6l-21 -55
q-3 -6 -7 -6z" />
    <glyph glyph-name="three" unicode="3" horiz-adv-x="496" 
d="M189 316h-41q-6 0 -4 5l11 57q2 5 5 5h41q68 0 107 32t40 87q0 47 -30 76.5t-81 29.5q-71 0 -133 -43q-2 -2 -4 -0.5t-1 4.5l12 62q1 6 5 8q63 37 145 37q71 0 119.5 -43.5t48.5 -118.5q0 -62 -35.5 -104.5t-89.5 -58.5v-1q49 -18 80.5 -62t31.5 -100q1 -89 -63 -143
t-162 -54q-110 0 -182 54q-3 3 -2 9l13 63q2 6 6 2q69 -59 160 -59q74 0 108 38t35 91q0 60 -38.5 93.5t-101.5 33.5z" />
    <glyph glyph-name="four" unicode="4" horiz-adv-x="496" 
d="M20 197l6 35q0 2 5 11q45 63 165 215.5t167 203.5q4 4 9 4h62q6 0 5 -7l-71 -406h92q4 0 3 -6l-17 -50q-1 -5 -6 -5h-83l-33 -187q-1 -5 -6 -5h-71q-6 0 -6 6l34 186h-251q-4 0 -4 5zM113 253h173q48 261 58 304h-1q-194 -250 -230 -304z" />
    <glyph glyph-name="five" unicode="5" horiz-adv-x="496" 
d="M187 666h245q6 0 4 -6l-23 -58q-1 -4 -6 -4h-180q-5 -14 -54 -165q53 -16 90.5 -32.5t76.5 -44t59.5 -67.5t20.5 -92q0 -94 -60 -150t-158 -56q-108 0 -179 53q-4 4 -3 9l13 63q3 5 7 2q71 -58 159 -58q66 0 101.5 36t35.5 96q0 41 -20.5 73t-58.5 54.5t-75 36.5t-87 28
q-2 0 -1 10l4 26q51 154 83 242q1 4 6 4z" />
    <glyph glyph-name="six" unicode="6" horiz-adv-x="496" 
d="M245 349q-63 0 -114 -41q-14 -39 -14 -100q0 -63 27.5 -109t87.5 -46q58 0 94.5 47t36.5 113q0 60 -30 98t-88 38zM457 675l-12 -60q0 -6 -5 -8q-113 -18 -186.5 -82.5t-102.5 -148.5q52 35 117 35q77 0 126 -51.5t49 -137.5q0 -95 -60 -163t-156 -68q-87 0 -139 58.5
t-52 160.5q0 174 113 309.5t304 160.5q2 1 3.5 -0.5t0.5 -4.5z" />
    <glyph glyph-name="seven" unicode="7" horiz-adv-x="496" 
d="M116 666h376q4 0 4 -4l-7 -43q-3 -9 -4 -11q-215 -382 -347 -603q-3 -5 -7 -5h-79q-8 0 -4 7q293 496 351 590l-302 1q-7 0 -4 6l16 57q1 5 7 5z" />
    <glyph glyph-name="eight" unicode="8" horiz-adv-x="496" 
d="M296 613q-53 0 -83.5 -39.5t-30.5 -95.5q0 -57 30 -92q7 -8 24 -8h67q15 0 23 6q28 19 45 52.5t17 70.5q0 44 -23.5 75t-68.5 31zM220 53q57 0 93.5 40t36.5 101q0 71 -42 109q-10 9 -22 9h-79q-10 0 -19 -6q-35 -19 -57.5 -55.5t-22.5 -83.5q0 -49 30.5 -81.5
t81.5 -32.5zM300 676q69 0 116 -45t47 -120q0 -112 -101 -170q68 -57 68 -151q0 -90 -61.5 -144.5t-155.5 -54.5q-76 0 -131 45.5t-55 125.5q0 124 128 189q-51 48 -51 129q0 80 53 138t143 58z" />
    <glyph glyph-name="nine" unicode="9" horiz-adv-x="496" 
d="M66 -10l12 60q2 7 6 8q94 25 164 82.5t105 138.5q-48 -28 -107 -28q-77 0 -128 52.5t-51 141.5q0 92 59.5 161.5t156.5 69.5q84 0 132.5 -64t48.5 -166q0 -122 -55.5 -223.5t-144 -161t-193.5 -75.5q-5 -1 -5 4zM269 314q61 0 104 31q14 53 14 105q0 40 -8.5 74
t-34.5 61.5t-67 27.5q-58 0 -94 -48t-36 -115q0 -60 32 -98t90 -38z" />
    <glyph glyph-name="colon" unicode=":" horiz-adv-x="267" 
d="M87 -9q-23 0 -36 14.5t-12 37.5q2 23 17.5 37.5t38.5 14.5t36 -15t11 -37q-2 -24 -16.5 -38t-38.5 -14zM149 336q-22 0 -35.5 14.5t-11.5 37.5t17.5 37.5t37.5 14.5q23 0 36.5 -15.5t11.5 -37.5q-2 -23 -17 -37t-39 -14z" />
    <glyph glyph-name="semicolon" unicode=";" horiz-adv-x="267" 
d="M150 336q-23 0 -36.5 14.5t-11.5 37.5t17.5 37.5t38.5 14.5t36 -15.5t11 -37.5q-2 -23 -16.5 -37t-38.5 -14zM55 -143h-67q-7 0 -4 6q82 120 87 253q0 6 5 6h70q5 0 6 -5q-2 -68 -25 -136t-65 -120q-1 -4 -7 -4z" />
    <glyph glyph-name="less" unicode="&#x3c;" horiz-adv-x="546" 
d="M61 233v52q0 5 4 8l413 216q6 3 6 -3v-59q0 -5 -5 -8l-343 -179v-1l343 -179q5 -1 5 -7v-59q0 -7 -5 -4l-413 216q-5 2 -5 7z" />
    <glyph glyph-name="equal" unicode="=" horiz-adv-x="545" 
d="M34 379q0 6 7 6h464q6 0 6 -6v-52q0 -7 -7 -7h-463q-7 0 -7 7v52zM34 191q0 7 7 7h463q7 0 7 -7v-51q0 -7 -8 -7h-462q-7 0 -7 6v52z" />
    <glyph glyph-name="greater" unicode="&#x3e;" horiz-adv-x="546" 
d="M484 286v-50q0 -5 -4 -8l-414 -218q-5 -3 -5 4v58q0 5 5 8l343 179v2l-343 178q-5 1 -5 7v59q0 7 6 4l413 -216q4 -1 4 -7z" />
    <glyph glyph-name="question" unicode="?" horiz-adv-x="420" 
d="M273 676q66 0 110.5 -36.5t44.5 -100.5q0 -46 -27.5 -83.5t-86.5 -81.5q-57 -43 -77 -63t-19 -33q1 -23 32 -71q2 -6 -3 -6h-63q-4 0 -7 3q-37 49 -37 84q-1 20 16.5 43t76.5 67q68 52 92.5 79.5t24.5 57.5q0 33 -24.5 53.5t-67.5 20.5q-78 0 -143 -48q-4 -1 -5 3l12 62
q2 4 4 7q56 43 147 43zM186 -9q-23 0 -36.5 14t-11.5 37q2 22 17.5 36t38.5 14t36 -14.5t11 -36.5q-2 -23 -16.5 -36.5t-38.5 -13.5z" />
    <glyph glyph-name="at" unicode="@" horiz-adv-x="803" 
d="M446 55l56 321q-12 4 -35 4q-74 0 -119 -56.5t-45 -132.5q0 -59 32 -95.5t95 -39.5q11 0 16 -1zM436 615q139 0 231 -86.5t92 -226.5q1 -144 -89 -228t-224 -84q-99 0 -158.5 51t-59.5 150q1 104 74.5 176.5t177.5 72.5q60 0 95 -15q4 -3 4 -7l-62 -361q62 11 118 72
t55 171q0 115 -68.5 185.5t-192.5 70.5q-132 0 -221 -97.5t-89 -249.5q0 -107 50 -190t146 -130q5 -3 5 -9l-12 -55q0 -6 -6 -3q-114 45 -184 147.5t-70 238.5q0 175 110 291t278 116z" />
    <glyph glyph-name="A" unicode="A" horiz-adv-x="577" 
d="M384 217h-218l-104 -212q-2 -5 -7 -5h-73q-7 0 -4 6l306 616q5 8 12 40q0 4 4 4h98q3 0 4 -4l95 -656q0 -6 -5 -6h-70q-7 0 -8 6zM196 284h181q-33 211 -39 310h-1q-19 -57 -141 -310z" />
    <glyph glyph-name="B" unicode="B" horiz-adv-x="532" 
d="M27 8l114 651q1 5 5 6q51 3 135 3q85 0 142.5 -36.5t57.5 -121.5q0 -62 -36 -102.5t-91 -55.5v-1q117 -38 117 -157q0 -95 -74.5 -145.5t-200.5 -51.5q-90 0 -164 4q-7 0 -5 7zM164 319l-44 -254q33 -3 90 -3q80 0 128 34.5t48 100.5q0 59 -40.5 90.5t-106.5 31.5h-75z
M214 602l-38 -218h69q77 0 115 32t38 84q0 103 -121 103q-19 0 -40 -0.5t-23 -0.5z" />
    <glyph glyph-name="C" unicode="C" horiz-adv-x="527" 
d="M459 78l-12 -57q-1 -5 -7 -8q-44 -22 -126 -22q-115 0 -188 74t-73 211q0 78 24.5 149.5t69.5 127.5t114.5 89.5t152.5 33.5q84 0 120 -23q5 -2 3 -7l-13 -56q-2 -7 -7 -3q-44 22 -108 22q-123 0 -196.5 -96t-73.5 -235q0 -95 48.5 -157.5t141.5 -62.5q74 0 125 25
q3 1 4.5 -0.5t0.5 -4.5z" />
    <glyph glyph-name="D" unicode="D" horiz-adv-x="610" 
d="M27 8l115 652q0 3 4 5q27 2 131 2q133 0 213 -75.5t80 -222.5q0 -189 -123 -292q-97 -80 -270 -80q-48 0 -144 3q-6 0 -6 8zM215 600l-94 -535q1 0 23.5 -1t48.5 -1q123 0 193 61q98 86 98 250q0 104 -51.5 165.5t-153.5 61.5q-54 0 -64 -1z" />
    <glyph glyph-name="E" unicode="E" horiz-adv-x="481" 
d="M414 61l-20 -56q-2 -5 -6 -5h-356q-6 0 -6 6l116 655q1 5 6 5h319q6 0 6 -5l4 -57q0 -5 -5 -5h-259l-39 -227h238q5 0 4 -5l-10 -57q-1 -4 -7 -4h-237l-42 -239h292q5 0 2 -6z" />
    <glyph glyph-name="F" unicode="F" horiz-adv-x="460" 
d="M160 292l-49 -286q-1 -6 -6 -6h-73q-6 0 -5 6l115 654q0 6 5 6h331q5 0 6 -5l3 -57q0 -5 -6 -5h-267l-42 -240h239q4 0 4 -5l-10 -57q-1 -5 -6 -5h-239z" />
    <glyph glyph-name="G" unicode="G" horiz-adv-x="608" 
d="M460 275l-137 3q-5 0 -5 5l10 52q1 5 7 5h215q6 0 4 -6l-52 -299q-1 -6 -9 -11q-70 -33 -174 -33q-118 0 -191.5 76t-73.5 209q0 167 101.5 283.5t267.5 116.5q109 0 162 -35q4 -2 2 -9l-13 -57q-1 -7 -7 -3q-56 37 -147 37q-128 0 -204 -96t-75 -235q0 -94 48.5 -158
t140.5 -64q60 0 94 17z" />
    <glyph glyph-name="H" unicode="H" horiz-adv-x="608" 
d="M476 0h-73q-7 0 -5 6l53 301h-288l-53 -302q-1 -5 -5 -5h-73q-6 0 -6 6l116 655q0 5 5 5h73q5 0 5 -5l-50 -288h288l50 288q1 5 6 5h74q5 0 5 -6l-116 -654q-2 -6 -6 -6z" />
    <glyph glyph-name="I" unicode="I" horiz-adv-x="236" 
d="M226 660l-116 -654q0 -6 -5 -6h-72q-7 0 -6 6l115 655q1 5 6 5h72q6 0 6 -6z" />
    <glyph glyph-name="J" unicode="J" horiz-adv-x="317" 
d="M229 666h72q7 0 6 -6l-88 -500q-12 -69 -29 -107q-45 -98 -155 -98q-44 0 -70 13q-5 2 -3 8l12 57q2 5 5 4q24 -11 51 -11q47 0 69 29.5t35 97.5l89 507q1 6 6 6z" />
    <glyph glyph-name="K" unicode="K" horiz-adv-x="554" 
d="M105 0h-71q-7 0 -6 6l115 655q1 5 6 5h72q6 0 6 -6l-51 -289h40q17 0 25 10q36 41 119.5 140t120.5 141q3 4 9 4h78q9 0 3 -8q-213 -246 -286 -323q15 -26 107 -170t101 -159q4 -6 -3 -6h-79q-6 0 -10 4q-27 41 -88.5 146.5t-83.5 139.5q-9 14 -26 14h-39l-53 -299
q-1 -5 -6 -5z" />
    <glyph glyph-name="L" unicode="L" horiz-adv-x="462" 
d="M226 660l-104 -593h277q7 0 3 -6l-19 -56q-3 -5 -7 -5h-343q-7 0 -6 6l115 655q2 5 6 5h73q5 0 5 -6z" />
    <glyph glyph-name="M" unicode="M" horiz-adv-x="789" 
d="M301 6q-55 574 -56 593h-1q-23 -123 -148 -594q-1 -5 -5 -5h-74q-7 0 -4 7l179 655q1 4 6 4h104q5 0 5 -5q53 -427 56 -549h1q37 98 257 549q3 5 7 5h100q6 0 7 -7l-59 -653q0 -6 -5 -6h-74q-7 0 -6 6q44 440 66 592h-1q-47 -119 -276 -593q-2 -5 -6 -5h-65q-7 0 -8 6z
" />
    <glyph glyph-name="N" unicode="N" horiz-adv-x="607" 
d="M139 661q1 5 6 5h94q3 0 6 -4q167 -501 179 -557h2q4 57 90 556q1 5 6 5h71q5 0 4 -6l-115 -654q-1 -6 -7 -6h-87q-8 0 -10 6q-71 207 -121 370t-57 203h-1q-4 -62 -95 -573q0 -6 -5 -6h-69q-6 0 -6 6z" />
    <glyph glyph-name="O" unicode="O" horiz-adv-x="635" 
d="M374 676q102 0 162 -72.5t60 -193.5q0 -111 -36 -204.5t-109.5 -154t-172.5 -60.5q-104 0 -164.5 68.5t-60.5 190.5q0 107 37 202.5t112 159.5t172 64zM365 610q-97 0 -161.5 -109.5t-64.5 -251.5q0 -50 13 -91.5t47.5 -71.5t86.5 -30q69 0 121.5 54.5t77.5 134.5t25 167
q0 82 -34.5 140t-110.5 58z" />
    <glyph glyph-name="P" unicode="P" horiz-adv-x="514" 
d="M27 6l115 654q0 6 5 6q44 2 125 2q98 0 163 -47t65 -148q0 -108 -77.5 -164.5t-198.5 -56.5q-32 0 -70 2l-44 -249q0 -5 -5 -5h-73q-6 0 -5 6zM216 600l-50 -280q33 -3 62 -3q85 0 136.5 38.5t51.5 114.5q0 65 -38.5 98t-106.5 33q-43 0 -55 -1z" />
    <glyph glyph-name="Q" unicode="Q" horiz-adv-x="635" 
d="M366 610q-66 0 -119 -53t-80.5 -134.5t-27.5 -172.5q0 -82 35 -138t112 -56q68 0 120 54t77.5 133t26.5 168q0 36 -6.5 69t-22 63.5t-45 48.5t-70.5 18zM374 676q102 0 161.5 -72.5t59.5 -190.5q1 -149 -55 -249.5t-127 -136.5q114 -93 176 -137q3 -1 2.5 -3.5t-4.5 -3.5
l-72 -27q-6 -1 -11 3q-16 11 -172 139q-18 -7 -54 -7q-103 1 -164 68t-61 189q0 173 90 300.5t231 127.5z" />
    <glyph glyph-name="R" unicode="R" horiz-adv-x="541" 
d="M159 286l-50 -281q-2 -5 -5 -5h-72q-6 0 -6 6l116 654q0 5 5 5q48 3 136 3q57 0 103 -16t78 -57t32 -104q0 -72 -44.5 -121.5t-120.5 -68.5q14 -25 79 -151t73 -143q2 -7 -4 -7h-80q-7 0 -10 6q-9 18 -58 122.5t-66 139.5q-8 18 -24 18h-82zM215 601l-44 -250h73
q81 0 124.5 37.5t43.5 97.5q0 117 -133 117q-38 0 -64 -2z" />
    <glyph glyph-name="S" unicode="S" horiz-adv-x="458" 
d="M3 59l13 63q0 6 6 2q74 -66 166 -66q63 0 93 29.5t30 77.5q0 42 -24 72.5t-74 65.5q-70 47 -103 88t-33 106q0 73 52 126t148 53q95 0 146 -39q4 -3 2 -8l-12 -60q-2 -7 -7 -3q-55 43 -132 43q-58 0 -87 -31.5t-29 -73.5q0 -38 23.5 -65.5t72.5 -61.5q73 -48 107.5 -91.5
t34.5 -112.5q0 -81 -56 -131.5t-155 -50.5q-113 -1 -179 57q-5 4 -3 11z" />
    <glyph glyph-name="T" unicode="T" horiz-adv-x="503" 
d="M151 6l104 592h-187q-6 0 -4 7l19 57q1 4 6 4h447q6 0 6 -5l2 -57q0 -6 -5 -6h-200l-104 -593q-1 -5 -7 -5h-71q-6 0 -6 6z" />
    <glyph glyph-name="U" unicode="U" horiz-adv-x="600" 
d="M221 661l-76 -437q-14 -82 20 -124.5t101 -42.5q64 0 106.5 35.5t60.5 135.5l77 433q2 5 6 5h72q6 0 6 -7l-78 -429q-22 -127 -87 -183t-170 -56q-102 0 -160 60.5t-38 177.5l77 432q1 5 6 5h72q7 0 5 -5z" />
    <glyph glyph-name="V" unicode="V" horiz-adv-x="571" 
d="M250 84h2q38 96 278 577q2 5 7 5h74q7 0 4 -7l-332 -654q-3 -5 -8 -5h-81q-6 0 -9 5l-101 655q-2 6 4 6h73q5 0 6 -5q74 -491 83 -577z" />
    <glyph glyph-name="W" unicode="W" horiz-adv-x="822" 
d="M525 661q25 -387 25 -569h1q49 142 221 569q1 5 6 5h78q5 0 3 -6l-275 -654q-2 -6 -7 -6h-82q-8 0 -9 7q-21 318 -26 575l-1 -1q-53 -169 -229 -576q-2 -5 -6 -5h-84q-7 0 -7 5l-41 656q0 5 5 5h75q5 0 5 -5q27 -494 27 -569h1q51 149 224 569q1 5 6 5h85q5 0 5 -5z" />
    <glyph glyph-name="X" unicode="X" horiz-adv-x="533" 
d="M569 660l-242 -322l138 -332q1 -6 -3 -6h-78q-6 0 -9 5q-17 41 -54 138t-55 140h-2q-17 -23 -90.5 -126.5t-109.5 -151.5q-4 -5 -8 -5h-84q-8 0 -3 7l252 331l-129 323q-2 5 4 5h78q4 0 7 -4q15 -38 50 -134t52 -140h1q29 39 95 134t99 140q3 4 7 4h81q5 0 3 -6z" />
    <glyph glyph-name="Y" unicode="Y" horiz-adv-x="510" 
d="M238 0h-71q-9 0 -7 7l43 241q2 26 -2 36l-127 377q-2 5 3 5h77q5 0 6 -4q90 -278 99 -334q50 89 216 334q3 4 7 4h78q7 0 3 -6l-262 -379q-8 -11 -16 -39l-41 -235q-3 -7 -6 -7z" />
    <glyph glyph-name="Z" unicode="Z" horiz-adv-x="507" 
d="M422 0h-438q-5 0 -5 6l7 35q3 7 6 10q45 60 193.5 256.5t218.5 291.5h-316q-6 0 -4 6l19 56q1 5 7 5h407q7 0 5 -5l-7 -38q-1 -5 -7 -12q-201 -274 -408 -544h346q5 0 3 -6l-21 -56q-1 -5 -6 -5z" />
    <glyph glyph-name="bracketleft" unicode="[" horiz-adv-x="328" 
d="M227 693l-142 -802l127 -1q5 0 3 -5l-8 -46q0 -5 -6 -5h-192q-7 0 -6 8l159 900q2 6 8 6h193q4 0 3 -4l-7 -45q-1 -5 -5 -5z" />
    <glyph glyph-name="backslash" unicode="\" horiz-adv-x="363" 
d="M192 -36l-86 740q0 6 6 6h61q4 0 6 -5l88 -739q0 -7 -6 -7h-63q-6 0 -6 5z" />
    <glyph glyph-name="bracketright" unicode="]" horiz-adv-x="337" 
d="M113 -109l143 810h-127q-4 0 -4 5l9 46q1 5 6 5h193q6 0 5 -7l-161 -906q-1 -8 -9 -8h-190q-5 0 -4 4l8 46q0 5 5 5h126z" />
    <glyph glyph-name="asciicircum" unicode="^" horiz-adv-x="480" 
d="M447 293h-60q-5 0 -8 6l-147 305h-1l-122 -305q-1 -6 -7 -6h-58q-7 0 -5 7l150 361q2 5 5 5h69q6 0 7 -5l180 -360q3 -8 -3 -8z" />
    <glyph glyph-name="underscore" unicode="_" horiz-adv-x="513" 
d="M-8 -74h507v-49h-507v49z" />
    <glyph glyph-name="grave" unicode="`" 
d="M207 714l68 -146q2 -6 -5 -6h-63q-6 0 -7 4l-84 146q-2 7 4 7h80q4 0 7 -5z" />
    <glyph glyph-name="a" unicode="a" horiz-adv-x="490" 
d="M455 472l-78 -442q-1 -5 -7 -7q-66 -32 -147 -32q-86 0 -138 50t-52 146q0 122 87 213.5t225 91.5q63 0 108 -15q2 0 2 -5zM299 64l64 362q-12 4 -35 4q-88 0 -148.5 -69t-61.5 -170q0 -63 29.5 -101t90.5 -38q36 0 61 12z" />
    <glyph glyph-name="b" unicode="b" horiz-adv-x="502" 
d="M25 37l118 677q1 6 6 6q63 6 75 6q4 0 3 -6l-46 -265q58 37 120 37q69 0 108.5 -52.5t39.5 -138.5q0 -129 -78.5 -219.5t-198.5 -90.5q-92 0 -144 37q-4 4 -3 9zM171 391l-57 -323q26 -16 68 -16q75 0 128 72.5t54 174.5q0 52 -21 90.5t-70 38.5q-54 0 -102 -37z" />
    <glyph glyph-name="c" unicode="c" horiz-adv-x="395" 
d="M329 69l-11 -55q-2 -5 -6 -7q-31 -16 -88 -16q-86 0 -138.5 54.5t-52.5 150.5q0 122 75.5 209t188.5 87q49 0 79 -13q4 -3 3 -8l-11 -54q-1 -5 -6 -3q-25 12 -64 12q-78 0 -128.5 -65t-50.5 -156q0 -64 30 -106t94 -42q49 0 82 16q4 2 4 -1v-3z" />
    <glyph glyph-name="d" unicode="d" horiz-adv-x="498" 
d="M505 720l-121 -686q-2 -7 -6 -9q-71 -34 -153 -34q-86 0 -139 51.5t-53 150.5q0 121 82 210t202 89q36 0 62 -8l41 230q0 5 5 6q54 6 76 6q4 0 4 -6zM305 68l63 352q-20 10 -60 10q-77 0 -133 -69.5t-56 -165.5q0 -63 28.5 -102t90.5 -39q39 0 67 14z" />
    <glyph glyph-name="e" unicode="e" horiz-adv-x="449" 
d="M358 86l-11 -58q-1 -6 -6 -9q-44 -28 -127 -28q-84 0 -132.5 51t-48.5 147q0 119 71 211t175 92q69 0 104 -35t36 -82q1 -81 -75 -124t-227 -42q-2 -11 -2 -34q2 -118 118 -118q71 0 120 33q5 3 5 -4zM123 266q122 -3 171 28.5t48 78.5q0 22 -15 40t-53 18q-52 0 -94 -45
t-57 -120z" />
    <glyph glyph-name="f" unicode="f" horiz-adv-x="243" 
d="M98 418h-60q-6 2 -5 7l10 53q1 4 5 4h60l11 54q20 105 65.5 149.5t113.5 44.5q32 0 50 -9q6 -1 4 -7l-11 -55q-2 -6 -6 -5q-18 6 -36 6q-34 0 -58.5 -25.5t-38.5 -101.5l-10 -51h83q6 0 5 -5l-10 -53q-1 -5 -5 -6h-84l-101 -577q-2 -5 -9 -7l-72 -4q-6 0 -3 6z" />
    <glyph glyph-name="g" unicode="g" horiz-adv-x="494" 
d="M-22 -197l15 59q0 7 6 3q57 -31 120 -31q69 0 108.5 35t57.5 117l8 42q-43 -24 -96 -24q-74 0 -118.5 48t-44.5 136q0 121 81 212.5t211 91.5q73 0 130 -21q5 -2 3 -7q-7 -26 -11 -44l-66 -369q-20 -105 -42 -154q-60 -131 -225 -131q-81 0 -133 29q-4 3 -4 8zM304 91
l60 331q-19 8 -52 8q-81 0 -137.5 -68.5t-56.5 -165.5q1 -56 26 -92t81 -36q45 0 79 23z" />
    <glyph glyph-name="h" unicode="h" horiz-adv-x="501" 
d="M18 6l125 706q0 6 6 6q45 6 74 6q6 0 5 -5l-54 -301q70 74 153 74q58 0 92 -42t17 -140l-54 -304q-2 -6 -6 -6h-73q-8 0 -6 7l56 306q20 111 -56 111q-70 0 -127 -78q-10 -12 -13 -33l-55 -308q0 -5 -6 -5h-72q-8 0 -6 6z" />
    <glyph glyph-name="i" unicode="i" horiz-adv-x="221" 
d="M166 589q-20 0 -32 13.5t-10 33.5q2 22 16.5 35t35.5 13t32.5 -13.5t8.5 -34.5q-2 -21 -15.5 -34t-35.5 -13zM18 6l83 471q1 5 7 5h73q7 0 5 -6l-84 -471q-1 -5 -6 -5h-72q-6 0 -6 6z" />
    <glyph glyph-name="j" unicode="j" horiz-adv-x="221" 
d="M101 476q1 6 7 6h72q6 0 5 -6l-86 -491q-15 -86 -31.5 -125t-41.5 -62q-36 -32 -98 -32q-18 0 -26 2q-5 2 -4 7l10 54q1 5 6 5q43 1 62.5 23.5t32.5 96.5zM164 589q-21 0 -32.5 13.5t-9.5 33.5q2 22 16.5 35t35.5 13t32 -13.5t9 -34.5q-1 -21 -15.5 -34t-35.5 -13z" />
    <glyph glyph-name="k" unicode="k" horiz-adv-x="462" 
d="M138 213l-36 -207q0 -6 -6 -6h-72q-8 0 -6 6l124 708q2 5 6 6q8 0 39 2.5t36 2.5t4 -5l-77 -443h31q11 0 18 8q86 94 174 193q3 4 9 4h78q8 0 3 -7q-30 -38 -216 -229q23 -35 79 -123t74 -116q4 -7 -3 -7h-82q-7 0 -9 5q-21 33 -68 112.5t-51 85.5q-6 10 -16 10h-33z" />
    <glyph glyph-name="l" unicode="l" horiz-adv-x="234" 
d="M176 52l-9 -44q-1 -7 -6 -9q-18 -8 -53 -8q-93 0 -74 111l108 611q1 5 6 6q10 1 40.5 3.5t33.5 2.5q4 0 4 -6l-108 -625q-5 -24 2.5 -32.5t22.5 -8.5q17 0 30 4q2 1 3 -0.5t0 -4.5z" />
    <glyph glyph-name="m" unicode="m" horiz-adv-x="765" 
d="M103 482h66q5 0 5 -5q0 -19 -6 -65q74 80 158 80q87 0 101 -85q75 85 167 85q56 0 89.5 -42t16.5 -139l-54 -304q-1 -7 -7 -7h-69q-5 0 -7.5 2t-1.5 6l56 315q17 100 -56 100q-67 0 -122 -80q-8 -12 -8 -21q-1 -6 -3 -13.5t-2 -10.5l-52 -292q-1 -6 -7 -6h-70
q-3 0 -5.5 1.5t-1.5 4.5l55 308q20 109 -52 109q-71 0 -125 -80q-9 -12 -13 -33l-54 -304q-3 -6 -7 -6h-70q-7 0 -7 6l66 371q12 65 14 99q0 6 6 6z" />
    <glyph glyph-name="n" unicode="n" horiz-adv-x="501" 
d="M18 5l64 364q12 66 16 108q0 5 5 5h67q5 0 5 -4q1 -8 -6 -65q72 79 161 79q55 0 89 -41.5t17 -143.5l-54 -302q-2 -5 -6 -5h-73q-7 0 -5 6l56 312q17 106 -58 106q-71 0 -124 -76q-13 -22 -15 -36l-55 -308q-1 -4 -6 -4h-72q-6 0 -6 5z" />
    <glyph glyph-name="o" unicode="o" horiz-adv-x="502" 
d="M278 492q78 0 126 -54t48 -146q0 -76 -27 -143.5t-83 -112.5t-131 -45q-80 0 -128.5 52t-48.5 145q0 120 67.5 212t176.5 92zM272 430q-65 0 -109 -75t-44 -173q0 -55 23.5 -92.5t74.5 -37.5q62 0 106 75t43 175q0 53 -22 90.5t-72 37.5z" />
    <glyph glyph-name="p" unicode="p" horiz-adv-x="499" 
d="M274 492q77 0 126 -53t49 -139q1 -134 -79 -221.5t-198 -87.5q-41 0 -70 12l-38 -216q-1 -5 -6 -6q-56 -5 -74 -6q-5 0 -4 6l117 668q1 7 7 8q102 35 170 35zM258 429q-46 0 -85 -19l-59 -342q28 -16 69 -16q74 0 127 69.5t54 172.5q0 58 -25 96.5t-81 38.5z" />
    <glyph glyph-name="q" unicode="q" horiz-adv-x="497" 
d="M199 -9q-74 0 -120 49.5t-46 135.5q0 128 81.5 222t215.5 94q70 0 129 -25q6 -3 3 -8q-9 -33 -11 -42l-111 -630q-1 -5 -5 -6q-61 -5 -74 -6q-7 0 -5 6l41 232q-43 -22 -98 -22zM307 75l61 345q-29 11 -56 11q-82 0 -137.5 -73t-55.5 -173q0 -57 24.5 -94.5t79.5 -37.5
q48 0 84 22z" />
    <glyph glyph-name="r" unicode="r" horiz-adv-x="321" 
d="M103 482h62q6 0 7 -5q0 -47 -6 -80q32 44 77 69.5t87 24.5q6 0 5 -7l-14 -72q-2 -5 -5 -5q-87 -2 -144 -69q-14 -19 -18 -38l-52 -295q-1 -5 -5 -5h-74q-5 0 -5 5l62 351q14 74 17 122q0 4 6 4z" />
    <glyph glyph-name="s" unicode="s" horiz-adv-x="363" 
d="M308 398q-43 30 -102 30q-40 0 -61 -18t-21 -45q0 -25 15.5 -42.5t54.5 -42.5q55 -33 83 -65t28 -82q0 -68 -48 -105t-119 -37q-86 0 -140 42q-4 3 -2 10l11 59q2 6 6 2q59 -49 128 -49q41 0 62 19.5t21 48.5q0 27 -15.5 45.5t-57.5 45.5q-50 31 -76.5 62t-26.5 78
q0 60 44 99t118 39t113 -27q4 -3 3 -9l-11 -56q-3 -5 -7 -2z" />
    <glyph glyph-name="t" unicode="t" horiz-adv-x="278" 
d="M224 62l-9 -46q-1 -6 -7 -10q-26 -15 -75 -15t-75 32.5t-13 101.5l51 293h-61q-6 2 -5 7l10 52q1 5 6 5h62q4 25 22 119q1 4 6 5q38 1 76 15q5 1 5 -4q-2 -8 -26 -135h88q6 0 5 -6l-8 -52q-1 -5 -7 -6h-89l-52 -296q-11 -68 41 -68q25 0 50 13q2 1 3.5 -0.5t1.5 -4.5z
" />
    <glyph glyph-name="u" unicode="u" horiz-adv-x="490" 
d="M456 477l-65 -371q-8 -42 -11 -100q0 -6 -5 -6h-65q-8 0 -9 6q0 30 4 54q-60 -69 -149 -69q-59 0 -93.5 40t-18.5 133l56 313q0 5 7 5h72q5 0 5 -6l-56 -319q-19 -99 59 -99q63 0 112 62q14 16 15 29l59 329q0 4 6 4h72q5 0 5 -5z" />
    <glyph glyph-name="v" unicode="v" horiz-adv-x="432" 
d="M194 0h-82q-7 0 -8 5q-35 238 -67 472q0 5 5 5h73q6 0 6 -4q42 -352 45 -402h2q18 45 190 402q3 4 8 4h73q7 0 4 -6q-26 -55 -121.5 -239t-121.5 -232q-2 -5 -6 -5z" />
    <glyph glyph-name="w" unicode="w" horiz-adv-x="686" 
d="M464 0h-80q-7 0 -7 5q-26 349 -25 392q-6 -16 -28 -65.5t-65.5 -146.5t-79.5 -179q-3 -6 -8 -6h-78q-8 0 -8 6l-39 470q-2 6 5 6h74q5 0 6 -4q23 -331 23 -395h2q33 89 171 394q1 5 7 5h72q6 0 6 -6q24 -369 24 -394h2q23 70 168 396q2 4 8 4h72q8 0 4 -7l-220 -470
q-2 -5 -6 -5z" />
    <glyph glyph-name="x" unicode="x" horiz-adv-x="424" 
d="M152 246l-101 230q-3 6 3 6h79q5 0 6 -4l75 -188h1l137 187q2 5 8 5h76q7 0 3 -6q-4 -5 -77.5 -101t-103.5 -132q13 -30 54.5 -121t52.5 -115q3 -7 -3 -7h-78q-6 0 -8 6l-79 190h-1q-20 -30 -143 -191q-2 -5 -8 -5h-80q-7 0 -2 7q123 154 189 239z" />
    <glyph glyph-name="y" unicode="y" horiz-adv-x="439" 
d="M40 482h78q5 0 6 -4q46 -251 56 -360h2q77 142 178 359q2 5 8 5h73q7 0 5 -6q-94 -208 -226 -429q-85 -143 -180 -268q-3 -4 -9 -4h-82q-4 0 -4.5 2.5t1.5 4.5q37 46 89.5 121.5t81.5 122.5q4 7 3 13q-2 13 -21 110t-38 196t-25 132q0 5 4 5z" />
    <glyph glyph-name="z" unicode="z" horiz-adv-x="388" 
d="M315 0h-333q-5 0 -4 4l7 35q1 2 4 9q45 59 109.5 142.5t117.5 151t61 78.5q-20 -2 -97 -2h-127q-5 0 -4 6l15 55q1 3 6 3h312q4 0 4 -4l-7 -37q-1 -6 -6 -11q-108 -155 -283 -368q28 2 113 2h131q6 0 4 -5l-19 -55q0 -4 -4 -4z" />
    <glyph glyph-name="braceleft" unicode="{" horiz-adv-x="385" 
d="M33 261q-4 0 -4 6l12 57q0 4 5 4q68 0 97 23.5t39 74.5q4 21 10 76t9 76q3 23 10 43.5t22.5 45t38 42.5t60 31t84.5 15q5 0 5 -4l-10 -50q0 -5 -5 -6q-66 -6 -94.5 -38.5t-36.5 -81.5q-4 -22 -9.5 -75t-9.5 -75q-20 -107 -121 -129v-2q96 -23 75 -139q-5 -27 -17 -75.5
t-16 -67.5q-13 -55 7.5 -85t79.5 -41q4 -1 3 -6l-9 -50q-1 -5 -6 -5q-91 11 -127 61.5t-22 124.5q4 20 16.5 67.5t16.5 73.5q10 53 -12 81t-91 28z" />
    <glyph glyph-name="bar" unicode="|" horiz-adv-x="207" 
d="M131 -196h-75v980h75v-980z" />
    <glyph glyph-name="braceright" unicode="}" horiz-adv-x="385" 
d="M352 327q4 0 4 -6l-11 -57q0 -4 -5 -4q-67 0 -97 -23.5t-39 -74.5q-3 -22 -10 -79.5t-11 -80.5q-29 -166 -213 -176q-5 0 -4 4l8 50q0 5 5 6q69 10 95 39.5t34 77.5q4 23 11 80t11 80q17 109 120 129v3q-99 24 -75 133q6 29 19 78.5t17 67.5q11 53 -8 82t-83 39
q-3 0 -3 6l10 50q0 5 5 5q92 -10 128.5 -59t22.5 -122q-5 -24 -17.5 -69t-16.5 -68q-11 -55 11 -82t92 -29z" />
    <glyph glyph-name="asciitilde" unicode="~" horiz-adv-x="553" 
d="M103 195h-53q-5 0 -5 6q-4 84 30 125.5t88 41.5q31 0 56 -12.5t70 -46.5q40 -31 61 -42.5t43 -11.5q29 0 41.5 23.5t10.5 78.5q0 5 5 5h53q5 0 5 -5q6 -89 -27.5 -128.5t-86.5 -39.5q-56 0 -128 55q-11 8 -30.5 24t-27 21t-19.5 10t-23 5q-62 0 -58 -104q0 -5 -5 -5z" />
    <glyph glyph-name="uni00A0" unicode="&#xa0;" horiz-adv-x="217" 
 />
    <glyph glyph-name="exclamdown" unicode="&#xa1;" horiz-adv-x="247" 
d="M32 -194q-29 0 -41 7q-5 3 -3 9l14 75q9 54 41 201t40 175q0 6 6 6h53q5 0 5 -6q-25 -218 -53 -372l-14 -78q-2 -7 -6 -9q-16 -8 -42 -8zM145 492q22 0 35.5 -14.5t11.5 -36.5t-17 -36.5t-38 -14.5t-36.5 14.5t-11.5 36.5q2 23 17 37t39 14z" />
    <glyph glyph-name="cent" unicode="&#xa2;" horiz-adv-x="496" 
d="M289 121l-15 -86q-1 -5 -6 -5h-55q-5 0 -4 6l15 87q-62 11 -99 57t-39 114q-4 103 58 179t158 87l16 85q0 4 5 4h55q4 0 4 -4l-15 -83q46 -2 73 -20q3 -3 2 -7l-11 -55q-2 -6 -6 -4q-37 23 -90 23q-73 0 -121 -55t-45 -140q1 -56 34.5 -87t80.5 -31q56 0 100 22q2 1 3 0
t1 -4l-11 -55q0 -6 -5 -7q-31 -19 -83 -21z" />
    <glyph glyph-name="sterling" unicode="&#xa3;" horiz-adv-x="496" 
d="M388 0h-393q-4 0 -4 5l9 46q1 3 5 4q105 41 129 248h-78q-4 0 -4 6l9 48q1 5 7 5h72q3 22 9 64q19 131 71.5 190.5t137.5 59.5q62 0 92 -21q3 -2 3 -8l-11 -53q-1 -6 -7 -4q-31 19 -72 19q-66 0 -96 -61t-43 -186h140q5 0 5 -6l-9 -47q0 -6 -7 -6h-138
q-22 -175 -101 -236h298q6 0 3 -6l-21 -56q-1 -5 -6 -5z" />
    <glyph glyph-name="currency" unicode="&#xa4;" horiz-adv-x="496" 
d="M135 333q0 -63 34.5 -94t78.5 -31q48 0 80.5 29t32.5 95q0 53 -29.5 90t-84.5 37q-51 0 -81.5 -34.5t-30.5 -91.5zM68 333q0 60 34 107l-67 67q-5 3 0 8l35 36q4 3 8 -1l67 -65q43 33 103 33t104 -34l68 65q4 4 8 0l34 -35q5 -3 -1 -7l-66 -67q33 -46 33 -109
q0 -61 -32 -105l65 -66q5 -3 0 -8l-34 -34q-4 -4 -8 1l-64 65q-41 -35 -107 -35q-65 0 -107 33l-61 -64q-5 -5 -9 -1l-34 34q-4 4 -1 9l65 65q-33 45 -33 108z" />
    <glyph glyph-name="yen" unicode="&#xa5;" horiz-adv-x="496" 
d="M216 0h-69q-7 0 -6 6l32 181h-121q-6 0 -5 6l8 42q1 6 7 6h121l12 67h-121q-6 0 -6 6l8 41q1 6 7 6h108l-112 299q-2 6 3 6h74q4 0 7 -4q83 -266 86 -279h2q26 58 180 278q3 5 8 5h79q3 0 3.5 -2.5t-1.5 -4.5l-217 -298h106q4 0 4 -6l-8 -42q-1 -5 -6 -5h-125l-11 -67
h124q7 0 5 -5l-8 -44q-1 -5 -7 -5h-124l-32 -181q0 -6 -5 -6z" />
    <glyph glyph-name="brokenbar" unicode="&#xa6;" horiz-adv-x="207" 
d="M131 392h-75v392h75v-392zM131 196v-392h-75v392h75z" />
    <glyph glyph-name="section" unicode="&#xa7;" horiz-adv-x="536" 
d="M287 353q-61 82 -78 124t-9 85q-64 -64 -66 -163q0 -52 18 -94t65 -110q50 -73 67.5 -120t3.5 -89q81 62 81 172q0 87 -82 195zM327 675q48 1 84.5 -12.5t51.5 -28.5q3 -3 3 -8l-11 -59q-1 -7 -7 -3q-52 46 -119 46q-37 0 -54.5 -17t-15.5 -45q1 -22 17 -50t65 -91
q48 -63 73 -117t25 -122q-2 -124 -83 -209t-193 -85q-48 0 -84.5 15t-54.5 33q-4 6 -3 10l12 62q2 8 7 3q60 -54 129 -54q59 0 63 45q3 29 -10.5 60t-62.5 99q-43 62 -66.5 115t-23.5 117q1 118 75.5 206.5t182.5 89.5z" />
    <glyph glyph-name="dieresis" unicode="&#xa8;" 
d="M141 589q-20 0 -32 13t-10 33q3 21 17 33.5t35 12.5t32 -13t9 -33t-16 -33t-35 -13zM323 589q-20 0 -32 13t-10 33q3 21 17 33.5t35 12.5t32 -13t9 -33t-16 -33t-35 -13z" />
    <glyph glyph-name="copyright" unicode="&#xa9;" horiz-adv-x="759" 
d="M58 332q0 140 93.5 235t232.5 95t232 -94.5t93 -235.5q0 -145 -92.5 -238.5t-232.5 -93.5q-141 0 -233.5 94t-92.5 238zM109 332q0 -124 79 -204t196 -80q124 0 199.5 79.5t74.5 204.5q-1 122 -80 202.5t-195 80.5q-120 0 -197 -81t-77 -202zM514 224v-47q0 -2 -5 -7
q-39 -23 -103 -23q-88 0 -139.5 53t-51.5 131q0 81 55.5 134.5t143.5 53.5q58 0 92 -19q4 -2 4 -8v-48q0 -6 -6 -3q-36 19 -85 19q-60 0 -96.5 -35t-36.5 -91q0 -61 37.5 -94.5t93.5 -33.5q49 0 91 21q6 4 6 -3z" />
    <glyph glyph-name="ordfeminine" unicode="&#xaa;" horiz-adv-x="347" 
d="M193 298q-62 0 -99 34.5t-39 91.5q-3 84 55 141.5t148 56.5q61 0 101 -17q3 -1 3 -4l-41 -231q-4 -23 -5 -40q0 -4 -4 -7q-59 -25 -119 -25zM254 362l36 202q-19 7 -45 7q-56 0 -90.5 -42t-32.5 -99q2 -36 22.5 -57.5t57.5 -21.5q32 0 52 11z" />
    <glyph glyph-name="guillemotleft" unicode="&#xab;" horiz-adv-x="619" 
d="M62 221l8 44q1 3 5 6l250 171q3 2 5 1t1 -5l-13 -67q-1 -6 -6 -10l-178 -124l134 -126q3 -3 3 -9l-11 -61q-2 -5 -6 -2l-190 174q-2 2 -2 8zM298 221l8 44q0 1 5 6l251 171q2 2 4 1t1 -5l-12 -67q-1 -6 -7 -10l-178 -124l134 -126q3 -2 3 -9l-11 -61q-1 -4 -5 -2
l-190 174q-3 3 -3 8z" />
    <glyph glyph-name="logicalnot" unicode="&#xac;" horiz-adv-x="545" 
d="M26 387h471q6 0 6 -6v-262q0 -6 -5 -6h-57q-5 0 -5 6v203h-410q-5 0 -5 6v54q0 5 5 5z" />
    <glyph glyph-name="uni00AD" unicode="&#xad;" horiz-adv-x="324" 
d="M255 215h-214q-5 0 -4 6l10 58q1 4 6 4h213q6 0 5 -5l-11 -58q0 -5 -5 -5z" />
    <glyph glyph-name="registered" unicode="&#xae;" horiz-adv-x="250" 
d="M192 426q-54 0 -90 36t-36 89q0 52 36 88.5t90 36.5q53 0 88.5 -36.5t35.5 -88.5q0 -54 -35.5 -89.5t-88.5 -35.5zM193 450q44 0 70 28.5t26 72.5q0 43 -27.5 72t-71.5 29q-42 0 -69 -28.5t-27 -72.5q0 -43 28 -72t71 -29zM170 537v-45q0 -3 -3 -3h-20q-3 0 -3 3v121
q0 3 3 3h40q55 0 55 -38q0 -26 -29 -34q1 -2 17.5 -23t20.5 -29q2 -1 0 -2q-1 -1 -2 -1h-23q-4 0 -6 2q-4 5 -15 21t-15 22q-5 3 -6 3h-14zM170 595v-38h15q29 0 29 19t-28 19h-16z" />
    <glyph glyph-name="macron" unicode="&#xaf;" 
d="M119 667h254q4 0 4 -6l-10 -53q-2 -5 -6 -5h-253q-6 0 -4 6l10 54q0 4 5 4z" />
    <glyph glyph-name="degree" unicode="&#xb0;" horiz-adv-x="261" 
d="M173 623q51 0 84.5 -34t33.5 -87q0 -54 -33 -88.5t-85 -34.5t-85.5 35t-33.5 88q0 51 34 86t85 35zM173 577q-29 0 -48.5 -21.5t-19.5 -53.5t19.5 -53.5t48.5 -21.5q30 0 49.5 21.5t19.5 53.5q0 31 -20 53t-49 22z" />
    <glyph glyph-name="plusminus" unicode="&#xb1;" horiz-adv-x="545" 
d="M20 59q0 6 7 6h472q7 0 7 -6v-51q0 -8 -8 -8h-471q-7 0 -7 6v53zM235 606h56q6 0 6 -6v-204h202q7 0 7 -7v-51q0 -7 -7 -7h-202v-206q0 -7 -6 -7h-56q-6 0 -6 7v206h-203q-6 0 -6 6v53q0 6 6 6h203v205q0 5 6 5z" />
    <glyph glyph-name="twosuperior" unicode="&#xb2;" horiz-adv-x="300" 
d="M301 465h-242q-3 0 -3 4l8 35q1 3 4 6q14 10 46 34t48.5 36.5t41 34t36.5 37t21 35t9 38.5q-2 25 -18.5 40t-45.5 15q-48 0 -92 -27q-4 -1 -5 3l9 48q0 4 5 7q44 25 102 26q49 0 78 -29t31 -70q1 -32 -9 -58t-38 -55.5t-50 -48t-72 -57.5l156 1q3 0 3 -4l-18 -47
q-1 -4 -5 -4z" />
    <glyph glyph-name="threesuperior" unicode="&#xb3;" horiz-adv-x="296" 
d="M146 631l7 40q0 4 4 4h32q41 1 61 18.5t19 43.5q-1 21 -16.5 34t-44.5 13q-45 0 -89 -25q-4 -3 -4 2l8 46q1 5 5 6q42 24 99 24q48 0 75 -25t29 -60q3 -70 -71 -96v-1q24 -8 41.5 -28t18.5 -49q2 -58 -40.5 -88.5t-103.5 -30.5q-67 0 -108 28q-3 1 -3 7l9 47q0 4 4 2
q44 -31 98 -31q41 0 61.5 18t20.5 45q-3 53 -73 53h-37q-2 0 -2 3z" />
    <glyph glyph-name="acute" unicode="&#xb4;" 
d="M180 567l148 147q4 5 10 5h84q4 0 4.5 -2.5t-1.5 -4.5l-160 -146q-5 -5 -11 -5h-72q-2 0 -3 2t1 4z" />
    <glyph glyph-name="uni00B5" unicode="&#xb5;" horiz-adv-x="506" 
d="M460 476l-64 -360q-10 -56 27 -56q18 0 29 4q3 1 4 -1t0 -5l-9 -51q-1 -4 -6 -7q-17 -9 -51 -9q-76 0 -69 88q0 8 3 17q-60 -105 -154 -105q-53 0 -72 39q-9 -82 -39 -241q-1 -6 -6 -7q-8 -1 -25.5 -2.5t-30 -3t-15.5 -1.5q-6 0 -5 7l123 694q0 6 7 6h72q6 0 5 -6
l-58 -328q-8 -42 7.5 -65.5t50.5 -23.5q52 0 94.5 52.5t61.5 159.5l36 204q0 7 7 7h71q6 0 6 -6z" />
    <glyph glyph-name="paragraph" unicode="&#xb6;" horiz-adv-x="457" 
d="M253 -146q-3 -4 -9 -4h-53q-5 0 -2 6q53 72 75 190l3 18q-96 9 -161 67t-68 155q-4 125 81 202t236 87q12 48 32 79q3 4 8 4h50q5 0 2 -5q-31 -82 -35 -108q-16 -89 -40 -234.5t-39 -229.5q-30 -169 -80 -227z" />
    <glyph glyph-name="periodcentered" unicode="&#xb7;" horiz-adv-x="248" 
d="M109 196q-23 0 -36 15t-11 38t17.5 37.5t37.5 14.5q23 0 36.5 -15.5t11.5 -37.5q-2 -24 -17 -38t-39 -14z" />
    <glyph glyph-name="cedilla" unicode="&#xb8;" horiz-adv-x="367" 
d="M111 7h62l-41 -53q60 -18 62 -75q1 -45 -29.5 -70.5t-81.5 -25.5q-44 0 -67 14q-3 1 -2 7l8 42q1 4 5 2q26 -13 58 -13q22 0 34.5 10t11.5 28q0 36 -78 45q-1 1 0 9.5t3 10.5z" />
    <glyph glyph-name="onesuperior" unicode="&#xb9;" horiz-adv-x="204" 
d="M112 470l55 300q-34 -15 -71 -21q-5 -1 -5 3l8 42q0 2 4 4q56 14 88 31q3 3 7 3h41q3 -2 3 -5l-63 -357q-2 -5 -5 -5h-57q-5 0 -5 5z" />
    <glyph glyph-name="ordmasculine" unicode="&#xba;" horiz-adv-x="352" 
d="M230 622q59 0 93.5 -35t36.5 -90q3 -83 -46 -141t-125 -58q-65 0 -98 36.5t-35 90.5q-2 79 46 138t128 59zM224 572q-44 0 -72.5 -44t-26.5 -101q1 -36 20 -56.5t52 -20.5q39 0 68.5 41.5t27.5 103.5q-4 77 -69 77z" />
    <glyph glyph-name="guillemotright" unicode="&#xbb;" horiz-adv-x="619" 
d="M546 260l-8 -43q0 -3 -4 -7l-251 -171q-3 -2 -4.5 -1t-0.5 5l12 67q1 5 6 10l178 125l-134 125q-3 5 -2 9l10 61q2 5 6 2l190 -174q3 -3 2 -8zM309 260l-7 -43q-1 -4 -5 -7l-250 -171q-3 -2 -5 -1t-1 5l13 67q1 6 6 10l178 125l-134 125q-3 4 -3 9l11 61q2 5 6 2
l190 -174q2 -2 1 -8z" />
    <glyph glyph-name="onequarter" unicode="&#xbc;" horiz-adv-x="688" 
d="M95 309l54 300q-34 -15 -71 -21q-2 -1 -3.5 0t-0.5 3l7 42q0 2 4 4q56 14 88 31q3 3 7 3h41q3 -1 3 -5l-63 -357q-2 -5 -5 -5h-57q-6 0 -4 5zM126 -10h-63q-5 0 -2 5l473 677q3 4 7 4h64q2 0 2.5 -2t-1.5 -3l-471 -677q-4 -4 -9 -4zM518 111h-153q-5 0 -3 4l4 28q2 4 5 8
q16 19 55 64t85.5 98.5t56.5 65.5q5 3 7 4h47q4 0 3 -5l-39 -223h57q3 0 2 -3l-11 -37q-1 -4 -5 -4h-51l-16 -90q0 -5 -5 -5h-51q-6 0 -4 5zM426 155h99q9 50 32 158h-1q-28 -40 -130 -158z" />
    <glyph glyph-name="onehalf" unicode="&#xbd;" horiz-adv-x="727" 
d="M96 309l54 300q-33 -15 -71 -21q-4 -1 -4 3l8 42q0 2 4 4q56 14 88 31q3 3 7 3h41q3 -1 3 -5l-64 -357q0 -5 -5 -5h-56q-5 0 -5 5zM120 -10h-63q-7 0 -2 5l472 677q4 4 7 4h64q2 0 2.5 -2t-1.5 -3l-471 -677q-3 -4 -8 -4zM640 16h-242q-2 0 -4 4l9 36q1 4 4 5
q14 11 54.5 41t58.5 45t43 39.5t35.5 46t9.5 43.5q-1 25 -18 40t-46 15q-46 0 -91 -26q-3 -2 -4.5 -1t-0.5 4l8 47q2 6 6 7q44 26 101 26q50 0 79 -29t30 -70q1 -31 -9 -57.5t-37 -55.5t-50 -48.5t-72 -56.5l156 1q3 0 2 -5l-17 -47q-1 -4 -5 -4z" />
    <glyph glyph-name="threequarters" unicode="&#xbe;" horiz-adv-x="735" 
d="M126 470l7 40q1 4 4 4h32q41 1 61 18.5t19 43.5q-1 21 -16.5 34t-44.5 13q-44 0 -88 -25q-5 -2 -5 2l9 46q1 5 4 6q42 24 99 24q48 0 75.5 -25t28.5 -60q3 -70 -71 -96v-1q24 -8 41.5 -28t18.5 -49q2 -58 -40.5 -88.5t-102.5 -30.5q-66 0 -109 28q-3 2 -3 7l9 47q0 4 4 2
q44 -31 99 -31q41 0 61.5 18t19.5 45q-3 53 -72 53h-38q-2 0 -2 3zM194 -10h-63q-5 0 -2 5l473 677q3 4 7 4h64q2 0 2.5 -2t-1.5 -3l-471 -677q-4 -4 -9 -4zM569 111h-154q-3 0 -3 4l5 28q2 6 4 8q20 23 102.5 118t95.5 110q3 3 7 3h46q4 0 4 -4l-40 -223h57q4 0 3 -4
l-12 -36q-1 -4 -5 -4h-50l-17 -91q0 -4 -5 -4h-51q-4 0 -4 5zM477 155h99q19 105 31 157h-1q-8 -12 -35.5 -45t-58.5 -70t-35 -42z" />
    <glyph glyph-name="questiondown" unicode="&#xbf;" horiz-adv-x="372" 
d="M137 -193q-67 0 -111.5 36.5t-44.5 100.5q0 45 27.5 82.5t87.5 82.5q55 42 75.5 62t19.5 33q0 24 -31 72q-3 5 2 5h63q4 0 7 -3q38 -48 38 -84q0 -13 -5 -24t-26.5 -33t-62.5 -53q-67 -53 -91.5 -80t-24.5 -57q0 -33 24.5 -53.5t67.5 -20.5q78 0 143 48q1 2 3 1t2 -3
l-13 -62q-1 -5 -4 -8q-19 -16 -59 -29t-87 -13zM224 492q22 0 35.5 -14.5t11.5 -36.5t-17 -36.5t-38 -14.5t-36.5 15t-11.5 36q2 23 17 37t39 14z" />
    <glyph glyph-name="Agrave" unicode="&#xc0;" horiz-adv-x="577" 
d="M384 217h-218l-104 -212q-2 -5 -7 -5h-73q-7 0 -4 6l306 616q5 8 12 40q0 4 4 4h98q3 0 4 -4l95 -656q0 -6 -5 -6h-70q-7 0 -8 6zM196 284h181q-33 211 -39 310h-1q-19 -57 -141 -310zM316 818l81 -108q5 -7 -4 -7h-64q-7 0 -12 5l-96 108q-6 6 3 6h83q5 0 9 -4z" />
    <glyph glyph-name="Aacute" unicode="&#xc1;" horiz-adv-x="577" 
d="M384 217h-218l-104 -212q-2 -5 -7 -5h-73q-7 0 -4 6l306 616q5 8 12 40q0 4 4 4h98q3 0 4 -4l95 -656q0 -6 -5 -6h-70q-7 0 -8 6zM196 284h181q-33 211 -39 310h-1q-19 -57 -141 -310zM303 708l145 110q3 3 9 3h93q3 0 3.5 -2.5t-1.5 -4.5l-156 -107q-4 -5 -11 -5h-78
q-8 0 -4 6z" />
    <glyph glyph-name="Acircumflex" unicode="&#xc2;" horiz-adv-x="577" 
d="M384 217h-218l-104 -212q-2 -5 -7 -5h-73q-7 0 -4 6l306 616q5 8 12 40q0 4 4 4h98q3 0 4 -4l95 -656q0 -6 -5 -6h-70q-7 0 -8 6zM196 284h181q-33 211 -39 310h-1q-19 -57 -141 -310zM430 706l-55 71l-82 -71q-7 -5 -10 -5h-71q-4 0 -4 3t2 5l130 109q4 3 7 3h69
q8 0 9 -4l82 -110q4 -6 -4 -6h-65q-5 0 -8 5z" />
    <glyph glyph-name="Atilde" unicode="&#xc3;" horiz-adv-x="577" 
d="M384 217h-218l-104 -212q-2 -5 -7 -5h-73q-7 0 -4 6l306 616q5 8 12 40q0 4 4 4h98q3 0 4 -4l95 -656q0 -6 -5 -6h-70q-7 0 -8 6zM196 284h181q-33 211 -39 310h-1q-19 -57 -141 -310zM263 714h-49q-6 0 -6 5q4 51 30 79t64 28q33 0 70 -25.5t50 -25.5q28 0 34 43
q2 5 6 5h49q7 0 5 -6q-10 -105 -90 -105q-30 0 -66.5 25t-53.5 25q-31 0 -38 -44q0 -4 -5 -4z" />
    <glyph glyph-name="Adieresis" unicode="&#xc4;" horiz-adv-x="577" 
d="M384 217h-218l-104 -212q-2 -5 -7 -5h-73q-7 0 -4 6l306 616q5 8 12 40q0 4 4 4h98q3 0 4 -4l95 -656q0 -6 -5 -6h-70q-7 0 -8 6zM196 284h181q-33 211 -39 310h-1q-19 -57 -141 -310zM264 715q-21 0 -33.5 13t-11.5 34q2 20 16.5 33.5t36.5 13.5q21 0 34 -13.5t11 -33.5
q-1 -22 -15.5 -34.5t-37.5 -12.5zM453 715q-21 0 -34 13t-12 34q2 20 17 33.5t37 13.5q21 0 34 -14t11 -34q-1 -22 -15.5 -34t-37.5 -12z" />
    <glyph glyph-name="Aring" unicode="&#xc5;" horiz-adv-x="577" 
d="M384 217h-218l-104 -212q-2 -5 -7 -5h-73q-7 0 -4 6l306 616q5 8 12 40q0 4 4 4h98q3 0 4 -4l95 -656q0 -6 -5 -6h-70q-7 0 -8 6zM196 284h181q-33 211 -39 310h-1q-19 -57 -141 -310zM262 771q3 38 32 61t73 23q45 0 71 -24t23 -62t-32.5 -60.5t-72.5 -22.5
q-45 0 -71 23.5t-23 61.5zM311 771q-1 -20 12 -32t35 -12t37 11.5t16 31.5t-12 32.5t-35 12.5q-23 0 -37.5 -12t-15.5 -32z" />
    <glyph glyph-name="AE" unicode="&#xc6;" horiz-adv-x="792" 
d="M64 0h-79q-7 0 -4 7l368 614q12 25 19 41q1 4 6 4h371q6 0 7 -6l3 -56q0 -5 -7 -5h-252l-18 -231h232q4 0 3 -5l-10 -57q-3 -5 -7 -5h-222l-19 -234h275q6 0 3 -6l-20 -56q-1 -5 -6 -5h-334q-4 0 -5 4l18 223h-185l-131 -222q-2 -5 -6 -5zM235 292h156q23 283 26 313h-1
q-44 -86 -181 -313z" />
    <glyph glyph-name="Ccedilla" unicode="&#xc7;" horiz-adv-x="527" 
d="M219 -62l45 57q-95 16 -153 88t-58 193q0 78 24.5 149.5t69.5 127.5t114.5 89.5t152.5 33.5q84 0 120 -23q5 -2 3 -7l-13 -56q-2 -7 -7 -3q-44 22 -108 22q-123 0 -196.5 -96t-73.5 -235q0 -95 48.5 -157.5t141.5 -62.5q74 0 125 25q3 1 4.5 -0.5t0.5 -4.5l-12 -57
q-1 -5 -7 -8q-43 -21 -117 -22l-29 -37q60 -18 63 -75q1 -45 -30 -70.5t-82 -25.5q-45 0 -66 14q-3 1 -2 7l8 42q0 6 4 2q28 -13 59 -13q21 0 34 10t12 28q-2 36 -78 45q-2 2 -0.5 10t3.5 10z" />
    <glyph glyph-name="Egrave" unicode="&#xc8;" horiz-adv-x="481" 
d="M414 61l-20 -56q-2 -5 -6 -5h-356q-6 0 -6 6l116 655q1 5 6 5h319q6 0 6 -5l4 -57q0 -5 -5 -5h-259l-39 -227h238q5 0 4 -5l-10 -57q-1 -4 -7 -4h-237l-42 -239h292q5 0 2 -6zM285 830l81 -108q7 -7 -3 -7h-65q-6 0 -11 5l-96 107q-5 7 3 7h82q6 0 9 -4z" />
    <glyph glyph-name="Eacute" unicode="&#xc9;" horiz-adv-x="481" 
d="M414 61l-20 -56q-2 -5 -6 -5h-356q-6 0 -6 6l116 655q1 5 6 5h319q6 0 6 -5l4 -57q0 -5 -5 -5h-259l-39 -227h238q5 0 4 -5l-10 -57q-1 -4 -7 -4h-237l-42 -239h292q5 0 2 -6zM258 720l145 109q4 4 9 4h93q3 0 3.5 -2.5t-1.5 -4.5l-156 -108q-4 -4 -11 -4h-78q-8 0 -4 6z
" />
    <glyph glyph-name="Ecircumflex" unicode="&#xca;" horiz-adv-x="481" 
d="M414 61l-20 -56q-2 -5 -6 -5h-356q-6 0 -6 6l116 655q1 5 6 5h319q6 0 6 -5l4 -57q0 -5 -5 -5h-259l-39 -227h238q5 0 4 -5l-10 -57q-1 -4 -7 -4h-237l-42 -239h292q5 0 2 -6zM387 719l-55 71l-82 -72q-8 -4 -10 -4h-72q-3 0 -3.5 3t1.5 5l130 109q6 3 8 3h69q6 0 8 -4
l82 -111q3 -5 -3 -5h-65q-5 0 -8 5z" />
    <glyph glyph-name="Edieresis" unicode="&#xcb;" horiz-adv-x="481" 
d="M414 61l-20 -56q-2 -5 -6 -5h-356q-6 0 -6 6l116 655q1 5 6 5h319q6 0 6 -5l4 -57q0 -5 -5 -5h-259l-39 -227h238q5 0 4 -5l-10 -57q-1 -4 -7 -4h-237l-42 -239h292q5 0 2 -6zM218 729q-21 0 -33.5 13t-11.5 33q1 21 16 34t37 13t34.5 -13t11.5 -34t-16 -33.5t-38 -12.5z
M407 729q-21 0 -34 12.5t-11 33.5q1 21 16 34t37 13q21 0 34 -13.5t11 -33.5q-1 -22 -15.5 -34t-37.5 -12z" />
    <glyph glyph-name="Igrave" unicode="&#xcc;" horiz-adv-x="236" 
d="M226 660l-116 -654q0 -6 -5 -6h-72q-7 0 -6 6l115 655q1 5 6 5h72q6 0 6 -6zM150 828l81 -108q7 -7 -3 -7h-65q-6 0 -11 4l-96 108q-5 7 3 7h82q6 0 9 -4z" />
    <glyph glyph-name="Iacute" unicode="&#xcd;" horiz-adv-x="236" 
d="M226 660l-116 -654q0 -6 -5 -6h-72q-7 0 -6 6l115 655q1 5 6 5h72q6 0 6 -6zM143 716l144 109q4 4 10 4h92q8 0 3 -7l-156 -107q-5 -5 -11 -5h-79q-7 0 -3 6z" />
    <glyph glyph-name="Icircumflex" unicode="&#xce;" horiz-adv-x="236" 
d="M226 660l-116 -654q0 -6 -5 -6h-72q-7 0 -6 6l115 655q1 5 6 5h72q6 0 6 -6zM262 715l-54 71l-83 -71q-5 -4 -10 -4h-71q-3 0 -3.5 2.5t1.5 4.5l130 109q4 3 8 3h68q8 0 9 -4l82 -110q3 -5 -4 -5h-64q-6 0 -9 4z" />
    <glyph glyph-name="Idieresis" unicode="&#xcf;" horiz-adv-x="236" 
d="M226 660l-116 -654q0 -6 -5 -6h-72q-7 0 -6 6l115 655q1 5 6 5h72q6 0 6 -6zM95 719q-22 0 -34.5 13t-11.5 34q2 20 17 33.5t37 13.5q21 0 34 -13.5t11 -33.5q-1 -21 -16 -34t-37 -13zM283 720q-21 0 -33.5 12.5t-11.5 33.5q2 20 16.5 33.5t36.5 13.5q21 0 34 -13.5
t11 -34.5q-1 -21 -15.5 -33t-37.5 -12z" />
    <glyph glyph-name="Eth" unicode="&#xd0;" horiz-adv-x="618" 
d="M98 371l51 289q1 3 4 5q28 2 131 2q134 0 214 -76t80 -222q0 -187 -123 -292q-97 -80 -271 -80q-48 0 -144 3q-7 0 -5 8l52 300h-66q-5 0 -4 6l9 52q1 5 7 5h65zM172 308l-43 -243q1 0 23.5 -1t48.5 -1q122 0 193 61q98 87 98 250q0 104 -51.5 165.5t-154.5 61.5
q-54 0 -63 -1l-40 -229h150q5 0 5 -5l-10 -52q-1 -6 -6 -6h-150z" />
    <glyph glyph-name="Ntilde" unicode="&#xd1;" horiz-adv-x="607" 
d="M139 661q1 5 6 5h94q3 0 6 -4q167 -501 179 -557h2q4 57 90 556q1 5 6 5h71q5 0 4 -6l-115 -654q-1 -6 -7 -6h-87q-8 0 -10 6q-71 207 -121 370t-57 203h-1q-4 -62 -95 -573q0 -6 -5 -6h-69q-6 0 -6 6zM278 725h-49q-5 0 -7 6q4 51 30.5 78.5t64.5 27.5q33 0 70 -25
t50 -25q28 0 34 42q1 6 6 6h49q6 0 5 -6q-10 -105 -90 -105q-30 0 -66.5 25t-53.5 25q-31 0 -38 -44q0 -5 -5 -5z" />
    <glyph glyph-name="Ograve" unicode="&#xd2;" horiz-adv-x="635" 
d="M374 676q102 0 162 -72.5t60 -193.5q0 -111 -36 -204.5t-109.5 -154t-172.5 -60.5q-104 0 -164.5 68.5t-60.5 190.5q0 107 37 202.5t112 159.5t172 64zM365 610q-97 0 -161.5 -109.5t-64.5 -251.5q0 -50 13 -91.5t47.5 -71.5t86.5 -30q69 0 121.5 54.5t77.5 134.5t25 167
q0 82 -34.5 140t-110.5 58zM357 839l81 -108q7 -7 -3 -7h-65q-6 0 -11 4l-96 108q-2 2 -1 4.5t4 2.5h82q5 0 9 -4z" />
    <glyph glyph-name="Oacute" unicode="&#xd3;" horiz-adv-x="635" 
d="M374 676q102 0 162 -72.5t60 -193.5q0 -111 -36 -204.5t-109.5 -154t-172.5 -60.5q-104 0 -164.5 68.5t-60.5 190.5q0 107 37 202.5t112 159.5t172 64zM365 610q-97 0 -161.5 -109.5t-64.5 -251.5q0 -50 13 -91.5t47.5 -71.5t86.5 -30q69 0 121.5 54.5t77.5 134.5t25 167
q0 82 -34.5 140t-110.5 58zM320 727l144 110q4 3 10 3h93q3 0 3.5 -2.5t-1.5 -4.5l-156 -107q-5 -5 -11 -5h-78q-4 0 -5 2.5t1 3.5z" />
    <glyph glyph-name="Ocircumflex" unicode="&#xd4;" horiz-adv-x="635" 
d="M374 676q102 0 162 -72.5t60 -193.5q0 -111 -36 -204.5t-109.5 -154t-172.5 -60.5q-104 0 -164.5 68.5t-60.5 190.5q0 107 37 202.5t112 159.5t172 64zM365 610q-97 0 -161.5 -109.5t-64.5 -251.5q0 -50 13 -91.5t47.5 -71.5t86.5 -30q69 0 121.5 54.5t77.5 134.5t25 167
q0 82 -34.5 140t-110.5 58zM453 723l-55 71l-82 -71q-5 -4 -10 -4h-71q-4 0 -4 2.5t2 4.5l130 109q3 3 7 3h69q8 0 9 -4l82 -110q3 -5 -4 -5h-65q-5 0 -8 4z" />
    <glyph glyph-name="Otilde" unicode="&#xd5;" horiz-adv-x="635" 
d="M374 676q102 0 162 -72.5t60 -193.5q0 -111 -36 -204.5t-109.5 -154t-172.5 -60.5q-104 0 -164.5 68.5t-60.5 190.5q0 107 37 202.5t112 159.5t172 64zM365 610q-97 0 -161.5 -109.5t-64.5 -251.5q0 -50 13 -91.5t47.5 -71.5t86.5 -30q69 0 121.5 54.5t77.5 134.5t25 167
q0 82 -34.5 140t-110.5 58zM288 730h-49q-5 0 -7 5q4 51 30.5 79t64.5 28q33 0 69.5 -25.5t50.5 -25.5q28 0 34 43q1 5 6 5h49q5 0 5 -5q-10 -106 -90 -106q-30 0 -67 25.5t-53 25.5q-31 0 -38 -44q0 -5 -5 -5z" />
    <glyph glyph-name="Odieresis" unicode="&#xd6;" horiz-adv-x="635" 
d="M374 676q102 0 162 -72.5t60 -193.5q0 -111 -36 -204.5t-109.5 -154t-172.5 -60.5q-104 0 -164.5 68.5t-60.5 190.5q0 107 37 202.5t112 159.5t172 64zM365 610q-97 0 -161.5 -109.5t-64.5 -251.5q0 -50 13 -91.5t47.5 -71.5t86.5 -30q69 0 121.5 54.5t77.5 134.5t25 167
q0 82 -34.5 140t-110.5 58zM288 729q-22 0 -34.5 13t-11.5 33q2 21 17 34t37 13t34.5 -13.5t10.5 -33.5q-1 -21 -16 -33.5t-37 -12.5zM477 729q-22 0 -34.5 12.5t-11.5 33.5t16.5 34t37.5 13q21 0 34 -13.5t11 -33.5q-1 -21 -16 -33.5t-37 -12.5z" />
    <glyph glyph-name="multiply" unicode="&#xd7;" horiz-adv-x="545" 
d="M34 456l34 35q3 5 10 0l185 -192l186 192q5 5 10 0l33 -36q5 -5 0 -10l-186 -189l186 -189q5 -5 0 -10l-34 -35q-6 -4 -10 1l-185 190l-185 -191q-5 -5 -9 0l-36 35q-4 6 1 11l186 188l-187 190q-3 5 1 10z" />
    <glyph glyph-name="Oslash" unicode="&#xd8;" horiz-adv-x="635" 
d="M555 666h52q7 0 4 -6l-60 -78q45 -68 45 -172q0 -111 -36 -204.5t-109.5 -154t-172.5 -60.5q-87 0 -145 49l-27 -36q-3 -4 -6 -4h-55q-8 0 -4 6l57 74q-45 65 -45 170q0 107 37 202.5t112 159.5t172 64q86 0 144 -53l31 40q3 3 6 3zM152 149l320 414q-40 47 -107 47
q-98 0 -164 -109t-66 -252q0 -56 17 -100zM498 514l-318 -413q39 -45 106 -45q69 0 122.5 54.5t79.5 134.5t26 167q0 59 -16 102z" />
    <glyph glyph-name="Ugrave" unicode="&#xd9;" horiz-adv-x="600" 
d="M221 661l-76 -437q-14 -82 20 -124.5t101 -42.5q64 0 106.5 35.5t60.5 135.5l77 433q2 5 6 5h72q6 0 6 -7l-78 -429q-22 -127 -87 -183t-170 -56q-102 0 -160 60.5t-38 177.5l77 432q1 5 6 5h72q7 0 5 -5zM338 823l81 -108q5 -7 -3 -7h-65q-7 0 -12 5l-96 108q-6 6 3 6
h83q5 0 9 -4z" />
    <glyph glyph-name="Uacute" unicode="&#xda;" horiz-adv-x="600" 
d="M221 661l-76 -437q-14 -82 20 -124.5t101 -42.5q64 0 106.5 35.5t60.5 135.5l77 433q2 5 6 5h72q6 0 6 -7l-78 -429q-22 -127 -87 -183t-170 -56q-102 0 -160 60.5t-38 177.5l77 432q1 5 6 5h72q7 0 5 -5zM306 720l144 109q5 4 10 4h92q4 0 4.5 -2.5t-1.5 -4.5l-156 -107
q-5 -5 -11 -5h-78q-8 0 -4 6z" />
    <glyph glyph-name="Ucircumflex" unicode="&#xdb;" horiz-adv-x="600" 
d="M221 661l-76 -437q-14 -82 20 -124.5t101 -42.5q64 0 106.5 35.5t60.5 135.5l77 433q2 5 6 5h72q6 0 6 -7l-78 -429q-22 -127 -87 -183t-170 -56q-102 0 -160 60.5t-38 177.5l77 432q1 5 6 5h72q7 0 5 -5zM443 720l-55 71l-82 -71q-5 -4 -10 -4h-71q-4 0 -4 3t2 5
l130 108q3 3 7 3h69q7 0 8 -4l83 -110q3 -5 -4 -5h-65q-5 0 -8 4z" />
    <glyph glyph-name="Udieresis" unicode="&#xdc;" horiz-adv-x="600" 
d="M221 661l-76 -437q-14 -82 20 -124.5t101 -42.5q64 0 106.5 35.5t60.5 135.5l77 433q2 5 6 5h72q6 0 6 -7l-78 -429q-22 -127 -87 -183t-170 -56q-102 0 -160 60.5t-38 177.5l77 432q1 5 6 5h72q7 0 5 -5zM277 724q-21 0 -33.5 13t-11.5 33q1 21 16 34t37 13t34.5 -13.5
t10.5 -33.5q-1 -21 -16 -33.5t-37 -12.5zM466 724q-21 0 -34 12.5t-12 33.5q2 21 17 34t37 13q21 0 34 -13.5t11 -33.5q-1 -22 -15.5 -34t-37.5 -12z" />
    <glyph glyph-name="Yacute" unicode="&#xdd;" horiz-adv-x="510" 
d="M238 0h-71q-9 0 -7 7l43 241q2 26 -2 36l-127 377q-2 5 3 5h77q5 0 6 -4q90 -278 99 -334q50 89 216 334q3 4 7 4h78q7 0 3 -6l-262 -379q-8 -11 -16 -39l-41 -235q-3 -7 -6 -7zM257 711l144 109q4 4 10 4h92q3 0 4 -3t-1 -4l-156 -107q-5 -5 -11 -5h-79q-7 0 -3 6z" />
    <glyph glyph-name="Thorn" unicode="&#xde;" horiz-adv-x="516" 
d="M23 6l116 655q2 5 6 5h73q6 0 4 -5l-23 -133h19.5h26.5h24q89 0 144 -45.5t55 -134.5q-1 -104 -74 -157t-191 -53q-46 0 -72 2l-25 -134q0 -6 -5 -6h-72q-7 0 -6 6zM188 464l-46 -258q19 -3 72 -3q80 0 125 37.5t45 107.5q0 55 -34 86.5t-97 31.5q-39 0 -65 -2z" />
    <glyph glyph-name="germandbls" unicode="&#xdf;" horiz-adv-x="525" 
d="M37 418q-6 0 -4 7l9 51q0 6 6 6h61q4 16 5 23q24 119 79 172t140 53q66 0 111.5 -39t45.5 -106q0 -110 -161 -203q31 -26 48.5 -43t41.5 -46t35.5 -60t11.5 -65q0 -75 -50.5 -126t-134.5 -51q-72 -1 -120 33q-4 2 -2 9l11 58q2 6 6 2q48 -37 102 -37q48 0 77 30t30 77
q0 61 -63 122q-30 29 -72 62q-4 3 -4 10l7 40q2 5 5 7q78 43 115.5 84.5t37.5 88.5q0 38 -22.5 63t-61.5 25q-52 0 -85 -43t-51 -144q-5 -28 -111 -637q-2 -5 -9 -7l-72 -4q-6 0 -3 6l102 582h-61z" />
    <glyph glyph-name="agrave" unicode="&#xe0;" horiz-adv-x="490" 
d="M455 472l-78 -442q-1 -5 -7 -7q-66 -32 -147 -32q-86 0 -138 50t-52 146q0 122 87 213.5t225 91.5q63 0 108 -15q2 0 2 -5zM299 64l64 362q-12 4 -35 4q-88 0 -148.5 -69t-61.5 -170q0 -63 29.5 -101t90.5 -38q36 0 61 12zM308 714l68 -146q2 -6 -5 -6h-63q-6 0 -7 4
l-84 146q-2 7 4 7h80q6 0 7 -5z" />
    <glyph glyph-name="aacute" unicode="&#xe1;" horiz-adv-x="490" 
d="M455 472l-78 -442q-1 -5 -7 -7q-66 -32 -147 -32q-86 0 -138 50t-52 146q0 122 87 213.5t225 91.5q63 0 108 -15q2 0 2 -5zM299 64l64 362q-12 4 -35 4q-88 0 -148.5 -69t-61.5 -170q0 -63 29.5 -101t90.5 -38q36 0 61 12zM265 568l148 147q4 5 10 5h84q4 0 4.5 -2.5
t-1.5 -4.5l-160 -146q-5 -5 -11 -5h-72q-2 0 -3 2t1 4z" />
    <glyph glyph-name="acircumflex" unicode="&#xe2;" horiz-adv-x="490" 
d="M455 472l-78 -442q-1 -5 -7 -7q-66 -32 -147 -32q-86 0 -138 50t-52 146q0 122 87 213.5t225 91.5q63 0 108 -15q2 0 2 -5zM299 64l64 362q-12 4 -35 4q-88 0 -148.5 -69t-61.5 -170q0 -63 29.5 -101t90.5 -38q36 0 61 12zM336 670q-28 -37 -83 -104q-3 -3 -9 -3h-62
q-7 0 -2 7l125 146q3 4 8 4h65q5 0 6 -4l61 -148q2 -5 -4 -5h-59q-4 0 -7 4q-4 10 -12.5 33.5t-15.5 42t-11 27.5z" />
    <glyph glyph-name="atilde" unicode="&#xe3;" horiz-adv-x="490" 
d="M455 472l-78 -442q-1 -5 -7 -7q-66 -32 -147 -32q-86 0 -138 50t-52 146q0 122 87 213.5t225 91.5q63 0 108 -15q2 0 2 -5zM299 64l64 362q-12 4 -35 4q-88 0 -148.5 -69t-61.5 -170q0 -63 29.5 -101t90.5 -38q36 0 61 12zM211 585h-52q-5 0 -5 6q4 53 31 80t67 27
q32 0 73.5 -25.5t54.5 -25.5q29 0 36 44q0 5 5 5h52q5 0 5 -5q-9 -108 -92 -108q-30 0 -70 25.5t-59 25.5q-33 0 -40 -44q-3 -5 -6 -5z" />
    <glyph glyph-name="adieresis" unicode="&#xe4;" horiz-adv-x="490" 
d="M455 472l-78 -442q-1 -5 -7 -7q-66 -32 -147 -32q-86 0 -138 50t-52 146q0 122 87 213.5t225 91.5q63 0 108 -15q2 0 2 -5zM299 64l64 362q-12 4 -35 4q-88 0 -148.5 -69t-61.5 -170q0 -63 29.5 -101t90.5 -38q36 0 61 12zM222 589q-20 0 -32 13t-10 33q3 21 17 33.5
t35 12.5t32 -13t9 -33t-16 -33t-35 -13zM404 589q-20 0 -32 13t-10 33q3 21 17 33.5t35 12.5t32 -13t9 -33t-16 -33t-35 -13z" />
    <glyph glyph-name="aring" unicode="&#xe5;" horiz-adv-x="490" 
d="M455 472l-78 -442q-1 -5 -7 -7q-66 -32 -147 -32q-86 0 -138 50t-52 146q0 122 87 213.5t225 91.5q63 0 108 -15q2 0 2 -5zM299 64l64 362q-12 4 -35 4q-88 0 -148.5 -69t-61.5 -170q0 -63 29.5 -101t90.5 -38q36 0 61 12zM235 648q3 40 31.5 64.5t71.5 24.5t69 -25
t24 -65q-4 -41 -33 -65.5t-72 -24.5t-68.5 24.5t-22.5 66.5zM283 648q-1 -22 11.5 -35.5t34.5 -13.5t37 12.5t16 35.5q1 22 -12.5 35.5t-34.5 13.5q-22 0 -36.5 -13t-15.5 -35z" />
    <glyph glyph-name="ae" unicode="&#xe6;" horiz-adv-x="731" 
d="M186 59q67 -2 133 72q-5 32 -5 56q1 60 21 120t59 96q-117 -17 -198 -93t-81 -170q0 -35 17 -57.5t54 -23.5zM564 492q60 0 97.5 -30t37.5 -88q2 -78 -74.5 -121.5t-227.5 -42.5q-2 -20 -1 -36q3 -118 120 -118q67 0 119 34q2 1 3 -0.5t1 -3.5l-11 -58q-1 -6 -6 -9
q-46 -28 -124 -28q-112 0 -158 82q-85 -82 -184 -82q-60 0 -93 36.5t-33 98.5q0 94 63 173.5t164 124.5t213 48q40 20 94 20zM555 432q-53 0 -95.5 -47.5t-56.5 -119.5q123 -3 172 28t49 77q0 28 -17.5 45t-51.5 17z" />
    <glyph glyph-name="ccedilla" unicode="&#xe7;" horiz-adv-x="395" 
d="M137 -62l45 57q-68 12 -108.5 64.5t-40.5 136.5q0 122 75.5 209t188.5 87q49 0 79 -13q4 -3 3 -8l-11 -54q-1 -5 -6 -3q-25 12 -64 12q-78 0 -128.5 -65t-50.5 -156q0 -64 30 -106t94 -42q49 0 82 16q4 2 4 -1v-3l-11 -55q-2 -5 -6 -7q-24 -13 -70 -16l-29 -37
q60 -18 62 -75q1 -45 -29.5 -70.5t-81.5 -25.5q-44 0 -67 14q-3 1 -2 7l8 42q1 4 5 2q26 -13 58 -13q22 0 34.5 10t11.5 28q0 36 -78 45q-1 1 0 9.5t3 10.5z" />
    <glyph glyph-name="egrave" unicode="&#xe8;" horiz-adv-x="449" 
d="M358 86l-11 -58q-1 -6 -6 -9q-44 -28 -127 -28q-84 0 -132.5 51t-48.5 147q0 119 71 211t175 92q69 0 104 -35t36 -82q1 -81 -75 -124t-227 -42q-2 -11 -2 -34q2 -118 118 -118q71 0 120 33q5 3 5 -4zM123 266q122 -3 171 28.5t48 78.5q0 22 -15 40t-53 18q-52 0 -94 -45
t-57 -120zM264 715l68 -147q2 -6 -5 -6h-63q-5 0 -7 5l-84 146q-2 2 -0.5 4.5t4.5 2.5h79q5 0 8 -5z" />
    <glyph glyph-name="eacute" unicode="&#xe9;" horiz-adv-x="449" 
d="M358 86l-11 -58q-1 -6 -6 -9q-44 -28 -127 -28q-84 0 -132.5 51t-48.5 147q0 119 71 211t175 92q69 0 104 -35t36 -82q1 -81 -75 -124t-227 -42q-2 -11 -2 -34q2 -118 118 -118q71 0 120 33q5 3 5 -4zM123 266q122 -3 171 28.5t48 78.5q0 22 -15 40t-53 18q-52 0 -94 -45
t-57 -120zM214 567l148 147q4 5 10 5h84q4 0 4.5 -2.5t-1.5 -4.5l-160 -146q-5 -5 -11 -5h-72q-2 0 -3 2t1 4z" />
    <glyph glyph-name="ecircumflex" unicode="&#xea;" horiz-adv-x="449" 
d="M358 86l-11 -58q-1 -6 -6 -9q-44 -28 -127 -28q-84 0 -132.5 51t-48.5 147q0 119 71 211t175 92q69 0 104 -35t36 -82q1 -81 -75 -124t-227 -42q-2 -11 -2 -34q2 -118 118 -118q71 0 120 33q5 3 5 -4zM123 266q122 -3 171 28.5t48 78.5q0 22 -15 40t-53 18q-52 0 -94 -45
t-57 -120zM296 664q-24 -35 -83 -104q-4 -4 -9 -4h-62q-7 0 -2 7l125 147q4 4 8 4h65q5 0 6 -4l61 -148q4 -6 -4 -6h-59q-4 0 -7 5q-6 14 -20.5 53.5t-18.5 49.5z" />
    <glyph glyph-name="edieresis" unicode="&#xeb;" horiz-adv-x="449" 
d="M358 86l-11 -58q-1 -6 -6 -9q-44 -28 -127 -28q-84 0 -132.5 51t-48.5 147q0 119 71 211t175 92q69 0 104 -35t36 -82q1 -81 -75 -124t-227 -42q-2 -11 -2 -34q2 -118 118 -118q71 0 120 33q5 3 5 -4zM123 266q122 -3 171 28.5t48 78.5q0 22 -15 40t-53 18q-52 0 -94 -45
t-57 -120zM180 589q-20 0 -32 13t-10 33q3 21 17 33.5t35 12.5t32 -13t9 -33t-16 -33t-35 -13zM362 589q-20 0 -32 13t-10 33q3 21 17 33.5t35 12.5t32 -13t9 -33t-16 -33t-35 -13z" />
    <glyph glyph-name="igrave" unicode="&#xec;" horiz-adv-x="221" 
d="M18 6l83 471q1 5 7 5h73q7 0 5 -6l-84 -471q-1 -5 -6 -5h-72q-6 0 -6 6zM126 714l68 -146q2 -6 -5 -6h-63q-6 0 -7 4l-84 146q-3 7 4 7h80q5 0 7 -5z" />
    <glyph glyph-name="iacute" unicode="&#xed;" horiz-adv-x="221" 
d="M18 6l83 471q1 5 7 5h73q7 0 5 -6l-84 -471q-1 -5 -6 -5h-72q-6 0 -6 6zM107 567l148 147q4 5 10 5h84q4 0 4.5 -2.5t-1.5 -4.5l-160 -146q-5 -5 -11 -5h-72q-2 0 -3 2t1 4z" />
    <glyph glyph-name="icircumflex" unicode="&#xee;" horiz-adv-x="221" 
d="M18 6l83 471q1 5 7 5h73q7 0 5 -6l-84 -471q-1 -5 -6 -5h-72q-6 0 -6 6zM174 664q-34 -50 -83 -104q-4 -4 -9 -4h-62q-7 0 -2 7l125 147q4 4 8 4h65q5 0 6 -4l61 -148q4 -6 -4 -6h-59q-4 0 -7 5q-6 14 -20.5 53.5t-18.5 49.5z" />
    <glyph glyph-name="idieresis" unicode="&#xef;" horiz-adv-x="221" 
d="M18 6l83 471q1 5 7 5h73q7 0 5 -6l-84 -471q-1 -5 -6 -5h-72q-6 0 -6 6zM66 589q-20 0 -32 13t-10 33q3 21 17 33.5t35 12.5t32 -13t9 -33t-16 -33t-35 -13zM248 589q-20 0 -32 13t-10 33q3 21 17 33.5t35 12.5t32 -13t9 -33t-16 -33t-35 -13z" />
    <glyph glyph-name="eth" unicode="&#xf0;" horiz-adv-x="505" 
d="M276 394q-65 0 -108.5 -64t-44.5 -154q0 -50 22.5 -87t71.5 -37q67 0 111 86.5t41 197.5q-1 15 -7 21q-29 37 -86 37zM130 672l14 51q3 5 5 5q41 -5 92.5 -29.5t93.5 -63.5l119 62q5 1 5 -2l-7 -45q0 -6 -5 -8l-79 -41q84 -108 84 -275q-1 -143 -66 -239t-176 -96
q-82 0 -127.5 52t-45.5 139q0 113 67 194t171 81q50 0 83 -28q-17 91 -59 134l-139 -71q-6 -4 -6 3l6 43q1 5 6 7l98 51q-50 47 -130 69q-5 2 -4 7z" />
    <glyph glyph-name="ntilde" unicode="&#xf1;" horiz-adv-x="501" 
d="M18 5l64 364q12 66 16 108q0 5 5 5h67q5 0 5 -4q1 -8 -6 -65q72 79 161 79q55 0 89 -41.5t17 -143.5l-54 -302q-2 -5 -6 -5h-73q-7 0 -5 6l56 312q17 106 -58 106q-71 0 -124 -76q-13 -22 -15 -36l-55 -308q-1 -4 -6 -4h-72q-6 0 -6 5zM189 585h-53q-5 0 -5 6q4 53 31 80
t68 27q32 0 73 -25.5t54 -25.5q31 0 36 44q1 5 6 5h52q4 0 4 -5q-9 -108 -91 -108q-30 0 -71 25.5t-59 25.5q-31 0 -40 -44q0 -5 -5 -5z" />
    <glyph glyph-name="ograve" unicode="&#xf2;" horiz-adv-x="502" 
d="M278 492q78 0 126 -54t48 -146q0 -76 -27 -143.5t-83 -112.5t-131 -45q-80 0 -128.5 52t-48.5 145q0 120 67.5 212t176.5 92zM272 430q-65 0 -109 -75t-44 -173q0 -55 23.5 -92.5t74.5 -37.5q62 0 106 75t43 175q0 53 -22 90.5t-72 37.5zM274 714l68 -146q2 -6 -5 -6h-63
q-6 0 -7 4l-84 146q-3 7 4 7h79q6 0 8 -5z" />
    <glyph glyph-name="oacute" unicode="&#xf3;" horiz-adv-x="502" 
d="M278 492q78 0 126 -54t48 -146q0 -76 -27 -143.5t-83 -112.5t-131 -45q-80 0 -128.5 52t-48.5 145q0 120 67.5 212t176.5 92zM272 430q-65 0 -109 -75t-44 -173q0 -55 23.5 -92.5t74.5 -37.5q62 0 106 75t43 175q0 53 -22 90.5t-72 37.5zM228 567l148 147q4 5 10 5h84
q4 0 4.5 -2.5t-1.5 -4.5l-160 -146q-5 -5 -11 -5h-72q-2 0 -3 2t1 4z" />
    <glyph glyph-name="ocircumflex" unicode="&#xf4;" horiz-adv-x="502" 
d="M278 492q78 0 126 -54t48 -146q0 -76 -27 -143.5t-83 -112.5t-131 -45q-80 0 -128.5 52t-48.5 145q0 120 67.5 212t176.5 92zM272 430q-65 0 -109 -75t-44 -173q0 -55 23.5 -92.5t74.5 -37.5q62 0 106 75t43 175q0 53 -22 90.5t-72 37.5zM314 664q-34 -47 -83 -104
q-4 -4 -9 -4h-62q-4 0 -4 2.5t2 4.5l125 147q4 4 7 4h65q4 0 7 -4l61 -148q2 -6 -4 -6h-59q-6 0 -7 5q-16 38 -39 103z" />
    <glyph glyph-name="otilde" unicode="&#xf5;" horiz-adv-x="502" 
d="M278 492q78 0 126 -54t48 -146q0 -76 -27 -143.5t-83 -112.5t-131 -45q-80 0 -128.5 52t-48.5 145q0 120 67.5 212t176.5 92zM272 430q-65 0 -109 -75t-44 -173q0 -55 23.5 -92.5t74.5 -37.5q62 0 106 75t43 175q0 53 -22 90.5t-72 37.5zM191 585h-53q-5 0 -5 6
q4 53 31 80t68 27q32 0 73 -25.5t54 -25.5q31 0 36 44q1 5 6 5h52q4 0 4 -5q-9 -108 -91 -108q-30 0 -71 25.5t-59 25.5q-31 0 -40 -44q0 -5 -5 -5z" />
    <glyph glyph-name="odieresis" unicode="&#xf6;" horiz-adv-x="502" 
d="M278 492q78 0 126 -54t48 -146q0 -76 -27 -143.5t-83 -112.5t-131 -45q-80 0 -128.5 52t-48.5 145q0 120 67.5 212t176.5 92zM272 430q-65 0 -109 -75t-44 -173q0 -55 23.5 -92.5t74.5 -37.5q62 0 106 75t43 175q0 53 -22 90.5t-72 37.5zM197 589q-20 0 -32 13t-10 33
q3 21 17 33.5t35 12.5t32 -13t9 -33t-16 -33t-35 -13zM379 589q-20 0 -32 13t-10 33q3 21 17 33.5t35 12.5t32 -13t9 -33t-16 -33t-35 -13z" />
    <glyph glyph-name="divide" unicode="&#xf7;" horiz-adv-x="546" 
d="M262 384q-20 0 -32 13t-12 34q0 20 12.5 33t32.5 13t32.5 -13t12.5 -33q0 -21 -12.5 -34t-33.5 -13zM262 46q-20 0 -32 13t-12 33q0 21 12.5 34.5t32.5 13.5t32.5 -13.5t12.5 -34.5q0 -20 -12.5 -33t-33.5 -13zM20 288q0 7 6 7h474q6 0 6 -7v-52q0 -6 -6 -6h-474
q-6 0 -6 6v52z" />
    <glyph glyph-name="oslash" unicode="&#xf8;" horiz-adv-x="502" 
d="M417 484h45q8 0 1 -7l-46 -56q35 -52 35 -128q0 -120 -65 -211t-176 -91q-68 0 -114 38l-24 -30q-3 -4 -10 -4h-44q-7 0 -2 7l50 61q-33 48 -33 123q-1 77 27.5 146t86 114.5t130.5 45.5q66 0 110 -38l22 26q3 4 7 4zM122 130l221 268q-27 32 -71 32q-65 0 -110.5 -71.5
t-46.5 -167.5q0 -33 7 -61zM363 355l-220 -270q26 -33 74 -33q62 0 107.5 71.5t46.5 171.5q0 33 -8 60z" />
    <glyph glyph-name="ugrave" unicode="&#xf9;" horiz-adv-x="490" 
d="M456 477l-65 -371q-8 -42 -11 -100q0 -6 -5 -6h-65q-8 0 -9 6q0 30 4 54q-60 -69 -149 -69q-59 0 -93.5 40t-18.5 133l56 313q0 5 7 5h72q5 0 5 -6l-56 -319q-19 -99 59 -99q63 0 112 62q14 16 15 29l59 329q0 4 6 4h72q5 0 5 -5zM264 714l68 -146q2 -6 -5 -6h-63
q-6 0 -7 4l-84 146q-3 7 4 7h79q6 0 8 -5z" />
    <glyph glyph-name="uacute" unicode="&#xfa;" horiz-adv-x="490" 
d="M456 477l-65 -371q-8 -42 -11 -100q0 -6 -5 -6h-65q-8 0 -9 6q0 30 4 54q-60 -69 -149 -69q-59 0 -93.5 40t-18.5 133l56 313q0 5 7 5h72q5 0 5 -6l-56 -319q-19 -99 59 -99q63 0 112 62q14 16 15 29l59 329q0 4 6 4h72q5 0 5 -5zM232 567l148 147q4 5 10 5h84
q4 0 4.5 -2.5t-1.5 -4.5l-160 -146q-5 -5 -11 -5h-72q-2 0 -3 2t1 4z" />
    <glyph glyph-name="ucircumflex" unicode="&#xfb;" horiz-adv-x="490" 
d="M456 477l-65 -371q-8 -42 -11 -100q0 -6 -5 -6h-65q-8 0 -9 6q0 30 4 54q-60 -69 -149 -69q-59 0 -93.5 40t-18.5 133l56 313q0 5 7 5h72q5 0 5 -6l-56 -319q-19 -99 59 -99q63 0 112 62q14 16 15 29l59 329q0 4 6 4h72q5 0 5 -5zM316 666q-34 -50 -83 -104q-3 -4 -9 -4
h-62q-7 0 -2 7l125 147q4 4 8 4h65q4 0 7 -4l60 -148q4 -6 -4 -6h-58q-5 0 -8 4q-6 15 -20.5 54.5t-18.5 49.5z" />
    <glyph glyph-name="udieresis" unicode="&#xfc;" horiz-adv-x="490" 
d="M456 477l-65 -371q-8 -42 -11 -100q0 -6 -5 -6h-65q-8 0 -9 6q0 30 4 54q-60 -69 -149 -69q-59 0 -93.5 40t-18.5 133l56 313q0 5 7 5h72q5 0 5 -6l-56 -319q-19 -99 59 -99q63 0 112 62q14 16 15 29l59 329q0 4 6 4h72q5 0 5 -5zM201 589q-20 0 -32 13t-10 33
q3 21 17 33.5t35 12.5t32 -13t9 -33t-16 -33t-35 -13zM383 589q-20 0 -32 13t-10 33q3 21 17 33.5t35 12.5t32 -13t9 -33t-16 -33t-35 -13z" />
    <glyph glyph-name="yacute" unicode="&#xfd;" horiz-adv-x="439" 
d="M40 482h78q5 0 6 -4q46 -251 56 -360h2q77 142 178 359q2 5 8 5h73q7 0 5 -6q-94 -208 -226 -429q-85 -143 -180 -268q-3 -4 -9 -4h-82q-4 0 -4.5 2.5t1.5 4.5q37 46 89.5 121.5t81.5 122.5q4 7 3 13q-2 13 -21 110t-38 196t-25 132q0 5 4 5zM191 567l148 147q4 5 10 5
h84q4 0 4.5 -2.5t-1.5 -4.5l-160 -146q-5 -5 -11 -5h-72q-2 0 -3 2t1 4z" />
    <glyph glyph-name="thorn" unicode="&#xfe;" horiz-adv-x="501" 
d="M280 492q80 0 124.5 -55t44.5 -143q-1 -132 -81 -217.5t-197 -85.5q-41 0 -68 13l-39 -216q0 -6 -6 -7q-10 -1 -36.5 -3t-37.5 -3q-6 0 -4 6l162 930q2 6 6 6q48 6 75 6q5 0 4 -5l-44 -245q53 19 97 19zM259 429q-48 0 -86 -20l-59 -341q30 -16 68 -16q76 0 129 69.5
t53 174.5q0 55 -24 94t-81 39z" />
    <glyph glyph-name="ydieresis" unicode="&#xff;" horiz-adv-x="439" 
d="M40 482h78q5 0 6 -4q46 -251 56 -360h2q77 142 178 359q2 5 8 5h73q7 0 5 -6q-94 -208 -226 -429q-85 -143 -180 -268q-3 -4 -9 -4h-82q-4 0 -4.5 2.5t1.5 4.5q37 46 89.5 121.5t81.5 122.5q4 7 3 13q-2 13 -21 110t-38 196t-25 132q0 5 4 5zM161 592q-20 0 -32 13
t-10 33q3 21 17 33.5t35 12.5t32 -13t9 -33q-2 -21 -16 -33.5t-35 -12.5zM343 592q-20 0 -31.5 13t-9.5 33q2 21 16 33.5t35 12.5t32 -13t9 -33q-1 -21 -15 -33.5t-36 -12.5z" />
    <glyph glyph-name="Amacron" unicode="&#x100;" horiz-adv-x="577" 
d="M384 217h-218l-104 -212q-2 -5 -7 -5h-73q-7 0 -4 6l306 616q5 8 12 40q0 4 4 4h98q3 0 4 -4l95 -656q0 -6 -5 -6h-70q-7 0 -8 6zM196 284h181q-33 211 -39 310h-1q-19 -57 -141 -310zM247 799h244q5 0 4 -6l-10 -55q-1 -6 -6 -6h-243q-7 0 -6 6l10 55q2 6 7 6z" />
    <glyph glyph-name="amacron" unicode="&#x101;" horiz-adv-x="490" 
d="M455 472l-78 -442q-1 -5 -7 -7q-66 -32 -147 -32q-86 0 -138 50t-52 146q0 122 87 213.5t225 91.5q63 0 108 -15q2 0 2 -5zM299 64l64 362q-12 4 -35 4q-88 0 -148.5 -69t-61.5 -170q0 -63 29.5 -101t90.5 -38q36 0 61 12zM197 667h254q5 0 4 -6l-10 -53q0 -5 -6 -5h-252
q-5 0 -4 6l9 54q1 4 5 4z" />
    <glyph glyph-name="Abreve" unicode="&#x102;" horiz-adv-x="577" 
d="M384 217h-218l-104 -212q-2 -5 -7 -5h-73q-7 0 -4 6l306 616q5 8 12 40q0 4 4 4h98q3 0 4 -4l95 -656q0 -6 -5 -6h-70q-7 0 -8 6zM196 284h181q-33 211 -39 310h-1q-19 -57 -141 -310zM222 833h59q5 0 6 -5q14 -55 70 -55q57 0 82 55q2 5 6 5h58q5 0 5 -6
q-13 -55 -56 -88t-100 -33q-58 0 -94.5 31.5t-40.5 89.5q-2 6 5 6z" />
    <glyph glyph-name="abreve" unicode="&#x103;" horiz-adv-x="490" 
d="M455 472l-78 -442q-1 -5 -7 -7q-66 -32 -147 -32q-86 0 -138 50t-52 146q0 122 87 213.5t225 91.5q63 0 108 -15q2 0 2 -5zM299 64l64 362q-12 4 -35 4q-88 0 -148.5 -69t-61.5 -170q0 -63 29.5 -101t90.5 -38q36 0 61 12zM190 699h59q3 0 4 -3q10 -57 70 -57q57 0 84 57
q2 3 6 3h59q5 0 3 -4q-35 -120 -159 -120q-59 0 -93.5 32t-37.5 88q0 4 5 4z" />
    <glyph glyph-name="Aogonek" unicode="&#x104;" horiz-adv-x="575" 
d="M498 6q1 -3 -4 -6q-100 -53 -98 -110q2 -40 51 -40q27 0 50 10q6 1 6 -4l-8 -52q-3 -8 -8 -10q-28 -15 -75 -15q-40 0 -68 21.5t-29 62.5q-3 77 100 143l-30 211h-217l-105 -212q-3 -5 -7 -5h-73q-6 0 -3 6l306 616q6 13 12 40q0 4 4 4h97q4 0 5 -4zM198 284h180
q-32 216 -38 310h-1q-14 -42 -141 -310z" />
    <glyph glyph-name="aogonek" unicode="&#x105;" horiz-adv-x="490" 
d="M299 64l65 362q-12 4 -35 4q-90 0 -152 -75t-58 -178q2 -61 33 -93t86 -32q36 0 61 12zM255 -219q-41 0 -69.5 22t-29.5 61q-2 68 94 128q-7 -1 -27 -1q-87 0 -137 48.5t-53 135.5q-3 78 33.5 150t110.5 119.5t169 47.5q64 0 107 -15q2 0 2 -5l-78 -441q-1 -6 -6 -8
q-136 -72 -133 -133q2 -40 51 -40q27 0 51 11q3 1 4.5 -0.5t0.5 -4.5l-9 -52q-1 -5 -7 -9q-30 -14 -74 -14z" />
    <glyph glyph-name="Cacute" unicode="&#x106;" horiz-adv-x="527" 
d="M459 78l-12 -57q-1 -5 -7 -8q-44 -22 -126 -22q-115 0 -188 74t-73 211q0 78 24.5 149.5t69.5 127.5t114.5 89.5t152.5 33.5q84 0 120 -23q5 -2 3 -7l-13 -56q-2 -7 -7 -3q-44 22 -108 22q-123 0 -196.5 -96t-73.5 -235q0 -95 48.5 -157.5t141.5 -62.5q74 0 125 25
q3 1 4.5 -0.5t0.5 -4.5zM327 731l144 110q3 3 10 3h92q8 0 3 -7l-156 -107q-5 -5 -12 -5h-78q-3 0 -4 2.5t1 3.5z" />
    <glyph glyph-name="cacute" unicode="&#x107;" horiz-adv-x="395" 
d="M329 69l-11 -55q-2 -5 -6 -7q-31 -16 -88 -16q-86 0 -138.5 54.5t-52.5 150.5q0 122 75.5 209t188.5 87q49 0 79 -13q4 -3 3 -8l-11 -54q-1 -5 -6 -3q-25 12 -64 12q-78 0 -128.5 -65t-50.5 -156q0 -64 30 -106t94 -42q49 0 82 16q4 2 4 -1v-3zM215 567l149 147q2 5 9 5
h85q6 0 3 -7l-161 -146q-5 -5 -10 -5h-72q-9 0 -3 6z" />
    <glyph glyph-name="Ccircumflex" unicode="&#x108;" horiz-adv-x="527" 
d="M459 78l-12 -57q-1 -5 -7 -8q-44 -22 -126 -22q-115 0 -188 74t-73 211q0 78 24.5 149.5t69.5 127.5t114.5 89.5t152.5 33.5q84 0 120 -23q5 -2 3 -7l-13 -56q-2 -7 -7 -3q-44 22 -108 22q-123 0 -196.5 -96t-73.5 -235q0 -95 48.5 -157.5t141.5 -62.5q74 0 125 25
q3 1 4.5 -0.5t0.5 -4.5zM452 728l-54 71l-83 -71q-5 -4 -10 -4h-71q-3 0 -3.5 3t1.5 4l130 109q3 3 8 3h68q8 0 9 -4l82 -110q3 -5 -4 -5h-64q-6 0 -9 4z" />
    <glyph glyph-name="ccircumflex" unicode="&#x109;" horiz-adv-x="395" 
d="M329 69l-11 -55q-2 -5 -6 -7q-31 -16 -88 -16q-86 0 -138.5 54.5t-52.5 150.5q0 122 75.5 209t188.5 87q49 0 79 -13q4 -3 3 -8l-11 -54q-1 -5 -6 -3q-25 12 -64 12q-78 0 -128.5 -65t-50.5 -156q0 -64 30 -106t94 -42q49 0 82 16q4 2 4 -1v-3zM294 665q-34 -47 -83 -104
q-6 -4 -9 -4h-63q-7 0 -2 7l126 147q4 4 7 4h65q4 0 7 -4l61 -148q2 -6 -4 -6h-59q-6 0 -8 5q-18 45 -38 103z" />
    <glyph glyph-name="Cdotaccent" unicode="&#x10a;" horiz-adv-x="527" 
d="M459 78l-12 -57q-1 -5 -7 -8q-44 -22 -126 -22q-115 0 -188 74t-73 211q0 78 24.5 149.5t69.5 127.5t114.5 89.5t152.5 33.5q84 0 120 -23q5 -2 3 -7l-13 -56q-2 -7 -7 -3q-44 22 -108 22q-123 0 -196.5 -96t-73.5 -235q0 -95 48.5 -157.5t141.5 -62.5q74 0 125 25
q3 1 4.5 -0.5t0.5 -4.5zM391 737q-23 0 -36.5 13t-11.5 34t17 34t38 13q24 0 37 -13.5t11 -34.5t-16.5 -33.5t-38.5 -12.5z" />
    <glyph glyph-name="cdotaccent" unicode="&#x10b;" horiz-adv-x="395" 
d="M329 69l-11 -55q-2 -5 -6 -7q-31 -16 -88 -16q-86 0 -138.5 54.5t-52.5 150.5q0 122 75.5 209t188.5 87q49 0 79 -13q4 -3 3 -8l-11 -54q-1 -5 -6 -3q-25 12 -64 12q-78 0 -128.5 -65t-50.5 -156q0 -64 30 -106t94 -42q49 0 82 16q4 2 4 -1v-3zM280 592q-21 0 -32.5 13.5
t-9.5 33.5q2 22 16.5 35t35.5 13t32 -13.5t9 -34.5q-1 -21 -15.5 -34t-35.5 -13z" />
    <glyph glyph-name="Ccaron" unicode="&#x10c;" horiz-adv-x="527" 
d="M459 78l-12 -57q-1 -5 -7 -8q-44 -22 -126 -22q-115 0 -188 74t-73 211q0 78 24.5 149.5t69.5 127.5t114.5 89.5t152.5 33.5q84 0 120 -23q5 -2 3 -7l-13 -56q-2 -7 -7 -3q-44 22 -108 22q-123 0 -196.5 -96t-73.5 -235q0 -95 48.5 -157.5t141.5 -62.5q74 0 125 25
q3 1 4.5 -0.5t0.5 -4.5zM338 841l55 -71l82 71q5 4 10 4h71q3 0 3.5 -2.5t-1.5 -4.5l-129 -109q-3 -3 -8 -3h-69q-7 0 -8 4l-83 110q-3 5 3 5h65q6 0 9 -4z" />
    <glyph glyph-name="ccaron" unicode="&#x10d;" horiz-adv-x="395" 
d="M329 69l-11 -55q-2 -5 -6 -7q-31 -16 -88 -16q-86 0 -138.5 54.5t-52.5 150.5q0 122 75.5 209t188.5 87q49 0 79 -13q4 -3 3 -8l-11 -54q-1 -5 -6 -3q-25 12 -64 12q-78 0 -128.5 -65t-50.5 -156q0 -64 30 -106t94 -42q49 0 82 16q4 2 4 -1v-3zM274 613q41 59 79 104
q4 4 9 4h62q5 -1 2 -7l-122 -147q-4 -4 -7 -4h-65q-4 0 -7 4l-64 148q-4 6 3 6h59q5 0 8 -5q6 -17 23.5 -57t19.5 -46z" />
    <glyph glyph-name="Dcaron" unicode="&#x10e;" horiz-adv-x="610" 
d="M27 8l115 652q0 3 4 5q27 2 131 2q133 0 213 -75.5t80 -222.5q0 -189 -123 -292q-97 -80 -270 -80q-48 0 -144 3q-6 0 -6 8zM215 600l-94 -535q1 0 23.5 -1t48.5 -1q123 0 193 61q98 86 98 250q0 104 -51.5 165.5t-153.5 61.5q-54 0 -64 -1zM271 829l55 -71l82 72
q8 4 10 4h71q4 0 4 -3t-2 -5l-129 -109q-4 -3 -7 -3h-69q-5 0 -9 4l-83 111q-3 5 4 5h65q5 0 8 -5z" />
    <glyph glyph-name="dcaron" unicode="&#x10f;" horiz-adv-x="565" 
d="M534 495l39 220q1 5 7 5h56q6 0 4 -6l-45 -219q-1 -6 -7 -6h-49q-6 0 -5 6zM510 720l-121 -686q-2 -7 -6 -9q-71 -34 -153 -34q-86 0 -139 51.5t-53 150.5q0 121 82 210t202 89q36 0 62 -8l41 230q0 5 5 6q54 6 76 6q4 0 4 -6zM310 68l63 352q-20 10 -60 10
q-77 0 -133 -69.5t-57 -165.5q0 -62 29 -101.5t91 -39.5q39 0 67 14z" />
    <glyph glyph-name="Dcroat" unicode="&#x110;" horiz-adv-x="618" 
d="M98 371l51 289q1 3 4 5q28 2 131 2q134 0 214 -76t80 -222q0 -187 -123 -292q-97 -80 -271 -80q-48 0 -144 3q-7 0 -5 8l52 300h-66q-5 0 -4 6l9 52q1 5 7 5h65zM172 308l-43 -243q1 0 23.5 -1t48.5 -1q122 0 193 61q98 87 98 250q0 104 -51.5 165.5t-154.5 61.5
q-54 0 -63 -1l-40 -229h150q5 0 5 -5l-10 -52q-1 -6 -6 -6h-150z" />
    <glyph glyph-name="dcroat" unicode="&#x111;" horiz-adv-x="498" 
d="M489 632h62q5 0 4 -4l-8 -45q-1 -5 -7 -5h-60l-96 -544q-2 -7 -6 -9q-71 -34 -153 -34q-86 0 -139 51.5t-53 150.5q0 121 82 210t202 89q36 0 62 -8l17 94h-127q-7 0 -5 5l9 44q0 5 5 5h127l15 82q0 5 5 6q54 6 76 6q4 0 4 -6zM305 68l63 352q-20 10 -60 10
q-77 0 -133 -69.5t-56 -165.5q0 -63 28.5 -102t90.5 -39q39 0 67 14z" />
    <glyph glyph-name="Emacron" unicode="&#x112;" horiz-adv-x="481" 
d="M414 61l-20 -56q-2 -5 -6 -5h-356q-6 0 -6 6l116 655q1 5 6 5h319q6 0 6 -5l4 -57q0 -5 -5 -5h-259l-39 -227h238q5 0 4 -5l-10 -57q-1 -4 -7 -4h-237l-42 -239h292q5 0 2 -6zM205 805h244q5 0 4 -6l-10 -55q0 -6 -6 -6h-243q-6 0 -6 6l11 55q1 6 6 6z" />
    <glyph glyph-name="emacron" unicode="&#x113;" horiz-adv-x="449" 
d="M358 86l-11 -58q-1 -6 -6 -9q-44 -28 -127 -28q-84 0 -132.5 51t-48.5 147q0 119 71 211t175 92q69 0 104 -35t36 -82q1 -81 -75 -124t-227 -42q-2 -11 -2 -34q2 -118 118 -118q71 0 120 33q5 3 5 -4zM123 266q122 -3 171 28.5t48 78.5q0 22 -15 40t-53 18q-52 0 -94 -45
t-57 -120zM164 667h254q4 0 4 -6l-10 -53q-2 -5 -6 -5h-253q-5 0 -4 6l10 54q0 4 5 4z" />
    <glyph glyph-name="Ebreve" unicode="&#x114;" horiz-adv-x="481" 
d="M414 61l-20 -56q-2 -5 -6 -5h-356q-6 0 -6 6l116 655q1 5 6 5h319q6 0 6 -5l4 -57q0 -5 -5 -5h-259l-39 -227h238q5 0 4 -5l-10 -57q-1 -4 -7 -4h-237l-42 -239h292q5 0 2 -6zM185 846h59q4 0 6 -5q13 -55 70 -55q56 0 81 55q2 5 7 5h58q5 0 5 -6q-13 -56 -56.5 -88.5
t-100.5 -32.5t-94 31.5t-41 89.5q0 6 6 6z" />
    <glyph glyph-name="ebreve" unicode="&#x115;" horiz-adv-x="449" 
d="M358 86l-11 -58q-1 -6 -6 -9q-44 -28 -127 -28q-84 0 -132.5 51t-48.5 147q0 119 71 211t175 92q69 0 104 -35t36 -82q1 -81 -75 -124t-227 -42q-2 -11 -2 -34q2 -118 118 -118q71 0 120 33q5 3 5 -4zM123 266q122 -3 171 28.5t48 78.5q0 22 -15 40t-53 18q-52 0 -94 -45
t-57 -120zM161 700h59q3 0 4 -3q10 -57 70 -57q57 0 84 57q2 3 6 3h59q5 0 3 -4q-35 -120 -159 -120q-59 0 -93.5 32t-37.5 88q0 4 5 4z" />
    <glyph glyph-name="Edotaccent" unicode="&#x116;" horiz-adv-x="481" 
d="M414 61l-20 -56q-2 -5 -6 -5h-356q-6 0 -6 6l116 655q1 5 6 5h319q6 0 6 -5l4 -57q0 -5 -5 -5h-259l-39 -227h238q5 0 4 -5l-10 -57q-1 -4 -7 -4h-237l-42 -239h292q5 0 2 -6zM313 726q-23 0 -36.5 13t-11.5 34t17 34t39 13q23 0 36 -13.5t11 -34.5t-16.5 -33.5
t-38.5 -12.5z" />
    <glyph glyph-name="edotaccent" unicode="&#x117;" horiz-adv-x="449" 
d="M358 86l-11 -58q-1 -6 -6 -9q-44 -28 -127 -28q-84 0 -132.5 51t-48.5 147q0 119 71 211t175 92q69 0 104 -35t36 -82q1 -81 -75 -124t-227 -42q-2 -11 -2 -34q2 -118 118 -118q71 0 120 33q5 3 5 -4zM123 266q122 -3 171 28.5t48 78.5q0 22 -15 40t-53 18q-52 0 -94 -45
t-57 -120zM284 589q-20 0 -32 13.5t-10 33.5q3 22 17.5 34.5t35.5 12.5t32 -13t9 -34t-16 -34t-36 -13z" />
    <glyph glyph-name="Eogonek" unicode="&#x118;" horiz-adv-x="481" 
d="M473 661l4 -57q0 -5 -5 -5h-259l-39 -227h238q5 0 4 -5l-10 -57q-1 -4 -7 -4h-237l-42 -239h292q5 0 2 -6l-20 -56q-2 -5 -6 -5h-28q-96 -55 -93 -107q-1 -19 13 -30.5t39 -11.5q20 0 55 10q3 1 4.5 0t0.5 -4l-10 -53q-1 -7 -6 -9q-28 -14 -80 -14q-42 0 -71 21t-30 64
q-3 73 94 134h-244q-6 0 -6 6l116 655q1 5 6 5h319q6 0 6 -5z" />
    <glyph glyph-name="eogonek" unicode="&#x119;" horiz-adv-x="449" 
d="M358 86l-11 -59q-1 -6 -6 -8q-142 -72 -139 -129q0 -39 52 -39q29 0 51 10q6 1 6 -5l-9 -50q-1 -8 -8 -11q-27 -14 -74 -14q-42 0 -70.5 22t-29.5 61q-1 67 98 128q-90 -3 -136 47t-49 138q-5 122 67.5 218.5t179.5 96.5q67 0 102 -34t37 -83q2 -79 -75.5 -123
t-227.5 -43q0 -2 -0.5 -15.5t-0.5 -19.5q4 -117 120 -117q70 0 118 33q5 2 5 -4zM274 431q-55 0 -96 -47t-56 -119q65 -1 111.5 8.5t69 27t31.5 35.5t9 38q-3 57 -69 57z" />
    <glyph glyph-name="Ecaron" unicode="&#x11a;" horiz-adv-x="481" 
d="M414 61l-20 -56q-2 -5 -6 -5h-356q-6 0 -6 6l116 655q1 5 6 5h319q6 0 6 -5l4 -57q0 -5 -5 -5h-259l-39 -227h238q5 0 4 -5l-10 -57q-1 -4 -7 -4h-237l-42 -239h292q5 0 2 -6zM261 829l55 -71l82 71q7 5 10 5h71q4 0 4 -3t-2 -5l-129 -109q-5 -3 -7 -3h-69q-7 0 -8 4
l-84 110q-4 6 4 6h65q5 0 8 -5z" />
    <glyph glyph-name="ecaron" unicode="&#x11b;" horiz-adv-x="449" 
d="M358 86l-11 -58q-1 -6 -6 -9q-44 -28 -127 -28q-84 0 -132.5 51t-48.5 147q0 119 71 211t175 92q69 0 104 -35t36 -82q1 -81 -75 -124t-227 -42q-2 -11 -2 -34q2 -118 118 -118q71 0 120 33q5 3 5 -4zM123 266q122 -3 171 28.5t48 78.5q0 22 -15 40t-53 18q-52 0 -94 -45
t-57 -120zM291 613q41 59 79 104q4 4 9 4h62q5 -1 2 -7l-122 -147q-4 -4 -7 -4h-65q-4 0 -7 4l-64 148q-4 6 3 6h59q6 0 8 -5q6 -17 23.5 -57t19.5 -46z" />
    <glyph glyph-name="Gcircumflex" unicode="&#x11c;" horiz-adv-x="608" 
d="M460 275l-137 3q-5 0 -5 5l10 52q1 5 7 5h215q6 0 4 -6l-52 -299q-1 -6 -9 -11q-70 -33 -174 -33q-118 0 -191.5 76t-73.5 209q0 167 101.5 283.5t267.5 116.5q109 0 162 -35q4 -2 2 -9l-13 -57q-1 -7 -7 -3q-56 37 -147 37q-128 0 -204 -96t-75 -235q0 -94 48.5 -158
t140.5 -64q60 0 94 17zM469 728l-55 71l-82 -71q-7 -5 -10 -5h-72q-3 0 -3.5 3t1.5 5l130 109q6 3 8 3h69q7 0 8 -4l82 -110q4 -6 -3 -6h-65q-5 0 -8 5z" />
    <glyph glyph-name="gcircumflex" unicode="&#x11d;" horiz-adv-x="494" 
d="M-22 -197l15 59q0 7 6 3q57 -31 120 -31q69 0 108.5 35t57.5 117l8 42q-43 -24 -96 -24q-74 0 -118.5 48t-44.5 136q0 121 81 212.5t211 91.5q73 0 130 -21q5 -2 3 -7q-7 -26 -11 -44l-66 -369q-20 -105 -42 -154q-60 -131 -225 -131q-81 0 -133 29q-4 3 -4 8zM304 91
l60 331q-19 8 -52 8q-81 0 -137.5 -68.5t-56.5 -165.5q1 -56 26 -92t81 -36q45 0 79 23zM334 665q-28 -37 -83 -104q-5 -3 -9 -3h-63q-5 1 -1 7l125 146q3 4 7 4h65q4 0 7 -4l61 -148q2 -5 -4 -5h-59q-5 0 -8 4q-25 67 -38 103z" />
    <glyph glyph-name="Gbreve" unicode="&#x11e;" horiz-adv-x="608" 
d="M460 275l-137 3q-5 0 -5 5l10 52q1 5 7 5h215q6 0 4 -6l-52 -299q-1 -6 -9 -11q-70 -33 -174 -33q-118 0 -191.5 76t-73.5 209q0 167 101.5 283.5t267.5 116.5q109 0 162 -35q4 -2 2 -9l-13 -57q-1 -7 -7 -3q-56 37 -147 37q-128 0 -204 -96t-75 -235q0 -94 48.5 -158
t140.5 -64q60 0 94 17zM270 854h58q5 0 6 -5q14 -55 70 -55q58 0 82 56q1 4 7 4h58q4 0 4 -6q-13 -55 -56 -88t-100 -33t-94 31.5t-41 89.5q-2 6 6 6z" />
    <glyph glyph-name="gbreve" unicode="&#x11f;" horiz-adv-x="494" 
d="M-22 -197l15 59q0 7 6 3q57 -31 120 -31q69 0 108.5 35t57.5 117l8 42q-43 -24 -96 -24q-74 0 -118.5 48t-44.5 136q0 121 81 212.5t211 91.5q73 0 130 -21q5 -2 3 -7q-7 -26 -11 -44l-66 -369q-20 -105 -42 -154q-60 -131 -225 -131q-81 0 -133 29q-4 3 -4 8zM304 91
l60 331q-19 8 -52 8q-81 0 -137.5 -68.5t-56.5 -165.5q1 -56 26 -92t81 -36q45 0 79 23zM180 701h59q3 0 4 -3q10 -57 70 -57q57 0 84 57q2 3 6 3h59q5 0 3 -4q-35 -120 -159 -120q-59 0 -93.5 32t-37.5 88q0 4 5 4z" />
    <glyph glyph-name="Gdotaccent" unicode="&#x120;" horiz-adv-x="608" 
d="M460 275l-137 3q-5 0 -5 5l10 52q1 5 7 5h215q6 0 4 -6l-52 -299q-1 -6 -9 -11q-70 -33 -174 -33q-118 0 -191.5 76t-73.5 209q0 167 101.5 283.5t267.5 116.5q109 0 162 -35q4 -2 2 -9l-13 -57q-1 -7 -7 -3q-56 37 -147 37q-128 0 -204 -96t-75 -235q0 -94 48.5 -158
t140.5 -64q60 0 94 17zM411 743q-23 0 -36 13t-11 34t17 34t38 13q24 0 37 -13.5t11 -34.5t-16.5 -33.5t-39.5 -12.5z" />
    <glyph glyph-name="gdotaccent" unicode="&#x121;" horiz-adv-x="494" 
d="M-22 -197l15 59q0 7 6 3q57 -31 120 -31q69 0 108.5 35t57.5 117l8 42q-43 -24 -96 -24q-74 0 -118.5 48t-44.5 136q0 121 81 212.5t211 91.5q73 0 130 -21q5 -2 3 -7q-7 -26 -11 -44l-66 -369q-20 -105 -42 -154q-60 -131 -225 -131q-81 0 -133 29q-4 3 -4 8zM304 91
l60 331q-19 8 -52 8q-81 0 -137.5 -68.5t-56.5 -165.5q1 -56 26 -92t81 -36q45 0 79 23zM320 589q-20 0 -32 13.5t-10 33.5q3 22 17.5 34.5t35.5 12.5t32 -13t9 -34t-16 -34t-36 -13z" />
    <glyph glyph-name="uni0122" unicode="&#x122;" horiz-adv-x="608" 
d="M460 275l-137 3q-5 0 -5 5l10 52q1 5 7 5h215q6 0 4 -6l-52 -299q-1 -6 -9 -11q-70 -33 -174 -33q-118 0 -191.5 76t-73.5 209q0 167 101.5 283.5t267.5 116.5q109 0 162 -35q4 -2 2 -9l-13 -57q-1 -7 -7 -3q-56 37 -147 37q-128 0 -204 -96t-75 -235q0 -94 48.5 -158
t140.5 -64q60 0 94 17zM277 -235h-70q-3 0 -4 2.5t1 3.5q50 54 59 110q5 32 -2 62q-2 5 4 5h73q6 0 7 -4q7 -26 1 -60q-10 -69 -60 -116q-3 -3 -9 -3z" />
    <glyph glyph-name="uni0123" unicode="&#x123;" horiz-adv-x="489" 
d="M332 740h69q3 0 3.5 -2.5t-1.5 -4.5q-50 -54 -59 -109q-5 -32 2 -62q1 -5 -4 -5h-71q-6 0 -7 4q-8 23 -2 59q9 69 60 116q4 4 10 4zM-23 -197l14 59q1 6 6 3q57 -31 120 -31q69 0 108.5 35t57.5 117l8 42q-43 -24 -95 -24q-74 0 -119 48.5t-45 135.5q0 77 34.5 146
t103 113.5t155.5 44.5q72 0 129 -21q5 -3 4 -7q-7 -20 -12 -44l-66 -369q-18 -105 -42 -154q-60 -131 -224 -131q-81 0 -134 29q-5 3 -3 8zM303 91l60 331q-21 8 -53 8q-81 0 -137 -68.5t-56 -165.5q0 -55 25 -91.5t81 -36.5q46 0 80 23z" />
    <glyph glyph-name="Hcircumflex" unicode="&#x124;" horiz-adv-x="608" 
d="M476 0h-73q-7 0 -5 6l53 301h-288l-53 -302q-1 -5 -5 -5h-73q-6 0 -6 6l116 655q0 5 5 5h73q5 0 5 -5l-50 -288h288l50 288q1 5 6 5h74q5 0 5 -6l-116 -654q-2 -6 -6 -6zM448 723l-55 71l-82 -71q-5 -4 -10 -4h-72q-3 0 -3.5 2.5t1.5 4.5l130 109q6 3 8 3h69q7 0 8 -4
l82 -110q3 -5 -3 -5h-65q-5 0 -8 4z" />
    <glyph glyph-name="hcircumflex" unicode="&#x125;" horiz-adv-x="501" 
d="M256 758l-58 50l-74 -51q-6 -3 -11 -3h-71q-10 0 -2 6l122 89q3 3 8 3h64q7 0 10 -5l95 -87q4 -6 -4 -6h-68q-5 0 -11 4zM18 6l125 706q0 6 6 6q45 6 74 6q6 0 5 -5l-54 -301q70 74 153 74q58 0 92 -42t17 -140l-54 -304q-2 -6 -6 -6h-73q-8 0 -6 7l56 306
q20 111 -56 111q-70 0 -127 -78q-10 -12 -13 -33l-55 -308q0 -5 -6 -5h-72q-8 0 -6 6z" />
    <glyph glyph-name="Hbar" unicode="&#x126;" horiz-adv-x="608" 
d="M572 516h52q4 0 4 -5l-10 -53q0 -5 -6 -5h-51l-79 -448q-1 -6 -6 -6h-72q-8 0 -6 6l50 287h-287l-51 -288q-1 -5 -6 -5h-72q-6 0 -6 6l79 448h-48q-7 0 -5 6l9 52q1 5 6 5h49l26 145q0 5 5 5h73q5 0 5 -5l-25 -145h288l25 145q1 5 6 5h74q5 0 5 -6zM460 359l16 94h-287
l-16 -94h287z" />
    <glyph glyph-name="hbar" unicode="&#x127;" horiz-adv-x="501" 
d="M203 578l-30 -164q72 74 153 74q58 0 92 -42t17 -140l-53 -300q-2 -6 -6 -6h-73q-8 0 -6 7l55 302q20 111 -56 111q-70 0 -127 -78q-8 -10 -13 -33l-54 -304q0 -5 -6 -5h-72q-8 0 -6 6l101 572h-56q-7 0 -5 6l8 43q0 5 6 5h57l14 80q0 6 6 6q45 6 74 6q6 0 5 -5l-16 -87
h144q4 0 4 -4l-8 -45q-1 -5 -7 -5h-142z" />
    <glyph glyph-name="Itilde" unicode="&#x128;" horiz-adv-x="236" 
d="M226 660l-116 -654q0 -6 -5 -6h-72q-7 0 -6 6l115 655q1 5 6 5h72q6 0 6 -6zM95 728h-49q-6 0 -7 5q4 51 30.5 79t64.5 28q33 0 70 -25.5t50 -25.5q28 0 34 43q2 5 6 5h49q7 0 5 -5q-10 -106 -90 -106q-30 0 -67 25.5t-53 25.5q-31 0 -38 -45q0 -4 -5 -4z" />
    <glyph glyph-name="itilde" unicode="&#x129;" horiz-adv-x="221" 
d="M18 6l83 471q1 5 7 5h73q7 0 5 -6l-84 -471q-1 -5 -6 -5h-72q-6 0 -6 6zM54 585h-53q-5 0 -5 6q4 53 31 80t68 27q32 0 73 -25.5t54 -25.5q31 0 36 44q1 5 6 5h52q4 0 4 -5q-9 -108 -91 -108q-31 0 -71 25.5t-59 25.5q-31 0 -40 -44q0 -5 -5 -5z" />
    <glyph glyph-name="Imacron" unicode="&#x12a;" horiz-adv-x="236" 
d="M226 660l-116 -654q0 -6 -5 -6h-72q-7 0 -6 6l115 655q1 5 6 5h72q6 0 6 -6zM83 801h244q5 0 4 -6l-10 -55q-1 -6 -6 -6h-243q-6 0 -6 6l10 55q2 6 7 6z" />
    <glyph glyph-name="imacron" unicode="&#x12b;" horiz-adv-x="221" 
d="M18 6l83 471q1 5 7 5h73q7 0 5 -6l-84 -471q-1 -5 -6 -5h-72q-6 0 -6 6zM40 667h254q4 0 4 -6l-10 -53q-2 -5 -6 -5h-253q-5 0 -4 6l10 54q0 4 5 4z" />
    <glyph glyph-name="Ibreve" unicode="&#x12c;" horiz-adv-x="236" 
d="M226 660l-116 -654q0 -6 -5 -6h-72q-7 0 -6 6l115 655q1 5 6 5h72q6 0 6 -6zM63 844h59q4 0 6 -5q13 -56 70 -56t81 56q2 5 7 5h58q5 0 5 -7q-13 -55 -56.5 -87.5t-100.5 -32.5t-94 31.5t-41 89.5q0 6 6 6z" />
    <glyph glyph-name="ibreve" unicode="&#x12d;" horiz-adv-x="221" 
d="M18 6l83 471q1 5 7 5h73q7 0 5 -6l-84 -471q-1 -5 -6 -5h-72q-6 0 -6 6zM26 699h59q3 0 4 -3q10 -57 70 -57q57 0 84 57q2 3 6 3h59q5 0 3 -4q-35 -120 -159 -120q-59 0 -93.5 32t-37.5 88q0 4 5 4z" />
    <glyph glyph-name="Iogonek" unicode="&#x12e;" horiz-adv-x="236" 
d="M29 16l113 644q2 6 7 6h72q5 0 5 -5l-115 -653q-3 -7 -6 -9q-81 -56 -80 -111q2 -20 16 -32t36 -12q30 0 55 11q2 1 3 0t0 -5l-9 -52q-2 -7 -6 -9q-32 -15 -78 -15q-40 0 -69 23.5t-30 65.5q-2 70 88 142q-3 3 -2 11z" />
    <glyph glyph-name="iogonek" unicode="&#x12f;" horiz-adv-x="221" 
d="M108 482h73q7 0 5 -6l-83 -468q-2 -7 -5 -9q-81 -58 -80 -111q1 -20 14.5 -32t36.5 -12q28 0 55 10q2 1 3 0t1 -4l-10 -53q0 -7 -6 -9q-28 -14 -78 -14q-41 0 -69 23.5t-29 64.5q-1 29 13 58.5t29 46t40 39.5l83 471q1 5 7 5zM166 589q-20 0 -32 13.5t-10 33.5
q2 22 16.5 35t35.5 13t32.5 -13.5t8.5 -34.5q-2 -21 -15.5 -34t-35.5 -13z" />
    <glyph glyph-name="Idotaccent" unicode="&#x130;" horiz-adv-x="236" 
d="M226 660l-116 -654q0 -6 -5 -6h-72q-7 0 -6 6l115 655q1 5 6 5h72q6 0 6 -6zM192 719q-23 0 -36 13t-11 34t17 34t38 13t36.5 -13.5t11.5 -34.5t-16.5 -33.5t-39.5 -12.5z" />
    <glyph glyph-name="dotlessi" unicode="&#x131;" horiz-adv-x="221" 
d="M18 6l83 471q1 5 7 5h73q7 0 5 -6l-84 -471q-1 -5 -6 -5h-72q-6 0 -6 6z" />
    <glyph glyph-name="IJ" unicode="&#x132;" horiz-adv-x="482" 
d="M396 666h72q7 0 6 -6l-108 -611q-16 -95 -54 -133t-100 -38q-29 0 -43 7q-6 4 -5 9l11 58q1 7 9 5q12 -4 26 -4q29 0 45.5 20t27.5 77l108 610q0 6 5 6zM223 660l-115 -654q-1 -6 -6 -6h-72q-6 0 -6 6l115 655q1 5 6 5h73q5 0 5 -6z" />
    <glyph glyph-name="ij" unicode="&#x133;" horiz-adv-x="442" 
d="M166 589q-20 0 -32 13.5t-10 33.5q2 22 16.5 35t35.5 13t32.5 -13.5t8.5 -34.5q-2 -21 -15.5 -34t-35.5 -13zM18 6l83 471q1 5 7 5h73q7 0 5 -6l-84 -471q-1 -5 -6 -5h-72q-6 0 -6 6zM322 476q1 6 7 6h72q7 0 5 -6l-86 -491q-15 -86 -31.5 -125t-41.5 -62
q-36 -32 -98 -32q-18 0 -26 2q-5 2 -4 7l10 54q1 5 6 5q43 1 62.5 23.5t32.5 96.5zM385 589q-21 0 -32.5 13.5t-9.5 33.5q2 22 16.5 35t35.5 13t32 -13.5t9 -34.5q-1 -21 -15.5 -34t-35.5 -13z" />
    <glyph glyph-name="Jcircumflex" unicode="&#x134;" horiz-adv-x="317" 
d="M229 666h72q7 0 6 -6l-88 -500q-12 -69 -29 -107q-45 -98 -155 -98q-44 0 -70 13q-5 2 -3 8l12 57q2 5 5 4q24 -11 51 -11q47 0 69 29.5t35 97.5l89 507q1 6 6 6zM339 714l-54 71l-83 -71q-4 -4 -10 -4h-71q-3 0 -3.5 3t1.5 5l130 108q3 3 8 3h69q7 0 8 -4l82 -110
q3 -5 -4 -5h-64q-6 0 -9 4z" />
    <glyph glyph-name="jcircumflex" unicode="&#x135;" horiz-adv-x="221" 
d="M101 476q1 6 7 6h72q6 0 5 -6l-86 -491q-15 -86 -31.5 -125t-41.5 -62q-36 -32 -98 -32q-18 0 -26 2q-5 2 -4 7l10 54q1 5 6 5q43 1 62.5 23.5t32.5 96.5zM177 664q-34 -47 -83 -104q-6 -4 -9 -4h-62q-4 0 -4 2.5t2 4.5l125 147q4 4 7 4h65q4 0 7 -4l61 -148q2 -6 -4 -6
h-59q-5 0 -8 5q-18 45 -38 103z" />
    <glyph glyph-name="uni0136" unicode="&#x136;" horiz-adv-x="554" 
d="M105 0h-71q-7 0 -6 6l115 655q1 5 6 5h72q6 0 6 -6l-51 -289h40q17 0 25 10q36 41 119.5 140t120.5 141q3 4 9 4h78q9 0 3 -8q-213 -246 -286 -323q15 -26 107 -170t101 -159q4 -6 -3 -6h-79q-6 0 -10 4q-27 41 -88.5 146.5t-83.5 139.5q-9 14 -26 14h-39l-53 -299
q-1 -5 -6 -5zM221 -222h-70q-3 0 -4 2t1 4q49 53 60 110q5 28 -2 62q-2 5 3 5h73q6 0 7 -4q7 -24 2 -60q-11 -69 -60 -116q-3 -3 -10 -3z" />
    <glyph glyph-name="uni0137" unicode="&#x137;" horiz-adv-x="462" 
d="M138 213l-36 -207q0 -6 -6 -6h-72q-8 0 -6 6l124 708q2 5 6 6q8 0 39 2.5t36 2.5t4 -5l-77 -443h31q11 0 18 8q86 94 174 193q3 4 9 4h78q8 0 3 -7q-30 -38 -216 -229q23 -35 79 -123t74 -116q4 -7 -3 -7h-82q-7 0 -9 5q-21 33 -68 112.5t-51 85.5q-6 10 -16 10h-33z
M172 -219h-70q-3 0 -4 2.5t1 3.5q49 53 60 110q4 35 -3 62q0 5 4 5h73q6 0 7 -4q7 -26 1 -60q-10 -68 -59 -116q-6 -3 -10 -3z" />
    <glyph glyph-name="kgreenlandic" unicode="&#x138;" horiz-adv-x="464" 
d="M102 477q2 5 6 5h72q6 0 5 -5l-34 -197h41q11 0 20 11q46 54 156 187q3 4 10 4h75q8 0 3 -7q-12 -16 -195 -224q-3 -3 -1 -6q49 -75 148 -238q2 -7 -4 -7h-81q-7 0 -9 5q-21 34 -66 110t-52 88q-7 10 -16 10h-42l-36 -207q0 -6 -6 -6h-72q-8 0 -6 6z" />
    <glyph glyph-name="Lacute" unicode="&#x139;" horiz-adv-x="462" 
d="M226 660l-104 -593h277q7 0 3 -6l-19 -56q-3 -5 -7 -5h-343q-7 0 -6 6l115 655q2 5 6 5h73q5 0 5 -6zM140 720l144 109q5 4 10 4h92q4 0 4.5 -2.5t-1.5 -4.5l-156 -107q-5 -5 -11 -5h-78q-8 0 -4 6z" />
    <glyph glyph-name="lacute" unicode="&#x13a;" horiz-adv-x="234" 
d="M145 770l96 81q5 4 13 4h81q4 0 4.5 -3t-2.5 -5l-107 -80q-5 -4 -12 -4h-69q-11 0 -4 7zM178 52l-9 -44q-1 -7 -6 -9q-19 -8 -54 -8q-93 0 -73 111l107 611q1 5 6 6q9 1 26.5 2t31 2.5t16.5 1.5q5 0 5 -6l-109 -625q-4 -25 3 -33t23 -8q17 0 29 4q2 1 3 -0.5t1 -4.5z" />
    <glyph glyph-name="uni013B" unicode="&#x13b;" horiz-adv-x="462" 
d="M226 660l-104 -593h277q7 0 3 -6l-19 -56q-3 -5 -7 -5h-343q-7 0 -6 6l115 655q2 5 6 5h73q5 0 5 -6zM182 -243h-70q-8 0 -3 7q49 52 60 109q5 32 -2 62q-1 5 4 5h72q6 0 7 -4q8 -28 2 -59q-11 -68 -60 -116q-4 -4 -10 -4z" />
    <glyph glyph-name="uni013C" unicode="&#x13c;" horiz-adv-x="234" 
d="M176 52l-9 -44q-1 -7 -6 -9q-18 -8 -53 -8q-93 0 -74 111l108 611q1 5 6 6q10 1 40.5 3.5t33.5 2.5q4 0 4 -6l-108 -625q-5 -24 2.5 -32.5t22.5 -8.5q17 0 30 4q2 1 3 -0.5t0 -4.5zM51 -221h-71q-8 0 -2 6q50 54 59 109q6 33 -2 62q-1 5 4 5h72q6 0 7 -4q8 -28 2 -59
q-9 -69 -60 -116q-3 -3 -9 -3z" />
    <glyph glyph-name="Lcaron" unicode="&#x13d;" horiz-adv-x="462" 
d="M226 660l-104 -593h277q7 0 3 -6l-19 -56q-3 -5 -7 -5h-343q-7 0 -6 6l115 655q2 5 6 5h73q5 0 5 -6zM362 450l39 220q1 6 7 6h60q6 0 4 -6l-45 -220q-1 -5 -5 -5h-55q-5 0 -5 5z" />
    <glyph glyph-name="lcaron" unicode="&#x13e;" horiz-adv-x="272" 
d="M248 495l39 219q1 6 7 6h57q5 0 4 -6l-49 -218q-2 -7 -7 -7h-46q-6 0 -5 6zM178 52l-9 -44q-1 -7 -6 -9q-19 -8 -54 -8q-93 0 -73 111l107 611q1 5 6 6q9 1 26.5 2t31 2.5t16.5 1.5q5 0 5 -6l-109 -625q-4 -25 3 -33t23 -8q17 0 29 4q2 1 3 -0.5t1 -4.5z" />
    <glyph glyph-name="Ldot" unicode="&#x13f;" horiz-adv-x="462" 
d="M226 660l-104 -593h277q7 0 3 -6l-19 -56q-3 -5 -7 -5h-343q-7 0 -6 6l115 655q2 5 6 5h73q5 0 5 -6zM354 317q-22 0 -35 13t-12 34q2 21 17 34t38 13q24 0 37 -13.5t11 -34.5t-16.5 -33.5t-39.5 -12.5z" />
    <glyph glyph-name="ldot" unicode="&#x140;" horiz-adv-x="256" 
d="M253 367q-19 0 -29 14t-8 38q6 52 48 52t37 -52q-3 -25 -15.5 -38.5t-32.5 -13.5zM178 52l-9 -44q-1 -7 -6 -9q-19 -8 -54 -8q-93 0 -73 111l107 611q1 5 6 6q9 1 26.5 2t31 2.5t16.5 1.5q5 0 5 -6l-109 -625q-4 -25 3 -33t23 -8q17 0 29 4q2 1 3 -0.5t1 -4.5z" />
    <glyph glyph-name="Lslash" unicode="&#x141;" horiz-adv-x="468" 
d="M131 67h277q7 0 3 -6l-20 -56q-3 -5 -6 -5h-344q-6 0 -6 6l46 263l-83 -37q-4 -2 -4 1v2l10 57q1 5 5 6l84 37l58 326q2 5 5 5h74q5 0 4 -6l-50 -285l156 68q2 2 4 0.5t1 -4.5l-10 -53q-1 -7 -8 -10l-154 -67z" />
    <glyph glyph-name="lslash" unicode="&#x142;" horiz-adv-x="244" 
d="M186 52l-9 -44q-1 -7 -6 -9q-18 -8 -55 -8q-92 0 -72 111l47 266l-67 -33q-2 -1 -4 0t-1 4l8 44q0 6 4 7l70 34l50 288q2 5 7 6q60 6 74 6q6 0 4 -6l-44 -252l77 38q5 2 5 -4l-8 -43q-1 -6 -5 -9l-78 -38l-55 -315q-8 -43 24 -43q15 0 30 5q2 1 3.5 -1t0.5 -4z" />
    <glyph glyph-name="Nacute" unicode="&#x143;" horiz-adv-x="607" 
d="M139 661q1 5 6 5h94q3 0 6 -4q167 -501 179 -557h2q4 57 90 556q1 5 6 5h71q5 0 4 -6l-115 -654q-1 -6 -7 -6h-87q-8 0 -10 6q-71 207 -121 370t-57 203h-1q-4 -62 -95 -573q0 -6 -5 -6h-69q-6 0 -6 6zM309 717l144 109q4 4 10 4h92q3 0 4 -3t-1 -4l-156 -108
q-5 -4 -11 -4h-79q-7 0 -3 6z" />
    <glyph glyph-name="nacute" unicode="&#x144;" horiz-adv-x="501" 
d="M18 5l64 364q12 66 16 108q0 5 5 5h67q5 0 5 -4q1 -8 -6 -65q72 79 161 79q55 0 89 -41.5t17 -143.5l-54 -302q-2 -5 -6 -5h-73q-7 0 -5 6l56 312q17 106 -58 106q-71 0 -124 -76q-13 -22 -15 -36l-55 -308q-1 -4 -6 -4h-72q-6 0 -6 5zM228 572l148 147q4 5 10 5h84
q4 0 4.5 -2.5t-1.5 -4.5l-160 -146q-5 -5 -11 -5h-72q-2 0 -3 2t1 4z" />
    <glyph glyph-name="uni0145" unicode="&#x145;" horiz-adv-x="607" 
d="M139 661q1 5 6 5h94q3 0 6 -4q167 -501 179 -557h2q4 57 90 556q1 5 6 5h71q5 0 4 -6l-115 -654q-1 -6 -7 -6h-87q-8 0 -10 6q-71 207 -121 370t-57 203h-1q-4 -62 -95 -573q0 -6 -5 -6h-69q-6 0 -6 6zM235 -228h-70q-7 0 -3 6q49 52 60 109q6 33 -2 63q-2 5 4 5h72
q6 0 7 -4q7 -30 2 -60q-9 -67 -60 -116q-3 -3 -10 -3z" />
    <glyph glyph-name="uni0146" unicode="&#x146;" horiz-adv-x="501" 
d="M18 5l64 364q12 66 16 108q0 5 5 5h67q5 0 5 -4q1 -8 -6 -65q72 79 161 79q55 0 89 -41.5t17 -143.5l-54 -302q-2 -5 -6 -5h-73q-7 0 -5 6l56 312q17 106 -58 106q-71 0 -124 -76q-13 -22 -15 -36l-55 -308q-1 -4 -6 -4h-72q-6 0 -6 5zM174 -218h-70q-7 0 -3 6
q50 54 60 110q4 35 -3 62q0 5 4 5h73q6 0 7 -4q7 -26 1 -60q-10 -68 -59 -116q-3 -3 -10 -3z" />
    <glyph glyph-name="Ncaron" unicode="&#x147;" horiz-adv-x="607" 
d="M139 661q1 5 6 5h94q3 0 6 -4q167 -501 179 -557h2q4 57 90 556q1 5 6 5h71q5 0 4 -6l-115 -654q-1 -6 -7 -6h-87q-8 0 -10 6q-71 207 -121 370t-57 203h-1q-4 -62 -95 -573q0 -6 -5 -6h-69q-6 0 -6 6zM320 824l55 -71l82 72q8 4 10 4h71q3 0 3.5 -3t-1.5 -5l-129 -109
q-5 -3 -8 -3h-69q-6 0 -8 4l-83 111q-3 5 4 5h64q6 0 9 -5z" />
    <glyph glyph-name="ncaron" unicode="&#x148;" horiz-adv-x="501" 
d="M18 5l64 364q12 66 16 108q0 5 5 5h67q5 0 5 -4q1 -8 -6 -65q72 79 161 79q55 0 89 -41.5t17 -143.5l-54 -302q-2 -5 -6 -5h-73q-7 0 -5 6l56 312q17 106 -58 106q-71 0 -124 -76q-13 -22 -15 -36l-55 -308q-1 -4 -6 -4h-72q-6 0 -6 5zM292 613q49 67 79 104q4 4 9 4h62
q3 0 3.5 -2.5t-1.5 -4.5l-121 -147q-4 -4 -8 -4h-65q-5 0 -6 4l-65 148q-4 6 4 6h59q4 0 7 -5q5 -12 22 -52t21 -51z" />
    <glyph glyph-name="napostrophe" unicode="&#x149;" horiz-adv-x="501" 
d="M51 535l38 219q1 6 7 6h60q6 0 5 -6l-45 -220q-1 -5 -6 -5h-54q-6 0 -5 6zM20 5l64 364q12 74 15 108q2 5 5 5h67q5 0 6 -4q0 -7 -7 -65q74 79 161 79q55 0 89.5 -41.5t16.5 -143.5l-54 -302q-2 -5 -5 -5h-73q-6 0 -6 6l56 312q17 106 -57 106q-71 0 -125 -76
q-13 -22 -15 -36l-55 -308q0 -4 -5 -4h-73q-7 0 -5 5z" />
    <glyph glyph-name="Eng" unicode="&#x14a;" horiz-adv-x="604" 
d="M99 0h-69q-7 0 -6 6l114 655q1 5 7 5h94q4 0 7 -4q157 -438 180 -541h1q8 83 89 540q0 5 5 5h71q4 0 4 -7l-109 -617q-15 -82 -32 -121.5t-44 -66.5q-43 -40 -112 -40q-25 0 -32 3q-3 1 -3 7l11 61q1 5 6 5q51 -2 76.5 21.5t33.5 76.5q-59 160 -119.5 348.5t-72.5 242.5
h-1q-4 -70 -94 -573q0 -6 -5 -6z" />
    <glyph glyph-name="eng" unicode="&#x14b;" horiz-adv-x="500" 
d="M288 -46l66 364q17 106 -58 106q-71 0 -124 -76q-13 -22 -15 -36l-55 -308q-1 -4 -6 -4h-72q-6 0 -6 5l64 364q12 66 16 108q0 5 5 5h67q5 0 5 -4q1 -8 -6 -65q72 79 161 79q55 0 89 -41.5t17 -143.5l-58 -322q-15 -86 -31.5 -125t-40.5 -62q-37 -32 -100 -32
q-17 0 -25 2q-5 2 -4 7l10 54q1 5 6 5q43 1 62.5 23.5t32.5 96.5z" />
    <glyph glyph-name="Omacron" unicode="&#x14c;" horiz-adv-x="635" 
d="M374 676q102 0 162 -72.5t60 -193.5q0 -111 -36 -204.5t-109.5 -154t-172.5 -60.5q-104 0 -164.5 68.5t-60.5 190.5q0 107 37 202.5t112 159.5t172 64zM365 610q-97 0 -161.5 -109.5t-64.5 -251.5q0 -50 13 -91.5t47.5 -71.5t86.5 -30q69 0 121.5 54.5t77.5 134.5t25 167
q0 82 -34.5 140t-110.5 58zM281 809h244q5 0 4 -5l-10 -55q0 -6 -6 -6h-242q-7 0 -7 6l11 55q1 5 6 5z" />
    <glyph glyph-name="omacron" unicode="&#x14d;" horiz-adv-x="502" 
d="M278 492q78 0 126 -54t48 -146q0 -76 -27 -143.5t-83 -112.5t-131 -45q-80 0 -128.5 52t-48.5 145q0 120 67.5 212t176.5 92zM272 430q-65 0 -109 -75t-44 -173q0 -55 23.5 -92.5t74.5 -37.5q62 0 106 75t43 175q0 53 -22 90.5t-72 37.5zM177 667h254q4 0 4 -6l-10 -53
q-2 -5 -6 -5h-253q-6 0 -4 6l10 54q0 4 5 4z" />
    <glyph glyph-name="Obreve" unicode="&#x14e;" horiz-adv-x="635" 
d="M374 676q102 0 162 -72.5t60 -193.5q0 -111 -36 -204.5t-109.5 -154t-172.5 -60.5q-104 0 -164.5 68.5t-60.5 190.5q0 107 37 202.5t112 159.5t172 64zM365 610q-97 0 -161.5 -109.5t-64.5 -251.5q0 -50 13 -91.5t47.5 -71.5t86.5 -30q69 0 121.5 54.5t77.5 134.5t25 167
q0 82 -34.5 140t-110.5 58zM260 852h58q5 0 6 -6q14 -55 70 -55q58 0 82 56q2 5 6 5h58q5 0 5 -7q-13 -55 -56 -87.5t-100 -32.5q-58 0 -94.5 31.5t-40.5 89.5q-2 6 6 6z" />
    <glyph glyph-name="obreve" unicode="&#x14f;" horiz-adv-x="502" 
d="M278 492q78 0 126 -54t48 -146q0 -76 -27 -143.5t-83 -112.5t-131 -45q-80 0 -128.5 52t-48.5 145q0 120 67.5 212t176.5 92zM272 430q-65 0 -109 -75t-44 -173q0 -55 23.5 -92.5t74.5 -37.5q62 0 106 75t43 175q0 53 -22 90.5t-72 37.5zM168 699h59q3 0 4 -3
q10 -57 70 -57q57 0 84 57q2 3 6 3h59q5 0 3 -4q-35 -120 -159 -120q-59 0 -93.5 32t-37.5 88q0 4 5 4z" />
    <glyph glyph-name="Ohungarumlaut" unicode="&#x150;" horiz-adv-x="635" 
d="M374 676q102 0 162 -72.5t60 -193.5q0 -111 -36 -204.5t-109.5 -154t-172.5 -60.5q-104 0 -164.5 68.5t-60.5 190.5q0 107 37 202.5t112 159.5t172 64zM365 610q-97 0 -161.5 -109.5t-64.5 -251.5q0 -50 13 -91.5t47.5 -71.5t86.5 -30q69 0 121.5 54.5t77.5 134.5t25 167
q0 82 -34.5 140t-110.5 58zM253 724l111 109q2 5 8 5h74q8 0 3 -7l-121 -108q-4 -5 -9 -5h-63q-8 0 -3 6zM417 725l109 107q3 6 9 6h75q9 0 3 -8l-121 -107q-4 -5 -9 -5h-63q-8 0 -3 7z" />
    <glyph glyph-name="ohungarumlaut" unicode="&#x151;" horiz-adv-x="502" 
d="M278 492q78 0 126 -54t48 -146q0 -76 -27 -143.5t-83 -112.5t-131 -45q-80 0 -128.5 52t-48.5 145q0 120 67.5 212t176.5 92zM272 430q-65 0 -109 -75t-44 -173q0 -55 23.5 -92.5t74.5 -37.5q62 0 106 75t43 175q0 53 -22 90.5t-72 37.5zM174 569l122 139q3 4 8 4h70
q6 0 2 -6l-132 -140q-5 -5 -11 -5h-56q-9 0 -3 8zM330 568l123 140q2 4 8 4h71q6 0 2 -6l-133 -140q-5 -5 -10 -5h-58q-7 0 -3 7z" />
    <glyph glyph-name="OE" unicode="&#x152;" horiz-adv-x="839" 
d="M401 67l94 530q-30 8 -76 8q-121 0 -199.5 -92.5t-78.5 -235.5q0 -94 45.5 -155t137.5 -61q47 0 77 6zM749 0h-324q-72 -7 -121 -7q-113 0 -181.5 76.5t-67.5 208.5q0 172 105.5 283t265.5 111q54 0 112 -6h291q4 0 5 -5l3 -57q0 -5 -7 -5h-253l-39 -227h236q4 0 3 -5
l-9 -56q-1 -5 -6 -5h-236l-41 -239h286q5 0 3 -6l-19 -56q-1 -5 -6 -5z" />
    <glyph glyph-name="oe" unicode="&#x153;" horiz-adv-x="775" 
d="M279 492q115 0 146 -112q32 54 80.5 83t100.5 29q61 0 99.5 -32t38.5 -91q1 -76 -77 -119t-225 -41q-2 -10 -2 -36q6 -116 118 -116q72 0 121 33q5 2 5 -4l-11 -58q-1 -6 -7 -9q-47 -28 -126 -28q-120 0 -154 102q-61 -102 -176 -102q-82 0 -129.5 54t-47.5 140
q-1 79 28 148t86.5 114t131.5 45zM273 430q-64 0 -110 -78.5t-44 -174.5q0 -51 23 -88t75 -37q62 0 107.5 81.5t41.5 181.5q-2 48 -23.5 81.5t-69.5 33.5zM600 431q-54 0 -95 -44.5t-58 -119.5q123 -4 172.5 27t49.5 76q0 28 -17 44.5t-52 16.5z" />
    <glyph glyph-name="Racute" unicode="&#x154;" horiz-adv-x="541" 
d="M159 286l-50 -281q-2 -5 -5 -5h-72q-6 0 -6 6l116 654q0 5 5 5q48 3 136 3q57 0 103 -16t78 -57t32 -104q0 -72 -44.5 -121.5t-120.5 -68.5q14 -25 79 -151t73 -143q2 -7 -4 -7h-80q-7 0 -10 6q-9 18 -58 122.5t-66 139.5q-8 18 -24 18h-82zM215 601l-44 -250h73
q81 0 124.5 37.5t43.5 97.5q0 117 -133 117q-38 0 -64 -2zM244 726l145 109q4 4 9 4h93q3 0 3.5 -3t-1.5 -5l-156 -107q-4 -4 -11 -4h-78q-8 0 -4 6z" />
    <glyph glyph-name="racute" unicode="&#x155;" horiz-adv-x="321" 
d="M103 482h62q6 0 7 -5q0 -47 -6 -80q32 44 77 69.5t87 24.5q6 0 5 -7l-14 -72q-2 -5 -5 -5q-87 -2 -144 -69q-14 -19 -18 -38l-52 -295q-1 -5 -5 -5h-74q-5 0 -5 5l62 351q14 74 17 122q0 4 6 4zM166 567l149 147q4 5 10 5h84q8 0 3 -7l-161 -146q-4 -5 -10 -5h-72
q-7 0 -3 6z" />
    <glyph glyph-name="uni0156" unicode="&#x156;" horiz-adv-x="541" 
d="M159 286l-50 -281q-2 -5 -5 -5h-72q-6 0 -6 6l116 654q0 5 5 5q48 3 136 3q57 0 103 -16t78 -57t32 -104q0 -72 -44.5 -121.5t-120.5 -68.5q14 -25 79 -151t73 -143q2 -7 -4 -7h-80q-7 0 -10 6q-9 18 -58 122.5t-66 139.5q-8 18 -24 18h-82zM215 601l-44 -250h73
q81 0 124.5 37.5t43.5 97.5q0 117 -133 117q-38 0 -64 -2zM218 -221h-70q-3 0 -4 2.5t1 3.5q49 53 60 110q4 35 -3 62q0 5 4 5h73q6 0 7 -4q7 -26 1 -60q-10 -68 -59 -116q-6 -3 -10 -3z" />
    <glyph glyph-name="uni0157" unicode="&#x157;" horiz-adv-x="321" 
d="M103 482h62q6 0 7 -5q0 -47 -6 -80q32 44 77 69.5t87 24.5q6 0 5 -7l-14 -72q-2 -5 -5 -5q-87 -2 -144 -69q-14 -19 -18 -38l-52 -295q-1 -5 -5 -5h-74q-5 0 -5 5l62 351q14 74 17 122q0 4 6 4zM26 -215h-70q-8 0 -3 7q49 53 60 109q4 35 -3 62q0 5 4 5h73q6 0 7 -4
q7 -26 1 -60q-10 -68 -59 -116q-6 -3 -10 -3z" />
    <glyph glyph-name="Rcaron" unicode="&#x158;" horiz-adv-x="541" 
d="M159 286l-50 -281q-2 -5 -5 -5h-72q-6 0 -6 6l116 654q0 5 5 5q48 3 136 3q57 0 103 -16t78 -57t32 -104q0 -72 -44.5 -121.5t-120.5 -68.5q14 -25 79 -151t73 -143q2 -7 -4 -7h-80q-7 0 -10 6q-9 18 -58 122.5t-66 139.5q-8 18 -24 18h-82zM215 601l-44 -250h73
q81 0 124.5 37.5t43.5 97.5q0 117 -133 117q-38 0 -64 -2zM253 833l55 -71l82 71q5 4 10 4h71q4 0 4 -3t-2 -5l-129 -108q-3 -3 -7 -3h-69q-6 0 -9 4l-83 110q-3 5 4 5h65q5 0 8 -4z" />
    <glyph glyph-name="rcaron" unicode="&#x159;" horiz-adv-x="321" 
d="M103 482h62q6 0 7 -5q0 -47 -6 -80q32 44 77 69.5t87 24.5q6 0 5 -7l-14 -72q-2 -5 -5 -5q-87 -2 -144 -69q-14 -19 -18 -38l-52 -295q-1 -5 -5 -5h-74q-5 0 -5 5l62 351q14 74 17 122q0 4 6 4zM212 613q49 67 79 104q4 4 9 4h62q3 0 3.5 -2.5t-1.5 -4.5l-121 -147
q-4 -4 -8 -4h-65q-5 0 -6 4l-65 148q-4 6 4 6h59q4 0 7 -5q5 -14 22 -53.5t21 -49.5z" />
    <glyph glyph-name="Sacute" unicode="&#x15a;" horiz-adv-x="458" 
d="M3 59l13 63q0 6 6 2q74 -66 166 -66q63 0 93 29.5t30 77.5q0 42 -24 72.5t-74 65.5q-70 47 -103 88t-33 106q0 73 52 126t148 53q95 0 146 -39q4 -3 2 -8l-12 -60q-2 -7 -7 -3q-55 43 -132 43q-58 0 -87 -31.5t-29 -73.5q0 -38 23.5 -65.5t72.5 -61.5q73 -48 107.5 -91.5
t34.5 -112.5q0 -81 -56 -131.5t-155 -50.5q-113 -1 -179 57q-5 4 -3 11zM222 736l144 109q4 4 10 4h92q8 0 3 -8l-156 -107q-5 -4 -11 -4h-79q-7 0 -3 6z" />
    <glyph glyph-name="sacute" unicode="&#x15b;" horiz-adv-x="363" 
d="M308 398q-43 30 -102 30q-40 0 -61 -18t-21 -45q0 -25 15.5 -42.5t54.5 -42.5q55 -33 83 -65t28 -82q0 -68 -48 -105t-119 -37q-86 0 -140 42q-4 3 -2 10l11 59q2 6 6 2q59 -49 128 -49q41 0 62 19.5t21 48.5q0 27 -15.5 45.5t-57.5 45.5q-50 31 -76.5 62t-26.5 78
q0 60 44 99t118 39t113 -27q4 -3 3 -9l-11 -56q-3 -5 -7 -2zM158 567l148 147q4 5 10 5h84q4 0 4.5 -2.5t-1.5 -4.5l-160 -146q-5 -5 -11 -5h-72q-2 0 -3 2t1 4z" />
    <glyph glyph-name="Scircumflex" unicode="&#x15c;" horiz-adv-x="458" 
d="M3 59l13 63q0 6 6 2q74 -66 166 -66q63 0 93 29.5t30 77.5q0 42 -24 72.5t-74 65.5q-70 47 -103 88t-33 106q0 73 52 126t148 53q95 0 146 -39q4 -3 2 -8l-12 -60q-2 -7 -7 -3q-55 43 -132 43q-58 0 -87 -31.5t-29 -73.5q0 -38 23.5 -65.5t72.5 -61.5q73 -48 107.5 -91.5
t34.5 -112.5q0 -81 -56 -131.5t-155 -50.5q-113 -1 -179 57q-5 4 -3 11zM359 729l-54 71l-82 -71q-5 -4 -10 -4h-72q-3 0 -3.5 2.5t1.5 4.5l130 109q3 3 8 3h69q7 0 8 -4l82 -110q3 -5 -3 -5h-65q-6 0 -9 4z" />
    <glyph glyph-name="scircumflex" unicode="&#x15d;" horiz-adv-x="363" 
d="M308 398q-43 30 -102 30q-40 0 -61 -18t-21 -45q0 -25 15.5 -42.5t54.5 -42.5q55 -33 83 -65t28 -82q0 -68 -48 -105t-119 -37q-86 0 -140 42q-4 3 -2 10l11 59q2 6 6 2q59 -49 128 -49q41 0 62 19.5t21 48.5q0 27 -15.5 45.5t-57.5 45.5q-50 31 -76.5 62t-26.5 78
q0 60 44 99t118 39t113 -27q4 -3 3 -9l-11 -56q-3 -5 -7 -2zM235 664q-34 -47 -83 -104q-6 -4 -9 -4h-63q-7 0 -2 7l126 147q4 4 7 4h65q4 0 7 -4l61 -148q2 -6 -4 -6h-59q-5 0 -8 5q-18 45 -38 103z" />
    <glyph glyph-name="uni015E" unicode="&#x15e;" horiz-adv-x="458" 
d="M3 59l13 63q0 6 6 2q74 -66 166 -66q63 0 93 29.5t30 77.5q0 42 -24 72.5t-74 65.5q-70 47 -103 88t-33 106q0 73 52 126t148 53q95 0 146 -39q4 -3 2 -8l-12 -60q-2 -7 -7 -3q-55 43 -132 43q-58 0 -87 -31.5t-29 -73.5q0 -38 23.5 -65.5t72.5 -61.5q73 -48 107.5 -91.5
t34.5 -112.5q0 -72 -45 -121t-125 -59l-31 -39q60 -18 62 -75q1 -45 -29.5 -70.5t-81.5 -25.5q-45 0 -66 14q-3 1 -3 7l8 42q2 5 5 2q28 -13 58 -13q22 0 34.5 10t11.5 28q0 36 -78 45q-1 1 0 9.5t3 10.5l43 53q-97 6 -156 57q-5 4 -3 11z" />
    <glyph glyph-name="uni015F" unicode="&#x15f;" horiz-adv-x="363" 
d="M-4 43l11 59q2 6 6 2q59 -49 128 -49q41 0 62 19.5t21 48.5q0 27 -15.5 45.5t-57.5 45.5q-50 31 -76.5 62t-26.5 78q0 60 44 99t118 39t113 -27q4 -3 3 -9l-11 -56q-3 -5 -7 -2q-43 30 -102 30q-40 0 -61 -18t-21 -45q0 -25 15.5 -42.5t54.5 -42.5q55 -33 83 -65t28 -82
q0 -59 -37.5 -95t-96.5 -45l-30 -39q60 -18 63 -75q1 -45 -30 -70.5t-82 -25.5q-45 0 -66 14q-3 1 -2 7l8 42q0 6 4 2q28 -13 59 -13q21 0 34 10t12 28q-2 36 -78 45q-2 2 -0.5 10t3.5 10l43 54q-67 7 -111 41q-4 3 -2 10z" />
    <glyph glyph-name="Scaron" unicode="&#x160;" horiz-adv-x="458" 
d="M3 59l13 63q0 6 6 2q74 -66 166 -66q63 0 93 29.5t30 77.5q0 42 -24 72.5t-74 65.5q-70 47 -103 88t-33 106q0 73 52 126t148 53q95 0 146 -39q4 -3 2 -8l-12 -60q-2 -7 -7 -3q-55 43 -132 43q-58 0 -87 -31.5t-29 -73.5q0 -38 23.5 -65.5t72.5 -61.5q73 -48 107.5 -91.5
t34.5 -112.5q0 -81 -56 -131.5t-155 -50.5q-113 -1 -179 57q-5 4 -3 11zM231 836l55 -71l82 71q5 4 10 4h71q4 0 4 -3t-2 -5l-129 -108q-3 -3 -7 -3h-69q-8 0 -9 4l-83 110q-3 5 4 5h65q5 0 8 -4z" />
    <glyph glyph-name="scaron" unicode="&#x161;" horiz-adv-x="363" 
d="M308 398q-43 30 -102 30q-40 0 -61 -18t-21 -45q0 -25 15.5 -42.5t54.5 -42.5q55 -33 83 -65t28 -82q0 -68 -48 -105t-119 -37q-86 0 -140 42q-4 3 -2 10l11 59q2 6 6 2q59 -49 128 -49q41 0 62 19.5t21 48.5q0 27 -15.5 45.5t-57.5 45.5q-50 31 -76.5 62t-26.5 78
q0 60 44 99t118 39t113 -27q4 -3 3 -9l-11 -56q-3 -5 -7 -2zM220 613q49 67 79 104q4 4 9 4h62q3 0 3.5 -2.5t-1.5 -4.5l-121 -147q-4 -4 -8 -4h-65q-5 0 -6 4l-65 148q-4 6 4 6h59q4 0 7 -5q5 -14 22 -53.5t21 -49.5z" />
    <glyph glyph-name="uni0162" unicode="&#x162;" horiz-adv-x="493" 
d="M540 661l3 -57q0 -6 -6 -6h-199l-105 -593q-1 -5 -6 -5h-5l-34 -46q61 -20 62 -75q1 -45 -30 -70.5t-81 -25.5q-43 0 -67 13q-4 2 -2 7l8 42q0 5 5 3q26 -13 58 -13q21 0 34 10t12 27q-1 37 -78 46q-2 1 -0.5 9.5t3.5 10.5l50 62h-6q-8 0 -6 6l104 592h-187q-7 0 -4 7
l19 57q1 4 6 4h447q5 0 5 -5z" />
    <glyph glyph-name="uni0163" unicode="&#x163;" horiz-adv-x="278" 
d="M191 482h88q6 0 5 -6l-8 -52q-1 -5 -7 -6h-89l-52 -296q-11 -68 41 -68q25 0 50 13q2 1 3.5 -0.5t1.5 -4.5l-9 -46q-1 -6 -7 -10q-23 -12 -56 -14l-29 -38q60 -18 62 -75q1 -45 -29.5 -70.5t-81.5 -25.5q-44 0 -67 14q-3 1 -2 7l8 42q1 4 5 2q26 -13 58 -13q22 0 34.5 10
t11.5 28q0 36 -78 45q-1 1 0 9.5t3 10.5l47 59q-69 25 -49 128l51 293h-61q-6 2 -5 7l10 52q1 5 6 5h62q4 25 22 119q1 4 6 5q38 1 76 15q5 1 5 -4q-2 -8 -26 -135z" />
    <glyph glyph-name="Tcaron" unicode="&#x164;" horiz-adv-x="503" 
d="M151 6l104 592h-187q-6 0 -4 7l19 57q1 4 6 4h447q6 0 6 -5l2 -57q0 -6 -5 -6h-200l-104 -593q-1 -5 -7 -5h-71q-6 0 -6 6zM258 826l55 -71l82 71q5 4 10 4h71q3 0 3.5 -2.5t-1.5 -4.5l-129 -109q-5 -3 -8 -3h-68q-8 0 -9 4l-83 110q-3 5 4 5h64q6 0 9 -4z" />
    <glyph glyph-name="tcaron" unicode="&#x165;" horiz-adv-x="303" 
d="M283 554l37 184q1 7 8 7h55q8 0 5 -7l-43 -184q-1 -7 -8 -7h-49q-6 0 -5 7zM224 62l-9 -46q-1 -6 -7 -10q-26 -15 -75 -15t-75 32.5t-13 101.5l51 293h-61q-6 2 -5 7l10 52q1 5 6 5h62q4 25 22 119q1 4 6 5q38 1 76 15q5 1 5 -4q-2 -8 -26 -135h88q6 0 5 -6l-8 -52
q-1 -5 -7 -6h-89l-52 -296q-11 -68 41 -68q25 0 50 13q2 1 3.5 -0.5t1.5 -4.5z" />
    <glyph glyph-name="Tbar" unicode="&#x166;" horiz-adv-x="503" 
d="M542 661l2 -57q0 -6 -5 -6h-200l-42 -239h100q4 0 3 -4l-9 -51q-1 -5 -5 -5h-99l-52 -294q-1 -5 -7 -5h-71q-6 0 -6 6l51 293h-92q-5 0 -4 5l9 50q1 5 6 5h92l42 239h-187q-6 0 -4 7l19 57q1 4 6 4h447q6 0 6 -5z" />
    <glyph glyph-name="tbar" unicode="&#x167;" horiz-adv-x="278" 
d="M191 482h88q6 0 5 -6l-8 -52q-1 -5 -7 -6h-89l-24 -137h77q5 0 4 -5l-8 -44q-1 -6 -6 -6h-77l-18 -104q-11 -68 41 -68q25 0 50 13q2 1 3.5 -0.5t1.5 -4.5l-9 -46q-1 -6 -7 -10q-26 -15 -75 -15t-75 32.5t-13 101.5l18 101h-56q-4 0 -3 6l7 44q1 5 6 5h55l24 137h-61
q-6 2 -5 7l10 52q1 5 6 5h62q4 25 22 119q1 4 6 5q38 1 76 15q5 1 5 -4q-2 -8 -26 -135z" />
    <glyph glyph-name="Utilde" unicode="&#x168;" horiz-adv-x="600" 
d="M221 661l-76 -437q-14 -82 20 -124.5t101 -42.5q64 0 106.5 35.5t60.5 135.5l77 433q2 5 6 5h72q6 0 6 -7l-78 -429q-22 -127 -87 -183t-170 -56q-102 0 -160 60.5t-38 177.5l77 432q1 5 6 5h72q7 0 5 -5zM280 719h-49q-6 0 -6 5q4 51 30 79t64 28q33 0 70 -25.5
t50 -25.5q28 0 34 43q1 5 6 5h50q5 0 4 -5q-10 -106 -90 -106q-30 0 -66.5 25.5t-53.5 25.5q-31 0 -38 -44q0 -5 -5 -5z" />
    <glyph glyph-name="utilde" unicode="&#x169;" horiz-adv-x="490" 
d="M456 477l-65 -371q-8 -42 -11 -100q0 -6 -5 -6h-65q-8 0 -9 6q0 30 4 54q-60 -69 -149 -69q-59 0 -93.5 40t-18.5 133l56 313q0 5 7 5h72q5 0 5 -6l-56 -319q-19 -99 59 -99q63 0 112 62q14 16 15 29l59 329q0 4 6 4h72q5 0 5 -5zM191 585h-53q-5 0 -5 6q4 53 31 80
t68 27q32 0 73 -25.5t54 -25.5q31 0 36 44q1 5 6 5h52q4 0 4 -5q-9 -108 -91 -108q-30 0 -71 25.5t-59 25.5q-31 0 -40 -44q0 -5 -5 -5z" />
    <glyph glyph-name="Umacron" unicode="&#x16a;" horiz-adv-x="600" 
d="M221 661l-76 -437q-14 -82 20 -124.5t101 -42.5q64 0 106.5 35.5t60.5 135.5l77 433q2 5 6 5h72q6 0 6 -7l-78 -429q-22 -127 -87 -183t-170 -56q-102 0 -160 60.5t-38 177.5l77 432q1 5 6 5h72q7 0 5 -5zM262 804h245q5 0 3 -6l-9 -55q-1 -6 -7 -6h-242q-7 0 -6 6l10 55
q1 6 6 6z" />
    <glyph glyph-name="umacron" unicode="&#x16b;" horiz-adv-x="490" 
d="M456 477l-65 -371q-8 -42 -11 -100q0 -6 -5 -6h-65q-8 0 -9 6q0 30 4 54q-60 -69 -149 -69q-59 0 -93.5 40t-18.5 133l56 313q0 5 7 5h72q5 0 5 -6l-56 -319q-19 -99 59 -99q63 0 112 62q14 16 15 29l59 329q0 4 6 4h72q5 0 5 -5zM176 667h254q4 0 4 -6l-10 -53
q-2 -5 -6 -5h-253q-5 0 -4 6l10 54q0 4 5 4z" />
    <glyph glyph-name="Ubreve" unicode="&#x16c;" horiz-adv-x="600" 
d="M221 661l-76 -437q-14 -82 20 -124.5t101 -42.5q64 0 106.5 35.5t60.5 135.5l77 433q2 5 6 5h72q6 0 6 -7l-78 -429q-22 -127 -87 -183t-170 -56q-102 0 -160 60.5t-38 177.5l77 432q1 5 6 5h72q7 0 5 -5zM240 831h59q5 0 6 -6q14 -55 70 -55q58 0 82 56q2 5 6 5h58
q5 0 5 -7q-13 -55 -56 -88t-100 -33q-58 0 -94.5 31.5t-40.5 90.5q-2 6 5 6z" />
    <glyph glyph-name="ubreve" unicode="&#x16d;" horiz-adv-x="490" 
d="M456 477l-65 -371q-8 -42 -11 -100q0 -6 -5 -6h-65q-8 0 -9 6q0 30 4 54q-60 -69 -149 -69q-59 0 -93.5 40t-18.5 133l56 313q0 5 7 5h72q5 0 5 -6l-56 -319q-19 -99 59 -99q63 0 112 62q14 16 15 29l59 329q0 4 6 4h72q5 0 5 -5zM165 699h59q3 0 4 -3q10 -57 70 -57
q57 0 84 57q2 3 6 3h59q5 0 3 -4q-35 -120 -159 -120q-59 0 -93.5 32t-37.5 88q0 4 5 4z" />
    <glyph glyph-name="Uring" unicode="&#x16e;" horiz-adv-x="600" 
d="M221 661l-76 -437q-14 -82 20 -124.5t101 -42.5q64 0 106.5 35.5t60.5 135.5l77 433q2 5 6 5h72q6 0 6 -7l-78 -429q-22 -127 -87 -183t-170 -56q-102 0 -160 60.5t-38 177.5l77 432q1 5 6 5h72q7 0 5 -5zM271 775q4 38 33 61.5t73 23.5q45 0 71 -24.5t23 -61.5
q-3 -38 -32.5 -61t-73.5 -23t-70 23.5t-24 61.5zM321 775q-1 -19 12 -31t35 -12t37 11t16 31q1 21 -12 33t-35 12q-23 0 -37.5 -12t-15.5 -32z" />
    <glyph glyph-name="uring" unicode="&#x16f;" horiz-adv-x="490" 
d="M456 477l-65 -371q-8 -42 -11 -100q0 -6 -5 -6h-65q-8 0 -9 6q0 30 4 54q-60 -69 -149 -69q-59 0 -93.5 40t-18.5 133l56 313q0 5 7 5h72q5 0 5 -6l-56 -319q-19 -99 59 -99q63 0 112 62q14 16 15 29l59 329q0 4 6 4h72q5 0 5 -5zM199 643q2 40 31 64.5t72 24.5t69 -25
t23 -65q-3 -41 -32 -65.5t-73 -24.5q-43 0 -68 24.5t-22 66.5zM247 643q-2 -22 11 -35.5t34 -13.5q22 0 37 12.5t17 35.5q1 22 -12.5 36t-34.5 14q-22 0 -36.5 -13.5t-15.5 -35.5z" />
    <glyph glyph-name="Uhungarumlaut" unicode="&#x170;" horiz-adv-x="600" 
d="M221 661l-76 -437q-14 -82 20 -124.5t101 -42.5q64 0 106.5 35.5t60.5 135.5l77 433q2 5 6 5h72q6 0 6 -7l-78 -429q-22 -127 -87 -183t-170 -56q-102 0 -160 60.5t-38 177.5l77 432q1 5 6 5h72q7 0 5 -5zM239 719l110 109q4 5 9 5h74q8 0 3 -7l-121 -108q-4 -5 -9 -5
h-63q-8 0 -3 6zM402 720l110 107q3 6 9 6h75q9 0 3 -8l-121 -107q-3 -4 -9 -4h-63q-7 0 -4 6z" />
    <glyph glyph-name="uhungarumlaut" unicode="&#x171;" horiz-adv-x="490" 
d="M456 477l-65 -371q-8 -42 -11 -100q0 -6 -5 -6h-65q-8 0 -9 6q0 30 4 54q-60 -69 -149 -69q-59 0 -93.5 40t-18.5 133l56 313q0 5 7 5h72q5 0 5 -6l-56 -319q-19 -99 59 -99q63 0 112 62q14 16 15 29l59 329q0 4 6 4h72q5 0 5 -5zM171 569l122 139q3 4 8 4h70q5 0 3 -6
l-133 -140q-4 -5 -11 -5h-55q-10 0 -4 8zM327 568l123 140q2 4 8 4h71q6 0 2 -6l-132 -140q-5 -5 -10 -5h-58q-8 0 -4 7z" />
    <glyph glyph-name="Uogonek" unicode="&#x172;" horiz-adv-x="600" 
d="M517 666h72q7 0 6 -7l-77 -429q-34 -183 -161 -225q-103 -54 -101 -112q0 -19 14 -31t40 -12q30 0 56 11q3 1 4.5 -0.5t0.5 -3.5l-9 -52q-1 -7 -7 -10q-27 -14 -81 -14q-42 0 -71 21t-30 64q-3 69 78 125q-99 2 -153.5 63t-34.5 175l76 432q1 5 6 5h73q5 0 5 -5l-77 -437
q-14 -82 20 -124.5t101 -42.5q64 0 106.5 35.5t60.5 135.5l78 433q0 5 5 5z" />
    <glyph glyph-name="uogonek" unicode="&#x173;" horiz-adv-x="490" 
d="M156 -9q-59 0 -93.5 40t-18.5 133l56 313q0 5 7 5h72q5 0 5 -6l-56 -319q-19 -99 59 -99q63 0 112 62q14 16 15 29l59 329q0 4 6 4h72q5 0 5 -5l-65 -371q-8 -42 -11 -100q0 -5 -4 -8q-86 -58 -84 -107q2 -41 52 -41q22 0 50 10q6 2 6 -1v-3l-9 -50q0 -8 -7 -11
q-27 -14 -74 -14q-43 0 -71 22t-29 62q-3 68 91 144q-2 19 3 54q-61 -72 -148 -72z" />
    <glyph glyph-name="Wcircumflex" unicode="&#x174;" horiz-adv-x="822" 
d="M525 661q25 -387 25 -569h1q49 142 221 569q1 5 6 5h78q5 0 3 -6l-275 -654q-2 -6 -7 -6h-82q-8 0 -9 7q-21 318 -26 575l-1 -1q-53 -169 -229 -576q-2 -5 -6 -5h-84q-7 0 -7 5l-41 656q0 5 5 5h75q5 0 5 -5q27 -494 27 -569h1q51 149 224 569q1 5 6 5h85q5 0 5 -5z
M550 712l-55 71l-82 -71q-5 -4 -10 -4h-71q-4 0 -4 3t2 5l130 108q4 4 7 4h69q7 0 9 -5l82 -110q3 -5 -4 -5h-65q-5 0 -8 4z" />
    <glyph glyph-name="wcircumflex" unicode="&#x175;" horiz-adv-x="686" 
d="M464 0h-80q-7 0 -7 5q-26 349 -25 392q-6 -16 -28 -65.5t-65.5 -146.5t-79.5 -179q-3 -6 -8 -6h-78q-8 0 -8 6l-39 470q-2 6 5 6h74q5 0 6 -4q23 -331 23 -395h2q33 89 171 394q1 5 7 5h72q6 0 6 -6q24 -369 24 -394h2q23 70 168 396q2 4 8 4h72q8 0 4 -7l-220 -470
q-2 -5 -6 -5zM400 664q-34 -50 -83 -104q-4 -4 -9 -4h-62q-7 0 -2 7l125 147q4 4 8 4h65q4 0 7 -4l60 -148q4 -6 -4 -6h-58q-5 0 -8 5q-6 14 -20.5 53.5t-18.5 49.5z" />
    <glyph glyph-name="Ycircumflex" unicode="&#x176;" horiz-adv-x="510" 
d="M238 0h-71q-9 0 -7 7l43 241q2 26 -2 36l-127 377q-2 5 3 5h77q5 0 6 -4q90 -278 99 -334q50 89 216 334q3 4 7 4h78q7 0 3 -6l-262 -379q-8 -11 -16 -39l-41 -235q-3 -7 -6 -7zM396 720l-54 71l-83 -72q-8 -4 -10 -4h-71q-3 0 -3.5 3t1.5 5l130 109q4 3 8 3h68q7 0 9 -4
l82 -111q3 -5 -4 -5h-64q-6 0 -9 5z" />
    <glyph glyph-name="ycircumflex" unicode="&#x177;" horiz-adv-x="439" 
d="M40 482h78q5 0 6 -4q46 -251 56 -360h2q77 142 178 359q2 5 8 5h73q7 0 5 -6q-94 -208 -226 -429q-85 -143 -180 -268q-3 -4 -9 -4h-82q-4 0 -4.5 2.5t1.5 4.5q37 46 89.5 121.5t81.5 122.5q4 7 3 13q-2 13 -21 110t-38 196t-25 132q0 5 4 5zM271 667q-34 -47 -83 -104
q-6 -4 -9 -4h-63q-7 0 -2 7l126 147q4 4 7 4h65q4 0 7 -4l61 -148q2 -6 -4 -6h-59q-5 0 -8 5q-18 45 -38 103z" />
    <glyph glyph-name="Ydieresis" unicode="&#x178;" horiz-adv-x="510" 
d="M238 0h-71q-9 0 -7 7l43 241q2 26 -2 36l-127 377q-2 5 3 5h77q5 0 6 -4q90 -278 99 -334q50 89 216 334q3 4 7 4h78q7 0 3 -6l-262 -379q-8 -11 -16 -39l-41 -235q-3 -7 -6 -7zM230 713q-22 0 -34.5 13t-11.5 34q2 20 16.5 33.5t36.5 13.5t35 -13.5t11 -33.5
q-1 -21 -16 -34t-37 -13zM418 714q-21 0 -33.5 12.5t-11.5 33.5q2 20 16.5 33.5t36.5 13.5q21 0 34 -13.5t11 -34.5q-1 -21 -15.5 -33t-37.5 -12z" />
    <glyph glyph-name="Zacute" unicode="&#x179;" horiz-adv-x="507" 
d="M422 0h-438q-5 0 -5 6l7 35q3 7 6 10q45 60 193.5 256.5t218.5 291.5h-316q-6 0 -4 6l19 56q1 5 7 5h407q7 0 5 -5l-7 -38q-1 -5 -7 -12q-201 -274 -408 -544h346q5 0 3 -6l-21 -56q-1 -5 -6 -5zM251 732l145 109q4 4 9 4h93q3 0 4 -2.5t-1 -4.5l-157 -107q-4 -5 -11 -5
h-78q-8 0 -4 6z" />
    <glyph glyph-name="zacute" unicode="&#x17a;" horiz-adv-x="388" 
d="M315 0h-333q-5 0 -4 4l7 35q1 2 4 9q45 59 109.5 142.5t117.5 151t61 78.5q-20 -2 -97 -2h-127q-5 0 -4 6l15 55q1 3 6 3h312q4 0 4 -4l-7 -37q-1 -6 -6 -11q-108 -155 -283 -368q28 2 113 2h131q6 0 4 -5l-19 -55q0 -4 -4 -4zM173 568l148 147q4 5 10 5h84q4 0 4.5 -2.5
t-1.5 -4.5l-160 -146q-5 -5 -11 -5h-72q-2 0 -3 2t1 4z" />
    <glyph glyph-name="Zdotaccent" unicode="&#x17b;" horiz-adv-x="507" 
d="M422 0h-438q-5 0 -5 6l7 35q3 7 6 10q45 60 193.5 256.5t218.5 291.5h-316q-6 0 -4 6l19 56q1 5 7 5h407q7 0 5 -5l-7 -38q-1 -5 -7 -12q-201 -274 -408 -544h346q5 0 3 -6l-21 -56q-1 -5 -6 -5zM311 728q-23 0 -36 13t-11 34t17 34t38 13q24 0 37 -13t11 -34t-17 -34
t-39 -13z" />
    <glyph glyph-name="zdotaccent" unicode="&#x17c;" horiz-adv-x="388" 
d="M315 0h-333q-5 0 -4 4l7 35q1 2 4 9q45 59 109.5 142.5t117.5 151t61 78.5q-20 -2 -97 -2h-127q-5 0 -4 6l15 55q1 3 6 3h312q4 0 4 -4l-7 -37q-1 -6 -6 -11q-108 -155 -283 -368q28 2 113 2h131q6 0 4 -5l-19 -55q0 -4 -4 -4zM225 589q-20 0 -32 13.5t-10 33.5
q2 22 16.5 34.5t35.5 12.5t32.5 -13t8.5 -34q-2 -21 -15.5 -34t-35.5 -13z" />
    <glyph glyph-name="Zcaron" unicode="&#x17d;" horiz-adv-x="507" 
d="M422 0h-438q-5 0 -5 6l7 35q3 7 6 10q45 60 193.5 256.5t218.5 291.5h-316q-6 0 -4 6l19 56q1 5 7 5h407q7 0 5 -5l-7 -38q-1 -5 -7 -12q-201 -274 -408 -544h346q5 0 3 -6l-21 -56q-1 -5 -6 -5zM263 834l55 -71l82 71q5 4 10 4h71q8 0 3 -7l-130 -109q-3 -3 -7 -3h-69
q-7 0 -8 4l-84 110q-3 5 4 5h65q5 0 8 -4z" />
    <glyph glyph-name="zcaron" unicode="&#x17e;" horiz-adv-x="388" 
d="M315 0h-333q-5 0 -4 4l7 35q1 2 4 9q45 59 109.5 142.5t117.5 151t61 78.5q-20 -2 -97 -2h-127q-5 0 -4 6l15 55q1 3 6 3h312q4 0 4 -4l-7 -37q-1 -6 -6 -11q-108 -155 -283 -368q28 2 113 2h131q6 0 4 -5l-19 -55q0 -4 -4 -4zM235 613q49 67 79 104q4 4 9 4h62
q3 0 3.5 -2.5t-1.5 -4.5l-121 -147q-4 -4 -8 -4h-65q-5 0 -6 4l-65 148q-4 6 4 6h59q5 0 7 -5q5 -14 22 -53.5t21 -49.5z" />
    <glyph glyph-name="longs" unicode="&#x17f;" horiz-adv-x="228" 
d="M48 482h60l11 56q21 105 65 148.5t112 43.5q34 0 52 -9q6 -1 4 -7l-11 -55q-2 -6 -6 -5q-18 6 -36 6q-35 0 -59.5 -25.5t-38.5 -100.5l-20 -116l-101 -577q-2 -5 -9 -7l-72 -4q-6 0 -3 6l102 582h-60q-6 2 -5 7l10 53q1 4 5 4z" />
    <glyph glyph-name="uni018F" unicode="&#x18f;" horiz-adv-x="623" 
d="M54 331q9 5 135 5h297q7 39 7 79q0 84 -44.5 137t-131.5 53q-99 0 -191 -54q-6 -5 -6 3l14 64q0 6 5 8q90 50 197 50q110 0 175.5 -72t65.5 -198q0 -62 -12 -121t-37.5 -112.5t-62 -93.5t-88.5 -64t-114 -24q-103 0 -165.5 61t-62.5 168q0 36 6.5 72t12.5 39zM477 271
h-261q-82 0 -86 -3q-5 -18 -5 -50q-2 -72 34 -117.5t110 -45.5q79 0 133.5 57.5t74.5 158.5z" />
    <glyph glyph-name="florin" unicode="&#x192;" horiz-adv-x="496" 
d="M106 348l10 48q-1 7 5 7h86l16 76q41 215 182 215q47 0 67 -13q4 -2 4 -8l-9 -54q-2 -7 -7 -4q-22 11 -52 11q-42 0 -65 -33.5t-36 -99.5l-18 -90h107q5 0 5 -5l-10 -49q-1 -6 -6 -6h-108l-48 -258q-22 -105 -61 -155.5t-113 -50.5q-48 2 -76 20q-4 3 -4 10l10 57
q2 6 7 4q31 -20 61 -20q40 0 61 31.5t33 103.5l49 258h-85q-6 0 -5 5z" />
    <glyph glyph-name="uni019F" unicode="&#x19f;" horiz-adv-x="632" 
d="M374 676q102 0 162 -72.5t60 -193.5q0 -111 -36 -204.5t-109.5 -154t-172.5 -60.5q-104 0 -164.5 68.5t-60.5 190.5q0 107 37 202.5t112 159.5t172 64zM151 373h359q2 17 2 50q0 77 -36 132t-110 55q-76 0 -133.5 -66.5t-81.5 -170.5zM501 305h-361q-3 -30 -3 -62
q1 -49 14 -89t48 -69t87 -29q82 0 138 70.5t77 178.5z" />
    <glyph glyph-name="Ohorn" unicode="&#x1a0;" horiz-adv-x="635" 
d="M550 733h64q6 0 9 -7q5 -15 7 -44q2 -38 -19.5 -65t-59.5 -34q45 -70 45 -173q0 -111 -36 -204.5t-109.5 -154t-172.5 -60.5q-104 0 -164.5 68.5t-60.5 190.5q0 107 37 202.5t112 159.5t172 64q80 0 135 -46q46 2 44 52q0 19 -7 45q-2 6 4 6zM286 56q69 0 121.5 54.5
t77.5 134.5t25 167q0 82 -34.5 140t-110.5 58q-97 0 -161.5 -109.5t-64.5 -251.5q0 -50 13 -91.5t47.5 -71.5t86.5 -30z" />
    <glyph glyph-name="ohorn" unicode="&#x1a1;" horiz-adv-x="502" 
d="M420 560h63q7 0 10 -7q5 -16 7 -44q2 -38 -18.5 -65t-57.5 -34q28 -50 28 -118q0 -76 -27 -143.5t-83 -112.5t-131 -45q-80 0 -128.5 52t-48.5 145q0 120 67.5 212t176.5 92q63 0 107 -35q40 5 38 51q0 20 -7 45q-2 7 4 7zM217 52q62 0 106 75t43 175q0 53 -22 90.5
t-72 37.5q-65 0 -109 -75t-44 -173q0 -55 23.5 -92.5t74.5 -37.5z" />
    <glyph glyph-name="Uhorn" unicode="&#x1af;" horiz-adv-x="597" 
d="M142 666h73q5 0 5 -5l-77 -439q-14 -82 20 -123.5t102 -41.5q63 0 105.5 34.5t60.5 133.5l78 435q0 6 5 6h26q86 0 72 98q0 6 5 6h65q6 0 7 -6q10 -64 -18 -106.5t-89 -49.5l-67 -382q-23 -127 -88 -181t-169 -54q-102 0 -160.5 59.5t-37.5 174.5l76 436q1 5 6 5z" />
    <glyph glyph-name="uhorn" unicode="&#x1b0;" horiz-adv-x="490" 
d="M375 0h-66q-7 0 -8 6q-2 17 4 54q-65 -69 -154 -69q-55 0 -89 40t-18 132l55 314q1 5 7 5h73q5 0 5 -6l-57 -319q-17 -99 60 -99q66 0 124 77l61 341q0 6 7 6h23q26 0 42 9.5t21.5 23.5t7.5 31.5t-1 34.5q1 5 6 5h65q5 0 5 -4q6 -58 -17.5 -99.5t-82.5 -49.5l-58 -327
q-10 -63 -10 -100q0 -6 -5 -6z" />
    <glyph glyph-name="uni01C4" unicode="&#x1c4;" horiz-adv-x="1118" 
d="M27 8l115 652q0 3 4 5q27 2 131 2q133 0 213 -75.5t80 -222.5q0 -189 -123 -292q-97 -80 -270 -80q-48 0 -144 3q-6 0 -6 8zM215 600l-94 -535q1 0 23.5 -1t48.5 -1q123 0 193 61q98 86 98 250q0 104 -51.5 165.5t-153.5 61.5q-54 0 -64 -1zM1032 0h-438q-4 0 -4 6l7 35
q1 3 5 10q45 61 194 257.5t219 290.5h-316q-7 0 -4 6l19 56q1 5 6 5h408q5 0 5 -5l-8 -38q-1 -5 -7 -12q-201 -274 -408 -544h346q7 0 3 -6l-21 -56q-1 -5 -6 -5zM874 834l55 -71l82 71q5 4 10 4h71q3 0 3.5 -2.5t-1.5 -4.5l-129 -109q-3 -3 -8 -3h-69q-7 0 -8 4l-83 110
q-3 5 3 5h65q6 0 9 -4z" />
    <glyph glyph-name="uni01C5" unicode="&#x1c5;" horiz-adv-x="999" 
d="M27 8l115 652q0 3 4 5q27 2 131 2q133 0 213 -75.5t80 -222.5q0 -189 -123 -292q-97 -80 -270 -80q-48 0 -144 3q-6 0 -6 8zM215 600l-94 -535q1 0 23.5 -1t48.5 -1q123 0 193 61q98 86 98 250q0 104 -51.5 165.5t-153.5 61.5q-54 0 -64 -1zM925 0h-333q-4 0 -4 4l7 35
q4 8 5 9q45 59 109.5 142.5t117.5 151t61 78.5q-21 -2 -98 -2h-127q-5 0 -4 6l15 55q2 3 6 3h312q5 0 5 -4l-8 -37q-1 -5 -5 -11q-66 -93 -156.5 -209t-127.5 -159q28 2 113 2h132q5 0 3 -5l-18 -55q-1 -4 -5 -4zM845 613q49 67 79 104q6 4 9 4h62q3 0 4 -2.5t-1 -4.5
l-122 -147q-4 -4 -8 -4h-65q-5 0 -6 4l-65 148q-2 6 4 6h59q5 0 8 -5q5 -16 22 -55t20 -48z" />
    <glyph glyph-name="uni01C6" unicode="&#x1c6;" horiz-adv-x="886" 
d="M505 720l-121 -686q-2 -7 -6 -9q-71 -34 -153 -34q-86 0 -139 51.5t-53 150.5q0 121 82 210t202 89q36 0 62 -8l41 230q0 5 5 6q54 6 76 6q4 0 4 -6zM305 68l63 352q-20 10 -60 10q-77 0 -133 -69.5t-56 -165.5q0 -63 28.5 -102t90.5 -39q39 0 67 14zM812 0h-333
q-4 0 -4 4l7 35q4 8 5 9q45 59 109.5 142.5t117.5 151t61 78.5q-20 -2 -98 -2h-127q-6 0 -4 6l16 55q1 3 6 3h312q4 0 4 -4l-8 -37q-1 -5 -5 -11q-66 -93 -156.5 -209t-127.5 -159q28 2 114 2h131q5 0 3 -5l-18 -55q-1 -4 -5 -4zM733 613q35 52 78 104q6 4 9 4h63q5 -1 2 -7
l-122 -147q-4 -4 -8 -4h-65q-5 0 -6 4l-64 148q-4 6 3 6h59q6 0 8 -5q6 -17 24 -58.5t19 -44.5z" />
    <glyph glyph-name="uni01C7" unicode="&#x1c7;" horiz-adv-x="780" 
d="M226 660l-104 -593h277q7 0 3 -6l-19 -56q-3 -5 -7 -5h-343q-7 0 -6 6l115 655q2 5 6 5h73q5 0 5 -6zM692 666h72q6 0 6 -6l-88 -500q-14 -76 -29 -107q-45 -98 -156 -98q-42 0 -70 13q-4 2 -3 8l12 57q2 5 6 4q22 -11 51 -11q47 0 69 29.5t34 97.5l90 507q0 6 6 6z" />
    <glyph glyph-name="uni01C8" unicode="&#x1c8;" horiz-adv-x="683" 
d="M226 660l-104 -593h277q7 0 3 -6l-19 -56q-3 -5 -7 -5h-343q-7 0 -6 6l115 655q2 5 6 5h73q5 0 5 -6zM564 476q1 6 7 6h71q6 0 6 -6l-87 -491q-15 -86 -31.5 -125t-40.5 -62q-36 -32 -99 -32q-17 0 -25 2q-5 1 -4 7l10 54q1 5 6 5q42 1 61.5 23.5t32.5 96.5zM626 589
q-20 0 -32 13.5t-10 33.5q3 22 17 35t36 13q21 0 32 -13.5t9 -34.5t-16 -34t-36 -13z" />
    <glyph glyph-name="uni01C9" unicode="&#x1c9;" horiz-adv-x="455" 
d="M176 52l-9 -44q-1 -7 -6 -9q-18 -8 -53 -8q-93 0 -74 111l108 611q1 5 6 6q10 1 40.5 3.5t33.5 2.5q4 0 4 -6l-108 -625q-5 -24 2.5 -32.5t22.5 -8.5q17 0 30 4q2 1 3 -0.5t0 -4.5zM335 476q1 6 7 6h72q6 0 5 -6l-86 -491q-15 -86 -31.5 -125t-41.5 -62q-36 -32 -98 -32
q-18 0 -26 2q-5 2 -4 7l10 54q1 5 6 5q43 1 62.5 23.5t32.5 96.5zM398 589q-21 0 -32.5 13.5t-9.5 33.5q2 22 16.5 35t35.5 13t32 -13.5t9 -34.5t-16 -34t-35 -13z" />
    <glyph glyph-name="uni01CA" unicode="&#x1ca;" horiz-adv-x="925" 
d="M139 661q1 5 6 5h94q3 0 6 -4q167 -501 179 -557h2q4 57 90 556q1 5 6 5h71q5 0 4 -6l-115 -654q-1 -6 -7 -6h-87q-8 0 -10 6q-71 207 -121 370t-57 203h-1q-4 -62 -95 -573q0 -6 -5 -6h-69q-6 0 -6 6zM836 666h73q6 0 5 -6l-88 -500q-11 -68 -28 -107q-45 -98 -156 -98
q-42 0 -70 13q-5 2 -3 8l12 57q2 5 6 4q22 -11 51 -11q47 0 69 29.5t34 97.5l90 507q0 6 5 6z" />
    <glyph glyph-name="uni01CB" unicode="&#x1cb;" horiz-adv-x="828" 
d="M139 661q1 5 6 5h94q3 0 6 -4q167 -501 179 -557h2q4 57 90 556q1 5 6 5h71q5 0 4 -6l-115 -654q-1 -6 -7 -6h-87q-8 0 -10 6q-71 207 -121 370t-57 203h-1q-4 -62 -95 -573q0 -6 -5 -6h-69q-6 0 -6 6zM708 476q1 6 8 6h71q6 0 6 -6l-87 -491q-15 -86 -31.5 -125
t-40.5 -62q-37 -32 -99 -32q-18 0 -26 2q-4 1 -3 7l10 54q0 5 6 5q42 1 61.5 23.5t32.5 96.5zM771 589q-20 0 -32 13.5t-10 33.5q2 22 16.5 35t35.5 13t32.5 -13.5t8.5 -34.5q-2 -21 -15.5 -34t-35.5 -13z" />
    <glyph glyph-name="uni01CC" unicode="&#x1cc;" horiz-adv-x="722" 
d="M18 5l64 364q12 66 16 108q0 5 5 5h67q5 0 5 -4q1 -8 -6 -65q72 79 161 79q55 0 89 -41.5t17 -143.5l-54 -302q-2 -5 -6 -5h-73q-7 0 -5 6l56 312q17 106 -58 106q-71 0 -124 -76q-13 -22 -15 -36l-55 -308q-1 -4 -6 -4h-72q-6 0 -6 5zM602 476q1 6 7 6h72q5 0 5 -6
l-86 -491q-15 -86 -31.5 -125t-41.5 -62q-36 -32 -98 -32q-18 0 -26 2q-5 2 -4 7l10 54q1 5 6 5q43 1 62.5 23.5t32.5 96.5zM665 589q-21 0 -33 13.5t-9 33.5q2 22 16.5 35t35.5 13t32 -13.5t9 -34.5t-16 -34t-35 -13z" />
    <glyph glyph-name="uni01CD" unicode="&#x1cd;" horiz-adv-x="577" 
d="M384 217h-218l-104 -212q-2 -5 -7 -5h-73q-7 0 -4 6l306 616q5 8 12 40q0 4 4 4h98q3 0 4 -4l95 -656q0 -6 -5 -6h-70q-7 0 -8 6zM196 284h181q-33 211 -39 310h-1q-19 -57 -141 -310zM308 823l55 -71l82 71q5 4 10 4h71q8 0 3 -7l-130 -109q-5 -3 -7 -3h-69q-7 0 -8 4
l-83 110q-5 5 3 5h65q5 0 8 -4z" />
    <glyph glyph-name="uni01CE" unicode="&#x1ce;" horiz-adv-x="490" 
d="M455 472l-78 -442q-1 -5 -7 -7q-66 -32 -147 -32q-86 0 -138 50t-52 146q0 122 87 213.5t225 91.5q63 0 108 -15q2 0 2 -5zM299 64l64 362q-12 4 -35 4q-88 0 -148.5 -69t-61.5 -170q0 -63 29.5 -101t90.5 -38q36 0 61 12zM313 613q49 67 79 104q4 4 9 4h62q3 0 3.5 -2.5
t-1.5 -4.5l-121 -147q-4 -4 -8 -4h-65q-5 0 -6 4l-65 148q-4 6 4 6h59q5 0 7 -5q5 -14 22 -53.5t21 -49.5z" />
    <glyph glyph-name="uni01CF" unicode="&#x1cf;" horiz-adv-x="236" 
d="M226 660l-116 -654q0 -6 -5 -6h-72q-7 0 -6 6l115 655q1 5 6 5h72q6 0 6 -6zM139 823l56 -71l82 71q4 4 10 4h71q3 0 3.5 -2.5t-1.5 -4.5l-129 -109q-5 -3 -8 -3h-69q-7 0 -8 4l-83 110q-3 5 3 5h65q7 0 8 -4z" />
    <glyph glyph-name="uni01D0" unicode="&#x1d0;" horiz-adv-x="221" 
d="M18 6l83 471q1 5 7 5h73q7 0 5 -6l-84 -471q-1 -5 -6 -5h-72q-6 0 -6 6zM162 613q49 67 79 104q4 4 9 4h62q3 0 3.5 -2.5t-1.5 -4.5l-121 -147q-4 -4 -8 -4h-65q-5 0 -6 4l-65 148q-4 6 4 6h59q4 0 7 -5q5 -14 22 -53.5t21 -49.5z" />
    <glyph glyph-name="uni01D1" unicode="&#x1d1;" horiz-adv-x="635" 
d="M374 676q102 0 162 -72.5t60 -193.5q0 -111 -36 -204.5t-109.5 -154t-172.5 -60.5q-104 0 -164.5 68.5t-60.5 190.5q0 107 37 202.5t112 159.5t172 64zM365 610q-97 0 -161.5 -109.5t-64.5 -251.5q0 -50 13 -91.5t47.5 -71.5t86.5 -30q69 0 121.5 54.5t77.5 134.5t25 167
q0 82 -34.5 140t-110.5 58zM334 838l55 -72l82 72q5 4 10 4h71q4 0 4 -3t-2 -5l-129 -108q-4 -4 -7 -4h-69q-7 0 -9 5l-83 110q-3 5 4 5h65q5 0 8 -4z" />
    <glyph glyph-name="uni01D2" unicode="&#x1d2;" horiz-adv-x="502" 
d="M278 492q78 0 126 -54t48 -146q0 -76 -27 -143.5t-83 -112.5t-131 -45q-80 0 -128.5 52t-48.5 145q0 120 67.5 212t176.5 92zM272 430q-65 0 -109 -75t-44 -173q0 -55 23.5 -92.5t74.5 -37.5q62 0 106 75t43 175q0 53 -22 90.5t-72 37.5zM296 613q49 67 79 104q4 4 9 4
h62q3 0 3.5 -2.5t-1.5 -4.5l-121 -147q-4 -4 -8 -4h-65q-5 0 -6 4l-65 148q-4 6 4 6h59q4 0 7 -5q5 -14 22 -53.5t21 -49.5z" />
    <glyph glyph-name="uni01D3" unicode="&#x1d3;" horiz-adv-x="600" 
d="M221 661l-76 -437q-14 -82 20 -124.5t101 -42.5q64 0 106.5 35.5t60.5 135.5l77 433q2 5 6 5h72q6 0 6 -7l-78 -429q-22 -127 -87 -183t-170 -56q-102 0 -160 60.5t-38 177.5l77 432q1 5 6 5h72q7 0 5 -5zM317 824l55 -71l82 72q8 4 10 4h71q4 0 4 -3t-2 -5l-129 -109
q-4 -3 -7 -3h-69q-6 0 -8 4l-84 111q-3 5 4 5h65q5 0 8 -5z" />
    <glyph glyph-name="uni01D4" unicode="&#x1d4;" horiz-adv-x="490" 
d="M456 477l-65 -371q-8 -42 -11 -100q0 -6 -5 -6h-65q-8 0 -9 6q0 30 4 54q-60 -69 -149 -69q-59 0 -93.5 40t-18.5 133l56 313q0 5 7 5h72q5 0 5 -6l-56 -319q-19 -99 59 -99q63 0 112 62q14 16 15 29l59 329q0 4 6 4h72q5 0 5 -5zM295 613q49 67 79 104q4 4 9 4h62
q3 0 3.5 -2.5t-1.5 -4.5l-121 -147q-4 -4 -8 -4h-65q-5 0 -6 4l-65 148q-4 6 4 6h59q5 0 7 -5q5 -14 22 -53.5t21 -49.5z" />
    <glyph glyph-name="uni01D5" unicode="&#x1d5;" horiz-adv-x="600" 
d="M221 661l-76 -437q-14 -82 20 -124.5t101 -42.5q64 0 106.5 35.5t60.5 135.5l77 433q2 5 6 5h72q6 0 6 -7l-78 -429q-22 -127 -87 -183t-170 -56q-102 0 -160 60.5t-38 177.5l77 432q1 5 6 5h72q7 0 5 -5zM276 880h246q5 0 5 -6l-9 -46q0 -5 -6 -5h-246q-6 0 -4 6l8 45
q0 6 6 6zM275 710q-17 0 -28 10t-10 26t13.5 26t30.5 10q17 0 27 -10.5t9 -26.5q-1 -15 -13 -25t-29 -10zM470 710q-17 0 -28 10t-10 26t13.5 26t29.5 10q18 0 28.5 -10t8.5 -27q-1 -15 -13 -25t-29 -10z" />
    <glyph glyph-name="uni01D6" unicode="&#x1d6;" horiz-adv-x="490" 
d="M456 477l-65 -371q-8 -42 -11 -100q0 -6 -5 -6h-65q-8 0 -9 6q0 30 4 54q-60 -69 -149 -69q-59 0 -93.5 40t-18.5 133l56 313q0 5 7 5h72q5 0 5 -6l-56 -319q-19 -99 59 -99q63 0 112 62q14 16 15 29l59 329q0 4 6 4h72q5 0 5 -5zM203 560q-18 0 -28 10t-9 27
q1 18 13.5 28t30.5 10q17 0 26.5 -10.5t8.5 -27.5t-12.5 -27t-29.5 -10zM370 560q-18 0 -28.5 10t-9.5 27q1 18 13.5 28t30.5 10q17 0 27 -10.5t9 -27.5q-1 -16 -13 -26.5t-29 -10.5zM197 753h235q4 0 3 -6l-8 -48q-1 -6 -6 -6h-235q-6 0 -4 6l8 48q2 6 7 6z" />
    <glyph glyph-name="uni01D7" unicode="&#x1d7;" horiz-adv-x="600" 
d="M221 661l-76 -437q-14 -82 20 -124.5t101 -42.5q64 0 106.5 35.5t60.5 135.5l77 433q2 5 6 5h72q6 0 6 -7l-78 -429q-22 -127 -87 -183t-170 -56q-102 0 -160 60.5t-38 177.5l77 432q1 5 6 5h72q7 0 5 -5zM336 801l74 84q3 4 7 4h75q6 0 3 -5l-80 -85q-4 -4 -9 -4h-67
q-7 0 -3 6zM276 705q-18 0 -28.5 9.5t-10.5 25.5q5 36 44 36q17 0 27 -10t9 -26t-12.5 -25.5t-28.5 -9.5zM470 705q-17 0 -27.5 9.5t-10.5 25.5q5 36 44 36q18 0 28 -10t8 -26q0 -16 -12 -25.5t-30 -9.5z" />
    <glyph glyph-name="uni01D8" unicode="&#x1d8;" horiz-adv-x="490" 
d="M456 477l-65 -371q-8 -42 -11 -100q0 -6 -5 -6h-65q-8 0 -9 6q0 30 4 54q-60 -69 -149 -69q-59 0 -93.5 40t-18.5 133l56 313q0 5 7 5h72q5 0 5 -6l-56 -319q-19 -99 59 -99q63 0 112 62q14 16 15 29l59 329q0 4 6 4h72q5 0 5 -5zM252 670l73 91q3 4 7 4h74q5 0 2 -5
l-79 -91q-4 -4 -8 -4h-65q-6 0 -4 5zM204 560q-18 0 -28.5 10t-9.5 27q1 18 13.5 28t30.5 10q17 0 27 -10.5t9 -27.5t-13 -27t-29 -10zM370 560q-18 0 -28 10t-9 27q1 18 13 28t30 10t28 -10.5t9 -27.5q-2 -17 -13.5 -27t-29.5 -10z" />
    <glyph glyph-name="uni01D9" unicode="&#x1d9;" horiz-adv-x="600" 
d="M221 661l-76 -437q-14 -82 20 -124.5t101 -42.5q64 0 106.5 35.5t60.5 135.5l77 433q2 5 6 5h72q6 0 6 -7l-78 -429q-22 -127 -87 -183t-170 -56q-102 0 -160 60.5t-38 177.5l77 432q1 5 6 5h72q7 0 5 -5zM386 835q49 36 65 47q6 4 10 4h72q7 0 2 -7l-100 -72
q-5 -4 -10 -4h-83q-6 0 -9 4l-78 72q-2 2 -0.5 4.5t4.5 2.5h68q5 0 8 -4q28 -24 51 -47zM275 707q-18 0 -28.5 9.5t-9.5 25.5q1 17 13 26.5t30 9.5t28 -10t8 -26q0 -16 -12 -25.5t-29 -9.5zM469 707q-17 0 -27.5 9.5t-9.5 25.5t13.5 26t29.5 10t27.5 -10t9.5 -26t-13 -25.5
t-30 -9.5z" />
    <glyph glyph-name="uni01DA" unicode="&#x1da;" horiz-adv-x="490" 
d="M456 477l-65 -371q-8 -42 -11 -100q0 -6 -5 -6h-65q-8 0 -9 6q0 30 4 54q-60 -69 -149 -69q-59 0 -93.5 40t-18.5 133l56 313q0 5 7 5h72q5 0 5 -6l-56 -319q-19 -99 59 -99q63 0 112 62q14 16 15 29l59 329q0 4 6 4h72q5 0 5 -5zM300 700q54 47 66 57q3 4 9 4h67
q3 0 3.5 -2.5t-1.5 -4.5l-103 -85q-3 -4 -9 -4h-70q-6 0 -9 4l-76 86q-4 6 4 6h62q4 0 8 -4q13 -15 49 -57zM203 560q-18 0 -28 10t-9 27q1 18 13 28t31 10q17 0 26.5 -10.5t8.5 -27.5t-12.5 -27t-29.5 -10zM370 560q-18 0 -28.5 10t-9.5 27t13.5 27.5t30.5 10.5
q17 0 27.5 -10.5t8.5 -27.5q-1 -17 -12.5 -27t-29.5 -10z" />
    <glyph glyph-name="uni01DB" unicode="&#x1db;" horiz-adv-x="600" 
d="M221 661l-76 -437q-14 -82 20 -124.5t101 -42.5q64 0 106.5 35.5t60.5 135.5l77 433q2 5 6 5h72q6 0 6 -7l-78 -429q-22 -127 -87 -183t-170 -56q-102 0 -160 60.5t-38 177.5l77 432q1 5 6 5h72q7 0 5 -5zM366 878l49 -84q1 -6 -4 -6h-65q-5 0 -9 4l-55 85q-3 6 3 6h73
q4 0 8 -5zM272 702q-18 0 -28.5 9.5t-10.5 25.5q1 17 13.5 27t30.5 10q17 0 27 -10.5t9 -26.5t-12.5 -25.5t-28.5 -9.5zM466 702q-17 0 -27.5 9.5t-10.5 25.5q1 17 13.5 27t30.5 10t28 -10.5t8 -26.5q0 -15 -12 -25t-30 -10z" />
    <glyph glyph-name="uni01DC" unicode="&#x1dc;" horiz-adv-x="490" 
d="M456 477l-65 -371q-8 -42 -11 -100q0 -6 -5 -6h-65q-8 0 -9 6q0 30 4 54q-60 -69 -149 -69q-59 0 -93.5 40t-18.5 133l56 313q0 5 7 5h72q5 0 5 -6l-56 -319q-19 -99 59 -99q63 0 112 62q14 16 15 29l59 329q0 4 6 4h72q5 0 5 -5zM282 762l49 -91q3 -5 -3 -5h-64
q-5 0 -8 3l-56 91q-2 6 4 6h70q4 0 8 -4zM204 560q-18 0 -28.5 10t-9.5 27q1 18 13.5 28t30.5 10q17 0 26.5 -10.5t8.5 -27.5t-12.5 -27t-28.5 -10zM370 560q-18 0 -28 10t-9 27q1 18 13 28t30 10q17 0 27 -10.5t9 -27.5q-1 -16 -13 -26.5t-29 -10.5z" />
    <glyph glyph-name="Gcaron" unicode="&#x1e6;" horiz-adv-x="608" 
d="M460 275l-137 3q-5 0 -5 5l10 52q1 5 7 5h215q6 0 4 -6l-52 -299q-1 -6 -9 -11q-70 -33 -174 -33q-118 0 -191.5 76t-73.5 209q0 167 101.5 283.5t267.5 116.5q109 0 162 -35q4 -2 2 -9l-13 -57q-1 -7 -7 -3q-56 37 -147 37q-128 0 -204 -96t-75 -235q0 -94 48.5 -158
t140.5 -64q60 0 94 17zM354 838l55 -71l82 71q7 5 10 5h72q3 0 3.5 -3t-1.5 -5l-129 -109q-6 -3 -8 -3h-69q-7 0 -8 4l-83 110q-4 6 3 6h65q5 0 8 -5z" />
    <glyph glyph-name="gcaron" unicode="&#x1e7;" horiz-adv-x="494" 
d="M-22 -197l15 59q0 7 6 3q57 -31 120 -31q69 0 108.5 35t57.5 117l8 42q-43 -24 -96 -24q-74 0 -118.5 48t-44.5 136q0 121 81 212.5t211 91.5q73 0 130 -21q5 -2 3 -7q-7 -26 -11 -44l-66 -369q-20 -105 -42 -154q-60 -131 -225 -131q-81 0 -133 29q-4 3 -4 8zM304 91
l60 331q-19 8 -52 8q-81 0 -137.5 -68.5t-56.5 -165.5q1 -56 26 -92t81 -36q45 0 79 23zM314 613q49 67 79 104q4 4 9 4h62q3 0 3.5 -2.5t-1.5 -4.5l-121 -147q-4 -4 -8 -4h-65q-5 0 -6 4l-65 148q-4 6 4 6h59q4 0 7 -5q5 -14 22 -53.5t21 -49.5z" />
    <glyph glyph-name="uni01F1" unicode="&#x1f1;" horiz-adv-x="1118" 
d="M27 8l115 652q0 3 4 5q27 2 131 2q133 0 213 -75.5t80 -222.5q0 -189 -123 -292q-97 -80 -270 -80q-48 0 -144 3q-6 0 -6 8zM215 600l-94 -535q1 0 23.5 -1t48.5 -1q123 0 193 61q98 86 98 250q0 104 -51.5 165.5t-153.5 61.5q-54 0 -64 -1zM1032 0h-438q-4 0 -4 6l7 35
q1 3 5 10q45 61 194 257.5t219 290.5h-316q-7 0 -4 6l19 56q1 5 6 5h408q5 0 5 -5l-8 -38q-1 -5 -7 -12q-201 -274 -408 -544h346q7 0 3 -6l-21 -56q-1 -5 -6 -5z" />
    <glyph glyph-name="uni01F2" unicode="&#x1f2;" horiz-adv-x="999" 
d="M27 8l115 652q0 3 4 5q27 2 131 2q133 0 213 -75.5t80 -222.5q0 -189 -123 -292q-97 -80 -270 -80q-48 0 -144 3q-6 0 -6 8zM215 600l-94 -535q1 0 23.5 -1t48.5 -1q123 0 193 61q98 86 98 250q0 104 -51.5 165.5t-153.5 61.5q-54 0 -64 -1zM925 0h-333q-4 0 -4 4l7 35
q4 8 5 9q45 59 109.5 142.5t117.5 151t61 78.5q-21 -2 -98 -2h-127q-5 0 -4 6l15 55q2 3 6 3h312q5 0 5 -4l-8 -37q-1 -5 -5 -11q-66 -93 -156.5 -209t-127.5 -159q28 2 113 2h132q5 0 3 -5l-18 -55q-1 -4 -5 -4z" />
    <glyph glyph-name="uni01F3" unicode="&#x1f3;" horiz-adv-x="886" 
d="M505 720l-121 -686q-2 -7 -6 -9q-71 -34 -153 -34q-86 0 -139 51.5t-53 150.5q0 121 82 210t202 89q36 0 62 -8l41 230q0 5 5 6q54 6 76 6q4 0 4 -6zM305 68l63 352q-20 10 -60 10q-77 0 -133 -69.5t-56 -165.5q0 -63 28.5 -102t90.5 -39q39 0 67 14zM812 0h-333
q-4 0 -4 4l7 35q4 8 5 9q45 59 109.5 142.5t117.5 151t61 78.5q-20 -2 -98 -2h-127q-6 0 -4 6l16 55q1 3 6 3h312q4 0 4 -4l-8 -37q-1 -5 -5 -11q-66 -93 -156.5 -209t-127.5 -159q28 2 114 2h131q5 0 3 -5l-18 -55q-1 -4 -5 -4z" />
    <glyph glyph-name="Aringacute" unicode="&#x1fa;" horiz-adv-x="575" 
d="M260 747q-1 27 24 44.5t71 17.5q97 0 100 -62q1 -28 -24.5 -45.5t-70.5 -17.5q-97 0 -100 63zM313 747q2 -28 45 -28q21 0 33 7.5t11 20.5q-1 27 -46 27q-20 0 -32 -6.5t-11 -20.5zM314 836l87 57q5 4 13 4h84q11 0 3 -8l-95 -57q-8 -4 -16 -4h-72q-12 0 -4 8zM384 217
h-218l-104 -212q-2 -5 -7 -5h-73q-7 0 -4 6l306 616q5 8 12 40q0 4 4 4h98q3 0 4 -4l95 -656q0 -6 -5 -6h-70q-7 0 -8 6zM196 284h181q-33 211 -39 310h-1q-19 -57 -141 -310z" />
    <glyph glyph-name="aringacute" unicode="&#x1fb;" horiz-adv-x="490" 
d="M232 591q2 29 28.5 48.5t70.5 19.5q45 0 68.5 -19.5t21.5 -48.5q-2 -28 -28.5 -48t-70.5 -20q-45 0 -68.5 19.5t-21.5 48.5zM283 591q-1 -15 10 -24.5t31 -9.5q21 0 33 9.5t13 24.5q2 15 -9.5 24.5t-31.5 9.5t-32 -9.5t-14 -24.5zM299 694l89 88q3 5 10 5h74q4 0 5 -2.5
t-2 -5.5l-101 -88q-3 -4 -11 -4h-61q-8 0 -3 7zM455 472l-78 -442q-1 -5 -6 -7q-67 -32 -148 -32q-86 0 -138 50t-52 146q1 122 87.5 213.5t224.5 91.5q65 0 108 -15q2 0 2 -5zM299 64l65 362q-12 4 -35 4q-88 0 -149 -69.5t-61 -169.5q0 -63 29 -101t90 -38q36 0 61 12z
" />
    <glyph glyph-name="AEacute" unicode="&#x1fc;" horiz-adv-x="792" 
d="M64 0h-79q-7 0 -4 7l368 614q12 25 19 41q1 4 6 4h371q6 0 7 -6l3 -56q0 -5 -7 -5h-252l-18 -231h232q4 0 3 -5l-10 -57q-3 -5 -7 -5h-222l-19 -234h275q6 0 3 -6l-20 -56q-1 -5 -6 -5h-334q-4 0 -5 4l18 223h-185l-131 -222q-2 -5 -6 -5zM235 292h156q23 283 26 313h-1
q-44 -86 -181 -313zM458 726l144 109q4 4 10 4h92q3 0 4 -2.5t-1 -4.5l-156 -108q-5 -4 -11 -4h-79q-9 0 -3 6z" />
    <glyph glyph-name="aeacute" unicode="&#x1fd;" horiz-adv-x="731" 
d="M186 59q67 -2 133 72q-5 32 -5 56q1 60 21 120t59 96q-117 -17 -198 -93t-81 -170q0 -35 17 -57.5t54 -23.5zM564 492q60 0 97.5 -30t37.5 -88q2 -78 -74.5 -121.5t-227.5 -42.5q-2 -20 -1 -36q3 -118 120 -118q67 0 119 34q2 1 3 -0.5t1 -3.5l-11 -58q-1 -6 -6 -9
q-46 -28 -124 -28q-112 0 -158 82q-85 -82 -184 -82q-60 0 -93 36.5t-33 98.5q0 94 63 173.5t164 124.5t213 48q40 20 94 20zM555 432q-53 0 -95.5 -47.5t-56.5 -119.5q123 -3 172 28t49 77q0 28 -17.5 45t-51.5 17zM388 567l148 147q4 5 10 5h84q4 0 4.5 -2.5t-1.5 -4.5
l-160 -146q-5 -5 -11 -5h-72q-2 0 -3 2t1 4z" />
    <glyph glyph-name="Oslashacute" unicode="&#x1fe;" horiz-adv-x="635" 
d="M402 723h-78q-3 0 -4.5 2.5t0.5 3.5l145 110q3 3 9 3h93q8 0 3 -7l-157 -107q-4 -5 -11 -5zM555 666h52q7 0 4 -6l-60 -78q45 -68 45 -172q0 -111 -36 -204.5t-109.5 -154t-172.5 -60.5q-87 0 -145 49l-27 -36q-3 -4 -6 -4h-55q-8 0 -4 6l57 74q-45 65 -45 170
q0 107 37 202.5t112 159.5t172 64q86 0 144 -53l31 40q3 3 6 3zM152 149l320 414q-40 47 -107 47q-98 0 -164 -109t-66 -252q0 -56 17 -100zM498 514l-318 -413q39 -45 106 -45q69 0 122.5 54.5t79.5 134.5t26 167q0 59 -16 102z" />
    <glyph glyph-name="oslashacute" unicode="&#x1ff;" horiz-adv-x="502" 
d="M390 719h84q4 0 4.5 -2.5t-1.5 -4.5l-160 -146q-5 -5 -11 -5h-72q-2 0 -3 2t1 4l148 147q4 5 10 5zM417 484h45q8 0 1 -7l-46 -56q35 -52 35 -128q0 -120 -65 -211t-176 -91q-68 0 -114 38l-24 -30q-3 -4 -10 -4h-44q-7 0 -2 7l50 61q-33 48 -33 123q-1 77 27.5 146
t86 114.5t130.5 45.5q66 0 110 -38l22 26q3 4 7 4zM122 130l221 268q-27 32 -71 32q-65 0 -110.5 -71.5t-46.5 -167.5q0 -33 7 -61zM363 355l-220 -270q26 -33 74 -33q62 0 107.5 71.5t46.5 171.5q0 33 -8 60z" />
    <glyph glyph-name="uni0218" unicode="&#x218;" horiz-adv-x="458" 
d="M3 59l13 63q0 6 6 2q74 -66 166 -66q63 0 93 29.5t30 77.5q0 42 -24 72.5t-74 65.5q-70 47 -103 88t-33 106q0 73 52 126t148 53q95 0 146 -39q4 -3 2 -8l-12 -60q-2 -7 -7 -3q-55 43 -132 43q-58 0 -87 -31.5t-29 -73.5q0 -38 23.5 -65.5t72.5 -61.5q73 -48 107.5 -91.5
t34.5 -112.5q0 -81 -56 -131.5t-155 -50.5q-113 -1 -179 57q-5 4 -3 11zM149 -240h-71q-3 0 -3.5 2.5t1.5 4.5q50 54 59 109q5 32 -2 62q-1 5 4 5h72q7 0 7 -4q8 -23 2 -59q-9 -69 -60 -116q-4 -4 -9 -4z" />
    <glyph glyph-name="uni0219" unicode="&#x219;" horiz-adv-x="363" 
d="M308 398q-43 30 -102 30q-40 0 -61 -18t-21 -45q0 -25 15.5 -42.5t54.5 -42.5q55 -33 83 -65t28 -82q0 -68 -48 -105t-119 -37q-86 0 -140 42q-4 3 -2 10l11 59q2 6 6 2q59 -49 128 -49q41 0 62 19.5t21 48.5q0 27 -15.5 45.5t-57.5 45.5q-50 31 -76.5 62t-26.5 78
q0 60 44 99t118 39t113 -27q4 -3 3 -9l-11 -56q-3 -5 -7 -2zM100 -232h-70q-3 0 -4 2t1 4q49 53 60 110q4 35 -3 62q0 5 4 5h73q6 0 7 -4q7 -26 1 -60q-10 -68 -59 -116q-6 -3 -10 -3z" />
    <glyph glyph-name="uni021A" unicode="&#x21a;" horiz-adv-x="503" 
d="M151 6l104 592h-187q-6 0 -4 7l19 57q1 4 6 4h447q6 0 6 -5l2 -57q0 -6 -5 -6h-200l-104 -593q-1 -5 -7 -5h-71q-6 0 -6 6zM157 -226h-70q-3 0 -4 2t1 4q49 53 60 110q5 30 -3 62q0 5 4 5h73q6 0 7 -4q7 -24 2 -60q-11 -69 -60 -116q-3 -3 -10 -3z" />
    <glyph glyph-name="uni021B" unicode="&#x21b;" horiz-adv-x="278" 
d="M224 62l-9 -46q-1 -6 -7 -10q-26 -15 -75 -15t-75 32.5t-13 101.5l51 293h-61q-6 2 -5 7l10 52q1 5 6 5h62q4 25 22 119q1 4 6 5q38 1 76 15q5 1 5 -4q-2 -8 -26 -135h88q6 0 5 -6l-8 -52q-1 -5 -7 -6h-89l-52 -296q-11 -68 41 -68q25 0 50 13q2 1 3.5 -0.5t1.5 -4.5z
M80 -223h-70q-8 0 -3 7q49 50 60 109q5 32 -2 62q-2 5 4 5h72q6 0 7 -4q8 -28 2 -60q-10 -69 -60 -116q-6 -3 -10 -3z" />
    <glyph glyph-name="uni021C" unicode="&#x21c;" horiz-adv-x="466" 
d="M443 608q-80 -82 -226 -225q85 -7 141 -52t56 -136q0 -109 -78.5 -169.5t-193.5 -60.5q-105 0 -166 42q-3 2 -2 7l12 59q0 7 6 3q64 -44 152 -44q87 0 135.5 43.5t48.5 113.5q0 66 -42.5 101.5t-111.5 35.5q-46 0 -68 -7q-2 -1 -4 0t-1 4l7 40q1 3 4 8l234 229
q-18 -1 -102 -1h-164q-4 0 -2 6l23 57q3 4 6 4h345q6 0 4 -5l-8 -44q-2 -7 -5 -9z" />
    <glyph glyph-name="uni021D" unicode="&#x21d;" horiz-adv-x="374" 
d="M47 482h312q6 0 5 -6l-7 -39q0 -3 -5 -10q-187 -210 -208 -233q75 -8 125.5 -56t50.5 -132q0 -114 -74.5 -177t-183.5 -63q-98 0 -146 34q-4 2 -4 10l13 57q0 6 6 4q51 -38 131 -38t126.5 46t46.5 120q0 62 -38.5 97.5t-102.5 35.5q-22 0 -52 -4q-4 -1 -5 0t0 4l7 41
q2 6 6 9l212 237q-18 -1 -95 -1h-139q-6 0 -4 8l16 51q1 5 7 5z" />
    <glyph glyph-name="uni0232" unicode="&#x232;" horiz-adv-x="510" 
d="M238 0h-71q-9 0 -7 7l43 241q2 26 -2 36l-127 377q-2 5 3 5h77q5 0 6 -4q90 -278 99 -334q50 89 216 334q3 4 7 4h78q7 0 3 -6l-262 -379q-8 -11 -16 -39l-41 -235q-3 -7 -6 -7zM213 795h245q4 0 4 -5l-10 -56q-1 -5 -6 -5h-243q-6 0 -6 3v2l10 55q1 6 6 6z" />
    <glyph glyph-name="uni0233" unicode="&#x233;" horiz-adv-x="439" 
d="M40 482h78q5 0 6 -4q46 -251 56 -360h2q77 142 178 359q2 5 8 5h73q7 0 5 -6q-94 -208 -226 -429q-85 -143 -180 -268q-3 -4 -9 -4h-82q-4 0 -4.5 2.5t1.5 4.5q37 46 89.5 121.5t81.5 122.5q4 7 3 13q-2 13 -21 110t-38 196t-25 132q0 5 4 5zM136 667h254q4 0 4 -6
l-10 -53q-2 -5 -6 -5h-253q-5 0 -4 6l10 54q0 4 5 4z" />
    <glyph glyph-name="uni0237" unicode="&#x237;" horiz-adv-x="221" 
d="M101 476q1 6 7 6h72q6 0 5 -6l-86 -491q-15 -86 -31.5 -125t-41.5 -62q-36 -32 -98 -32q-18 0 -26 2q-5 2 -4 7l10 54q1 5 6 5q43 1 62.5 23.5t32.5 96.5z" />
    <glyph glyph-name="uni0251" unicode="&#x251;" horiz-adv-x="490" 
d="M455 472l-78 -442q-1 -5 -7 -7q-66 -32 -147 -32q-86 0 -138 50t-52 146q0 122 87 213.5t225 91.5q63 0 108 -15q2 0 2 -5zM299 64l64 362q-12 4 -35 4q-88 0 -148.5 -69t-61.5 -170q0 -63 29.5 -101t90.5 -38q36 0 61 12z" />
    <glyph glyph-name="uni0259" unicode="&#x259;" horiz-adv-x="466" 
d="M164 -9q-62 0 -101.5 31.5t-39.5 93.5q2 78 79 124.5t224 44.5q1 3 1 14q0 53 -26.5 88.5t-88.5 35.5q-66 0 -123 -37q-2 -1 -3.5 0.5t-0.5 3.5l12 60q1 6 6 10q53 32 130 32q84 0 130 -55t46 -152q0 -123 -69 -208.5t-176 -85.5zM169 53q55 0 97.5 46.5t54.5 124.5
q-123 4 -172.5 -30t-49.5 -80q0 -28 18.5 -44.5t51.5 -16.5z" />
    <glyph glyph-name="uni0261" unicode="&#x261;" horiz-adv-x="494" 
d="M-22 -197l15 59q0 7 6 3q57 -31 120 -31q69 0 108.5 35t57.5 117l8 42q-43 -24 -96 -24q-74 0 -118.5 48t-44.5 136q0 121 81 212.5t211 91.5q73 0 130 -21q5 -2 3 -7q-7 -26 -11 -44l-66 -369q-20 -105 -42 -154q-60 -131 -225 -131q-81 0 -133 29q-4 3 -4 8zM304 91
l60 331q-19 8 -52 8q-81 0 -137.5 -68.5t-56.5 -165.5q1 -56 26 -92t81 -36q45 0 79 23z" />
    <glyph glyph-name="uni0275" unicode="&#x275;" horiz-adv-x="502" 
d="M278 492q82 0 128 -57t46 -145q0 -122 -67 -210.5t-175 -88.5q-83 0 -130 54t-47 146q1 121 68.5 211t176.5 90zM126 277h243q1 7 1 20q1 54 -22.5 94t-77.5 40q-45 0 -86 -38t-58 -116zM360 214h-243q-2 -14 -2 -26q0 -57 25 -96.5t77 -39.5q45 0 85.5 36.5t57.5 125.5z
" />
    <glyph glyph-name="uni02BB" unicode="&#x2bb;" horiz-adv-x="272" 
d="M216 718h65q6 0 2 -6q-74 -107 -80 -239q0 -5 -5 -5h-64q-5 0 -5 5q-2 57 20.5 125.5t59.5 115.5q2 4 7 4z" />
    <glyph glyph-name="uni02BC" unicode="&#x2bc;" horiz-adv-x="272" 
d="M171 468h-65q-6 0 -3 5q75 109 81 240q0 5 5 5h63q6 0 6 -6q2 -56 -20.5 -125t-59.5 -116q-3 -3 -7 -3z" />
    <glyph glyph-name="uni02BE" unicode="&#x2be;" horiz-adv-x="400" 
d="M214 677l6 41q49 -7 72 -37t17 -70q-6 -38 -39 -56.5t-78 -13.5l6 41q56 0 63 38q8 45 -47 57z" />
    <glyph glyph-name="uni02BF" unicode="&#x2bf;" horiz-adv-x="400" 
d="M293 575l-6 -40q-49 7 -72 36.5t-17 69.5q6 38 39 57t78 14l-7 -41q-57 -2 -62 -39q-8 -45 47 -57z" />
    <glyph glyph-name="circumflex" unicode="&#x2c6;" 
d="M265 664q-34 -47 -83 -104q-6 -4 -9 -4h-63q-7 0 -2 7l126 147q4 4 7 4h65q4 0 7 -4l61 -148q2 -6 -4 -6h-59q-5 0 -8 5q-18 45 -38 103z" />
    <glyph glyph-name="caron" unicode="&#x2c7;" 
d="M236 613q49 67 79 104q4 4 9 4h62q3 0 3.5 -2.5t-1.5 -4.5l-121 -147q-4 -4 -8 -4h-65q-5 0 -6 4l-65 148q-4 6 4 6h59q4 0 7 -5q5 -14 22 -53.5t21 -49.5z" />
    <glyph glyph-name="uni02C8" unicode="&#x2c8;" horiz-adv-x="400" 
d="M206 543l25 146q1 6 7 6h67q5 0 4 -5l-33 -147q-1 -5 -7 -5h-57q-6 0 -6 5z" />
    <glyph glyph-name="uni02C9" unicode="&#x2c9;" 
d="M119 667h254q4 0 4 -6l-10 -53q-2 -5 -6 -5h-253q-6 0 -4 6l10 54q0 4 5 4z" />
    <glyph glyph-name="uni02CA" unicode="&#x2ca;" 
d="M180 567l148 147q4 5 10 5h84q4 0 4.5 -2.5t-1.5 -4.5l-160 -146q-5 -5 -11 -5h-72q-2 0 -3 2t1 4z" />
    <glyph glyph-name="uni02CB" unicode="&#x2cb;" 
d="M207 714l68 -146q2 -6 -5 -6h-63q-6 0 -7 4l-84 146q-2 7 4 7h80q4 0 7 -5z" />
    <glyph glyph-name="uni02CC" unicode="&#x2cc;" horiz-adv-x="400" 
d="M104 -205l24 145q1 7 8 7h67q5 0 4 -6l-34 -147q-1 -5 -7 -5h-57q-5 0 -5 6z" />
    <glyph glyph-name="breve" unicode="&#x2d8;" 
d="M119 699h59q3 0 4 -3q10 -57 70 -57q57 0 84 57q2 3 6 3h59q5 0 3 -4q-35 -120 -159 -120q-59 0 -93.5 32t-37.5 88q0 4 5 4z" />
    <glyph glyph-name="dotaccent" unicode="&#x2d9;" 
d="M226 589q-20 0 -32 13.5t-10 33.5q3 22 17.5 34.5t35.5 12.5t32 -13t9 -34t-16 -34t-36 -13z" />
    <glyph glyph-name="ring" unicode="&#x2da;" 
d="M139 649q3 40 31.5 64.5t71.5 24.5t69 -25t24 -65q-4 -41 -33 -65.5t-72 -24.5t-68.5 24.5t-22.5 66.5zM187 649q-1 -22 11.5 -35.5t34.5 -13.5t37 12.5t16 35.5q1 22 -12.5 35.5t-34.5 13.5q-22 0 -36.5 -13t-15.5 -35z" />
    <glyph glyph-name="ogonek" unicode="&#x2db;" horiz-adv-x="370" 
d="M141 27h81q-136 -71 -133 -136q2 -40 52 -40q28 0 52 10q2 1 3.5 0t1.5 -5l-9 -51q-1 -7 -7 -10q-27 -14 -75 -14q-42 0 -70.5 22t-29.5 62q-1 48 38 91t96 71z" />
    <glyph glyph-name="tilde" unicode="&#x2dc;" 
d="M131 585h-53q-5 0 -5 6q4 53 31 80t68 27q32 0 73 -25.5t54 -25.5q31 0 36 44q1 5 6 5h52q4 0 4 -5q-9 -108 -91 -108q-30 0 -71 25.5t-59 25.5q-31 0 -40 -44q0 -5 -5 -5z" />
    <glyph glyph-name="hungarumlaut" unicode="&#x2dd;" 
d="M126 569l122 139q3 4 8 4h71q6 0 2 -6l-133 -140q-4 -5 -11 -5h-55q-8 0 -4 8zM283 568l122 140q3 4 8 4h71q6 0 2 -6l-132 -140q-5 -5 -10 -5h-58q-9 0 -3 7z" />
    <glyph glyph-name="gravecomb" unicode="&#x300;" horiz-adv-x="0" 
d="M42 714l68 -146q2 -6 -5 -6h-63q-6 0 -7 4l-84 146q-3 7 4 7h79q6 0 8 -5z" />
    <glyph glyph-name="acutecomb" unicode="&#x301;" horiz-adv-x="0" 
d="M-19 567l149 147q2 5 9 5h85q8 0 3 -7l-161 -146q-5 -5 -10 -5h-72q-7 0 -3 6z" />
    <glyph glyph-name="uni0302" unicode="&#x302;" horiz-adv-x="0" 
d="M71 664q-41 -57 -84 -104q-4 -4 -9 -4h-62q-7 0 -2 7l126 147q3 4 7 4h65q4 0 7 -4l60 -148q4 -6 -3 -6h-59q-5 0 -8 5q-18 45 -38 103z" />
    <glyph glyph-name="tildecomb" unicode="&#x303;" horiz-adv-x="0" 
d="M-42 585h-52q-6 0 -6 6q4 53 31 80t68 27q32 0 73 -25.5t54 -25.5q31 0 36 44q1 5 6 5h52q4 0 4 -5q-8 -108 -91 -108q-31 0 -71 25.5t-59 25.5q-31 0 -40 -44q0 -5 -5 -5z" />
    <glyph glyph-name="uni0304" unicode="&#x304;" horiz-adv-x="0" 
d="M-63 667h254q5 0 4 -6l-9 -53q-2 -5 -6 -5h-253q-5 0 -4 6l10 54q0 4 4 4z" />
    <glyph glyph-name="uni0306" unicode="&#x306;" horiz-adv-x="0" 
d="M-70 699h59q4 0 4 -3q10 -57 70 -57q57 0 84 57q2 3 6 3h60q3 0 3 -4q-37 -120 -160 -120q-59 0 -93.5 32t-37.5 88q0 4 5 4z" />
    <glyph glyph-name="uni0307" unicode="&#x307;" horiz-adv-x="0" 
d="M56 589q-21 0 -32.5 13.5t-9.5 33.5q2 22 16.5 34.5t35.5 12.5t32 -13t9 -34t-16 -34t-35 -13z" />
    <glyph glyph-name="uni0308" unicode="&#x308;" horiz-adv-x="0" 
d="M-36 589q-20 0 -32 13t-10 33q3 21 17 33.5t35 12.5t32 -13t9 -33t-16 -33t-35 -13zM146 589q-20 0 -32 13t-10 33q3 21 17 33.5t35 12.5t32 -13t9 -33t-16 -33t-35 -13z" />
    <glyph glyph-name="hookabovecomb" unicode="&#x309;" horiz-adv-x="0" 
d="M-26 679l9 43q0 5 5 8q31 18 79 18q38 0 59.5 -21t22.5 -50q2 -49 -38.5 -80t-94.5 -44q-6 -2 -6 4l8 44q2 5 5 6q29 14 43 28t13 33q0 25 -31 25q-35 0 -68 -18q-6 -4 -6 4z" />
    <glyph glyph-name="uni030A" unicode="&#x30a;" horiz-adv-x="0" 
d="M-36 649q3 40 31.5 64.5t71.5 24.5t69 -25t23 -65q-3 -41 -32 -65.5t-72 -24.5t-68.5 24.5t-22.5 66.5zM12 649q-1 -22 11.5 -35.5t34.5 -13.5q21 0 36 12.5t17 35.5q1 22 -12 35.5t-35 13.5t-36.5 -13t-15.5 -35z" />
    <glyph glyph-name="uni030B" unicode="&#x30b;" horiz-adv-x="0" 
d="M-70 569l122 139q3 4 8 4h70q6 0 2 -6l-132 -140q-4 -5 -11 -5h-56q-9 0 -3 8zM86 568l123 140q2 4 8 4h71q6 0 2 -6l-133 -140q-3 -5 -9 -5h-58q-8 0 -4 7z" />
    <glyph glyph-name="uni030C" unicode="&#x30c;" horiz-adv-x="0" 
d="M53 613q49 67 79 104q4 4 9 4h62q3 0 4 -2.5t-1 -4.5l-122 -147q-4 -4 -8 -4h-65q-5 0 -6 4l-65 148q-2 6 4 6h59q5 0 8 -5q5 -16 22 -55t20 -48z" />
    <glyph glyph-name="uni031B" unicode="&#x31b;" horiz-adv-x="0" 
d="M116 433h-72q-7 0 -7 5l4 38q0 6 6 6h23q26 0 42.5 9.5t21.5 23.5t7.5 31.5t-0.5 34.5q0 5 5 5h65q5 0 5 -4q6 -58 -17.5 -99.5t-82.5 -49.5z" />
    <glyph glyph-name="dotbelowcomb" unicode="&#x323;" horiz-adv-x="0" 
d="M-75 -157q-21 0 -33 13t-10 33q2 21 17 33.5t37 12.5q21 0 32.5 -13t9.5 -34q-1 -20 -16 -32.5t-37 -12.5z" />
    <glyph glyph-name="uni0324" unicode="&#x324;" horiz-adv-x="0" 
d="M-159 -140q-20 0 -32 13t-10 33q2 21 16.5 33.5t35.5 12.5t32 -13t9 -33t-16 -33t-35 -13zM23 -140q-20 0 -32 13t-10 33q3 21 17 33.5t35 12.5t32 -13t9 -33t-16 -33t-35 -13z" />
    <glyph glyph-name="uni0326" unicode="&#x326;" horiz-adv-x="0" 
d="M-86 -223h-70q-8 0 -3 7q49 52 60 109q5 28 -2 62q-2 5 3 5h73q6 0 7 -4q7 -24 2 -60q-11 -69 -60 -116q-6 -3 -10 -3z" />
    <glyph glyph-name="uni0327" unicode="&#x327;" horiz-adv-x="0" 
d="M-72 7h61l-41 -53q60 -18 62 -75q1 -45 -29.5 -70.5t-81.5 -25.5q-45 0 -66 14q-3 1 -3 7l8 42q2 5 5 2q28 -13 58 -13q22 0 35 10t12 28q-2 36 -79 45q-1 2 0.5 10t3.5 10z" />
    <glyph glyph-name="uni0328" unicode="&#x328;" horiz-adv-x="0" 
d="M-54 27h82q-135 -70 -134 -136q2 -40 52 -40q30 0 52 10q3 1 4 0t1 -5l-9 -51q-1 -7 -7 -10q-27 -14 -75 -14q-42 0 -70 22t-29 62q-2 48 36.5 91t96.5 71z" />
    <glyph glyph-name="uni032E" unicode="&#x32e;" horiz-adv-x="0" 
d="M-187 -70h59q4 0 6 -6q13 -55 70 -55t80 56q3 5 7 5h58q5 0 5 -7q-13 -56 -56 -88.5t-99 -32.5q-58 0 -95 31.5t-41 89.5q0 7 6 7z" />
    <glyph glyph-name="uni0331" unicode="&#x331;" horiz-adv-x="0" 
d="M-167 -81h253q4 0 3 -6l-9 -53q-1 -5 -6 -5h-252q-4 0 -4 6l10 53q2 5 5 5z" />
    <glyph glyph-name="uni0374" unicode="&#x374;" horiz-adv-x="180" 
d="M50 414l60 228q1 5 8 5h76q6 0 5 -7l-71 -228q-1 -6 -8 -6h-65q-7 0 -5 8z" />
    <glyph glyph-name="uni0375" unicode="&#x375;" horiz-adv-x="180" 
d="M-33 -103l60 228q1 5 8 5h76q6 0 5 -7l-71 -228q-1 -6 -8 -6h-64q-8 0 -6 8z" />
    <glyph glyph-name="uni037A" unicode="&#x37a;" 
d="M87 -37h65q4 0 3 -4q-14 -40 -16 -50q-7 -54 37 -54q22 0 35 5q3 1 4 0t0 -4l-8 -47q-2 -7 -5 -9q-24 -11 -60 -11q-50 0 -69.5 31.5t-15.5 71.5q6 37 23 67q2 4 7 4z" />
    <glyph glyph-name="uni037E" unicode="&#x37e;" horiz-adv-x="226" 
d="M136 336q-23 0 -36 14.5t-11 37.5t17.5 37.5t37.5 14.5q23 0 36.5 -15.5t11.5 -37.5q-2 -23 -17 -37t-39 -14zM41 -143h-66q-7 0 -4 6q82 122 87 253q0 6 5 6h69q6 0 7 -5q-2 -68 -25 -136t-65 -120q-3 -4 -8 -4z" />
    <glyph glyph-name="tonos" unicode="&#x384;" 
d="M181 567l148 147q4 5 10 5h85q8 0 3 -7l-161 -146q-5 -5 -11 -5h-71q-9 0 -3 6z" />
    <glyph glyph-name="dieresistonos" unicode="&#x385;" 
d="M181 539l68 169q2 5 6 5h64q6 0 4 -6l-79 -169q-2 -5 -7 -5h-53q-4 0 -3 6zM111 568q-17 0 -27.5 12t-9.5 32q2 19 14.5 31t29.5 12q20 0 30.5 -12.5t8.5 -31.5t-14.5 -31t-31.5 -12zM372 568q-18 0 -28.5 12t-9.5 32q2 20 14.5 31.5t30.5 11.5t28.5 -12.5t9.5 -31.5
t-13.5 -31t-31.5 -12z" />
    <glyph glyph-name="Alphatonos" unicode="&#x386;" horiz-adv-x="626" 
d="M433 217h-217l-104 -212q-2 -5 -7 -5h-74q-6 0 -3 6l306 616q6 13 12 40q0 4 4 4h97q4 0 5 -4l94 -656q1 -6 -4 -6h-71q-6 0 -8 6zM246 284h181q-33 211 -39 310h-1q-13 -39 -141 -310zM21 478l85 192q2 5 8 5h73q7 0 4 -6l-96 -192q-3 -5 -8 -5h-62q-5 0 -4 6z" />
    <glyph glyph-name="anoteleia" unicode="&#x387;" horiz-adv-x="226" 
d="M117 333q-24 0 -38 15t-12 39q2 23 17.5 38t39.5 15t38.5 -15t12.5 -38q-2 -24 -18 -39t-40 -15z" />
    <glyph glyph-name="Epsilontonos" unicode="&#x388;" horiz-adv-x="609" 
d="M551 61l-21 -56q-1 -5 -5 -5h-356q-6 0 -6 6l116 655q0 5 6 5h319q6 0 6 -5l4 -57q0 -5 -5 -5h-259l-39 -227h238q5 0 4 -5l-10 -57q-1 -4 -7 -4h-237l-42 -239h291q6 0 3 -6zM12 469l85 192q1 5 7 5h74q6 0 4 -6l-96 -192q-4 -5 -8 -5h-62q-7 0 -4 6z" />
    <glyph glyph-name="Etatonos" unicode="&#x389;" horiz-adv-x="738" 
d="M616 0h-73q-7 0 -5 6l52 301h-287l-53 -302q-1 -5 -6 -5h-72q-6 0 -6 6l115 655q1 5 6 5h73q5 0 5 -5l-50 -288h288l50 288q1 5 6 5h74q5 0 4 -6l-115 -654q-2 -6 -6 -6zM6 469l85 192q1 5 8 5h73q7 0 4 -6l-96 -192q-2 -5 -8 -5h-62q-6 0 -4 6z" />
    <glyph glyph-name="Iotatonos" unicode="&#x38a;" horiz-adv-x="368" 
d="M363 660l-115 -654q-1 -6 -6 -6h-71q-7 0 -6 6l115 655q0 5 6 5h72q6 0 5 -6zM11 469l85 192q2 5 8 5h73q7 0 5 -6l-97 -192q-3 -5 -8 -5h-62q-5 0 -4 6z" />
    <glyph glyph-name="Omicrontonos" unicode="&#x38c;" horiz-adv-x="747" 
d="M493 676q102 0 162 -72.5t60 -193.5q0 -111 -36 -204.5t-109.5 -154t-172.5 -60.5q-104 0 -164.5 68.5t-60.5 190.5q0 107 37 202.5t112 159.5t172 64zM484 610q-97 0 -161.5 -109.5t-64.5 -251.5q0 -50 13 -91.5t47.5 -71.5t86.5 -30q69 0 121.5 54.5t78 134.5t24.5 167
q0 52 -12 94t-46 73t-87 31zM-2 468l85 193q1 5 7 5h74q6 0 4 -6l-97 -193q-3 -4 -7 -4h-63q-5 0 -3 5z" />
    <glyph glyph-name="Upsilontonos" unicode="&#x38e;" horiz-adv-x="727" 
d="M418 0h-71q-9 0 -7 7l43 241q4 22 -2 36l-127 377q-1 5 4 5h77q5 0 6 -4q88 -272 98 -334q70 119 216 334q3 4 8 4h77q7 0 3 -6l-262 -379q-10 -12 -15 -39l-42 -235q-1 -7 -6 -7zM11 469l85 192q1 5 8 5h73q7 0 4 -6l-96 -192q-3 -5 -8 -5h-62q-6 0 -4 6z" />
    <glyph glyph-name="Omegatonos" unicode="&#x38f;" horiz-adv-x="758" 
d="M338 0h-225q-4 0 -4 4l1 58q0 4 5 4h151q-83 95 -83 233q1 101 36.5 185.5t109 138t171.5 53.5q100 0 163.5 -65t63.5 -179q0 -116 -49.5 -209.5t-130.5 -156.5h152q5 0 4 -5l-19 -56q-2 -5 -6 -5h-231q-4 0 -5.5 1t-0.5 4l9 45q2 6 5 8q84 63 134.5 158t50.5 212
q0 78 -38 130.5t-113 52.5q-68 0 -119.5 -46t-77 -119.5t-24.5 -159.5q0 -140 82 -227q4 -4 3 -9l-9 -44q-2 -6 -6 -6zM-3 469l85 192q1 5 8 5h73q7 0 4 -6l-96 -192q-3 -5 -8 -5h-62q-6 0 -4 6z" />
    <glyph glyph-name="iotadieresistonos" unicode="&#x390;" horiz-adv-x="236" 
d="M102 476q0 6 6 6h74q5 0 5 -5l-67 -378q-8 -47 25 -47q13 0 29 4q4 2 4 -2v-2l-8 -43q-1 -7 -5 -9q-19 -9 -55 -9q-95 0 -75 109zM120 539l68 169q2 5 6 5h64q6 0 4 -6l-79 -169q-2 -5 -7 -5h-53q-5 0 -3 6zM50 568q-17 0 -27.5 12t-9.5 32q1 19 13.5 31t30.5 12
q20 0 30.5 -12.5t8.5 -31.5t-14.5 -31t-31.5 -12zM311 568q-18 0 -28.5 12t-9.5 32q2 20 14.5 31.5t30.5 11.5t28.5 -12.5t9.5 -31.5t-13.5 -31t-31.5 -12z" />
    <glyph glyph-name="Alpha" unicode="&#x391;" horiz-adv-x="577" 
d="M384 217h-218l-104 -212q-2 -5 -7 -5h-73q-7 0 -4 6l306 616q5 8 12 40q0 4 4 4h98q3 0 4 -4l95 -656q0 -6 -5 -6h-70q-7 0 -8 6zM196 284h181q-33 211 -39 310h-1q-19 -57 -141 -310z" />
    <glyph glyph-name="Beta" unicode="&#x392;" horiz-adv-x="532" 
d="M27 8l114 651q1 5 5 6q51 3 135 3q85 0 142.5 -36.5t57.5 -121.5q0 -62 -36 -102.5t-91 -55.5v-1q117 -38 117 -157q0 -95 -74.5 -145.5t-200.5 -51.5q-90 0 -164 4q-7 0 -5 7zM164 319l-44 -254q33 -3 90 -3q80 0 128 34.5t48 100.5q0 59 -40.5 90.5t-106.5 31.5h-75z
M214 602l-38 -218h69q77 0 115 32t38 84q0 103 -121 103q-19 0 -40 -0.5t-23 -0.5z" />
    <glyph glyph-name="Gamma" unicode="&#x393;" horiz-adv-x="454" 
d="M211 599l-103 -593q-1 -6 -6 -6h-72q-8 0 -6 6l115 654q1 6 6 6h330q6 0 6 -5l3 -57q0 -5 -5 -5h-268z" />
    <glyph glyph-name="uni0394" unicode="&#x394;" horiz-adv-x="584" 
d="M488 0h-486q-5 0 -5 5l7 38q0 2 1.5 6t2.5 6l281 561q8 17 14 45q1 5 5 5h97q5 0 6 -5l89 -606q2 -6 0 -14l-6 -36q-1 -5 -6 -5zM96 67h320q-66 498 -68 524h-2q-13 -37 -97.5 -213.5t-152.5 -310.5z" />
    <glyph glyph-name="Epsilon" unicode="&#x395;" horiz-adv-x="481" 
d="M414 61l-20 -56q-2 -5 -6 -5h-356q-6 0 -6 6l116 655q1 5 6 5h319q6 0 6 -5l4 -57q0 -5 -5 -5h-259l-39 -227h238q5 0 4 -5l-10 -57q-1 -4 -7 -4h-237l-42 -239h292q5 0 2 -6z" />
    <glyph glyph-name="Zeta" unicode="&#x396;" horiz-adv-x="507" 
d="M422 0h-438q-5 0 -5 6l7 35q3 7 6 10q45 60 193.5 256.5t218.5 291.5h-316q-6 0 -4 6l19 56q1 5 7 5h407q7 0 5 -5l-7 -38q-1 -5 -7 -12q-201 -274 -408 -544h346q5 0 3 -6l-21 -56q-1 -5 -6 -5z" />
    <glyph glyph-name="Eta" unicode="&#x397;" horiz-adv-x="608" 
d="M476 0h-73q-7 0 -5 6l53 301h-288l-53 -302q-1 -5 -5 -5h-73q-6 0 -6 6l116 655q0 5 5 5h73q5 0 5 -5l-50 -288h288l50 288q1 5 6 5h74q5 0 5 -6l-116 -654q-2 -6 -6 -6z" />
    <glyph glyph-name="Theta" unicode="&#x398;" horiz-adv-x="635" 
d="M210 371h243q5 0 4 -6l-11 -55q0 -6 -7 -6h-241q-5 0 -5 6l10 55q2 6 7 6zM374 676q102 0 162 -72.5t60 -193.5q0 -111 -36 -204.5t-109.5 -154t-172.5 -60.5q-104 0 -164.5 68.5t-60.5 190.5q0 107 37 202.5t112 159.5t172 64zM365 610q-97 0 -161.5 -109.5
t-64.5 -251.5q0 -50 13 -91.5t47.5 -71.5t86.5 -30q69 0 121.5 54.5t77.5 134.5t25 167q0 82 -34.5 140t-110.5 58z" />
    <glyph glyph-name="Iota" unicode="&#x399;" horiz-adv-x="236" 
d="M226 660l-116 -654q0 -6 -5 -6h-72q-7 0 -6 6l115 655q1 5 6 5h72q6 0 6 -6z" />
    <glyph glyph-name="Kappa" unicode="&#x39a;" horiz-adv-x="554" 
d="M105 0h-71q-7 0 -6 6l115 655q1 5 6 5h72q6 0 6 -6l-51 -289h40q17 0 25 10q36 41 119.5 140t120.5 141q3 4 9 4h78q9 0 3 -8q-213 -246 -286 -323q15 -26 107 -170t101 -159q4 -6 -3 -6h-79q-6 0 -10 4q-27 41 -88.5 146.5t-83.5 139.5q-9 14 -26 14h-39l-53 -299
q-1 -5 -6 -5z" />
    <glyph glyph-name="Lambda" unicode="&#x39b;" horiz-adv-x="577" 
d="M65 5q-3 -5 -7 -5h-73q-7 0 -4 6l306 616q5 8 12 40q0 4 4 4h97q4 0 5 -4l95 -656q0 -6 -5 -6h-70q-7 0 -8 6q-70 500 -76 588h-1q-23 -71 -275 -589z" />
    <glyph glyph-name="Mu" unicode="&#x39c;" horiz-adv-x="789" 
d="M301 6q-55 574 -56 593h-1q-23 -123 -148 -594q-1 -5 -5 -5h-74q-7 0 -4 7l179 655q1 4 6 4h104q5 0 5 -5q53 -427 56 -549h1q37 98 257 549q3 5 7 5h100q6 0 7 -7l-59 -653q0 -6 -5 -6h-74q-7 0 -6 6q44 440 66 592h-1q-47 -119 -276 -593q-2 -5 -6 -5h-65q-7 0 -8 6z
" />
    <glyph glyph-name="Nu" unicode="&#x39d;" horiz-adv-x="607" 
d="M139 661q1 5 6 5h94q3 0 6 -4q167 -501 179 -557h2q4 57 90 556q1 5 6 5h71q5 0 4 -6l-115 -654q-1 -6 -7 -6h-87q-8 0 -10 6q-71 207 -121 370t-57 203h-1q-4 -62 -95 -573q0 -6 -5 -6h-69q-6 0 -6 6z" />
    <glyph glyph-name="Xi" unicode="&#x39e;" horiz-adv-x="484" 
d="M-2 69h412q4 0 3 -6l-21 -59q-1 -4 -5 -4h-392q-5 0 -5 4l3 60q1 5 5 5zM98 373h319q4 0 4 -5l-11 -59q-1 -4 -6 -4h-319q-5 0 -4 6l11 57q1 5 6 5zM124 666h368q6 0 6 -6l1 -58q0 -6 -6 -6h-392q-5 0 -3 5l21 60q2 5 5 5z" />
    <glyph glyph-name="Omicron" unicode="&#x39f;" horiz-adv-x="635" 
d="M374 676q102 0 162 -72.5t60 -193.5q0 -111 -36 -204.5t-109.5 -154t-172.5 -60.5q-104 0 -164.5 68.5t-60.5 190.5q0 107 37 202.5t112 159.5t172 64zM365 610q-97 0 -161.5 -109.5t-64.5 -251.5q0 -50 13 -91.5t47.5 -71.5t86.5 -30q69 0 121.5 54.5t77.5 134.5t25 167
q0 82 -34.5 140t-110.5 58z" />
    <glyph glyph-name="Pi" unicode="&#x3a0;" horiz-adv-x="608" 
d="M477 0h-72q-7 0 -6 6l104 593h-289l-103 -594q-1 -5 -6 -5h-73q-6 0 -5 6l115 653q0 7 7 7h444q5 0 5 -6l-116 -654q-1 -6 -5 -6z" />
    <glyph glyph-name="Rho" unicode="&#x3a1;" horiz-adv-x="513" 
d="M27 6l115 654q0 6 5 6q44 2 125 2q98 0 163 -47t65 -148q0 -108 -77.5 -164.5t-198.5 -56.5q-32 0 -70 2l-44 -249q0 -5 -5 -5h-73q-6 0 -5 6zM216 600l-50 -280q33 -3 62 -3q85 0 136.5 38.5t51.5 114.5q0 65 -38.5 98t-106.5 33q-43 0 -55 -1z" />
    <glyph glyph-name="Sigma" unicode="&#x3a3;" horiz-adv-x="516" 
d="M506 666q5 0 5 -5l3 -58q0 -5 -5 -5h-314l157 -264q2 -4 -1 -9l-242 -257h340q5 0 3 -6l-21 -56q-3 -6 -6 -6h-435q-5 0 -5 6l9 41q1 7 5 9l263 277l-164 276q-2 6 -1 11l7 41q1 5 5 5h397z" />
    <glyph glyph-name="Tau" unicode="&#x3a4;" horiz-adv-x="503" 
d="M151 6l104 592h-187q-6 0 -4 7l19 57q1 4 6 4h447q6 0 6 -5l2 -57q0 -6 -5 -6h-200l-104 -593q-1 -5 -7 -5h-71q-6 0 -6 6z" />
    <glyph glyph-name="Upsilon" unicode="&#x3a5;" horiz-adv-x="510" 
d="M238 0h-71q-9 0 -7 7l43 241q2 26 -2 36l-127 377q-2 5 3 5h77q5 0 6 -4q90 -278 99 -334q50 89 216 334q3 4 7 4h78q7 0 3 -6l-262 -379q-8 -11 -16 -39l-41 -235q-3 -7 -6 -7z" />
    <glyph glyph-name="Phi" unicode="&#x3a6;" horiz-adv-x="682" 
d="M371 692h71q6 0 5 -6l-10 -60q91 -13 145.5 -78.5t54.5 -173.5q0 -147 -86 -237t-218 -94l-11 -63q0 -6 -7 -6h-70q-5 0 -5 7l11 65q-88 12 -142 75t-54 168q0 142 86 236.5t214 102.5l11 60q0 4 5 4zM264 111l80 452q-87 -7 -145 -85t-58 -191q0 -68 30 -115.5t93 -60.5
zM426 562l-81 -453q87 4 147 79t59 193q0 71 -30 119.5t-95 61.5z" />
    <glyph glyph-name="Chi" unicode="&#x3a7;" horiz-adv-x="533" 
d="M569 660l-242 -322l138 -332q1 -6 -3 -6h-78q-6 0 -9 5q-17 41 -54 138t-55 140h-2q-17 -23 -90.5 -126.5t-109.5 -151.5q-4 -5 -8 -5h-84q-8 0 -3 7l252 331l-129 323q-2 5 4 5h78q4 0 7 -4q15 -38 50 -134t52 -140h1q29 39 95 134t99 140q3 4 7 4h81q5 0 3 -6z" />
    <glyph glyph-name="Psi" unicode="&#x3a8;" horiz-adv-x="620" 
d="M265 282l70 402q1 5 6 5h73q5 0 4 -5l-69 -402q62 4 105 46t65 149q30 137 43 162q2 5 7 5h70q6 0 3 -6q-15 -39 -40 -160q-29 -137 -97 -196t-168 -65l-38 -211q0 -6 -5 -6h-72q-8 0 -6 7l38 211q-95 11 -142 69.5t-29 189.5q16 116 16 162q2 5 6 5h68q5 0 6 -4
q5 -24 -15 -164q-14 -104 14.5 -146t86.5 -48z" />
    <glyph glyph-name="uni03A9" unicode="&#x3a9;" horiz-adv-x="639" 
d="M213 0h-224q-5 0 -5 4l1 58q1 4 5 4h152q-83 93 -83 233q1 156 86 266.5t230 110.5q101 0 164.5 -65t63.5 -179q0 -116 -49.5 -209.5t-130.5 -156.5h152q5 0 3 -5l-19 -56q-1 -5 -5 -5h-231q-4 0 -5.5 1t-0.5 4l8 45q2 5 6 8q83 63 134 158t51 212q-1 78 -38.5 130.5
t-112.5 52.5q-68 0 -119.5 -46t-77 -119.5t-24.5 -159.5q0 -140 82 -227q3 -3 3 -9l-9 -44q-2 -6 -7 -6z" />
    <glyph glyph-name="Iotadieresis" unicode="&#x3aa;" horiz-adv-x="236" 
d="M226 660l-116 -654q0 -6 -5 -6h-72q-7 0 -6 6l115 655q1 5 6 5h72q6 0 6 -6zM95 719q-22 0 -34.5 13t-11.5 34q2 20 17 33.5t37 13.5q21 0 34 -13.5t11 -33.5q-1 -21 -16 -34t-37 -13zM283 720q-21 0 -33.5 12.5t-11.5 33.5q2 20 16.5 33.5t36.5 13.5q21 0 34 -13.5
t11 -34.5q-1 -21 -15.5 -33t-37.5 -12z" />
    <glyph glyph-name="Upsilondieresis" unicode="&#x3ab;" horiz-adv-x="510" 
d="M238 0h-71q-9 0 -7 7l43 241q2 26 -2 36l-127 377q-2 5 3 5h77q5 0 6 -4q90 -278 99 -334q50 89 216 334q3 4 7 4h78q7 0 3 -6l-262 -379q-8 -11 -16 -39l-41 -235q-3 -7 -6 -7zM221 722q-21 0 -33.5 12.5t-11.5 33.5q2 20 16.5 33.5t36.5 13.5q21 0 34 -13.5t11 -33.5
q-1 -21 -15.5 -33.5t-37.5 -12.5zM410 722q-21 0 -34 12.5t-12 33.5q2 20 17 33.5t37 13.5q21 0 34 -14t11 -34q-1 -21 -15.5 -33t-37.5 -12z" />
    <glyph glyph-name="alphatonos" unicode="&#x3ac;" horiz-adv-x="514" 
d="M413 482h67q5 0 3 -6q-53 -134 -83 -358q-9 -63 28 -63q14 0 25 5q2 1 3.5 -0.5t0.5 -5.5l-9 -46q-1 -6 -5 -8q-18 -9 -48 -9q-34 0 -52.5 23t-14.5 70l4 26q-63 -119 -171 -119q-64 0 -98 46.5t-34 126.5q-1 80 28 154.5t84 124t122 49.5q94 0 118 -89q17 60 27 77
q1 2 5 2zM271 427q-67 0 -111 -82.5t-45 -175.5q0 -109 75 -109q57 0 99 62t57 150q12 70 -7 112.5t-68 42.5zM239 568l149 146q3 6 9 6h85q8 0 3 -7l-161 -147q-5 -4 -11 -4h-71q-8 0 -3 6z" />
    <glyph glyph-name="epsilontonos" unicode="&#x3ad;" horiz-adv-x="415" 
d="M133 252v2q-65 29 -65 98q0 58 48.5 99t135.5 41q81 0 127 -31q3 -3 3 -9l-11 -54q-2 -8 -7 -3q-49 32 -112 32q-46 0 -73.5 -22t-26.5 -56q0 -30 22.5 -48.5t69.5 -18.5h61q4 0 4 -6l-10 -52q-2 -6 -8 -6h-68q-59 0 -90 -23t-30 -62q0 -34 30.5 -55t77.5 -21
q80 0 138 35q3 1 4.5 -0.5t0.5 -4.5l-11 -55q-1 -5 -8 -10q-51 -32 -147 -32q-72 0 -122 34.5t-50 95.5q-1 51 31.5 84.5t85.5 47.5zM193 569l149 147q4 5 10 5h84q6 0 3 -7l-161 -146q-5 -5 -10 -5h-72q-7 0 -3 6z" />
    <glyph glyph-name="etatonos" unicode="&#x3ae;" horiz-adv-x="501" 
d="M18 6l65 362q11 68 11 108q0 6 5 6h62q8 0 10 -4q4 -25 -7 -92q75 106 171 106q58 0 88 -43t11 -147l-91 -510q-1 -5 -7 -8q-7 -1 -25 -3t-32 -4t-16 -2q-6 0 -5 7l94 529q12 48 1.5 80t-49.5 32q-53 0 -100 -58t-60 -128l-41 -230q-3 -7 -7 -7h-72q-8 0 -6 6zM234 575
l149 146q5 6 10 6h84q7 0 3 -8l-161 -146q-4 -4 -10 -4h-72q-6 0 -3 6z" />
    <glyph glyph-name="iotatonos" unicode="&#x3af;" horiz-adv-x="236" 
d="M102 476q0 6 6 6h74q5 0 5 -5l-67 -378q-8 -47 25 -47q13 0 29 4q4 2 4 -2v-2l-8 -43q-1 -7 -5 -9q-19 -9 -55 -9q-95 0 -75 109zM103 567l149 146q4 6 10 6h84q4 0 4.5 -2.5t-1.5 -4.5l-161 -146q-4 -5 -10 -5h-72q-7 0 -3 6z" />
    <glyph glyph-name="upsilondieresistonos" unicode="&#x3b0;" horiz-adv-x="487" 
d="M352 482h67q7 0 8 -5q12 -43 12 -116q0 -68 -13.5 -131t-41.5 -118.5t-78 -88.5t-115 -33q-77 0 -120 46.5t-28 125.5l31 175q18 96 16 139q-2 6 4 6h71q7 0 7 -4q6 -37 -6 -92l-40 -230q-10 -53 13.5 -78.5t64.5 -25.5q39 0 69.5 29t48 77t26 101.5t8.5 109.5
q0 50 -9 107q-1 6 5 6zM215 534l68 170q1 4 6 4h65q5 0 3 -5l-78 -170q-4 -4 -7 -4h-54q-5 0 -3 5zM146 564q-18 0 -28.5 11.5t-9.5 31.5q2 20 14.5 32t30.5 12q19 0 29.5 -12.5t8.5 -31.5q-1 -19 -13.5 -31t-31.5 -12zM406 564q-18 0 -28.5 11.5t-9.5 31.5q2 20 14.5 32
t30.5 12t28.5 -12.5t9.5 -31.5t-13.5 -31t-31.5 -12z" />
    <glyph glyph-name="alpha" unicode="&#x3b1;" horiz-adv-x="514" 
d="M413 482h67q5 0 3 -6q-53 -134 -83 -358q-9 -63 28 -63q14 0 25 5q2 1 3.5 -0.5t0.5 -5.5l-9 -46q-1 -6 -5 -8q-18 -9 -48 -9q-34 0 -52.5 23t-14.5 70l4 26q-63 -119 -171 -119q-64 0 -98 46.5t-34 126.5q-1 80 28 154.5t84 124t122 49.5q94 0 118 -89q17 60 27 77
q1 2 5 2zM271 427q-67 0 -111 -82.5t-45 -175.5q0 -109 75 -109q57 0 99 62t57 150q12 70 -7 112.5t-68 42.5z" />
    <glyph glyph-name="beta" unicode="&#x3b2;" horiz-adv-x="514" 
d="M251 346h-19q-5 0 -4 7l9 54q1 7 7 7h19q56 0 94 42t38 107q0 45 -21.5 75t-63.5 30q-94 0 -121 -162l-70 -405q40 -47 110 -47q64 0 102.5 45.5t38.5 115.5q0 55 -31.5 92.5t-87.5 38.5zM-18 -198l119 684q43 244 216 244q70 0 114 -44.5t44 -120.5q0 -67 -34 -115
t-88 -69v-1q46 -22 74 -66.5t28 -103.5q0 -102 -63.5 -161t-156.5 -59q-78 0 -128 43l-40 -222q-1 -7 -8 -8q-49 -7 -71 -7q-7 0 -6 6z" />
    <glyph glyph-name="gamma" unicode="&#x3b3;" horiz-adv-x="432" 
d="M133 -218q-56 -7 -77 -7q-5 0 -4 6q52 173 63 230q14 76 -14 214t-80 250q-3 7 3 7h79q7 0 9 -4q24 -51 45.5 -152t23.5 -189h1q27 63 86.5 173.5t94.5 167.5q1 4 7 4h80q6 0 3 -6q-66 -101 -140 -232t-108 -207q-10 -23 -12 -29q-7 -24 -17.5 -67t-21.5 -90.5t-14 -61.5
q-1 -6 -7 -7z" />
    <glyph glyph-name="delta" unicode="&#x3b4;" horiz-adv-x="505" 
d="M312 730q55 0 107 -16t76 -36q2 -2 2 -8l-12 -58q-2 -7 -7 -3q-76 54 -173 54q-51 0 -69.5 -17t-17.5 -37q0 -22 22.5 -53.5t96.5 -100.5q53 -50 81.5 -99t28.5 -115q0 -107 -63 -179t-168 -72q-79 0 -131.5 53t-52.5 142q0 95 54.5 163t151.5 93l-31 33q-69 74 -71 136
q-1 48 41 84t135 36zM225 52q58 0 96.5 51.5t39.5 127.5q0 48 -18 85t-61 78q-75 -16 -119.5 -73.5t-44.5 -138.5q0 -52 28 -91t79 -39z" />
    <glyph glyph-name="epsilon" unicode="&#x3b5;" horiz-adv-x="415" 
d="M133 252v2q-65 29 -65 98q0 58 48.5 99t135.5 41q81 0 127 -31q3 -3 3 -9l-11 -54q-2 -8 -7 -3q-49 32 -112 32q-46 0 -73.5 -22t-26.5 -56q0 -30 22.5 -48.5t69.5 -18.5h61q4 0 4 -6l-10 -52q-2 -6 -8 -6h-68q-59 0 -90 -23t-30 -62q0 -34 30.5 -55t77.5 -21
q80 0 138 35q3 1 4.5 -0.5t0.5 -4.5l-11 -55q-1 -5 -8 -10q-51 -32 -147 -32q-72 0 -122 34.5t-50 95.5q-1 51 31.5 84.5t85.5 47.5z" />
    <glyph glyph-name="zeta" unicode="&#x3b6;" horiz-adv-x="368" 
d="M153 660q-4 1 -4 7l20 51q1 5 6 5q19 -3 99 -3h167q5 0 5 -5l-9 -41q-2 -6 -6 -8q-18 -13 -37 -28q-125 -109 -200.5 -233t-75.5 -230q0 -45 19.5 -67t65.5 -38q58 -21 85 -46.5t27 -67.5q1 -63 -42.5 -106t-129.5 -58q-3 -1 -4.5 0.5t-0.5 4.5l11 59q0 6 6 7
q78 21 78 79q0 19 -15 31t-50 23q-68 21 -101 55t-34 101q0 120 77 253t209 251q-145 0 -166 4z" />
    <glyph glyph-name="eta" unicode="&#x3b7;" horiz-adv-x="501" 
d="M18 6l65 362q11 68 11 108q0 6 5 6h62q8 0 10 -4q4 -25 -7 -92q75 106 171 106q58 0 88 -43t11 -147l-91 -510q-1 -5 -7 -8q-7 -1 -25 -3t-32 -4t-16 -2q-6 0 -5 7l94 529q12 48 1.5 80t-49.5 32q-53 0 -100 -58t-60 -128l-41 -230q-3 -7 -7 -7h-72q-8 0 -6 6z" />
    <glyph glyph-name="theta" unicode="&#x3b8;" horiz-adv-x="527" 
d="M209 -9q-82 0 -122 64.5t-40 173.5q0 82 17.5 166t51 157.5t89 120t123.5 46.5q55 0 91 -35.5t50.5 -86.5t14.5 -114q0 -82 -16 -165t-47 -158t-86.5 -122t-125.5 -47zM149 393h246q8 58 8 105q0 159 -84 159q-57 0 -102.5 -73.5t-67.5 -190.5zM385 329h-248
q-8 -61 -8 -111q0 -166 90 -166q59 0 102.5 75t63.5 202z" />
    <glyph glyph-name="iota" unicode="&#x3b9;" horiz-adv-x="236" 
d="M102 476q0 6 6 6h74q5 0 5 -5l-67 -378q-8 -47 25 -47q13 0 29 4q4 2 4 -2v-2l-8 -43q-1 -7 -5 -9q-19 -9 -55 -9q-95 0 -75 109z" />
    <glyph glyph-name="kappa" unicode="&#x3ba;" horiz-adv-x="464" 
d="M140 213l-37 -207q-1 -6 -6 -6h-72q-7 0 -6 7l84 470q0 5 6 5h73q6 0 5 -5l-35 -200h29q11 0 18 8q86 94 174 193q3 4 9 4h78q8 0 3 -7q-30 -38 -216 -229q23 -35 79 -123t74 -116q4 -7 -3 -7h-82q-7 0 -9 5q-23 36 -119 198q-4 10 -16 10h-31z" />
    <glyph glyph-name="lambda" unicode="&#x3bb;" horiz-adv-x="467" 
d="M308 6q-8 56 -25.5 184t-26.5 193h-1q-20 -59 -180 -378q-3 -5 -6 -5h-78q-7 0 -4 7l236 456q11 20 8 29q-13 87 -38.5 128.5t-71.5 41.5q-34 0 -55 -7q-2 -1 -3.5 0t-0.5 4l11 54q0 5 5 7q25 10 64 10q68 0 109 -56.5t66 -199.5q10 -59 37 -223.5t40 -243.5q0 -7 -5 -7
h-74q-6 0 -7 6z" />
    <glyph glyph-name="uni03BC" unicode="&#x3bc;" horiz-adv-x="506" 
d="M460 476l-64 -360q-10 -56 27 -56q18 0 29 4q3 1 4 -1t0 -5l-9 -51q-1 -4 -6 -7q-17 -9 -51 -9q-76 0 -69 88q0 8 3 17q-60 -105 -154 -105q-53 0 -72 39q-9 -82 -39 -241q-1 -6 -6 -7q-8 -1 -25.5 -2.5t-30 -3t-15.5 -1.5q-6 0 -5 7l123 694q0 6 7 6h72q6 0 5 -6
l-58 -328q-8 -42 7.5 -65.5t50.5 -23.5q52 0 94.5 52.5t61.5 159.5l36 204q0 7 7 7h71q6 0 6 -6z" />
    <glyph glyph-name="nu" unicode="&#x3bd;" horiz-adv-x="428" 
d="M47 482h80q6 0 7 -4q12 -53 19.5 -176t5.5 -219h2q170 229 178 393q0 6 6 6h68q6 0 7 -5q-4 -107 -70.5 -231.5t-169.5 -239.5q-6 -6 -10 -6h-71q-9 0 -9 6q-3 125 -15 263t-32 207q-3 6 4 6z" />
    <glyph glyph-name="xi" unicode="&#x3be;" horiz-adv-x="406" 
d="M324 730q65 0 103 -21q3 -3 2 -9l-9 -54q-2 -7 -7 -4q-44 20 -89 20q-62 0 -97 -39t-34 -96q0 -52 31.5 -81t85.5 -29h45q7 0 5 -7l-10 -56q-1 -7 -8 -7h-54q-75 0 -123 -45t-48 -111q0 -53 29 -80.5t90 -43.5q62 -19 88.5 -47.5t27.5 -69.5q1 -61 -42.5 -103.5
t-123.5 -55.5q-3 -1 -4.5 0t-0.5 5l11 59q1 6 6 7q70 22 70 73q0 20 -15 34.5t-53 24.5q-84 23 -128 63t-44 118q1 74 46 131.5t119 80.5q-38 19 -60.5 56.5t-22.5 85.5q0 86 57.5 143.5t156.5 57.5z" />
    <glyph glyph-name="omicron" unicode="&#x3bf;" horiz-adv-x="502" 
d="M278 492q78 0 126 -54t48 -146q0 -76 -27 -143.5t-83 -112.5t-131 -45q-80 0 -128.5 52t-48.5 145q0 120 67.5 212t176.5 92zM272 430q-65 0 -109 -75t-44 -173q0 -55 23.5 -92.5t74.5 -37.5q62 0 106 75t43 175q0 53 -22 90.5t-72 37.5z" />
    <glyph glyph-name="pi" unicode="&#x3c0;" horiz-adv-x="476" 
d="M111 418h-83q-7 0 -4 7l17 50q3 5 7 5q10 2 85 2h365q6 0 5 -5l-16 -52q-2 -7 -7 -7h-70l-48 -267q-16 -90 -5 -144q1 -7 -5 -7h-69q-8 0 -10 6q-13 44 6 146l47 266h-135l-49 -271q-15 -87 -44 -142q-2 -5 -8 -5h-67q-6 0 -5 6q28 56 45 141z" />
    <glyph glyph-name="rho" unicode="&#x3c1;" horiz-adv-x="500" 
d="M277 492q77 0 124 -53.5t47 -144.5q0 -126 -70.5 -214.5t-176.5 -88.5q-59 0 -95 31l-42 -233q-2 -6 -7 -6l-72 -8q-7 0 -6 7l87 495q40 215 211 215zM269 430q-42 0 -73 -34.5t-44 -107.5l-35 -200q30 -36 86 -36q65 0 112.5 73.5t47.5 173.5q0 53 -21.5 92t-72.5 39z
" />
    <glyph glyph-name="uni03C2" unicode="&#x3c2;" horiz-adv-x="395" 
d="M300 492q54 0 82 -14q3 -3 2 -9l-13 -51q-2 -8 -7 -5q-26 13 -68 13q-80 0 -128.5 -65.5t-48.5 -154.5q-1 -58 22 -92.5t80 -51.5q60 -18 81.5 -43.5t21.5 -64.5q1 -57 -41.5 -100t-117.5 -54q-3 -1 -4.5 0.5t-0.5 5.5l11 59q1 6 6 7q65 22 65 69q0 20 -12.5 32t-48.5 21
q-72 21 -109 66.5t-37 133.5q-1 120 72.5 209t192.5 89z" />
    <glyph glyph-name="sigma" unicode="&#x3c3;" horiz-adv-x="512" 
d="M538 478l-14 -55q-1 -5 -6 -5q-92 0 -125 2q20 -18 33 -54t13 -76q1 -130 -64.5 -214.5t-168.5 -84.5q-81 0 -126.5 52.5t-45.5 136.5q-1 129 68.5 216t182.5 86h137h110q5 0 6 -4zM269 419q-66 0 -108 -72.5t-42 -170.5q0 -58 25.5 -91t68.5 -33q62 0 103 72t40 171
q0 55 -21.5 89.5t-65.5 34.5z" />
    <glyph glyph-name="tau" unicode="&#x3c4;" horiz-adv-x="374" 
d="M100 104l55 314h-133q-4 0 -3 7l17 50q1 5 5 6q10 1 65 1h289q5 0 3 -5l-16 -53q-2 -6 -7 -6h-136l-56 -319q-8 -45 31 -45q17 0 38 6q2 1 3 0t0 -4l-9 -47q-1 -6 -6 -8q-19 -10 -62 -10q-98 0 -78 113z" />
    <glyph glyph-name="upsilon" unicode="&#x3c5;" horiz-adv-x="487" 
d="M352 482h67q7 0 8 -5q12 -43 12 -116q0 -68 -13.5 -131t-41.5 -118.5t-78 -88.5t-115 -33q-77 0 -120 46.5t-28 125.5l31 175q18 96 16 139q-2 6 4 6h71q7 0 7 -4q6 -37 -6 -92l-40 -230q-10 -53 13.5 -78.5t64.5 -25.5q39 0 69.5 29t48 77t26 101.5t8.5 109.5
q0 50 -9 107q-1 6 5 6z" />
    <glyph glyph-name="phi" unicode="&#x3c6;" horiz-adv-x="619" 
d="M343 686h72q5 0 5 -5l-35 -195q82 -13 132 -69.5t50 -150.5q-1 -123 -78 -198.5t-191 -77.5l-36 -202q0 -6 -6 -7q-1 0 -37 -3l-36 -3q-6 0 -5 7l38 210q-82 14 -131.5 68t-49.5 146q0 116 76 196t193 87l33 192q1 5 6 5zM227 57l66 370q-77 -5 -125.5 -69.5
t-47.5 -152.5q0 -56 27 -96.5t80 -51.5zM374 425l-66 -371q75 4 124.5 64t48.5 155q0 59 -27 100t-80 52z" />
    <glyph glyph-name="chi" unicode="&#x3c7;" horiz-adv-x="420" 
d="M49 482h76q5 0 6 -4q38 -151 60 -266h2q29 58 149 266q2 4 7 4h77q7 0 4 -6l-205 -330l91 -347q3 -5 -4 -7q-69 -15 -70 -15q-6 0 -7 5q-9 37 -35 150t-34 146h-1q-44 -90 -168 -297q-3 -4 -7 -4l-69 16q-5 3 -2 7l213 349l-87 328q-1 5 4 5z" />
    <glyph glyph-name="psi" unicode="&#x3c8;" horiz-adv-x="615" 
d="M72 482h71q5 0 6 -4q6 -28 -11 -185q-12 -121 9.5 -176t74.5 -61l91 518q2 5 7 5h70q6 0 5 -7l-91 -518q57 3 98 57t72 183q35 155 52 183q2 5 8 5h68q6 0 4 -5q-29 -80 -54 -193q-36 -158 -98.5 -223.5t-159.5 -70.5l-36 -201q-1 -7 -7 -8q-1 -1 -35.5 -3.5t-36.5 -2.5
q-6 0 -6 6l38 210q-87 13 -128.5 81t-26.5 213q15 142 11 192q-1 5 5 5z" />
    <glyph glyph-name="omega" unicode="&#x3c9;" horiz-adv-x="670" 
d="M390 346l-36 -192q-7 -42 6 -68.5t46 -26.5q53 0 89.5 77t35.5 175q0 95 -36 165q-3 6 4 6h70q4 0 8 -4q37 -69 37 -170q0 -133 -60.5 -225t-152.5 -92q-85 0 -107 79h-2q-47 -79 -129 -79q-60 0 -92.5 47.5t-32.5 120.5q-1 91 38 179.5t88 139.5q3 4 10 4h73q5 0 2 -7
q-52 -58 -89.5 -145t-37.5 -168q0 -103 63 -103q32 0 55.5 27t29.5 67l34 193q1 5 6 5h76q5 0 4 -5z" />
    <glyph glyph-name="iotadieresis" unicode="&#x3ca;" horiz-adv-x="236" 
d="M102 476q0 6 6 6h74q5 0 5 -5l-67 -378q-8 -47 25 -47q13 0 29 4q4 2 4 -2v-2l-8 -43q-1 -7 -5 -9q-19 -9 -55 -9q-95 0 -75 109zM69 589q-21 0 -32.5 13t-9.5 33q2 21 16.5 33.5t35.5 12.5t32 -12.5t9 -33.5q-2 -20 -16 -33t-35 -13zM251 589q-20 0 -32 13t-10 33
q2 21 16.5 33.5t35.5 12.5t32 -13t9 -33t-16 -33t-35 -13z" />
    <glyph glyph-name="upsilondieresis" unicode="&#x3cb;" horiz-adv-x="487" 
d="M352 482h67q7 0 8 -5q12 -43 12 -116q0 -68 -13.5 -131t-41.5 -118.5t-78 -88.5t-115 -33q-77 0 -120 46.5t-28 125.5l31 175q18 96 16 139q-2 6 4 6h71q7 0 7 -4q6 -37 -6 -92l-40 -230q-10 -53 13.5 -78.5t64.5 -25.5q39 0 69.5 29t48 77t26 101.5t8.5 109.5
q0 50 -9 107q-1 6 5 6zM188 589q-20 0 -32 13t-10 33q2 21 16.5 33.5t35.5 12.5t32 -13t9 -33t-16 -33t-35 -13zM370 589q-20 0 -32 13t-10 33q3 21 17 33.5t35 12.5t32 -13t9 -33t-16 -33t-35 -13z" />
    <glyph glyph-name="omicrontonos" unicode="&#x3cc;" horiz-adv-x="502" 
d="M278 492q78 0 126 -54t48 -146q0 -76 -27 -143.5t-83 -112.5t-131 -45q-80 0 -128.5 52t-48.5 145q0 120 67.5 212t176.5 92zM272 430q-65 0 -109 -75t-44 -173q0 -55 23.5 -92.5t74.5 -37.5q62 0 106 75t43 175q0 53 -22 90.5t-72 37.5zM227 568l148 147q4 5 10 5h84
q4 0 4.5 -2.5t-1.5 -4.5l-160 -146q-5 -5 -11 -5h-72q-2 0 -3 2t1 4z" />
    <glyph glyph-name="upsilontonos" unicode="&#x3cd;" horiz-adv-x="487" 
d="M352 482h67q7 0 8 -5q12 -43 12 -116q0 -68 -13.5 -131t-41.5 -118.5t-78 -88.5t-115 -33q-77 0 -120 46.5t-28 125.5l31 175q18 96 16 139q-2 6 4 6h71q7 0 7 -4q6 -37 -6 -92l-40 -230q-10 -53 13.5 -78.5t64.5 -25.5q39 0 69.5 29t48 77t26 101.5t8.5 109.5
q0 50 -9 107q-1 6 5 6zM214 562l149 147q3 5 9 5h85q7 0 3 -7l-161 -146q-5 -5 -10 -5h-72q-9 0 -3 6z" />
    <glyph glyph-name="omegatonos" unicode="&#x3ce;" horiz-adv-x="670" 
d="M390 346l-36 -192q-7 -42 6 -68.5t46 -26.5q53 0 89.5 77t35.5 175q0 95 -36 165q-3 6 4 6h70q4 0 8 -4q37 -69 37 -170q0 -133 -60.5 -225t-152.5 -92q-85 0 -107 79h-2q-47 -79 -129 -79q-60 0 -92.5 47.5t-32.5 120.5q-1 91 38 179.5t88 139.5q3 4 10 4h73q5 0 2 -7
q-52 -58 -89.5 -145t-37.5 -168q0 -103 63 -103q32 0 55.5 27t29.5 67l34 193q1 5 6 5h76q5 0 4 -5zM320 555l149 146q3 6 9 6h85q7 0 3 -8l-161 -146q-5 -4 -10 -4h-72q-6 0 -3 6z" />
    <glyph glyph-name="uni03D1" unicode="&#x3d1;" horiz-adv-x="504" 
d="M24 236h71q5 0 7 -5q10 -21 23 -82q13 -53 32.5 -74.5t48.5 -21.5q53 0 96.5 72.5t62.5 176.5q-123 0 -204 61t-81 160q-1 92 50.5 149.5t141.5 57.5q95 0 143.5 -75.5t48.5 -187.5q1 -115 -29.5 -222.5t-93 -180.5t-143.5 -73q-64 0 -96.5 33.5t-53.5 108.5
q-17 72 -29 97q-1 6 5 6zM377 366q7 55 7 107q0 33 -5 63.5t-17 61.5t-36.5 50t-58.5 19q-53 0 -79.5 -37t-26.5 -99q0 -75 62.5 -121t153.5 -44z" />
    <glyph glyph-name="uni03D7" unicode="&#x3d7;" horiz-adv-x="506" 
d="M279 253q65 -22 105 -69.5t41 -119.5q0 -118 -80.5 -185.5t-208.5 -67.5q-121 0 -178 43q-4 4 -3 9l13 61q2 6 7 4q69 -46 167 -46q94 0 143 49.5t49 128.5q0 72 -52 109.5t-133 39.5l-37 -203q0 -6 -6 -6h-71q-7 0 -6 7l65 365q12 72 10 103q-1 6 6 6h70q7 0 7 -6
q5 -27 -10 -106l-17 -96q12 0 51 -3l167 208q2 3 8 3h85q7 0 2 -7z" />
    <glyph glyph-name="uni03D9" unicode="&#x3d9;" horiz-adv-x="502" 
d="M125 -219l38 215q-60 15 -94.5 64.5t-34.5 127.5q0 120 67.5 212t176.5 92q78 0 126 -54t48 -146q0 -109 -55 -196t-150 -102l-37 -205q0 -7 -8 -7q-9 -1 -26 -3t-29.5 -3.5t-14.5 -1.5q-8 0 -7 7zM217 52q62 0 106 75t43 175q0 53 -22 90.5t-72 37.5q-65 0 -109 -75
t-44 -173q0 -55 23.5 -92.5t74.5 -37.5z" />
    <glyph glyph-name="uni03DB" unicode="&#x3db;" horiz-adv-x="401" 
d="M350 616h60q6 0 6 -6l-40 -185q-1 -7 -10 -7q-10 2 -36 2q-100 -1 -155 -62.5t-55 -152.5q0 -64 24.5 -94.5t87.5 -48.5q52 -15 74.5 -38t23.5 -63q1 -78 -66 -143q-6 -6 -10 -6h-73q-4 0 -4 3t2 5q68 79 67 124q-1 18 -13.5 30t-44.5 21q-79 21 -116 66t-37 136
q2 121 78 204.5t202 86.5l29 122q0 6 6 6z" />
    <glyph glyph-name="uni03DD" unicode="&#x3dd;" horiz-adv-x="400" 
d="M119 110l-56 -322q-1 -6 -7 -7q-69 -6 -73 -6q-5 0 -5 6l122 695q1 6 7 6h286q5 0 5 -4v-55q0 -5 -6 -5h-219l-42 -244h194q4 0 4 -5l-10 -54q0 -5 -6 -5h-194z" />
    <glyph glyph-name="uni03E1" unicode="&#x3e1;" horiz-adv-x="506" 
d="M54 573l-2 74q0 5 6 4q120 -52 208 -153.5t134.5 -230.5t51.5 -273q0 -74 -3 -98q0 -5 -5 -5h-61q-5 0 -5 5q6 140 -25 263l-207 -111q-5 -2 -6 3l-29 53q-1 4 3 7l218 115q-29 85 -63 136l-220 -111q-5 -2 -6 1l-28 56q-1 6 2 7l213 106q-70 98 -172 145q-4 2 -4 7z" />
    <glyph glyph-name="uni0400" unicode="&#x400;" horiz-adv-x="481" 
d="M414 61l-20 -56q-2 -5 -6 -5h-356q-6 0 -6 6l116 655q1 5 6 5h319q6 0 6 -5l4 -57q0 -5 -5 -5h-259l-39 -227h238q5 0 4 -5l-10 -57q-1 -4 -7 -4h-237l-42 -239h292q5 0 2 -6zM285 830l81 -108q7 -7 -3 -7h-65q-6 0 -11 5l-96 107q-5 7 3 7h82q6 0 9 -4z" />
    <glyph glyph-name="uni0401" unicode="&#x401;" horiz-adv-x="481" 
d="M414 61l-20 -56q-2 -5 -6 -5h-356q-6 0 -6 6l116 655q1 5 6 5h319q6 0 6 -5l4 -57q0 -5 -5 -5h-259l-39 -227h238q5 0 4 -5l-10 -57q-1 -4 -7 -4h-237l-42 -239h292q5 0 2 -6zM218 729q-21 0 -33.5 13t-11.5 33q1 21 16 34t37 13t34.5 -13t11.5 -34t-16 -33.5t-38 -12.5z
M407 729q-21 0 -34 12.5t-11 33.5q1 21 16 34t37 13q21 0 34 -13.5t11 -33.5q-1 -22 -15.5 -34t-37.5 -12z" />
    <glyph glyph-name="uni0402" unicode="&#x402;" horiz-adv-x="622" 
d="M316 599l-37 -215q39 9 82 9q87 0 143.5 -48t56.5 -137q0 -96 -61 -153.5t-143 -63.5q-3 -1 -4.5 0t-0.5 4l11 62q1 5 6 5q43 10 75 44.5t33 95.5q0 58 -34.5 92.5t-97.5 34.5q-44 0 -77 -10l-56 -312q-1 -7 -7 -7h-71q-7 0 -6 7l105 592h-164q-6 0 -3 6l18 56q1 5 7 5
h457q5 0 5 -5l-1 -56q0 -6 -6 -6h-230z" />
    <glyph glyph-name="uni0403" unicode="&#x403;" horiz-adv-x="454" 
d="M211 599l-103 -593q-1 -6 -6 -6h-72q-8 0 -6 6l115 654q1 6 6 6h330q6 0 6 -5l3 -57q0 -5 -5 -5h-268zM260 730l144 110q6 3 10 3h92q4 0 4.5 -2.5t-1.5 -4.5l-156 -107q-5 -5 -11 -5h-78q-8 0 -4 6z" />
    <glyph glyph-name="uni0404" unicode="&#x404;" horiz-adv-x="530" 
d="M410 676q93 0 134 -26q3 -3 2 -8l-13 -56q-1 -5 -7 -4q-48 27 -121 27q-103 0 -170 -65.5t-87 -170.5h286q5 0 5 -5l-12 -56q-1 -6 -7 -6h-279q-3 -20 -3 -45q0 -84 45.5 -143.5t137.5 -59.5q76 0 140 31q3 1 4.5 0t0.5 -5l-12 -56q0 -6 -7 -10q-47 -27 -145 -27
q-112 0 -181 75.5t-69 203.5q0 108 41 199.5t124 149t193 57.5z" />
    <glyph glyph-name="uni0405" unicode="&#x405;" horiz-adv-x="458" 
d="M3 59l13 63q0 6 6 2q74 -66 166 -66q63 0 93 29.5t30 77.5q0 42 -24 72.5t-74 65.5q-70 47 -103 88t-33 106q0 73 52 126t148 53q95 0 146 -39q4 -3 2 -8l-12 -60q-2 -7 -7 -3q-55 43 -132 43q-58 0 -87 -31.5t-29 -73.5q0 -38 23.5 -65.5t72.5 -61.5q73 -48 107.5 -91.5
t34.5 -112.5q0 -81 -56 -131.5t-155 -50.5q-113 -1 -179 57q-5 4 -3 11z" />
    <glyph glyph-name="uni0406" unicode="&#x406;" horiz-adv-x="236" 
d="M226 660l-116 -654q0 -6 -5 -6h-72q-7 0 -6 6l115 655q1 5 6 5h72q6 0 6 -6z" />
    <glyph glyph-name="uni0407" unicode="&#x407;" horiz-adv-x="236" 
d="M226 660l-116 -654q0 -6 -5 -6h-72q-7 0 -6 6l115 655q1 5 6 5h72q6 0 6 -6zM95 719q-22 0 -34.5 13t-11.5 34q2 20 17 33.5t37 13.5q21 0 34 -13.5t11 -33.5q-1 -21 -16 -34t-37 -13zM283 720q-21 0 -33.5 12.5t-11.5 33.5q2 20 16.5 33.5t36.5 13.5q21 0 34 -13.5
t11 -34.5q-1 -21 -15.5 -33t-37.5 -12z" />
    <glyph glyph-name="uni0408" unicode="&#x408;" horiz-adv-x="317" 
d="M229 666h72q7 0 6 -6l-88 -500q-12 -69 -29 -107q-45 -98 -155 -98q-44 0 -70 13q-5 2 -3 8l12 57q2 5 5 4q24 -11 51 -11q47 0 69 29.5t35 97.5l89 507q1 6 6 6z" />
    <glyph glyph-name="uni0409" unicode="&#x409;" horiz-adv-x="880" 
d="M581 661l-47 -267q7 0 26.5 0.5t31.5 0.5q98 0 162.5 -44.5t65.5 -137.5q1 -109 -77 -162.5t-209 -53.5q-105 0 -147 4q-5 1 -4 5l104 593h-129q-110 -405 -225 -533q-68 -75 -161 -75q-6 0 -5 7l13 75q1 7 6 7q53 2 96 51q59 63 117.5 218t97.5 312q1 5 6 5h273
q5 0 5 -5zM523 329l-47 -265q32 -2 75 -2q81 0 132.5 35.5t51.5 109.5q0 62 -40.5 92.5t-112.5 30.5q-44 0 -59 -1z" />
    <glyph glyph-name="uni040A" unicode="&#x40a;" horiz-adv-x="873" 
d="M105 0h-72q-7 0 -6 6l115 655q1 5 6 5h73q4 0 4 -5l-46 -268h265l47 268q1 5 6 5h74q5 0 4 -6l-47 -268q15 1 57 1q99 0 163.5 -44t64.5 -138q0 -109 -77.5 -161.5t-208.5 -52.5q-104 0 -146 4q-7 0 -5 7l56 318h-265l-57 -320q0 -6 -5 -6zM516 327l-47 -263q32 -2 74 -2
q81 0 133 35.5t52 109.5q1 60 -40 90.5t-114 30.5q-42 0 -58 -1z" />
    <glyph glyph-name="uni040B" unicode="&#x40b;" horiz-adv-x="614" 
d="M265 308l-54 -302q-1 -6 -7 -6h-71q-6 0 -5 7l104 591h-164q-6 0 -3 6l19 57q1 5 6 5h454q5 0 5 -5l2 -57q-1 -6 -6 -6h-230l-39 -225q54 20 118 20q32 0 60.5 -10t54 -32t36 -65t0.5 -101l-33 -179q-2 -6 -5 -6h-72q-7 0 -6 7l34 189q12 65 -15.5 99t-82.5 34t-100 -21z
" />
    <glyph glyph-name="uni040C" unicode="&#x40c;" horiz-adv-x="551" 
d="M102 0h-71q-7 0 -6 6l115 655q1 5 6 5h72q6 0 6 -6l-51 -289h40q18 0 25 10q40 45 122.5 143.5t117.5 137.5q3 4 9 4h78q9 0 3 -8q-213 -246 -286 -323q15 -26 107 -170t101 -159q4 -6 -3 -6h-79q-6 0 -10 4q-27 41 -88.5 146.5t-83.5 139.5q-9 14 -25 14h-40l-53 -299
q-1 -5 -6 -5zM289 716l144 109q4 4 10 4h92q3 0 4 -2.5t-1 -4.5l-156 -107q-5 -5 -11 -5h-79q-7 0 -3 6z" />
    <glyph glyph-name="uni040D" unicode="&#x40d;" horiz-adv-x="611" 
d="M147 666h71q6 0 4 -5l-47 -270q-37 -209 -55 -282h1q62 99 392 553q3 4 7 4h77q4 0 4 -5l-116 -655q0 -6 -5 -6h-68q-8 0 -6 6l43 245q38 216 60 301h-1q-70 -125 -385 -547q-3 -5 -8 -5h-82q-7 0 -6 7l115 654q2 5 5 5zM340 824l81 -108q7 -7 -3 -7h-64q-7 0 -12 4
l-96 108q-2 2 -1 4.5t4 2.5h82q6 0 9 -4z" />
    <glyph glyph-name="uni040E" unicode="&#x40e;" horiz-adv-x="525" 
d="M81 666h77q5 0 6 -4q81 -318 95 -388q71 113 225 387q2 5 7 5h78q5 0 3 -6q-229 -408 -420 -655q-4 -5 -10 -5h-82q-3 0 -3.5 3t1.5 5q59 69 140 186q5 10 3 15l-125 451q-2 6 5 6zM182 836h59q5 0 6 -5q12 -58 79 -58q65 0 95 58q3 5 8 5h59q10 0 5 -7
q-44 -119 -175 -119q-60 0 -97.5 31t-45.5 89q-1 3 1 4.5t6 1.5z" />
    <glyph glyph-name="uni040F" unicode="&#x40f;" horiz-adv-x="609" 
d="M217 0h-184q-7 0 -6 6l116 654q0 6 6 6h72q6 0 6 -7l-105 -592h287l105 593q2 6 6 6h73q6 0 5 -6l-116 -653q-2 -7 -6 -7h-178l-30 -147q-2 -6 -6 -6h-66q-5 0 -4 5z" />
    <glyph glyph-name="uni0410" unicode="&#x410;" horiz-adv-x="577" 
d="M384 217h-218l-104 -212q-2 -5 -7 -5h-73q-7 0 -4 6l306 616q5 8 12 40q0 4 4 4h98q3 0 4 -4l95 -656q0 -6 -5 -6h-70q-7 0 -8 6zM196 284h181q-33 211 -39 310h-1q-19 -57 -141 -310z" />
    <glyph glyph-name="uni0411" unicode="&#x411;" horiz-adv-x="531" 
d="M213 599l-36 -208q15 1 66 1q99 0 163.5 -46t64.5 -139q1 -107 -76.5 -158.5t-209.5 -51.5q-111 0 -153 4q-6 2 -5 8l115 652q1 5 5 5h318q4 0 5 -5l3 -57q0 -5 -6 -5h-254zM167 326l-47 -262q32 -2 81 -2q82 0 134.5 34t51.5 109q-1 61 -42.5 91.5t-111.5 30.5
q-51 0 -66 -1z" />
    <glyph glyph-name="uni0412" unicode="&#x412;" horiz-adv-x="532" 
d="M27 8l114 651q1 5 5 6q51 3 135 3q85 0 142.5 -36.5t57.5 -121.5q0 -62 -36 -102.5t-91 -55.5v-1q117 -38 117 -157q0 -95 -74.5 -145.5t-200.5 -51.5q-90 0 -164 4q-7 0 -5 7zM164 319l-44 -254q33 -3 90 -3q80 0 128 34.5t48 100.5q0 59 -40.5 90.5t-106.5 31.5h-75z
M214 602l-38 -218h69q77 0 115 32t38 84q0 103 -121 103q-19 0 -40 -0.5t-23 -0.5z" />
    <glyph glyph-name="uni0413" unicode="&#x413;" horiz-adv-x="454" 
d="M211 599l-103 -593q-1 -6 -6 -6h-72q-8 0 -6 6l115 654q1 6 6 6h330q6 0 6 -5l3 -57q0 -5 -5 -5h-268z" />
    <glyph glyph-name="uni0414" unicode="&#x414;" horiz-adv-x="573" 
d="M96 67h272l93 532h-134q-37 -165 -100.5 -309.5t-130.5 -222.5zM445 0h-416l-34 -149q-1 -5 -6 -5h-64q-5 0 -4 6l36 207q1 4 6 6l39 2q86 91 155.5 257.5t105.5 336.5q1 5 6 5h284q4 0 4 -4l-104 -595l84 -2q4 0 3 -5l-47 -208q-1 -6 -7 -6h-62q-6 0 -5 6z" />
    <glyph glyph-name="uni0415" unicode="&#x415;" horiz-adv-x="481" 
d="M414 61l-20 -56q-2 -5 -6 -5h-356q-6 0 -6 6l116 655q1 5 6 5h319q6 0 6 -5l4 -57q0 -5 -5 -5h-259l-39 -227h238q5 0 4 -5l-10 -57q-1 -4 -7 -4h-237l-42 -239h292q5 0 2 -6z" />
    <glyph glyph-name="uni0416" unicode="&#x416;" horiz-adv-x="774" 
d="M114 666h72q6 0 8 -5q17 -37 58.5 -138t59.5 -140q2 -8 13 -8h39l50 286q1 5 6 5h71q6 0 5 -6l-50 -285h44q10 0 15 8q32 42 105 143.5t99 135.5q3 4 9 4h76q8 0 4 -7q-230 -301 -246 -320q31 -61 88 -183t66 -150q2 -6 -3 -6h-74q-6 0 -8 4q-10 28 -56 135t-72 159
q-4 10 -14 10h-45l-54 -303q0 -5 -6 -5h-69q-6 0 -6 6l54 302h-38q-10 0 -16 -7q-30 -35 -80 -98t-101.5 -129.5t-52.5 -68.5q-3 -5 -9 -5h-81q-3 0 -4 2t1 4q1 1 72 89.5t126.5 156t83.5 96.5q-13 29 -66.5 145.5t-76.5 166.5q-3 6 3 6z" />
    <glyph glyph-name="uni0417" unicode="&#x417;" horiz-adv-x="464" 
d="M74 572l13 61q2 6 4 7q63 36 151 36q74 0 127.5 -42.5t53.5 -118.5q0 -65 -38 -106.5t-96 -56.5v-1q50 -18 82 -59.5t32 -99.5q0 -96 -70 -148.5t-167 -52.5q-115 0 -180 48q-3 3 -2 9l12 62q2 4 6 3q71 -54 161 -54q72 0 113.5 37t41.5 100q0 61 -42 92.5t-107 31.5h-58
q-5 0 -5 5l10 57q0 5 6 5h57q76 0 118 30t42 89q0 48 -33 75t-85 27q-77 0 -142 -39q-5 -3 -5 3z" />
    <glyph glyph-name="uni0418" unicode="&#x418;" horiz-adv-x="611" 
d="M147 666h71q6 0 4 -5l-47 -270q-37 -209 -55 -282h1q62 99 392 553q3 4 7 4h77q4 0 4 -5l-116 -655q0 -6 -5 -6h-68q-8 0 -6 6l43 245q38 216 60 301h-1q-70 -125 -385 -547q-3 -5 -8 -5h-82q-7 0 -6 7l115 654q2 5 5 5z" />
    <glyph glyph-name="uni0419" unicode="&#x419;" horiz-adv-x="611" 
d="M147 666h71q6 0 4 -5l-47 -270q-37 -209 -55 -282h1q62 99 392 553q3 4 7 4h77q4 0 4 -5l-116 -655q0 -6 -5 -6h-68q-8 0 -6 6l43 245q38 216 60 301h-1q-70 -125 -385 -547q-3 -5 -8 -5h-82q-7 0 -6 7l115 654q2 5 5 5zM236 833h59q5 0 6 -5q11 -58 79 -58q66 0 96 57
q3 6 8 6h59q7 0 5 -7q-46 -119 -176 -119q-60 0 -97 31t-46 89q0 6 7 6z" />
    <glyph glyph-name="uni041A" unicode="&#x41a;" horiz-adv-x="551" 
d="M102 0h-71q-7 0 -6 6l115 655q1 5 6 5h72q6 0 6 -6l-51 -289h40q18 0 25 10q40 45 122.5 143.5t117.5 137.5q3 4 9 4h78q9 0 3 -8q-213 -246 -286 -323q15 -26 107 -170t101 -159q4 -6 -3 -6h-79q-6 0 -10 4q-27 41 -88.5 146.5t-83.5 139.5q-9 14 -25 14h-40l-53 -299
q-1 -5 -6 -5z" />
    <glyph glyph-name="uni041B" unicode="&#x41b;" horiz-adv-x="592" 
d="M82 131q59 64 117 217.5t98 312.5q1 5 6 5h274q5 0 5 -5l-116 -654q-1 -7 -5 -7h-72q-7 0 -6 7l104 592h-129q-110 -402 -225 -533q-67 -75 -161 -75q-6 0 -5 7l13 75q1 7 6 7q53 2 96 51z" />
    <glyph glyph-name="uni041C" unicode="&#x41c;" horiz-adv-x="789" 
d="M301 6q-55 574 -56 593h-1q-23 -123 -148 -594q-1 -5 -5 -5h-74q-7 0 -4 7l179 655q1 4 6 4h104q5 0 5 -5q53 -427 56 -549h1q37 98 257 549q3 5 7 5h100q6 0 7 -7l-59 -653q0 -6 -5 -6h-74q-7 0 -6 6q44 440 66 592h-1q-47 -119 -276 -593q-2 -5 -6 -5h-65q-7 0 -8 6z
" />
    </font>
</defs>
</svg>
