<svg id="Capa_1" data-name="Capa 1" xmlns="http://www.w3.org/2000/svg" viewBox="0 0 30.07 30.2"><defs><style>.cls-1{fill:#fff;}</style></defs><path class="cls-1" d="M30.05,8.88a11,11,0,0,0-.7-3.66,7.27,7.27,0,0,0-1.74-2.68A7.3,7.3,0,0,0,24.93.8,11.06,11.06,0,0,0,21.27.09C19.65,0,19.14,0,15,0S10.42,0,8.81.09a11.09,11.09,0,0,0-3.66.7A7.33,7.33,0,0,0,2.47,2.54,7.4,7.4,0,0,0,.73,5.21,11.09,11.09,0,0,0,0,8.87C0,10.49-.07,11-.07,15.1s0,4.62.09,6.23A10.76,10.76,0,0,0,.73,25a7.27,7.27,0,0,0,1.74,2.68,7.48,7.48,0,0,0,2.67,1.74,11.15,11.15,0,0,0,3.67.7c1.61.07,2.12.09,6.22.09s4.62,0,6.23-.09a11,11,0,0,0,3.66-.7A7.7,7.7,0,0,0,29.34,25a11.09,11.09,0,0,0,.7-3.66c.07-1.61.09-2.13.09-6.23S30.12,10.49,30.05,8.88ZM27.33,21.21a8.33,8.33,0,0,1-.51,2.8A5,5,0,0,1,24,26.88a8.38,8.38,0,0,1-2.8.52c-1.6.07-2.08.09-6.11.09s-4.51,0-6.1-.09a8.32,8.32,0,0,1-2.8-.52,4.52,4.52,0,0,1-1.73-1.13A4.72,4.72,0,0,1,3.28,24a8.32,8.32,0,0,1-.52-2.8c-.07-1.6-.09-2.07-.09-6.1s0-4.52.09-6.1a8.33,8.33,0,0,1,.52-2.81A4.64,4.64,0,0,1,4.41,4.48,4.68,4.68,0,0,1,6.15,3.35,8.32,8.32,0,0,1,9,2.83c1.59-.07,2.07-.09,6.1-.09s4.51,0,6.1.09a8.26,8.26,0,0,1,2.8.52,4.68,4.68,0,0,1,1.74,1.13,4.85,4.85,0,0,1,1.13,1.73A8.46,8.46,0,0,1,27.33,9c.08,1.59.09,2.07.09,6.1S27.41,19.62,27.33,21.21Z"/><path class="cls-1" d="M15,7.35A7.76,7.76,0,1,0,22.8,15.1,7.76,7.76,0,0,0,15,7.35Zm0,12.79a5,5,0,1,1,5-5A5,5,0,0,1,15,20.14Z"/><path class="cls-1" d="M24.92,7A1.82,1.82,0,1,1,23.1,5.23,1.82,1.82,0,0,1,24.92,7Z"/></svg>