<svg id="Capa_1" data-name="Capa 1" xmlns="http://www.w3.org/2000/svg" viewBox="0 0 30.07 30.2"><defs><style>.cls-1{fill:#fff;}</style></defs><path class="cls-1" d="M29.51,7.84a3.76,3.76,0,0,0-2.66-2.66C24.48,4.53,15,4.53,15,4.53s-9.45,0-11.81.62A3.84,3.84,0,0,0,.56,7.84,39.32,39.32,0,0,0-.07,15.1a39.14,39.14,0,0,0,.63,7.26A3.76,3.76,0,0,0,3.22,25c2.39.64,11.81.64,11.81.64s9.45,0,11.82-.62a3.8,3.8,0,0,0,2.66-2.66,39.93,39.93,0,0,0,.62-7.26A37.53,37.53,0,0,0,29.51,7.84ZM12,19.63V10.57l7.86,4.53Z"/></svg>