<svg xmlns="http://www.w3.org/2000/svg" xmlns:xlink="http://www.w3.org/1999/xlink" viewBox="0 0 69.72 69.72"><defs><style>.cls-1{fill:url(#Degradado_sin_nombre_41);}.cls-2{fill:#fff;}</style><linearGradient id="Degradado_sin_nombre_41" x1="28.26" y1="72.29" x2="41.46" y2="-2.57" gradientUnits="userSpaceOnUse"><stop offset="0" stop-color="#005085"/><stop offset="1" stop-color="#0071bc"/></linearGradient></defs><g id="Capa_2" data-name="Capa 2"><g id="Capa_1-2" data-name="Capa 1"><rect class="cls-1" width="69.72" height="69.72" rx="15"/><polygon class="cls-2" points="45.31 28.75 36.3 34.86 45.31 40.97 45.31 36.87 54.86 36.87 54.86 32.85 45.31 32.85 45.31 28.75"/><path class="cls-2" d="M34.54,5.27H32.45l.72.72v4.14L28.3,5.27H14.09a8.82,8.82,0,0,0-8.82,8.82V54.72c0,5.37,5.08,9.73,9.73,9.73H28.1v-2.7l2.69,2.7h1.94L28.1,59.81V55.67l5.07,5.07v3.71h1.6V5.27ZM16.58,41v-4.1H7v-4h9.54v-4.1l9,6.11ZM33.17,58.8,28.1,53.73V49.59l5.07,5.06Zm0-6.08L28.1,47.65V43.5l5.07,5.07Zm0-6.09L28.1,41.56V37.42l5.07,5.07Zm0-6.08L28.1,35.48V31.34l5.07,5.06Zm0-6.08L28.1,29.4V25.25l5.07,5.07Zm0-6.09L28.1,23.31V19.17l5.07,5.07Zm0-6.08L28.1,17.23V13.09l5.07,5.07Zm0-6.08L28.1,11.15V7l5.07,5.07Z"/></g></g></svg>