<svg xmlns="http://www.w3.org/2000/svg" xmlns:xlink="http://www.w3.org/1999/xlink" viewBox="0 0 69.14 69.14"><defs><style>.cls-1{fill:url(#Degradado_sin_nombre_102);}.cls-2{fill:#1a1a1a;}</style><linearGradient id="Degradado_sin_nombre_102" x1="28.02" y1="71.68" x2="41.11" y2="-2.54" gradientUnits="userSpaceOnUse"><stop offset="0" stop-color="#ffe32a"/><stop offset="1" stop-color="#f0fe60"/></linearGradient></defs><g id="Capa_2" data-name="Capa 2"><g id="Capa_1-2" data-name="Capa 1"><rect class="cls-1" width="69.14" height="69.14" rx="14.92"/><polygon class="cls-2" points="11.35 17.88 19.43 19.43 17.88 11.35 15.69 13.54 10.59 8.44 8.44 10.58 13.54 15.68 11.35 17.88"/><polygon class="cls-2" points="57.78 51.26 49.71 49.71 51.26 57.79 53.45 55.6 58.55 60.7 60.7 58.55 55.59 53.45 57.78 51.26"/><path class="cls-2" d="M34.57,55.87a21.3,21.3,0,1,1,21.3-21.3A21.33,21.33,0,0,1,34.57,55.87Zm0-40A18.71,18.71,0,1,0,53.28,34.57,18.73,18.73,0,0,0,34.57,15.86Z"/><polygon class="cls-2" points="51.26 11.35 49.71 19.43 57.79 17.88 55.6 15.69 60.7 10.59 58.55 8.44 53.45 13.54 51.26 11.35"/><polygon class="cls-2" points="17.88 57.78 19.43 49.71 11.35 51.26 13.54 53.45 8.44 58.55 10.58 60.7 15.68 55.59 17.88 57.78"/><polygon class="cls-2" points="29.46 22.93 21.38 21.38 22.93 29.45 25.12 27.26 30.23 32.37 32.37 30.22 27.27 25.12 29.46 22.93"/><polygon class="cls-2" points="39.68 46.21 47.75 47.76 46.2 39.68 44.01 41.87 38.91 36.77 36.77 38.91 41.87 44.02 39.68 46.21"/><polygon class="cls-2" points="46.21 29.46 47.76 21.38 39.68 22.93 41.87 25.12 36.77 30.23 38.91 32.37 44.02 27.27 46.21 29.46"/><polygon class="cls-2" points="22.93 39.68 21.38 47.75 29.45 46.2 27.26 44.01 32.37 38.91 30.22 36.77 25.12 41.87 22.93 39.68"/></g></g></svg>