<svg xmlns="http://www.w3.org/2000/svg" xmlns:xlink="http://www.w3.org/1999/xlink" viewBox="0 0 69.14 69.14"><defs><style>.cls-1{fill:url(#Degradado_sin_nombre_123);}.cls-2{fill:#1a1a1a;}</style><linearGradient id="Degradado_sin_nombre_123" x1="28.02" y1="71.68" x2="41.11" y2="-2.54" gradientUnits="userSpaceOnUse"><stop offset="0" stop-color="#f6bb00"/><stop offset="1" stop-color="#fcd12a"/></linearGradient></defs><g id="Capa_2" data-name="Capa 2"><g id="Capa_1-2" data-name="Capa 1"><rect class="cls-1" width="69.14" height="69.14" rx="14.92"/><g id="Layer_1" data-name="Layer 1"><path class="cls-2" d="M45.59,24.39a.46.46,0,0,0,.91,0A2.26,2.26,0,0,1,47,22.92,9.45,9.45,0,0,0,48.75,20a.43.43,0,0,0-.06-.41.48.48,0,0,0-.37-.2H43.77a.45.45,0,0,0-.37.2.43.43,0,0,0-.06.41,9.26,9.26,0,0,0,1.71,2.94A2.31,2.31,0,0,1,45.59,24.39Z"/><path class="cls-2" d="M46.56,28.67a.52.52,0,0,0-1,0,2.7,2.7,0,0,1-1.26,2.09,13.74,13.74,0,0,0-3.86,4.13.51.51,0,0,0,0,.52.53.53,0,0,0,.45.25H51.22a.53.53,0,0,0,.45-.25.53.53,0,0,0,0-.52,13.57,13.57,0,0,0-3.85-4.13A2.7,2.7,0,0,1,46.56,28.67Z"/><path class="cls-2" d="M57.3,37.54h-.38c-.44-5-3.38-8.85-5.66-11.58,2.28-2.73,5.22-6.58,5.66-11.59h.38a1.29,1.29,0,1,0,0-2.57H34.78a1.29,1.29,0,0,0,0,2.57h.39c.44,5,3.37,8.86,5.65,11.59-2.28,2.73-5.21,6.57-5.65,11.58h-.39a1.29,1.29,0,0,0,0,2.57H57.3a1.29,1.29,0,1,0,0-2.57Zm-19.55,0c.48-4.53,3.42-8,5.62-10.61l.12-.14a1.3,1.3,0,0,0,0-1.66L43.37,25c-2.2-2.61-5.14-6.09-5.62-10.61H54.34c-.48,4.52-3.43,8-5.62,10.61l-.12.14a1.27,1.27,0,0,0,0,1.66l.12.14c2.19,2.6,5.14,6.08,5.62,10.61Z"/></g><path class="cls-2" d="M10.55,7V44.78H28V7Zm12.17,7.77a.9.9,0,0,1,1.77.35,55.78,55.78,0,0,0,0,21.62.9.9,0,0,1-1.77.35,57.16,57.16,0,0,1,0-22.32ZM19.2,12.7A.89.89,0,0,1,20.27,12,.9.9,0,0,1,21,13.09a59.35,59.35,0,0,0,0,25.72.91.91,0,0,1-.69,1.08.89.89,0,0,1-1.07-.69,60.85,60.85,0,0,1,0-26.5Zm-3.36-2a.91.91,0,0,1,1.76.43,63.1,63.1,0,0,0,0,29.62.91.91,0,0,1-1.76.43,64.72,64.72,0,0,1,0-30.48Z"/><path class="cls-2" d="M14.78,61.22H12.5c-.11,0-.16-.06-.16-.18V53.37c0-.36,0-1-.08-2,0-.13,0-.19.14-.19h2a.23.23,0,0,1,.2.15,2.67,2.67,0,0,1,.15.8,4.42,4.42,0,0,1,3-1.13,3,3,0,0,1,2.71,1.36A4.91,4.91,0,0,1,23.92,51a3.47,3.47,0,0,1,2.51,1,4.11,4.11,0,0,1,1,3.1v6c0,.11-.07.16-.21.16H25c-.12,0-.17-.06-.17-.18V55a2.42,2.42,0,0,0-.42-1.49,1.55,1.55,0,0,0-1.3-.56,2.54,2.54,0,0,0-2,1,7,7,0,0,1,.06,1.1v6c0,.12-.05.18-.16.18H18.77q-.21,0-.21-.18V55a2.23,2.23,0,0,0-.44-1.51A1.58,1.58,0,0,0,16.87,53a2.45,2.45,0,0,0-1.9.87v7.2C15,61.17,14.9,61.22,14.78,61.22Z"/><path class="cls-2" d="M39.72,46.66,35.69,62c0,.06-.06.08-.15.08h-1.8c-.08,0-.11,0-.1-.14l4-15.35a.13.13,0,0,1,.13-.08h1.82C39.71,46.54,39.75,46.58,39.72,46.66Z"/><path class="cls-2" d="M51.53,53.53a4.51,4.51,0,0,0-2.42-.72,1.68,1.68,0,0,0-1.06.27.8.8,0,0,0-.35.64.89.89,0,0,0,.29.65,4.5,4.5,0,0,0,1.22.65,6.56,6.56,0,0,1,2.41,1.4,2.61,2.61,0,0,1,.7,1.89,2.75,2.75,0,0,1-1.07,2.26,4.47,4.47,0,0,1-2.88.86,6,6,0,0,1-3-.66.2.2,0,0,1-.13-.21V58.64a.11.11,0,0,1,.06-.11s.06,0,.09,0a4.73,4.73,0,0,0,2.87,1,2,2,0,0,0,1.11-.26.79.79,0,0,0,.38-.67,1,1,0,0,0-.31-.74,3.9,3.9,0,0,0-1.22-.65,5.87,5.87,0,0,1-2.3-1.37A2.67,2.67,0,0,1,45.28,54a2.78,2.78,0,0,1,1-2.16A4,4,0,0,1,49,51a5.94,5.94,0,0,1,2.58.45.29.29,0,0,1,.11.27v1.72C51.72,53.57,51.65,53.61,51.53,53.53Z"/></g></g></svg>