<svg xmlns="http://www.w3.org/2000/svg" xmlns:xlink="http://www.w3.org/1999/xlink" viewBox="0 0 391.2 391.2"><defs><style>.cls-1{isolation:isolate;}.cls-2{fill:url(#Degradado_sin_nombre_46);}.cls-3{fill:url(#Degradado_sin_nombre_28);}.cls-4{opacity:0.95;}.cls-5{fill:#ef7d2d;}.cls-6{fill:#fff;}.cls-7{opacity:0.33;mix-blend-mode:multiply;}.cls-8{fill:url(#Degradado_sin_nombre_33);}</style><linearGradient id="Degradado_sin_nombre_46" x1="57.03" y1="334.53" x2="333.65" y2="57.91" gradientTransform="translate(196.22 -81.28) rotate(45)" gradientUnits="userSpaceOnUse"><stop offset="0" stop-color="#4d4d4d"/><stop offset="1"/></linearGradient><linearGradient id="Degradado_sin_nombre_28" x1="129.93" y1="375.95" x2="260.76" y2="16.5" gradientTransform="translate(391.82 0.26) rotate(90)" gradientUnits="userSpaceOnUse"><stop offset="0"/><stop offset="0.99" stop-color="#4d4d4d"/></linearGradient><radialGradient id="Degradado_sin_nombre_33" cx="195.34" cy="196.22" r="192.65" gradientTransform="translate(391.82 0.26) rotate(90)" gradientUnits="userSpaceOnUse"><stop offset="0.79" stop-color="#4d4d4d" stop-opacity="0"/><stop offset="1"/></radialGradient></defs><g class="cls-1"><g id="Capa_2" data-name="Capa 2"><g id="Capa_1-2" data-name="Capa 1"><circle class="cls-2" cx="195.6" cy="195.6" r="195.6"/><ellipse class="cls-3" cx="195.6" cy="195.6" rx="190.76" ry="194.52" transform="translate(-81.02 195.6) rotate(-45)"/><g class="cls-4"><rect class="cls-5" x="238.24" y="190.61" width="47.94" height="141.82" transform="translate(-108.12 261.47) rotate(-44.92)"/><path class="cls-6" d="M220.49,270.39c-53.65,18.39-103.79-22.62-103.79-74.17a78.65,78.65,0,0,1,157.29,0,75.19,75.19,0,0,1-3.76,22.68l43,43.14.93-1.7C325.34,239.78,331,218.19,331,196.22c0-74.81-60.85-135.67-135.67-135.67S59.67,121.41,59.67,196.22,120.52,331.9,195.34,331.9c22.46,0,44.4-5.87,65.23-17.44l2.48-1.38Z"/></g><g class="cls-7"><ellipse class="cls-8" cx="195.6" cy="195.6" rx="190.76" ry="194.52" transform="translate(-81.02 195.6) rotate(-45)"/></g></g></g></g></svg>