<svg xmlns="http://www.w3.org/2000/svg" xmlns:xlink="http://www.w3.org/1999/xlink" viewBox="0 0 80.22 80.22"><defs><style>.cls-1{fill:url(#Degradado_sin_nombre_47);}.cls-2{fill:#ef7d2d;}</style><linearGradient id="Degradado_sin_nombre_47" x1="32.52" y1="83.17" x2="47.7" y2="-2.95" gradientUnits="userSpaceOnUse"><stop offset="0" stop-color="#b3b3b3"/><stop offset="1" stop-color="#f2f2f2"/></linearGradient></defs><g id="Capa_2" data-name="Capa 2"><g id="Capa_1-2" data-name="Capa 1"><rect class="cls-1" width="80.22" height="80.22" rx="17.31"/><polygon class="cls-2" points="47.78 39.34 47.4 38.96 39.32 47.02 61.49 69.25 61.68 69.44 69.76 61.39 47.78 39.34"/><path d="M44.59,55.82a16.06,16.06,0,0,1-14-2.26A16.45,16.45,0,1,1,56.55,40.11,14.79,14.79,0,0,1,56,44L66.18,54.28l0-.08a29.23,29.23,0,0,0,3.7-14.09A29.81,29.81,0,1,0,40.11,69.92a29.3,29.3,0,0,0,14.34-3.83l.24-.14Z"/></g></g></svg>