<svg xmlns="http://www.w3.org/2000/svg" xmlns:xlink="http://www.w3.org/1999/xlink" viewBox="0 0 84.52 84.52"><defs><style>.cls-1{fill:url(#Degradado_sin_nombre_26);}.cls-2{fill:url(#Degradado_sin_nombre_14);}.cls-3{fill:#ef7d2d;}.cls-4{fill:#fff;}</style><linearGradient id="Degradado_sin_nombre_26" x2="84.52" y2="84.52" gradientUnits="userSpaceOnUse"><stop offset="0" stop-color="#c6c6c6"/><stop offset="0.23" stop-color="#928f8d"/><stop offset="0.49" stop-color="#5d5653"/><stop offset="0.72" stop-color="#362c28"/><stop offset="0.9" stop-color="#1e120e"/><stop offset="1" stop-color="#150904"/></linearGradient><linearGradient id="Degradado_sin_nombre_14" x2="84.52" y2="84.52" gradientUnits="userSpaceOnUse"><stop offset="0" stop-color="#fffcc9"/><stop offset="1" stop-color="#ff6734"/></linearGradient></defs><g id="Capa_2" data-name="Capa 2"><g id="Capa_1-2" data-name="Capa 1"><rect class="cls-1" width="84.52" height="84.52"/><path class="cls-2" d="M80.52,4V80.52H4V4H80.52m4-4H0V84.52H84.52V0Z"/><polygon class="cls-3" points="49.93 41.49 49.55 41.11 41.47 49.17 63.65 71.41 63.83 71.59 71.92 63.54 49.93 41.49"/><path class="cls-4" d="M46.74,58a16,16,0,0,1-14-2.26A16.45,16.45,0,1,1,58.7,42.26a15.17,15.17,0,0,1-.57,3.93l10.2,10.24,0-.08a29.33,29.33,0,0,0,3.69-14.09A29.81,29.81,0,1,0,42.26,72.07,29.2,29.2,0,0,0,56.6,68.24l.25-.13Z"/></g></g></svg>