<svg xmlns="http://www.w3.org/2000/svg" viewBox="0 0 16 16"><defs><style>.cls-1{fill:#fff;}</style></defs><g id="Capa_2" data-name="Capa 2"><g id="Capa_1-2" data-name="Capa 1"><path class="cls-1" d="M8,0A8,8,0,1,1,0,8,8,8,0,0,1,8,0ZM4.69,7.17a1.27,1.27,0,0,1,.18-.06.5.5,0,0,1,.21,0,1.35,1.35,0,0,0,.77.09c.06,0,.1,0,.12.07a.33.33,0,0,0,.11.19c.09.07.23.09.28.22s0,0,0,0a1.27,1.27,0,0,1,.47.13.5.5,0,0,1,.29.24c.06.11.1.23.16.34a.27.27,0,0,0,.11.1l.51.25a.92.92,0,0,0,.28.09,1.88,1.88,0,0,1,.72.25.34.34,0,0,1,.15.51,2.48,2.48,0,0,1-.26.4.64.64,0,0,0-.15.38,5.21,5.21,0,0,1-.08.55.4.4,0,0,1-.38.35.69.69,0,0,0-.45.2.32.32,0,0,0-.08.14L7.6,12a2.25,2.25,0,0,1-.08.24l-.1.14s-.09.07-.1.12a.31.31,0,0,1-.3.27.15.15,0,0,0-.14.18c0,.13,0,.18-.12.24a.72.72,0,0,0-.44.36H6.19l0,.08a.51.51,0,0,1,0,.17.71.71,0,0,1-.08.18c0,.11,0,.15,0,.22s.14.14,0,.28l0,.06a.15.15,0,0,0,0,.19.36.36,0,0,1,.14.18.32.32,0,0,0,.1.1l.08.1a.23.23,0,0,0,.1.07,7.29,7.29,0,0,0,6.92-2.47l.06-.08c-.2,0-.35,0-.39-.23a2.26,2.26,0,0,0-.3-.65,1,1,0,0,1-.08-.18c-.11-.3-.23-.6-.33-.91a.48.48,0,0,1,0-.24c0-.14.05-.26.08-.39a.92.92,0,0,0-.11-.69c-.1-.15-.18-.3-.28-.44a.49.49,0,0,1-.07-.47.88.88,0,0,0,0-.17A.19.19,0,0,0,11.9,8,.27.27,0,0,1,11.63,8c-.12-.14-.18-.16-.35-.08s-.32.18-.52.13h0l-.39.09h-.12a.77.77,0,0,1-.47-.4.54.54,0,0,0-.22-.23.27.27,0,0,1-.17-.21,3.49,3.49,0,0,1,0-.46s0-.1,0-.15,0-.3,0-.45a.25.25,0,0,1,0-.15c0-.1.08-.19.13-.29a2.5,2.5,0,0,1,.21-.35,0,0,0,0,1,0,0c.09,0,.13-.07.17-.14l.35-.6c.13-.22.13-.21-.07-.36a.31.31,0,0,1-.11-.31c0-.13,0-.26,0-.38a.16.16,0,0,1,.11-.1s.1,0,.16,0a1.31,1.31,0,0,0,.28,0c.18,0,.23-.18.12-.32l-.07-.08c-.06-.06-.14-.13,0-.21a0,0,0,0,0,0,0c0-.07.07-.09.14-.06a.11.11,0,0,0,.11,0c.14-.14.33-.22.42-.42a.13.13,0,0,1,.1-.06c.16,0,.2,0,.19-.2a.46.46,0,0,1,0-.17s.1-.06.14-.09A7.26,7.26,0,0,0,7.71.74c0,.06,0,.13,0,.17a1.26,1.26,0,0,1-.2.2l-.17,0A.34.34,0,0,1,7,.87.09.09,0,0,0,6.86.81a7.35,7.35,0,0,0-2.18.72l-.09.05.13,0L5,1.68a.33.33,0,0,1,.24.43.4.4,0,0,0,0,.11l0,0,.13-.17a.87.87,0,0,1,.34-.32A.36.36,0,0,0,6,1.54a2.53,2.53,0,0,1,.12-.23,1,1,0,0,1,.15-.21.41.41,0,0,1,.63.14,1.24,1.24,0,0,0,.1.2.15.15,0,0,0,.21,0l.14-.08c.12-.07.19,0,.21.11a.46.46,0,0,0,.27.41.15.15,0,0,1,.07.21.5.5,0,0,1-.58.34.4.4,0,0,0-.32,0,.13.13,0,0,1-.11,0l-.14-.07a.15.15,0,0,0-.21.07l.14,0a.08.08,0,0,1,.07.11c-.05.12,0,.15.09.2l.08,0c-.05,0-.08.11-.12.12a.74.74,0,0,0-.3.13s-.09,0-.09,0-.15-.07-.24,0l-.08,0-.26.1a.21.21,0,0,0,0,.12c0,.1,0,.13-.12.15l-.36.06a.24.24,0,0,0-.08.06A2.23,2.23,0,0,1,5,3.88c-.11.07-.1.22-.23.28a1.3,1.3,0,0,0-.31.21l-.3.16A.27.27,0,0,0,4,4.79a2.26,2.26,0,0,1,0,.45s-.05.08-.08.12-.09-.08-.1-.12a2.23,2.23,0,0,1,0-.23.19.19,0,0,0-.2-.19l-.41,0-.1,0a.55.55,0,0,1-.17,0H2.46A.58.58,0,0,0,2,5.16a1,1,0,0,0-.11.66.74.74,0,0,0,.1.27.24.24,0,0,0,.36.09A1,1,0,0,0,2.56,6c.17-.14.33-.25.55-.15l.1.05s0,.08-.07.09c-.19.07-.24.26-.33.41s0,.12.06.12l.21,0c.13,0,.2,0,.19.16a2.48,2.48,0,0,1,0,.27.37.37,0,0,0,.49.39.19.19,0,0,1,.19,0c.1.08.15.07.23,0l.09-.12a.75.75,0,0,1,.17-.1,1.1,1.1,0,0,1,.26,0v0ZM1,6.15A7.29,7.29,0,0,0,5.88,15a.23.23,0,0,0-.07-.07,1.18,1.18,0,0,1-.38-.39c0-.08-.07-.15,0-.23s0-.13,0-.12-.11-.08-.09-.16,0-.05,0-.06,0-.11,0-.15a.54.54,0,0,1-.17-.41.71.71,0,0,0-.06-.26A.88.88,0,0,1,5,12.66L4.91,10.9a.38.38,0,0,0-.2-.35l-.32-.16a.37.37,0,0,1-.15-.13c-.11-.16-.22-.32-.32-.49l-.38-.63a.23.23,0,0,1,0-.24.63.63,0,0,0,0-.19.52.52,0,0,1,.26-.54A.28.28,0,0,0,4,7.85a1.16,1.16,0,0,0,0-.18,1.83,1.83,0,0,1-.13-.24c0-.07-.08-.06-.12,0a.34.34,0,0,0-.08.09c-.07.08-.12.07-.17,0a.09.09,0,0,0-.12-.06.13.13,0,0,1-.09,0s-.1-.11-.16-.16S3,7.18,3,7.11s0-.05,0-.06l-.22-.21a.33.33,0,0,0-.24-.12.73.73,0,0,1-.24-.07l-.13-.1a.3.3,0,0,0-.3-.07.17.17,0,0,1-.12,0,1.9,1.9,0,0,1-.68-.27Zm9.61-1.76c.11,0,.21.06.3,0A.39.39,0,0,1,11,4.27a1.86,1.86,0,0,1,.7-.1.6.6,0,0,0,.23,0c.09,0,.12,0,.11.1a.28.28,0,0,1,0,.13.2.2,0,0,0,.22.24.19.19,0,0,1,.19,0,1.43,1.43,0,0,0,.24.16c.13.07.22,0,.29-.1l0-.07c0-.07.09-.11.17-.08a.34.34,0,0,1,.14,0,1.31,1.31,0,0,0,.91.15.55.55,0,0,0,.19-.12.11.11,0,0,0,0-.1c-.06-.12-.13-.24-.2-.36a.09.09,0,0,0-.07,0l-.41,0a.32.32,0,0,1-.29-.3c0-.09-.08-.07-.13-.09s-.06,0-.06,0A2,2,0,0,0,13.2,4a.06.06,0,0,1-.11,0,.7.7,0,0,1-.23-.35.64.64,0,0,0-.06-.18s-.07-.08-.1-.08c-.2,0-.32-.18-.47-.28l-.1-.05c0,.05-.05.11,0,.14a.52.52,0,0,0,.15.18c.08.06.17.1.24.16a.35.35,0,0,1,.08.13.15.15,0,0,1,0,.09.11.11,0,0,1-.09,0l-.14-.1-.41-.32a.2.2,0,0,0-.25,0c-.08,0-.18.07-.26.12s-.14.08-.16.14a1.4,1.4,0,0,1-.31.44C10.8,4.2,10.68,4.29,10.57,4.39Z"/></g></g></svg>