<svg xmlns="http://www.w3.org/2000/svg" viewBox="0 0 89.97 33.34"><defs><style>.cls-1{fill:#fff;}.cls-2{fill:#ef7d2d;}</style></defs><g id="Capa_2" data-name="Capa 2"><g id="Capa_1-2" data-name="Capa 1"><path class="cls-1" d="M3.73,29.6A12.39,12.39,0,0,1,0,20.54a12.19,12.19,0,0,1,3.78-8.95,12.49,12.49,0,0,1,9.08-3.72,12.14,12.14,0,0,1,5.59,1.29,10.61,10.61,0,0,1,2,1.33V0h5.45V18.92c0,5.77-1.32,7.66-2.92,9.63a12.85,12.85,0,0,1-10.22,4.79h0A12.43,12.43,0,0,1,3.73,29.6ZM9.31,14.09a7.22,7.22,0,0,0-2.78,2.76,7.41,7.41,0,0,0,0,7.57,7.55,7.55,0,0,0,2.77,2.81,7.36,7.36,0,0,0,3.73,1,7.91,7.91,0,0,0,3.85-1,6.83,6.83,0,0,0,2.75-2.68,7.34,7.34,0,0,0,1-3.84,7.29,7.29,0,0,0-2.18-5.45,7.39,7.39,0,0,0-5.38-2.16A7.46,7.46,0,0,0,9.31,14.09Z"/><path class="cls-1" d="M57.21,32.59v-12c0-4.06-1.13-7.14-4.35-7.14-3.67,0-5.42,2.65-5.42,7.34v11.8H42V20.67c0-4.57-1.34-7.22-5.14-7.22-3.54,0-4.65,3.21-4.65,7.61V32.59H26.7V22.19c0-4.59.31-6.66,1.5-9a10.18,10.18,0,0,1,8.88-5,12,12,0,0,1,4,.71,7.91,7.91,0,0,1,2.84,2,7.15,7.15,0,0,1,.89,1.21,10.12,10.12,0,0,1,8-3.91c2.89,0,4.42.44,5.82,1.35a8.08,8.08,0,0,1,3.12,3.75,17.64,17.64,0,0,1,1,6.63V32.59Z"/><polygon class="cls-2" points="86.59 33.32 76.74 23.72 80.1 20.43 89.97 30.05 86.59 33.32"/><path class="cls-1" d="M67.35,29.41a12.4,12.4,0,0,1-3.6-8.84,12.3,12.3,0,0,1,3.42-8.71,13,13,0,0,1,22.52,8.71,12.15,12.15,0,0,1-.77,4.21l-.72,1.86-4.32-4.19.16-.69a6.34,6.34,0,0,0,.14-1.14A7.22,7.22,0,0,0,82,15.25a7.33,7.33,0,0,0-10.47,0,7.23,7.23,0,0,0-2.22,5.39,7.33,7.33,0,0,0,1,3.78A6.82,6.82,0,0,0,73,27.09a7.47,7.47,0,0,0,3.76.94,7.09,7.09,0,0,0,1.64-.21l.69-.17,4.19,4.08-1.87.69a13.47,13.47,0,0,1-4.65.81h-.06A12.42,12.42,0,0,1,67.35,29.41Z"/></g></g></svg>