<svg id="Capa_1" data-name="Capa 1" xmlns="http://www.w3.org/2000/svg" viewBox="0 0 273.84 56.73"><defs><style>.cls-1{fill:none;stroke:#fff;stroke-miterlimit:10;stroke-width:1.42px;}.cls-2{fill:#fff;}.cls-3{fill:#ef7d2d;}</style></defs><line class="cls-1" x1="160.66" y1="56.73" x2="160.66" y2="14.4"/><path class="cls-2" d="M35.09,0V18a20.26,20.26,0,0,0-13.76-5.15A20.28,20.28,0,0,0,6.21,19.35,21.94,21.94,0,0,0,0,34.84a21,21,0,0,0,6.47,15.5A21.21,21.21,0,0,0,22,56.73a21.31,21.31,0,0,0,15.59-6.39A21,21,0,0,0,44,34.84V0ZM22,47.86A13,13,0,0,1,9,34.84a12.37,12.37,0,0,1,3.8-9.16A12.43,12.43,0,0,1,22,21.81a12.53,12.53,0,0,1,9.23,3.87v0a12.15,12.15,0,0,1,3.87,9.14,12.45,12.45,0,0,1-3.87,9.21A12.7,12.7,0,0,1,22,47.86Z"/><path class="cls-2" d="M86.8,12.56a15.61,15.61,0,0,0-12,5.14,15.91,15.91,0,0,0-12.12-5.14c-10.52,0-16.81,8.36-16.81,22.38V55.19h9.12V34.94c0-11.83,3.89-13.43,7.69-13.43,4,0,7.61,1,7.61,13.43V55.19h9V34.94c0-12.42,3.45-13.43,7.61-13.43,4,0,7.69,1.63,7.69,13.43V55.19h9.12V34.94C103.61,14.74,91.85,12.56,86.8,12.56Z"/><rect class="cls-3" x="134.22" y="33.92" width="7.74" height="22.9" transform="translate(8.27 110.75) rotate(-44.92)"/><path class="cls-2" d="M131.36,46.8a12.66,12.66,0,1,1,8.64-12,12.14,12.14,0,0,1-.61,3.66l7,7,.14-.27a21.46,21.46,0,0,0,2.72-10.35,21.91,21.91,0,1,0-21.9,21.9,21.48,21.48,0,0,0,10.53-2.81l.4-.23Z"/><path class="cls-2" d="M175,14.55c0-.1.06-.15.14-.15h3c.11,0,.18,0,.19.15s.49,1.53,1.28,3.9,1.45,4.43,2,6.18.9,2.93,1.05,3.55h0c.17-.59.56-1.81,1.17-3.67s1.28-3.82,2-5.92l1.36-4a.23.23,0,0,1,.2-.15h2.84a.15.15,0,0,1,.17.12l.84,16.35q0,.15-.15.15h-2c-.11,0-.17-.05-.17-.15q-.45-11.21-.45-14.89h0c-.18.64-.59,1.95-1.22,3.92l-2.1,6.41q-1.15,3.45-1.5,4.56a.18.18,0,0,1-.19.15H181.6a.26.26,0,0,1-.25-.15q-3.87-12.23-4.59-14.94h0q0,4-.66,14.94,0,.15-.18.15h-1.82a.13.13,0,0,1-.15-.15Z"/><path class="cls-2" d="M202.34,25.27h-5.28a4.21,4.21,0,0,0,1,3.06,3.86,3.86,0,0,0,3,1.16,6.78,6.78,0,0,0,3.07-.64c.09-.07.14,0,.14.1v1.36a.21.21,0,0,1-.12.22,7.65,7.65,0,0,1-3.53.74,5.33,5.33,0,0,1-4.43-1.77,6.66,6.66,0,0,1-1.42-4.33,6.8,6.8,0,0,1,1.49-4.5,5,5,0,0,1,4-1.8,4.38,4.38,0,0,1,3.64,1.5,5.24,5.24,0,0,1,1.2,3.39,7.3,7.3,0,0,1-.08,1.24.22.22,0,0,1-.19.19A24.4,24.4,0,0,1,202.34,25.27Zm-5.28-1.46h4.39a12,12,0,0,0,1.56,0,1.45,1.45,0,0,0,0-.39,3.41,3.41,0,0,0-.66-2,2.48,2.48,0,0,0-2.16-.92,2.7,2.7,0,0,0-2.2,1A4.5,4.5,0,0,0,197.06,23.81Z"/><path class="cls-2" d="M214.37,31.27A6.27,6.27,0,0,1,210,29.69a5.85,5.85,0,0,1-1.7-4.52,6,6,0,0,1,1.82-4.53,6.53,6.53,0,0,1,4.74-1.77,5.66,5.66,0,0,1,1.93.25v-6a.13.13,0,0,1,.15-.15h2q.12,0,.12.15V28.72c0,.42,0,.84,0,1.26,0,.09,0,.15-.12.2A9.35,9.35,0,0,1,214.37,31.27Zm2.37-2.13V20.92a3.87,3.87,0,0,0-2-.42,4,4,0,0,0-3.12,1.26,4.7,4.7,0,0,0-1.15,3.31,4.36,4.36,0,0,0,1.2,3.36,4.05,4.05,0,0,0,2.87,1.11A4.49,4.49,0,0,0,216.74,29.14Z"/><path class="cls-2" d="M224.45,16.45a1.25,1.25,0,0,1-.92-.34,1.26,1.26,0,0,1-.34-.92,1.23,1.23,0,0,1,.35-.91,1.29,1.29,0,0,1,.93-.35,1.15,1.15,0,0,1,.89.35,1.29,1.29,0,0,1,.32.91,1.23,1.23,0,0,1-.35.92A1.18,1.18,0,0,1,224.45,16.45Zm-1.14,14.37V19.29a.15.15,0,0,1,.17-.17h1.9q.18,0,.18.15V30.85c0,.11-.06.17-.18.17h-1.87A.18.18,0,0,1,223.31,30.82Z"/><path class="cls-2" d="M238.15,29.14v1.44c0,.1,0,.16-.1.19a6.67,6.67,0,0,1-2.81.5,5.7,5.7,0,0,1-4.46-1.74,6.32,6.32,0,0,1-1.57-4.41A6.05,6.05,0,0,1,231,20.64a6.19,6.19,0,0,1,4.58-1.77,5.72,5.72,0,0,1,2.49.4.31.31,0,0,1,.13.22l0,1.48c0,.12-.06.15-.17.1a5.12,5.12,0,0,0-2.32-.49,3.93,3.93,0,0,0-3,1.23,4.62,4.62,0,0,0-1.13,3.24,4.39,4.39,0,0,0,1.2,3.29,4.07,4.07,0,0,0,2.95,1.18,5.21,5.21,0,0,0,2.34-.47C238.1,29,238.15,29.05,238.15,29.14Z"/><path class="cls-2" d="M242.87,16.45a1.19,1.19,0,0,1-1.26-1.26,1.2,1.2,0,0,1,.36-.91,1.28,1.28,0,0,1,.92-.35,1.15,1.15,0,0,1,.89.35,1.43,1.43,0,0,1,0,1.83A1.21,1.21,0,0,1,242.87,16.45Zm-1.14,14.37V19.29c0-.11.06-.17.18-.17h1.9c.11,0,.17.05.17.15V30.85a.15.15,0,0,1-.17.17h-1.88A.18.18,0,0,1,241.73,30.82Z"/><path class="cls-2" d="M253.51,18.87a5.39,5.39,0,0,1,4.19,1.73,6.38,6.38,0,0,1,1.57,4.45,6.32,6.32,0,0,1-1.61,4.53,5.51,5.51,0,0,1-4.17,1.69,5.29,5.29,0,0,1-4.34-1.83,6.71,6.71,0,0,1-1.49-4.37,6.28,6.28,0,0,1,1.63-4.45A5.53,5.53,0,0,1,253.51,18.87Zm-.1,1.63a3.09,3.09,0,0,0-2.54,1.22,5.22,5.22,0,0,0-1,3.3,5.39,5.39,0,0,0,1,3.33,3.3,3.3,0,0,0,5.12.14,4.94,4.94,0,0,0,1-3.4,5.56,5.56,0,0,0-.91-3.29A3.08,3.08,0,0,0,253.41,20.5ZM252,16.87l2.54-3.51a.24.24,0,0,1,.22-.17h2.13c.13,0,.17.07.12.2l-2.94,3.51c0,.08-.11.12-.25.12h-1.72C252,17,252,17,252,16.87Z"/><path class="cls-2" d="M262.9,30.85V21.91c0-1.2,0-2.08-.1-2.64a.13.13,0,0,1,.15-.15h1.68a.21.21,0,0,1,.22.15A6.28,6.28,0,0,1,265,20.5a5.15,5.15,0,0,1,3.78-1.63,4.54,4.54,0,0,1,1.39.21,3.83,3.83,0,0,1,1.28.72,3.32,3.32,0,0,1,1,1.49,6.69,6.69,0,0,1,.38,2.37v7.19c0,.11-.06.17-.18.17h-1.87c-.12,0-.18-.06-.18-.2V23.66a3.45,3.45,0,0,0-.64-2.18,2.22,2.22,0,0,0-1.85-.83,3.72,3.72,0,0,0-3,1.53v8.67A.15.15,0,0,1,265,31h-1.88A.15.15,0,0,1,262.9,30.85Z"/><path class="cls-2" d="M177.62,43h2.72c.11,0,.17.07.17.22v4.62h4.42c.13,0,.2.08.2.25v2.49c0,.13-.07.2-.22.2h-4.4v4.74c0,.1-.06.15-.2.15h-2.69a.15.15,0,0,1-.17-.17V50.73h-4.37c-.18,0-.27-.07-.27-.22V48c0-.11.07-.17.22-.17h4.42V43.12C177.47,43,177.52,43,177.62,43Z"/><path class="cls-2" d="M204.57,52.09v3.16a.31.31,0,0,1-.23.32,10.43,10.43,0,0,1-3.26.4,9.38,9.38,0,0,1-6.42-2.15,7.7,7.7,0,0,1-2.44-6.1,7.67,7.67,0,0,1,2.53-6,9.38,9.38,0,0,1,6.56-2.29,9.62,9.62,0,0,1,3.21.4.32.32,0,0,1,.19.34v3.14c0,.2-.08.26-.24.2a7.9,7.9,0,0,0-3-.47A5.07,5.07,0,0,0,198,44.21a4.28,4.28,0,0,0-1.29,3.36,4.2,4.2,0,0,0,1.47,3.58,5.91,5.91,0,0,0,3.67,1.11,9.78,9.78,0,0,0,2.54-.3C204.49,51.91,204.57,52,204.57,52.09Z"/><path class="cls-2" d="M212.39,43.1a6,6,0,0,1,4.7,1.86,6.55,6.55,0,0,1,1.65,4.49A6.09,6.09,0,0,1,212.3,56a6.09,6.09,0,0,1-4.81-1.87,6.67,6.67,0,0,1-1.64-4.56,6.31,6.31,0,0,1,1.8-4.63A6.38,6.38,0,0,1,212.39,43.1Zm-.12,3.31a1.73,1.73,0,0,0-1.49.8,4,4,0,0,0-.56,2.26,4,4,0,0,0,.58,2.33,1.81,1.81,0,0,0,1.57.86,1.7,1.7,0,0,0,1.48-.81,4.11,4.11,0,0,0,.54-2.31,4.19,4.19,0,0,0-.54-2.29A1.77,1.77,0,0,0,212.27,46.41Z"/><path class="cls-2" d="M220.82,55.45V46.23c0-.95,0-1.84-.1-2.66,0-.17,0-.25.17-.25h3.26a.43.43,0,0,1,.42.22,3.15,3.15,0,0,1,.2.67,5.58,5.58,0,0,1,3.4-1.11,4.27,4.27,0,0,1,3,1.2,5.13,5.13,0,0,1,1.27,3.89v7.26a.24.24,0,0,1-.27.27h-3.75q-.3,0-.3-.27V48.26c0-1.14-.5-1.7-1.51-1.7a2.47,2.47,0,0,0-1.53.56v8.35c0,.17-.08.25-.24.25h-3.81Q220.82,55.72,220.82,55.45Z"/><path class="cls-2" d="M241.93,52.75v2.42a.37.37,0,0,1-.22.38,6.36,6.36,0,0,1-2.52.42c-2.5,0-3.76-1.25-3.76-3.73V46.65H234c-.13,0-.19-.09-.19-.24V43.57c0-.17.08-.25.24-.25h1.41c.16-1.73.26-2.68.3-2.86s.11-.26.24-.28l3.68-.44c.13,0,.2,0,.2.17,0,.78-.09,1.91-.12,3.41h2c.15,0,.22.07.22.2v2.94a.17.17,0,0,1-.19.19h-2.05V51.2a1.79,1.79,0,0,0,.26,1.13,1.17,1.17,0,0,0,1,.33,4.43,4.43,0,0,0,.72-.1C241.86,52.52,241.93,52.59,241.93,52.75Z"/><path class="cls-2" d="M244,43.32h3.36a.35.35,0,0,1,.34.27,5.11,5.11,0,0,1,.32,1.58,5.07,5.07,0,0,1,1.75-1.48A5,5,0,0,1,252,43.1a.2.2,0,0,1,.22.22V47.2c0,.16-.08.24-.25.24a6.33,6.33,0,0,0-2.15.28,3.77,3.77,0,0,0-1.63.89v6.86c0,.17-.08.25-.24.25h-3.78a.24.24,0,0,1-.27-.27V47c0-1.26,0-2.43-.13-3.54C243.78,43.38,243.85,43.32,244,43.32Z"/><path class="cls-2" d="M259.83,43.1a6,6,0,0,1,4.7,1.86,6.55,6.55,0,0,1,1.65,4.49A6.09,6.09,0,0,1,259.73,56a6.08,6.08,0,0,1-4.8-1.87,6.67,6.67,0,0,1-1.64-4.56,6.31,6.31,0,0,1,1.8-4.63A6.38,6.38,0,0,1,259.83,43.1Zm-.12,3.31a1.73,1.73,0,0,0-1.49.8,4,4,0,0,0-.56,2.26,4,4,0,0,0,.58,2.33,1.81,1.81,0,0,0,1.57.86,1.7,1.7,0,0,0,1.48-.81,4.11,4.11,0,0,0,.54-2.31,4.19,4.19,0,0,0-.54-2.29A1.77,1.77,0,0,0,259.71,46.41Z"/><path class="cls-2" d="M268.25,52.38V38.63c0-.17.1-.25.28-.25h3.75c.18,0,.27.08.27.25V52c0,.47.21.7.62.7l.23,0h.29a.13.13,0,0,1,.15.15v2.54a.33.33,0,0,1-.23.32,4.55,4.55,0,0,1-2,.33,3.44,3.44,0,0,1-2.5-.83A3.72,3.72,0,0,1,268.25,52.38Z"/></svg>