<svg xmlns="http://www.w3.org/2000/svg" viewBox="0 0 11.59 16"><defs><style>.cls-1{fill:#fff;}.cls-2{fill:#ef7d2d;}</style></defs><g id="Capa_2" data-name="Capa 2"><g id="Capa_1-2" data-name="Capa 1"><path class="cls-1" d="M5.79,0A5.8,5.8,0,0,0,0,5.79c0,4,5.19,9.79,5.41,10a.52.52,0,0,0,.77,0c.22-.25,5.41-6.07,5.41-10A5.8,5.8,0,0,0,5.79,0Z"/><polygon class="cls-2" points="6.89 5.65 6.84 5.6 5.64 6.79 8.93 10.09 8.96 10.11 10.15 8.92 6.89 5.65"/><path d="M6.42,8.09a2.34,2.34,0,0,1-2.07-.33,2.47,2.47,0,0,1-1-2,2.44,2.44,0,0,1,4.88,0,2.57,2.57,0,0,1-.09.58L9.62,7.87v0a4.37,4.37,0,0,0,.55-2.08,4.42,4.42,0,1,0-4.42,4.41,4.37,4.37,0,0,0,2.12-.56l0,0Z"/></g></g></svg>