<svg xmlns="http://www.w3.org/2000/svg" viewBox="0 0 16 16"><defs><style>.cls-1{fill:#fff;}</style></defs><g id="Capa_2" data-name="Capa 2"><g id="Capa_1-2" data-name="Capa 1"><path class="cls-1" d="M14.74,10.53a9.17,9.17,0,0,1-2.87-.45,1.21,1.21,0,0,0-1.25.26L8.8,11.71A10.09,10.09,0,0,1,4.29,7.2L5.62,5.43a1.26,1.26,0,0,0,.31-1.29,9.28,9.28,0,0,1-.46-2.88A1.26,1.26,0,0,0,4.21,0H1.26A1.27,1.27,0,0,0,0,1.26,14.75,14.75,0,0,0,14.74,16,1.27,1.27,0,0,0,16,14.74V11.8A1.27,1.27,0,0,0,14.74,10.53Z"/></g></g></svg>