<svg xmlns="http://www.w3.org/2000/svg" xmlns:xlink="http://www.w3.org/1999/xlink" viewBox="0 0 69.72 69.72"><defs><style>.cls-1{fill:url(#Degradado_sin_nombre_38);}.cls-2{fill:#fff;}.cls-3{fill:none;stroke:#fff;stroke-miterlimit:10;stroke-width:0.43px;}</style><linearGradient id="Degradado_sin_nombre_38" x1="28.26" y1="72.29" x2="41.46" y2="-2.57" gradientUnits="userSpaceOnUse"><stop offset="0.02" stop-color="#8f1c21"/><stop offset="1" stop-color="#ed1c24"/></linearGradient></defs><g id="Capa_2" data-name="Capa 2"><g id="Capa_1-2" data-name="Capa 1"><rect class="cls-1" width="69.72" height="69.72" rx="15"/><polygon class="cls-2" points="57.69 29.14 50.71 39.54 43.73 29.14 43.73 5.27 57.69 5.27 57.69 29.14"/><path class="cls-2" d="M57.21,34.86l-6.5,9.69-6.5-9.69H36.93V64.45H55.5a9,9,0,0,0,9-9V34.86Zm-13.34,14a26,26,0,0,0,13.67,0c.31-.09.61.19.68.61a.8.8,0,0,1-.45.92,26.44,26.44,0,0,1-14.12,0,.8.8,0,0,1-.45-.92C43.26,49,43.56,48.73,43.87,48.82Zm-2,3.66c.07-.42.38-.69.69-.6a27.48,27.48,0,0,0,16.26,0c.3-.09.61.18.68.6a.84.84,0,0,1-.43.94,28.5,28.5,0,0,1-16.76,0A.85.85,0,0,1,41.89,52.48Zm18.45,3.85a30.17,30.17,0,0,1-19.27,0,.85.85,0,0,1-.42-.95c.08-.42.38-.67.69-.58a29.29,29.29,0,0,0,18.73,0c.31-.09.62.16.69.58A.83.83,0,0,1,60.34,56.33Z"/><circle class="cls-2" cx="24.13" cy="26.01" r="5.52"/><path class="cls-2" d="M29.55,35a5.5,5.5,0,0,1-10.83,0H5.27V55.65a9,9,0,0,0,9,8.95H32.79V35Z"/><polygon class="cls-2" points="9.37 21.97 5.27 21.97 11.38 30.97 17.48 21.97 13.39 21.97 13.39 19.96 9.37 19.96 9.37 21.97"/><rect class="cls-2" x="9.37" y="17.02" width="4.01" height="2.01"/><rect class="cls-2" x="9.37" y="14.08" width="4.01" height="2.01"/><rect class="cls-2" x="9.37" y="11.14" width="4.01" height="2.01"/><rect class="cls-2" x="9.37" y="8.21" width="4.01" height="2.01"/><rect class="cls-2" x="9.37" y="5.27" width="4.01" height="2.01"/><line class="cls-3" x1="34.86" y1="64.6" x2="34.86" y2="5.27"/></g></g></svg>