<svg xmlns="http://www.w3.org/2000/svg" xmlns:xlink="http://www.w3.org/1999/xlink" viewBox="0 0 69.72 69.72"><defs><style>.cls-1{fill:url(#QS);}.cls-2{fill:#1a1a1a;}</style><linearGradient id="QS" x1="28.26" y1="72.29" x2="41.46" y2="-2.57" gradientUnits="userSpaceOnUse"><stop offset="0" stop-color="#dba234"/><stop offset="1" stop-color="#fce621"/></linearGradient></defs><g id="Capa_2" data-name="Capa 2"><g id="Capa_1-2" data-name="Capa 1"><rect class="cls-1" width="69.72" height="69.72" rx="15"/><polygon class="cls-2" points="15.15 40.97 24.16 34.86 15.15 28.75 15.15 32.85 5.6 32.85 5.6 36.86 15.15 36.86 15.15 40.97"/><polygon class="cls-2" points="54.35 28.75 45.34 34.86 54.35 40.97 54.35 36.87 63.9 36.87 63.9 32.85 54.35 32.85 54.35 28.75"/><path class="cls-2" d="M24.66,5.27V64.45H44.84V5.27ZM32.82,52a1,1,0,1,1-2,.49,75.1,75.1,0,0,1,0-35.27,1.06,1.06,0,0,1,1.27-.77,1,1,0,0,1,.77,1.26A73.07,73.07,0,0,0,32.82,52Zm3.89-2.26a1,1,0,0,1-2,.46,70.46,70.46,0,0,1,0-30.68,1,1,0,0,1,2,.45A68.88,68.88,0,0,0,36.71,49.74Zm4.09-2.37a1,1,0,0,1-2,.41,66.35,66.35,0,0,1,0-25.84,1,1,0,0,1,2,.4A64.67,64.67,0,0,0,40.8,47.37Z"/></g></g></svg>