<svg id="Capa_1" data-name="Capa 1" xmlns="http://www.w3.org/2000/svg" viewBox="0 0 16 16"><defs><style>.cls-1{fill:#fff;}</style></defs><path class="cls-1" d="M8,.7H8A7.3,7.3,0,0,0,2.09,12.28L1.18,15,4,14.09A7.18,7.18,0,0,0,8,15.3,7.3,7.3,0,0,0,8,.7ZM12.25,11a2.1,2.1,0,0,1-1.43,1c-.39.08-.88.14-2.56-.55A9.12,9.12,0,0,1,4.63,8.28a4.08,4.08,0,0,1-.87-2.2A2.32,2.32,0,0,1,4.51,4.3,1,1,0,0,1,5.25,4H5.5c.21,0,.32,0,.46.36S6.57,5.88,6.62,6a.44.44,0,0,1,0,.39,1.31,1.31,0,0,1-.24.34l-.32.35c-.1.12-.21.24-.08.45A6.5,6.5,0,0,0,7.19,9,5.58,5.58,0,0,0,8.9,10.05.47.47,0,0,0,9.42,10c.16-.18.36-.47.57-.76a.4.4,0,0,1,.52-.15c.2.06,1.24.58,1.46.69s.35.15.4.25A1.86,1.86,0,0,1,12.25,11Z"/></svg>